<svg width="100" height="100" viewBox="0 0 600 600" fill="none" xmlns="http://www.w3.org/2000/svg">
<path d="M528.085 423.748C530.517 424.906 531.457 427.28 530.793 429.984C530.13 432.688 528.085 434.068 525.431 434.343C523.552 434.509 521.506 434.564 519.682 434.178C507.853 431.529 496.299 428.052 484.912 423.913C478.002 421.375 470.927 419.608 463.464 418.229C463.353 420.933 465.122 421.982 466.504 423.14C473.469 429.046 477.56 436.385 479.218 445.436C480.711 453.659 478.776 460.226 472.474 465.69C469.71 468.118 467.112 470.767 464.68 473.526C461.529 477.003 460.866 480.866 463.409 485.116C464.293 486.606 465.012 488.261 465.675 489.862C465.952 490.524 465.841 491.297 465.233 491.793C464.625 492.235 463.906 492.125 463.353 491.628C463.077 491.407 462.801 491.186 462.58 490.91C453.846 481.418 442.292 477.5 430.242 474.685C425.267 473.526 420.236 472.919 415.151 472.864C407.577 472.754 400.225 471.098 392.873 469.111C390.496 468.504 388.119 467.842 385.687 467.401C381.431 466.628 377.672 467.29 373.858 469.994C358.656 480.59 341.851 488.096 324.438 494.222C323.278 494.608 322.061 494.939 320.956 495.436C309.292 500.679 297.131 500.679 284.804 499.023C281.321 498.581 277.783 498.692 274.301 498.581C266.285 498.361 258.712 496.595 251.526 492.897C239.033 486.385 227.756 478.052 215.927 470.491C204.926 463.482 197.408 453.549 190.664 442.787C188.011 438.538 188.066 438.648 183.368 439.697C177.287 441.076 171.151 440.138 165.071 439.421C162.638 439.145 160.317 438.924 157.774 439.2C154.07 439.641 150.477 438.207 147.105 436.827C131.682 430.701 119.797 420.381 110.234 406.75C102.716 396.099 96.6357 384.73 90.5551 373.306C86.8514 366.298 85.1931 358.516 82.4844 351.121C78.0621 338.759 75.1324 325.901 72.5343 313.042C71.0418 305.536 70.2679 297.81 69.3834 290.194C67.1723 271.541 74.856 255.923 83.9216 240.857C91.6054 228.109 101.666 217.458 114.822 209.952C119.245 207.413 123.169 204.102 127.481 201.453C133.451 197.811 139.919 196.045 146.994 196.762C151.085 197.204 155.12 196.321 158.935 195.162C168.94 192.071 179.167 191.078 189.504 190.581C195.142 190.305 193.871 188.263 191.715 185.228C190.499 183.573 188.84 182.193 187.293 180.758C185.081 178.661 183.368 176.288 183.202 173.087C182.981 169.334 184.75 166.961 188.509 166.575C193.484 166.023 198.182 166.244 202.383 169.831C206.751 173.584 208.022 177.336 206.032 182.8C203.987 188.319 204.042 188.374 209.791 188.098C214.324 187.877 218.912 187.712 223.445 187.546C225.379 187.491 227.259 187.381 228.972 186.166C232.676 183.462 236.269 180.648 240.415 178.661C242.295 177.778 242.239 176.122 241.023 174.743C237.817 171.155 238.038 166.74 237.762 162.381C236.877 148.86 240.47 136.332 245.667 124.191C249.315 115.582 255.009 108.683 263.522 104.268C267.944 101.951 272.808 101.012 277.562 100.129C282.15 99.2464 287.015 102.999 288.894 107.8C290 110.67 289.834 113.65 289.945 116.63C290.111 121.873 289.558 127.171 290.94 132.304C291.879 135.725 293.206 138.926 296.081 141.244C299.342 143.838 300.613 147.922 303.156 150.902C310.619 159.676 315.096 170.272 321.509 179.654C323.278 182.248 324.494 182.083 326.539 180.924C329.248 179.323 331.79 177.336 334.554 175.957C350.917 167.789 367.887 162.546 386.572 163.374C396.688 163.816 406.472 164.643 415.703 169.169C418.633 170.604 422.005 171.376 425.267 172.094C436.212 174.411 445.277 180.261 454.067 186.829C455.449 187.877 456.831 188.981 458.323 189.919C470.816 197.701 479.495 208.572 484.801 222.259C485.796 224.853 486.681 227.612 488.173 229.93C496.686 243.23 497.239 257.91 495.912 272.976C495.304 279.488 493.978 285.669 491.214 291.629C488.063 298.472 485.465 305.536 482.701 312.545C476.51 328.218 465.565 339.587 450.971 347.699C450.529 347.975 450.142 348.307 449.755 348.638C449.644 348.748 449.644 348.914 449.423 349.521C457.052 351.673 463.353 356.585 470.705 359.399C480.213 363.042 488.118 369.057 495.802 375.514C497.958 377.335 500.114 379.156 502.269 380.922C511.888 388.869 519.074 398.637 523.939 410.116C525.155 412.931 525.21 415.911 525.265 418.891C525.431 420.823 525.652 422.644 528.085 423.748ZM524.326 430.37C521.838 425.9 522.114 421.043 521.893 416.242C521.838 415.525 521.838 414.862 521.783 414.145C521.783 413.979 521.728 413.814 521.728 413.648C521.672 413.152 521.562 412.655 521.396 412.158C521.341 411.993 521.285 411.827 521.23 411.661C521.23 411.606 521.175 411.496 521.175 411.441C521.064 411.165 521.009 410.944 520.898 410.723C520.898 410.668 520.843 410.613 520.843 410.558C520.788 410.447 520.732 410.337 520.732 410.282C520.732 410.227 520.677 410.227 520.677 410.171C519.903 408.461 519.074 406.805 518.19 405.205C513.325 396.154 507.079 388.207 498.787 381.805C496.134 379.763 493.591 377.611 491.103 375.404C485.023 369.995 478.389 365.58 470.816 362.49C467.112 361 463.464 359.178 460.037 357.081C455.78 354.488 451.192 352.887 446.438 351.673C442.845 350.79 439.363 349.686 435.88 348.583C428.362 346.154 420.955 343.616 413.105 342.346C406.859 341.298 400.889 341.684 395.25 344.775C392.486 346.32 391.547 347.589 392.597 349.134C392.652 349.19 392.707 349.245 392.707 349.3C393.15 349.907 393.813 350.514 394.808 351.231C399.562 354.653 403.542 358.682 406.693 363.593C407.301 364.587 408.241 365.47 409.18 366.242C411.06 367.788 412.829 369.388 414.432 371.154C415.095 371.871 415.759 372.589 416.367 373.362C418.08 375.459 419.683 377.611 421.176 379.874C421.95 380.977 422.668 382.136 423.387 383.295C423.774 383.902 424.161 384.509 424.493 385.116C425.875 387.434 427.257 389.807 428.638 392.125C428.694 392.236 428.749 392.346 428.86 392.456C428.915 392.567 428.97 392.622 428.97 392.677C430.794 396.209 430.629 399.851 428.638 403.439C427.754 405.039 426.593 406.695 426.87 408.571H426.925C426.925 408.626 426.925 408.626 426.925 408.681C428.362 409.62 429.523 408.902 430.684 408.681C439.197 407.136 447.488 408.571 455.338 411.827C458.765 413.262 462.082 414.752 465.675 415.58C474.741 417.677 483.585 420.491 492.375 423.472C500.998 426.397 509.677 429.321 518.687 430.756C519.406 430.867 520.18 431.032 520.954 431.087C521.838 431.087 522.944 430.977 524.326 430.37ZM492.154 264.146C492.485 253.44 492.098 243.285 486.736 233.793C484.912 230.592 483.53 227.171 482.093 223.804C479.605 218.009 477.339 212.104 473.138 207.248C471.811 205.703 470.429 204.157 468.992 202.667C464.735 198.197 460.203 194.058 454.73 190.968C452.021 189.422 449.644 187.215 447.046 185.449C440.966 181.31 434.664 177.612 427.367 175.736C426.98 175.626 426.593 175.57 426.206 175.46C422.005 174.356 417.859 173.142 413.769 171.597C412.276 171.045 410.839 170.438 409.346 169.776C405.145 167.844 400.723 166.74 396.135 166.465C395.471 166.409 394.863 166.409 394.2 166.409C393.647 166.409 393.039 166.409 392.486 166.465C389.17 166.63 385.798 166.409 382.481 166.354C361.862 165.747 343.841 172.921 326.926 183.793C326.152 184.29 325.323 184.842 324.549 185.339C323.609 185.946 323.001 186.718 322.559 187.656C322.448 187.988 322.338 188.319 322.227 188.65C322.172 188.871 322.117 189.091 322.061 189.257C321.232 191.685 319.519 193.396 317.363 194.224C316.81 194.444 316.257 194.61 315.649 194.72C311.172 195.548 308.629 198.473 306.418 201.895C306.362 202.005 306.307 202.115 306.197 202.226C305.257 203.716 304.704 204.82 304.649 205.813C304.649 205.979 304.649 206.089 304.649 206.255C304.759 207.524 305.754 208.628 307.744 210.283C312.111 213.815 316.147 217.623 319.353 222.314C320.624 224.19 321.785 226.067 322.891 227.998C328.584 238.042 332.233 249.08 335.605 260.007C335.715 260.448 335.881 260.835 335.992 261.276C339.53 272.866 340.525 285.007 339.364 297.038C339.198 298.638 339.032 300.238 338.811 301.784C338.645 302.943 338.424 304.157 338.258 305.316C338.203 305.702 338.092 306.143 338.037 306.53C336.268 315.746 334.333 324.962 331.293 333.847C331.017 334.73 330.685 335.613 330.353 336.496C329.856 337.821 329.358 339.145 328.806 340.415C328.419 341.298 328.032 342.126 327.645 343.009C326.871 344.719 326.042 346.43 325.102 348.086C324.881 348.527 324.66 348.914 324.438 349.355C324.162 349.741 324.273 350.349 324.217 350.79C325.102 351.563 326.042 351.452 326.981 351.287C327.092 351.287 327.202 351.231 327.313 351.231C336.766 349.521 346.218 347.865 355.671 346.044C358.103 345.602 360.535 345.051 362.968 344.554C363.963 344.333 364.958 344.168 365.953 343.947C366.063 343.947 366.229 343.892 366.34 343.892C374.189 342.457 382.094 341.85 390.054 343.505C391.049 343.726 391.878 343.505 392.707 343.174C392.818 343.119 392.984 343.064 393.094 343.009C393.205 342.953 393.315 342.898 393.426 342.843C393.537 342.788 393.592 342.788 393.647 342.733C393.758 342.677 393.924 342.622 394.034 342.512C394.587 342.236 395.084 341.96 395.637 341.684C401.939 338.814 408.572 338.87 415.482 340.139C422.668 341.463 429.468 343.671 436.322 345.878C437.317 346.209 438.257 346.485 439.252 346.816C441.076 347.368 442.845 348.141 444.835 347.092C452.85 343.009 460.368 338.097 466.283 331.309C473.469 323.086 478.887 313.483 482.369 303.219C486.626 290.47 491.767 278.053 492.154 264.146ZM474.685 457.246C476.123 448.747 475.957 440.469 470.54 433.129C468.55 430.425 465.841 428.438 463.409 426.176C461.585 424.52 459.042 422.92 458.986 420.547C458.876 417.732 457.604 416.187 455.891 415.138C455.78 415.028 455.67 414.973 455.504 414.918C454.619 414.421 453.624 414.035 452.574 413.703C446.88 411.772 441.021 410.558 434.996 411.11C430.352 411.551 426.206 412.545 422.834 416.849C417.472 423.748 412.829 431.198 406.859 437.655C399.23 445.988 394.2 456.639 384.029 462.655C383.918 462.71 383.973 462.986 383.808 463.538C383.863 463.538 383.973 463.593 384.029 463.593V463.648C387.511 464.531 391.049 465.359 394.532 466.297C401.828 468.284 409.236 469.663 416.809 469.884C424.05 470.105 431.015 471.209 437.815 473.306C438.478 473.526 439.197 473.747 439.86 473.968C442.237 474.741 444.559 475.624 446.825 476.672C447.157 476.838 447.488 476.948 447.82 477.114C448.152 477.279 448.483 477.39 448.815 477.555C449.147 477.721 449.478 477.886 449.81 478.052C451.579 478.935 453.348 479.818 455.283 480.811C456.499 481.418 457.826 482.136 459.263 482.853C459.318 482.908 459.429 482.908 459.484 482.963C458.599 474.796 463.906 470.657 468.494 466.131C469.876 464.807 471.148 463.317 472.53 461.992C473.525 460.778 474.243 459.398 474.63 457.964C474.575 457.633 474.63 457.412 474.685 457.246ZM426.483 399.079C427.146 397.037 426.372 395.05 425.322 393.229C422.447 387.931 419.241 382.964 415.648 378.273C412.055 373.582 408.02 369.223 403.487 365.194C402.989 364.697 402.436 364.09 401.718 364.366C399.175 365.304 397.738 363.593 396.356 362.048C394.642 360.172 392.542 359.013 390.165 358.185C386.793 357.026 383.531 355.812 380.601 353.825C378.943 352.722 377.451 352.666 375.626 353.108C372.033 354.046 368.44 354.653 364.847 355.536C355.284 357.854 345.555 359.068 335.936 361C326.981 362.821 318.247 365.47 309.458 367.843C305.146 369.002 300.835 369.443 296.412 369.002C294.864 368.836 294.035 368.174 293.925 367.125C293.925 367.015 293.925 366.905 293.925 366.739C293.98 366.353 294.091 365.856 294.312 365.415C294.92 364.145 295.804 362.986 297.02 362.269C297.186 362.159 297.407 362.103 297.628 362.048C298.402 361.938 299.121 362.49 298.845 363.152C297.407 366.96 300.005 366.187 301.995 366.132C304.815 366.077 307.523 365.359 310.232 364.642C319.574 362.159 328.75 359.123 338.258 357.578C348.098 355.978 357.827 353.715 367.666 352.004C370.928 351.452 374.189 350.569 377.395 349.741C378.667 349.41 379.662 348.362 379.551 347.092C379.33 345.382 377.727 345.823 376.566 345.823C374.631 345.823 372.697 345.878 370.817 346.209C365.787 347.092 360.867 348.472 355.837 349.079C336.102 351.618 317.086 357.633 297.407 360.448V360.337C295.583 360.613 293.704 360.834 291.879 361.055C290.774 361.165 289.613 361.441 289.116 362.379C289.06 362.435 289.06 362.49 289.06 362.49C288.95 362.766 288.839 363.042 288.784 363.483C288.729 364.311 288.563 365.083 288.286 365.691C288.231 365.746 288.231 365.801 288.176 365.856C287.126 367.898 284.914 368.836 282.703 369.664C277.286 371.761 271.869 373.858 267.115 377.225C263.079 380.094 258.657 382.247 254.235 384.344C251.747 385.558 249.094 386.717 246.883 388.372C242.018 392.015 238.093 396.099 235.882 401.176C235.772 401.397 235.716 401.617 235.606 401.838C234.279 405.094 233.616 408.681 233.837 412.765C234.224 419.995 236.325 426.617 239.697 432.743C242.018 436.937 244.119 441.573 248.265 444.553C256.556 450.458 264.904 456.253 273.969 460.833C286.628 467.29 300.282 469.167 314.709 469.056C323.775 469.277 333.283 468.56 342.57 467.014C356.776 464.586 370.486 460.281 384.195 456.032C388.064 454.818 390.883 452.555 393.26 449.354C398.678 442.235 404.316 435.337 409.844 428.328C412.884 424.41 416.311 420.657 418.799 416.408C418.965 416.187 419.075 415.911 419.241 415.69C419.628 415.083 419.96 414.421 420.291 413.814C420.513 413.428 420.678 413.041 420.9 412.655C421.231 411.993 421.508 411.33 421.839 410.668C423.553 406.915 424.935 403.052 426.427 399.244C426.427 399.244 426.483 399.189 426.483 399.079ZM377.616 463.041C377.395 462.71 377.229 462.434 377.008 462.103C376.566 462.213 376.069 462.323 375.626 462.434C372.365 463.206 369.104 463.924 365.842 464.917C345.721 471.595 324.991 473.416 304.041 472.147C294.422 471.595 285.025 469.608 276.07 465.524C265.788 460.833 256.778 454.045 247.491 447.864C245.169 446.319 243.4 444.112 241.687 441.849C240.139 439.862 238.812 437.765 237.596 435.613C237.098 434.675 236.601 433.736 236.159 432.798C233.948 428.107 232.455 423.14 231.515 418.008C229.636 408.24 231.902 399.189 239.033 391.794C242.958 387.71 247.601 384.62 252.798 382.302C256.335 380.757 259.928 379.156 263.079 377.004C269.049 372.92 275.517 369.885 282.261 367.291C283.256 366.905 284.196 366.463 285.08 365.911C285.909 365.415 286.186 364.532 285.965 363.649C285.909 363.373 285.799 363.152 285.633 362.986C285.578 362.931 285.578 362.876 285.522 362.821C285.135 362.379 284.583 362.159 283.919 362.214C283.201 362.269 282.482 362.269 281.819 362.379C270.929 364.256 260.094 366.132 249.702 370.216C233.892 376.452 218.525 383.737 203.268 391.187C199.509 393.063 195.695 394.829 191.881 396.651C188.287 398.361 186.242 401.231 185.524 405.094C184.252 411.993 184.529 418.725 187.403 425.182C187.956 426.452 188.509 427.666 188.84 429.046C189.614 431.97 190.443 434.84 191.549 437.655C191.991 438.758 192.489 439.917 193.041 440.966C194.147 443.284 195.529 445.491 197.243 447.533C198.127 448.637 199.122 449.63 199.785 450.844C202.992 456.694 207.69 461.054 213.108 464.807C225.6 473.526 238.149 482.136 251.637 489.42C258.878 493.339 266.507 495.491 274.798 495.381C277.783 495.325 280.768 495.325 283.698 495.712C296.578 497.423 309.237 497.478 321.343 491.793C322.283 491.352 323.333 491.076 324.328 490.745C339.972 485.337 354.842 478.273 368.827 469.498C371.038 467.953 373.249 466.297 375.405 464.641C376.124 464.089 376.842 463.538 377.616 463.041ZM335.273 305.095C336.047 299.631 336.434 294.057 336.323 288.428C336.323 287.766 336.323 287.159 336.323 286.497C336.323 284.345 336.268 282.192 336.158 280.04C336.158 279.985 336.158 279.93 336.158 279.874C336.047 277.667 335.881 275.459 335.549 273.252C332.951 255.813 325.986 240.084 317.694 224.742C315.76 221.155 313.162 218.009 310.011 215.471C300.669 208.076 291.161 200.957 280.603 195.272C273.416 191.409 265.954 190.581 258.27 191.851C248.43 193.506 238.646 195.493 229.083 198.363C205.203 205.482 205.092 205.261 183.202 204.985C178.448 204.93 173.694 204.709 169.051 203.661C159.985 201.619 150.974 199.853 141.522 200.846C138.316 201.177 135.275 201.453 132.456 202.998C124.607 207.303 117.199 212.27 109.737 217.182C107.083 218.892 104.872 220.934 102.772 223.142C102.606 223.307 102.44 223.473 102.274 223.639C99.3444 226.729 96.691 230.151 93.8165 233.351C81.8211 246.596 76.0168 262.435 73.861 279.819C72.3684 292.291 74.5796 304.543 76.9566 316.795C78.9466 327.115 82.0975 337.104 84.7508 347.258C86.6856 354.653 89.0626 362.103 92.6004 368.947C96.7463 376.838 101.003 384.73 105.646 392.346C112.611 403.715 119.908 414.862 131.848 421.926C135.773 424.244 139.477 426.838 142.904 429.873C146.552 433.074 151.03 434.619 155.839 435.171C160.372 435.668 164.849 436.33 169.382 436.882C174.136 437.489 178.835 437.655 183.534 436.606C185.137 436.275 186.076 435.999 186.408 435.502C187.016 434.895 186.795 433.957 186.076 431.915C185.745 430.922 185.247 429.984 184.916 428.99C182.483 422.589 180.88 416.132 181.433 409.178C181.765 405.425 182.649 402.169 184.473 399.465C184.639 399.189 184.86 398.968 185.026 398.693C186.353 396.982 188.177 395.547 190.388 394.388C194.258 392.346 198.238 390.58 202.162 388.593C217.309 380.977 232.621 373.638 248.486 367.401C260.979 362.49 274.08 360.061 287.347 358.682C297.131 357.688 306.805 356.088 316.313 353.549C317.308 353.273 318.468 353.163 319.298 352.666C319.353 352.611 319.408 352.611 319.463 352.556C319.519 352.501 319.574 352.501 319.629 352.446C319.961 352.17 320.237 351.839 320.403 351.342C322.614 344.333 327.645 338.538 328.916 331.088C329.192 329.212 329.69 327.335 330.298 325.459C330.519 324.852 330.685 324.19 330.906 323.583C331.127 322.92 331.348 322.203 331.569 321.541C333.228 316.132 334.499 310.669 335.273 305.095ZM319.629 184.676C319.685 184.345 319.685 183.959 319.629 183.573C319.519 182.248 319.076 180.979 318.413 179.709C318.358 179.599 318.303 179.489 318.247 179.434C317.916 178.882 317.584 178.385 317.252 177.888C316.921 177.392 316.534 176.895 316.147 176.343C314.599 174.356 313.272 172.314 312.111 170.162C312.111 170.162 312.111 170.107 312.056 170.107C311.669 169.389 311.282 168.617 310.951 167.899C307.192 159.732 300.337 153.606 296.302 145.604C296.081 145.162 295.638 144.776 295.251 144.445C289.502 139.809 287.623 133.573 287.347 126.619C287.347 126.178 287.291 125.681 287.291 125.24C287.236 122.315 287.181 119.335 287.07 116.41C286.96 114.644 286.849 112.823 286.683 111.057C286.241 106.31 281.985 102.061 278.06 102.834C273.638 103.717 269.16 104.544 265.014 106.697C256.999 110.836 251.803 117.403 248.209 125.516C242.46 138.485 240.47 151.95 241.3 165.968C241.3 166.189 241.3 166.409 241.355 166.63C241.465 168.396 241.797 170.107 242.626 171.707C243.621 173.584 244.672 173.915 246.164 172.204C248.541 169.389 250.642 166.52 251.803 163.153C251.803 163.153 251.803 163.098 251.858 163.043C251.913 162.877 251.968 162.767 252.024 162.601C252.189 162.16 252.3 161.718 252.411 161.277C252.521 160.946 252.576 160.615 252.632 160.284C252.687 160.118 252.687 159.952 252.742 159.787C252.798 159.401 252.853 159.014 252.853 158.628C252.853 158.518 252.853 158.352 252.908 158.186C253.129 154.875 253.682 151.564 254.124 148.308C254.622 144.5 256.612 141.41 258.712 138.264C258.712 138.816 258.657 139.423 258.657 139.975C258.602 140.637 258.546 141.244 258.491 141.851C258.436 142.458 258.381 143.01 258.27 143.617C258.27 143.783 258.215 143.948 258.215 144.114C258.104 145.107 257.938 146.045 257.773 146.983C256.999 151.509 256.004 156.034 255.727 160.615C255.727 160.835 255.672 161.111 255.672 161.332V161.387C257.386 161.829 258.104 160.559 259.155 160.063C262.029 158.738 263.411 156.696 263.577 153.827C263.577 153.44 263.577 153.054 263.577 152.668C263.577 152.447 263.522 152.171 263.522 151.95C263.522 151.73 263.466 151.509 263.466 151.233C263.466 150.736 263.466 150.295 263.466 149.798C263.577 147.922 263.909 146.045 264.13 144.169C265.014 135.394 270.818 128.551 273.085 120.328C273.14 120.162 273.693 120.107 274.522 119.886C273.638 124.743 271.979 129.323 270.376 134.014C269.934 135.339 269.492 136.719 269.049 138.043C267.446 143.175 266.175 148.473 266.396 154.268V154.323C270.044 150.957 273.306 148.639 276.788 146.597C280.271 144.555 283.532 142.072 288.065 140.747C286.683 145.162 281.929 145.217 280.05 148.418C280.05 148.418 280.05 148.418 280.105 148.418C280.105 148.418 280.105 148.418 280.05 148.473C284.03 150.626 288.397 148.198 293.04 151.178C287.734 151.95 283.588 151.785 279.442 151.178C274.135 150.46 271.813 151.564 268.994 156.807C268.994 156.807 268.994 156.807 269.049 156.807C269.049 156.807 269.049 156.862 268.994 156.862C275.075 158.021 280.934 159.842 287.181 159.787C290.166 159.787 293.151 159.842 296.136 160.008C296.91 160.063 298.126 159.952 298.126 161.442C298.126 161.498 298.126 161.608 298.126 161.718C298.126 161.829 298.126 161.939 298.071 162.05C288.784 161.553 279.276 163.319 270.1 159.952C268.441 159.345 266.617 158.462 265.014 159.401C261.145 161.663 257.165 163.926 254.014 167.623H254.069L254.014 167.679C273.582 167.844 280.934 168.893 286.075 172.866C281.266 173.584 277.562 172.701 273.859 172.259C268.276 171.597 262.748 170.714 257.109 170.769C254.29 170.824 251.416 170.99 249.094 172.756C247.933 173.584 247.491 174.467 247.657 175.239C247.767 175.957 248.431 176.619 249.536 177.171C252.908 178.826 256.612 179.709 260.26 179.489C267.115 179.102 272.974 181.531 278.723 184.621C281.542 186.166 284.472 187.325 287.734 187.215C294.699 186.939 301.332 188.153 307.468 191.575C307.965 191.851 308.629 191.961 309.403 191.961C309.569 191.961 309.734 191.961 309.9 191.961C312.056 191.906 314.765 191.078 316.644 189.864C316.81 189.754 316.976 189.643 317.142 189.533C317.252 189.422 317.418 189.312 317.529 189.257C317.916 188.981 318.192 188.65 318.413 188.319C318.468 188.208 318.524 188.153 318.579 188.043C319.187 186.994 319.574 185.835 319.629 184.676ZM306.307 197.645C307.689 195.935 307.247 194.996 305.478 194.003C301.277 191.685 296.91 189.698 292.045 189.919C285.246 190.25 279.221 188.263 273.582 184.842C269.989 182.69 266.23 181.751 262.084 181.917C258.933 182.027 255.672 181.696 252.798 180.537C248.596 178.826 244.893 178.992 240.968 181.31C238.315 182.855 235.606 184.18 233.616 186.939C242.35 187.546 250.863 187.601 259.431 187.491C264.24 187.436 268.828 188.263 273.361 189.754C280.603 192.127 287.181 195.769 293.427 200.018C295.86 201.674 298.126 203.661 301.056 204.82C302.825 202.391 304.483 199.908 306.307 197.645ZM245.39 190.692C244.948 189.698 244.395 189.754 243.898 189.754C240.913 189.809 237.928 189.864 234.998 189.974C226.043 190.195 217.143 190.361 208.243 190.637C204.705 190.747 204.152 191.299 203.987 194.444C203.987 194.61 203.987 194.831 203.987 195.052C203.931 195.769 203.931 196.542 203.987 197.259C203.987 197.59 204.042 197.921 204.042 198.252C204.263 200.405 204.595 201.398 205.7 201.619C206.087 201.674 206.585 201.674 207.248 201.564C207.524 201.508 207.801 201.453 208.077 201.343C208.188 201.288 208.298 201.288 208.409 201.232C220.681 197.811 232.897 194.279 245.39 190.692ZM197.408 201.895C197.408 201.343 197.408 200.736 197.298 200.239C197.187 199.191 196.966 198.197 196.69 197.259C196.469 196.431 196.248 195.659 196.082 194.886C196.082 194.831 196.026 194.72 196.026 194.665C195.64 193.341 194.866 193.12 193.373 193.341C187.679 194.334 181.93 194.555 176.181 194.886C171.041 195.162 166.176 196.707 160.538 198.915C160.593 198.915 160.593 198.915 160.593 198.97C160.538 198.97 160.538 198.97 160.538 198.97C166.95 201.122 173.196 201.84 179.388 202.06C185.358 202.226 191.328 201.95 197.408 201.895Z" fill="black"/>
<path d="M521.571 416.227C521.792 421.074 521.516 425.92 524 430.327C522.675 430.932 521.571 431.043 520.523 430.987C519.75 430.932 518.977 430.712 518.204 430.547C509.152 429.115 500.541 426.141 491.93 423.277C483.099 420.303 474.322 417.494 465.27 415.401C461.682 414.575 458.37 413.033 454.948 411.656C447.11 408.406 438.885 406.974 430.33 408.516C429.17 408.737 428.011 409.453 426.631 408.516C426.411 406.644 427.514 405.046 428.398 403.504C430.385 399.814 430.55 396.124 428.674 392.654C428.618 392.599 428.563 392.489 428.563 392.434C428.508 392.269 428.398 392.104 428.287 391.993C426.907 389.68 425.583 387.422 424.203 385.109C423.816 384.503 423.485 383.897 423.099 383.291C422.381 382.135 421.664 381.033 420.891 379.877C419.4 377.618 417.8 375.47 416.089 373.378C415.481 372.607 414.819 371.891 414.157 371.175C412.556 369.412 410.79 367.705 408.858 366.163C407.919 365.392 407.036 364.51 406.374 363.519C403.228 358.617 399.253 354.597 394.506 351.182C393.568 350.521 392.906 349.915 392.464 349.364C392.409 349.309 392.354 349.254 392.354 349.199C391.415 347.657 392.354 346.445 395.058 344.958C400.688 341.819 406.65 341.488 412.887 342.535C420.725 343.802 428.122 346.335 435.629 348.758C439.106 349.915 442.639 350.962 446.171 351.843C450.918 353.054 455.5 354.652 459.75 357.24C463.172 359.333 466.815 361.151 470.513 362.638C478.076 365.667 484.699 370.128 490.771 375.526C493.255 377.729 495.794 379.877 498.443 381.914C506.668 388.303 512.905 396.179 517.763 405.157C518.646 406.754 519.474 408.461 520.247 410.114C520.302 410.224 520.357 410.389 520.412 410.499C520.467 410.554 520.467 410.609 520.467 410.664C520.578 410.885 520.688 411.16 520.743 411.38C520.743 411.435 520.799 411.546 520.799 411.601C520.854 411.766 520.909 411.931 520.964 412.096C521.13 412.592 521.24 413.088 521.295 413.583C521.295 413.749 521.35 413.914 521.35 414.079C521.516 414.85 521.516 415.566 521.571 416.227Z" fill="#13751E"/>
<path d="M521 411C521.11 411.308 521.221 411.692 521.276 412C521.221 411.615 521.11 411.308 521 411Z" fill="#DF2E2E"/>
<path d="M521.166 410.387C521.111 410.276 521.055 410.11 521 410C521 410.055 521.055 410.055 521.055 410.11C521.055 410.166 521.111 410.276 521.166 410.387Z" fill="#DF2E2E"/>
<path d="M520.843 431.033C520.069 430.978 519.295 430.812 518.577 430.702C509.566 429.267 500.888 426.342 492.264 423.417C483.475 420.437 474.63 417.622 465.565 415.525C461.972 414.697 458.655 413.207 455.228 411.772C447.378 408.516 439.086 407.081 430.573 408.627C429.413 408.847 428.252 409.565 426.814 408.627C426.814 408.627 426.814 408.572 426.814 408.516C428.252 409.399 429.357 408.737 430.518 408.516C439.086 406.971 447.323 408.406 455.172 411.662C458.6 413.042 461.916 414.587 465.509 415.415C474.575 417.512 483.364 420.326 492.209 423.307C500.832 426.176 509.456 429.156 518.522 430.591C519.295 430.757 520.014 430.922 520.843 431.033Z" fill="#DF2E2E"/>
<path d="M486.736 233.793C492.098 243.285 492.485 253.44 492.154 264.146C491.712 277.998 486.571 290.47 482.314 303.163C478.776 313.428 473.359 322.976 466.228 331.254C460.313 338.042 452.795 342.953 444.78 347.037C442.79 348.031 441.021 347.313 439.197 346.761C438.202 346.43 437.262 346.154 436.267 345.823C429.413 343.616 422.613 341.408 415.427 340.084C408.517 338.759 401.939 338.704 395.582 341.629C395.029 341.905 394.532 342.126 393.979 342.457C393.869 342.512 393.703 342.567 393.592 342.678C393.482 342.733 393.426 342.788 393.371 342.788C393.26 342.843 393.15 342.898 393.039 342.953C392.929 343.009 392.763 343.064 392.652 343.119C391.879 343.45 391.049 343.616 389.999 343.45C382.039 341.739 374.189 342.402 366.285 343.836C366.174 343.836 366.008 343.892 365.898 343.892C364.903 344.057 363.908 344.278 362.913 344.499C360.48 344.995 358.048 345.492 355.616 345.989C346.163 347.81 336.711 349.41 327.258 351.176C327.147 351.176 327.037 351.232 326.926 351.232C326.042 351.397 325.047 351.452 324.162 350.735C324.218 350.293 324.162 349.686 324.383 349.3C324.605 348.859 324.826 348.472 325.047 348.031C325.987 346.375 326.816 344.664 327.59 342.953C327.977 342.07 328.363 341.243 328.75 340.36C329.303 339.035 329.801 337.766 330.298 336.441C330.63 335.558 330.962 334.675 331.238 333.792C334.334 324.907 336.268 315.746 337.982 306.475C338.037 306.088 338.148 305.647 338.203 305.261C338.424 304.102 338.59 302.888 338.756 301.729C338.977 300.128 339.198 298.528 339.309 296.982C340.47 284.896 339.53 272.81 335.937 261.221C335.826 260.78 335.66 260.393 335.55 259.952C332.233 249.025 328.585 238.043 322.836 227.943C321.73 226.012 320.569 224.135 319.298 222.259C316.092 217.568 312.056 213.76 307.689 210.228C305.699 208.573 304.704 207.469 304.594 206.199C304.594 206.089 304.594 205.924 304.594 205.758C304.649 204.82 305.202 203.716 306.142 202.171C306.197 202.06 306.252 201.95 306.363 201.84C308.574 198.418 311.117 195.493 315.594 194.665C316.202 194.555 316.755 194.389 317.308 194.169C319.464 193.341 321.177 191.63 322.006 189.202C322.062 188.981 322.117 188.76 322.172 188.595C322.283 188.264 322.393 187.932 322.504 187.601C322.891 186.663 323.499 185.946 324.494 185.284C325.268 184.732 326.097 184.235 326.871 183.738C343.786 172.977 361.807 165.747 382.426 166.299C385.743 166.409 389.115 166.575 392.431 166.409C392.984 166.409 393.592 166.354 394.145 166.354C394.808 166.354 395.416 166.354 396.08 166.409C400.668 166.685 405.035 167.844 409.291 169.721C410.729 170.383 412.221 170.99 413.714 171.542C417.749 173.087 421.895 174.301 426.151 175.405C426.538 175.515 426.925 175.571 427.312 175.681C434.609 177.557 440.911 181.255 446.991 185.394C449.589 187.16 451.966 189.367 454.675 190.913C460.147 194.058 464.736 198.142 468.937 202.612C470.319 204.102 471.701 205.648 473.083 207.193C477.284 212.049 479.55 217.954 482.038 223.749C483.53 227.171 484.912 230.592 486.736 233.793ZM488.174 252.557C489.224 248.749 487.013 244.941 483.088 244.223C480.545 243.782 477.837 243.782 475.238 243.672C464.072 243.175 453.404 246.431 442.458 247.59C439.142 247.921 436.765 248.031 433.89 245.769C429.413 242.237 423.829 241.243 418.578 244.058C417.362 244.72 416.201 245.493 415.151 246.321C414.764 246.597 414.432 246.928 414.1 247.204C411.281 249.797 409.568 253.219 410.01 257.91C409.512 262.049 410.563 265.526 414.487 267.678C420.126 270.769 426.096 270.603 430.684 267.733C431.016 267.512 431.347 267.292 431.624 267.071C431.79 266.961 431.955 266.85 432.066 266.685C432.177 266.574 432.342 266.464 432.453 266.354C432.729 266.078 433.061 265.802 433.337 265.526C435.051 263.815 436.378 261.607 437.262 258.958C437.539 258.02 437.926 257.248 438.423 256.696C438.478 256.641 438.534 256.585 438.589 256.53C439.086 256.089 439.75 255.758 440.634 255.592C453.625 252.998 466.615 249.797 479.55 256.144C480.932 256.806 482.48 256.861 483.862 256.475C483.917 256.475 483.973 256.42 484.028 256.42C484.138 256.42 484.194 256.365 484.249 256.365C486.128 255.702 487.676 254.268 488.174 252.557ZM459.042 276.287C461.972 272.314 461.308 268.064 459.871 263.76C457.881 267.788 459.152 272.093 459.042 276.287ZM450.474 227.778C450.805 227.888 451.082 227.943 451.413 227.998C450.861 227.06 450.197 226.232 449.423 225.515C447.82 223.915 445.83 222.7 443.785 221.542C443.73 221.486 443.674 221.486 443.619 221.431C443.564 221.431 443.509 221.376 443.453 221.376C443.288 221.321 443.122 221.321 442.956 221.321C442.845 221.321 442.735 221.376 442.624 221.431C442.569 221.431 442.514 221.486 442.458 221.486C442.348 221.542 442.293 221.597 442.182 221.707C442.071 221.817 442.016 221.873 441.961 221.983C441.574 222.645 441.906 223.418 442.624 223.639C445.499 224.522 447.489 226.895 450.474 227.778ZM416.035 294.444C418.633 294.775 421.287 294.334 423.443 293.064C418.578 292.568 413.769 291.74 408.904 291.298C409.07 291.409 409.236 291.574 409.402 291.685C411.392 293.23 413.714 294.168 416.035 294.444ZM417.804 213.484C416.367 213.208 414.819 213.263 413.161 213.539C404.758 215.029 395.085 223.308 391.547 231.641C391.381 231.972 391.27 232.358 391.105 232.689C390.994 233.02 390.884 233.407 390.773 233.738C390.662 234.069 390.552 234.455 390.497 234.786C390.441 234.952 390.441 235.118 390.386 235.338C390.331 235.669 390.275 236.056 390.22 236.387C390.165 236.884 390.11 237.435 390.11 237.932C392.376 234.511 393.039 230.261 395.859 227.115C398.788 223.804 402.326 221.21 406.196 219.168C409.789 217.292 413.492 215.581 417.804 213.484ZM390.773 265.471C390.773 261.166 390.773 256.806 390.773 252.502C390.773 252.336 390.607 252.115 390.497 252.06C389.889 251.674 390.22 252.778 389.667 251.177C389.557 251.95 389.446 252.667 389.336 253.385C388.728 257.855 388.728 261.663 389.446 265.526C389.888 265.526 390.331 265.471 390.773 265.471ZM380.712 256.917C381.873 252.502 382.592 248.031 381.928 244.279C381.928 243.506 381.928 242.789 381.928 242.126C381.928 241.85 381.928 241.575 381.928 241.299C381.928 241.133 381.928 240.912 381.928 240.747C381.928 239.312 381.928 237.987 381.873 236.718C381.652 233.462 379.883 231.53 377.617 231.42C377.506 231.42 377.396 231.42 377.23 231.42C376.179 231.475 375.019 231.862 373.858 232.745C369.491 236.001 366.285 240.526 365.732 245.769C364.792 254.985 366.229 264.256 367.722 273.362C368.109 275.735 369.435 277.005 370.983 277.17C371.149 277.17 371.315 277.17 371.481 277.17C372.642 277.115 373.913 276.508 375.129 275.294C378.169 272.314 380.104 268.561 381.652 264.643C382.039 263.649 382.481 262.435 381.486 261.718C380.325 260.945 380.104 260.007 380.159 259.069C380.159 258.848 380.215 258.627 380.27 258.351C380.325 258.186 380.325 258.02 380.381 257.855C380.491 257.468 380.602 257.192 380.712 256.917Z" fill="#DF2E2E"/>
<path d="M492.154 264.146C491.767 278.053 486.626 290.47 482.314 303.164C486.57 290.47 491.711 277.998 492.154 264.146Z" fill="#DF2E2E"/>
<path d="M483.033 244.223C486.958 244.941 489.169 248.694 488.119 252.557C487.621 254.323 486.129 255.702 484.36 256.365C484.305 256.42 484.194 256.42 484.139 256.42C484.083 256.42 484.028 256.475 483.973 256.475C482.591 256.861 481.043 256.806 479.661 256.089C466.726 249.797 453.736 252.943 440.745 255.537C439.861 255.702 439.197 256.033 438.644 256.53C438.589 256.585 438.534 256.641 438.479 256.696C437.926 257.248 437.539 258.02 437.263 259.014C436.378 261.607 435.051 263.815 433.393 265.526C433.117 265.802 432.84 266.078 432.509 266.353C432.398 266.464 432.232 266.574 432.122 266.685C431.956 266.795 431.79 266.905 431.679 267.071C431.348 267.292 431.071 267.512 430.74 267.733C426.152 270.548 420.181 270.768 414.598 267.623C410.674 265.47 409.623 262.049 410.121 257.855C409.623 253.274 411.337 249.852 414.156 247.203C414.488 246.872 414.819 246.596 415.206 246.321C416.257 245.493 417.362 244.775 418.578 244.113C423.83 241.243 429.413 242.292 433.891 245.824C436.765 248.086 439.142 248.031 442.459 247.645C453.404 246.486 464.128 243.23 475.239 243.727C477.837 243.782 480.49 243.782 483.033 244.223ZM433.946 260.559C434.222 259.841 434.222 259.29 434.056 258.903C434.056 258.903 434.056 258.848 434.001 258.848C433.725 258.241 433.006 258.02 431.845 258.351C429.855 258.903 428.031 259.841 426.262 260.835C425.765 261.111 425.267 261.387 424.714 261.663C423.83 262.159 423.166 262.38 422.669 262.38H422.614C421.84 262.27 421.453 261.387 421.121 259.676C420.679 257.468 421.84 256.475 423.277 255.371C426.317 252.998 429.966 251.674 433.835 249.797C429.689 246.1 425.322 244.775 421.619 245.824C421.453 245.879 421.287 245.934 421.121 245.989C420.513 246.155 419.905 246.431 419.352 246.762C414.875 249.411 411.447 256.42 412.277 261.056C412.498 262.325 413.051 263.373 413.935 264.256C415.538 265.857 418.523 266.685 421.729 266.74C422.172 266.74 422.614 266.74 423.056 266.74C426.925 266.629 430.74 265.415 432.453 263.318C432.951 262.601 433.448 261.828 433.78 260.945C433.78 260.945 433.78 260.945 433.78 260.89C433.835 260.724 433.891 260.614 433.946 260.559Z" fill="black"/>
<path d="M479.661 256.144C481.043 256.861 482.535 256.916 483.972 256.53C482.59 256.971 481.043 256.916 479.661 256.199C466.725 249.852 453.735 253.053 440.745 255.647C439.86 255.813 439.197 256.144 438.699 256.585C439.197 256.088 439.86 255.757 440.8 255.592C453.735 252.998 466.725 249.852 479.661 256.144Z" fill="#DF2E2E"/>
<path d="M466.228 331.255C473.359 322.976 478.776 313.429 482.314 303.164C478.832 313.429 473.414 323.032 466.228 331.255Z" fill="#DF2E2E"/>
<path d="M470.54 433.129C475.957 440.469 476.123 448.747 474.686 457.246C474.63 457.467 474.63 457.688 474.575 457.908C474.188 459.399 473.414 460.723 472.253 461.882C470.871 463.206 469.6 464.641 468.218 466.021C463.63 470.546 458.323 474.685 459.208 482.853C457.77 482.136 456.499 481.473 455.228 480.811C453.293 479.818 451.524 478.88 449.755 478.052C449.7 477.997 449.589 477.997 449.534 477.941C449.258 477.831 449.036 477.721 448.76 477.555C448.428 477.39 448.097 477.279 447.765 477.114C447.433 476.948 447.102 476.838 446.77 476.672C444.448 475.679 442.127 474.741 439.805 473.968C439.142 473.747 438.478 473.526 437.76 473.306C430.905 471.209 423.829 470.05 416.533 469.774C408.96 469.553 401.552 468.173 394.255 466.187C390.828 465.248 387.401 464.476 383.974 463.593C384.084 463.096 384.084 462.82 384.195 462.765C394.366 456.749 399.396 446.043 407.025 437.765C412.94 431.363 417.583 423.858 423 416.959C426.372 412.655 430.518 411.662 435.162 411.22C441.187 410.613 447.046 411.882 452.74 413.814C453.68 414.145 454.62 414.476 455.449 414.918C455.559 414.973 455.725 415.028 455.836 415.138C457.439 416.187 458.6 417.732 458.71 420.436C458.821 422.865 461.364 424.41 463.133 426.065C465.841 428.383 468.494 430.425 470.54 433.129Z" fill="#13751E"/>
<path d="M459.871 263.759C461.308 268.064 461.971 272.313 459.042 276.287C459.152 272.093 457.881 267.788 459.871 263.759Z" fill="black"/>
<path d="M455.449 414.918C454.62 414.477 453.68 414.145 452.74 413.814C447.046 411.883 441.187 410.613 435.161 411.221C430.518 411.662 426.372 412.655 423 416.96C417.583 423.858 412.94 431.364 407.025 437.766C399.396 446.044 394.366 456.75 384.195 462.765C384.084 462.821 384.084 463.096 383.974 463.593C383.918 463.593 383.808 463.538 383.752 463.538C383.918 462.986 383.863 462.71 383.974 462.655C394.145 456.64 399.175 445.988 406.804 437.655C412.774 431.198 417.417 423.748 422.779 416.85C426.151 412.545 430.297 411.552 434.94 411.11C440.966 410.558 446.825 411.772 452.519 413.704C453.569 414.035 454.564 414.421 455.449 414.918Z" fill="#DF2E2E"/>
<path d="M451.414 228.054C451.082 227.998 450.806 227.943 450.474 227.833C447.544 226.95 445.554 224.522 442.68 223.694C441.961 223.528 441.63 222.7 442.016 222.038C442.072 221.928 442.127 221.873 442.182 221.762C442.238 221.652 442.348 221.597 442.459 221.542C442.514 221.486 442.569 221.486 442.625 221.486C442.735 221.431 442.846 221.431 442.956 221.376C443.122 221.376 443.288 221.376 443.454 221.431C443.509 221.431 443.564 221.486 443.62 221.486C443.675 221.486 443.73 221.542 443.785 221.597C445.775 222.756 447.765 223.97 449.424 225.57C450.142 226.288 450.806 227.06 451.414 228.054Z" fill="black"/>
<path d="M443.785 221.597C445.831 222.755 447.765 223.914 449.424 225.57C447.765 223.914 445.775 222.755 443.785 221.597Z" fill="#DF2E2E"/>
<path d="M442.679 223.694C445.554 224.522 447.544 226.95 450.474 227.833C447.489 226.895 445.499 224.522 442.679 223.694C441.905 223.528 441.574 222.756 441.961 222.093C442.016 221.983 442.071 221.873 442.182 221.818C442.127 221.873 442.071 221.983 442.016 222.093C441.629 222.701 441.961 223.528 442.679 223.694Z" fill="#DF2E2E"/>
<path d="M443.564 221.486C443.508 221.486 443.453 221.431 443.398 221.431C443.453 221.431 443.508 221.431 443.564 221.486Z" fill="#DF2E2E"/>
<path d="M434.056 258.848C434.166 259.235 434.166 259.787 433.945 260.449C433.89 260.559 433.89 260.67 433.835 260.835V260.89C433.448 261.718 433.005 262.546 432.397 263.263C430.739 265.36 426.925 266.575 423.111 266.685C422.668 266.685 422.226 266.685 421.784 266.685C418.633 266.575 415.703 265.747 414.1 264.202C413.216 263.319 412.663 262.27 412.442 261.001C411.557 256.365 415.04 249.356 419.517 246.707C420.07 246.376 420.623 246.1 421.176 245.935C421.342 245.879 421.507 245.824 421.673 245.769C425.377 244.776 429.744 246.1 433.779 249.742C429.91 251.619 426.317 252.943 423.221 255.316C421.784 256.42 420.623 257.414 421.065 259.621C421.397 261.387 421.729 262.27 422.668 262.325H422.724C423.221 262.38 423.94 262.16 424.879 261.608C425.322 261.332 425.819 261.056 426.317 260.78C428.141 259.787 429.965 258.848 431.9 258.352C433.005 258.076 433.724 258.241 434.056 258.793C434 258.793 434.056 258.848 434.056 258.848Z" fill="#A11515"/>
<path d="M431.9 258.296C433.061 258.021 433.779 258.186 434.056 258.793C433.724 258.241 433.006 258.021 431.9 258.296C429.91 258.848 428.086 259.842 426.317 260.78C428.031 259.787 429.855 258.793 431.9 258.296Z" fill="#DF2E2E"/>
<path d="M433.78 260.89C433.448 261.718 432.951 262.546 432.453 263.263C430.739 265.416 426.925 266.575 423.056 266.685C426.87 266.575 430.684 265.36 432.342 263.263C432.95 262.491 433.393 261.718 433.78 260.89Z" fill="#DF2E2E"/>
<path d="M431.624 267.016C431.79 266.906 431.955 266.795 432.066 266.63C431.955 266.795 431.79 266.906 431.624 267.016Z" fill="#DF2E2E"/>
<path d="M430.685 267.678C431.016 267.457 431.347 267.236 431.624 267.016C431.292 267.292 430.961 267.513 430.685 267.678Z" fill="#DF2E2E"/>
<path d="M433.891 249.742C430.021 251.618 426.373 252.943 423.332 255.316C421.895 256.42 420.734 257.413 421.177 259.62C421.508 261.331 421.84 262.214 422.669 262.325C421.729 262.269 421.398 261.386 421.066 259.62C420.624 257.413 421.785 256.42 423.222 255.316C426.317 252.943 429.911 251.618 433.78 249.742C429.745 246.1 425.378 244.775 421.674 245.768C425.323 244.665 429.745 245.989 433.891 249.742Z" fill="#DF2E2E"/>
<path d="M428.694 392.346C428.638 392.236 428.583 392.126 428.473 392.015C427.091 389.697 425.709 387.324 424.327 385.006C425.709 387.269 427.035 389.587 428.417 391.905C428.528 392.015 428.638 392.181 428.694 392.346Z" fill="#DF2E2E"/>
<path d="M425.377 393.284C426.372 395.105 427.202 397.092 426.538 399.134C427.091 397.147 426.317 395.105 425.377 393.284Z" fill="#DF2E2E"/>
<path d="M425.377 393.284C426.316 395.16 427.146 397.147 426.537 399.134C426.482 399.189 426.482 399.299 426.427 399.355C424.934 403.163 423.552 407.026 421.839 410.778C421.562 411.441 421.231 412.103 420.899 412.765C420.733 413.151 420.512 413.538 420.291 413.924C419.959 414.531 419.683 415.138 419.296 415.69C419.13 415.966 418.964 416.242 418.798 416.518C416.311 420.712 412.939 424.41 409.899 428.328C404.371 435.392 398.732 442.235 393.315 449.354C390.883 452.555 388.119 454.873 384.249 456.032C370.54 460.281 356.776 464.641 342.625 467.014C333.283 468.615 323.83 469.277 314.764 469.056C300.337 469.166 286.683 467.29 274.024 460.833C264.958 456.197 256.611 450.403 248.32 444.553C244.174 441.573 242.073 436.937 239.751 432.743C236.379 426.617 234.279 419.995 233.892 412.765C233.671 408.736 234.334 405.149 235.605 401.948C235.716 401.728 235.771 401.507 235.882 401.286C238.093 396.264 242.018 392.18 246.827 388.593C249.038 386.938 251.636 385.723 254.179 384.564C258.657 382.412 263.024 380.315 267.059 377.445C271.813 374.024 277.23 371.982 282.648 369.885C284.914 369.002 287.18 368.063 288.175 365.911C288.231 365.856 288.231 365.801 288.286 365.746C288.618 365.083 288.783 364.311 288.839 363.428C288.839 363.097 288.949 362.821 289.005 362.6C289.005 362.545 289.06 362.49 289.06 362.49C289.613 361.607 290.718 361.386 291.769 361.275C293.593 361.055 295.472 360.834 297.296 360.558H297.352L297.573 362.103C297.407 362.103 297.186 362.214 296.965 362.324C295.749 363.041 294.864 364.2 294.256 365.47C294.035 365.966 293.869 366.463 293.869 366.849C293.869 366.96 293.869 367.07 293.869 367.236C293.98 368.284 294.809 369.002 296.357 369.167C300.779 369.609 305.091 369.167 309.402 368.008C318.247 365.635 326.981 362.986 335.881 361.165C345.499 359.233 355.228 358.019 364.791 355.701C368.385 354.818 371.978 354.211 375.571 353.273C377.395 352.832 378.943 352.887 380.546 353.991C383.476 355.977 386.792 357.247 390.109 358.35C392.486 359.178 394.587 360.337 396.3 362.214C397.682 363.704 399.119 365.47 401.662 364.531C402.381 364.311 402.878 364.863 403.431 365.359C407.964 369.333 411.944 373.693 415.592 378.383C419.296 383.019 422.502 387.986 425.377 393.284Z" fill="#FF8A8A"/>
<path d="M414.543 267.623C420.126 270.768 426.096 270.548 430.684 267.733C426.096 270.603 420.126 270.768 414.487 267.678C410.563 265.526 409.512 262.049 410.01 257.91C409.512 253.219 411.226 249.797 414.1 247.203C411.281 249.797 409.568 253.219 410.065 257.855C409.568 262.049 410.618 265.47 414.543 267.623Z" fill="#DF2E2E"/>
<path d="M423.443 293.119C421.287 294.388 418.633 294.83 416.035 294.499C413.769 294.168 411.447 293.285 409.402 291.739C409.236 291.629 409.07 291.464 408.904 291.353C413.769 291.795 418.578 292.622 423.443 293.119Z" fill="black"/>
<path d="M421.84 410.724C421.563 411.386 421.232 412.048 420.9 412.71C421.232 412.048 421.508 411.386 421.84 410.724Z" fill="#DF2E2E"/>
<path d="M413.16 213.539C414.763 213.264 416.311 213.208 417.804 213.484C413.492 215.581 409.788 217.292 406.195 219.169C402.326 221.21 398.788 223.804 395.858 227.116C393.039 230.261 392.376 234.511 390.109 237.932C390.109 237.436 390.164 236.939 390.22 236.387C390.275 236.056 390.33 235.67 390.386 235.338C390.441 235.173 390.441 235.007 390.496 234.787C390.607 234.455 390.662 234.069 390.773 233.738C390.883 233.407 390.994 233.021 391.104 232.689C391.215 232.358 391.381 231.972 391.546 231.641C395.14 223.308 404.813 215.03 413.16 213.539Z" fill="black"/>
<path d="M414.266 371.044C412.663 369.333 410.95 367.677 409.015 366.132C408.075 365.359 407.136 364.476 406.527 363.483C403.377 358.571 399.397 354.543 394.643 351.121C393.648 350.404 392.984 349.797 392.542 349.19C392.984 349.741 393.648 350.348 394.587 351.011C399.341 354.432 403.321 358.461 406.472 363.373C407.136 364.366 408.02 365.249 408.96 366.022C410.894 367.622 412.663 369.278 414.266 371.044Z" fill="#DF2E2E"/>
<path d="M415.427 340.084C408.517 338.815 401.884 338.759 395.582 341.629C401.939 338.704 408.462 338.759 415.427 340.084Z" fill="#DF2E2E"/>
<path d="M403.542 365.249C408.075 369.278 412.055 373.637 415.703 378.328C412.055 373.637 408.02 369.278 403.542 365.249C402.989 364.808 402.492 364.256 401.773 364.476C399.23 365.415 397.793 363.649 396.411 362.159C394.697 360.282 392.597 359.123 390.22 358.295C386.903 357.192 383.586 355.922 380.657 353.936C379.054 352.832 377.506 352.777 375.682 353.218C372.088 354.156 368.495 354.763 364.902 355.646C355.339 357.964 345.61 359.178 335.992 361.11C327.092 362.931 318.358 365.58 309.513 367.953C305.202 369.112 300.89 369.554 296.468 369.112C294.92 368.947 294.091 368.229 293.98 367.181C294.091 368.229 294.92 368.891 296.468 369.057C300.89 369.498 305.202 369.057 309.513 367.898C318.303 365.525 327.037 362.876 335.992 361.055C345.61 359.123 355.339 357.909 364.902 355.591C368.495 354.708 372.088 354.101 375.682 353.163C377.506 352.722 378.998 352.777 380.657 353.88C383.586 355.867 386.848 357.081 390.22 358.24C392.597 359.068 394.697 360.227 396.411 362.103C397.793 363.649 399.23 365.359 401.773 364.421C402.492 364.145 403.044 364.752 403.542 365.249Z" fill="#DF2E2E"/>
<path d="M409.402 169.776C405.145 167.9 400.778 166.741 396.19 166.465C400.723 166.685 405.145 167.844 409.402 169.776Z" fill="#DF2E2E"/>
<path d="M394.2 166.409C394.863 166.409 395.471 166.409 396.135 166.464C395.527 166.409 394.863 166.409 394.2 166.409Z" fill="#DF2E2E"/>
<path d="M393.592 342.622C393.703 342.567 393.868 342.512 393.979 342.401C393.813 342.512 393.703 342.567 393.592 342.622Z" fill="#DF2E2E"/>
<path d="M413.161 213.539C404.814 215.029 395.14 223.307 391.547 231.64C395.085 223.307 404.759 215.029 413.161 213.539Z" fill="#DF2E2E"/>
<path d="M391.104 232.689C390.994 233.021 390.883 233.408 390.773 233.739C390.828 233.408 390.938 233.021 391.104 232.689Z" fill="#DF2E2E"/>
<path d="M390.773 252.501C390.773 256.806 390.773 261.165 390.773 265.47C390.331 265.47 389.888 265.525 389.446 265.525C388.783 261.662 388.783 257.799 389.336 253.384C389.446 252.667 389.557 251.949 389.667 251.177C390.22 252.777 389.888 251.673 390.496 252.06C390.607 252.115 390.773 252.335 390.773 252.501Z" fill="black"/>
<path d="M390.718 233.738C390.607 234.069 390.497 234.456 390.441 234.787C390.552 234.456 390.607 234.124 390.718 233.738Z" fill="#DF2E2E"/>
<path d="M390.331 235.338C390.276 235.67 390.221 236.056 390.165 236.388C390.221 236.001 390.276 235.67 390.331 235.338Z" fill="#DF2E2E"/>
<path d="M389.336 253.329C388.783 257.799 388.783 261.607 389.446 265.47C388.728 261.662 388.728 257.799 389.336 253.329Z" fill="#DF2E2E"/>
<path d="M381.928 244.279C382.592 248.032 381.873 252.502 380.712 256.917C380.602 257.193 380.546 257.524 380.436 257.8C380.381 257.965 380.325 258.131 380.325 258.296C380.27 258.517 380.215 258.738 380.215 259.014C380.104 259.952 380.381 260.89 381.486 261.663C382.481 262.38 382.039 263.594 381.652 264.588C380.104 268.506 378.169 272.259 375.129 275.239C373.913 276.398 372.697 277.06 371.536 277.115C371.37 277.115 371.204 277.115 371.038 277.115C369.435 276.95 368.164 275.68 367.832 273.307C366.34 264.201 364.903 254.93 365.842 245.714C366.395 240.471 369.656 235.89 373.968 232.689C375.129 231.862 376.235 231.42 377.285 231.365C377.395 231.365 377.561 231.365 377.672 231.365C379.938 231.475 381.652 233.462 381.873 236.663C381.984 237.932 381.984 239.257 381.984 240.692C381.984 240.857 381.984 241.078 381.984 241.243C381.984 241.519 381.984 241.795 381.984 242.071C381.928 242.734 381.928 243.506 381.928 244.279ZM378.446 252.722C379.386 249.301 379.772 245.879 379.496 241.63C379.496 240.471 379.662 238.539 379.441 236.608C379.386 236.111 379.275 235.67 379.109 235.283C378.446 233.904 377.064 233.628 375.405 234.787C375.295 234.897 375.129 235.007 375.019 235.118C374.079 235.835 373.25 236.773 372.476 237.767C372.31 237.987 372.144 238.208 371.978 238.429C368.772 242.789 367.943 247.811 368.717 253.109C369.435 258.296 369.767 263.484 369.933 268.727C369.933 269.665 369.988 270.548 370.154 271.486C370.154 271.596 370.209 271.762 370.209 271.872C370.651 274.08 371.868 274.466 373.415 272.866C373.471 272.811 373.581 272.7 373.637 272.645C375.461 270.769 376.898 268.672 377.451 266.243C377.506 266.023 377.561 265.857 377.561 265.636C377.617 265.416 377.617 265.25 377.617 265.029C377.617 264.919 377.617 264.753 377.672 264.643C377.672 264.477 377.672 264.257 377.672 264.091C377.672 263.594 377.617 263.098 377.561 262.601C377.119 259.179 377.617 255.923 378.446 252.722Z" fill="black"/>
<path d="M380.325 258.297C380.381 258.131 380.436 257.966 380.436 257.8C380.381 257.966 380.325 258.131 380.325 258.297Z" fill="#DF2E2E"/>
<path d="M379.606 347.148C379.717 348.417 378.722 349.465 377.451 349.797C374.244 350.624 370.983 351.507 367.721 352.059C357.882 353.77 348.153 356.033 338.313 357.633C328.805 359.178 319.629 362.214 310.287 364.697C307.578 365.415 304.87 366.132 302.051 366.187C300.061 366.242 297.462 367.015 298.9 363.207C299.176 362.545 298.458 361.993 297.684 362.103C297.462 362.159 297.241 362.214 297.076 362.324C295.859 363.042 294.975 364.2 294.367 365.47C294.146 365.966 293.98 366.408 293.98 366.794C293.98 366.353 294.146 365.911 294.367 365.415C294.975 364.145 295.859 362.986 297.076 362.269C297.297 362.159 297.518 362.048 297.684 362.048L297.462 360.503C317.142 357.688 336.157 351.673 355.892 349.134C360.922 348.527 365.842 347.148 370.872 346.265C372.752 345.933 374.687 345.878 376.621 345.878C377.782 345.878 379.385 345.437 379.606 347.148Z" fill="#FF8A8A"/>
<path d="M378.446 252.722C379.33 249.301 379.717 245.879 379.496 241.63C379.772 245.879 379.385 249.301 378.446 252.722Z" fill="#DF2E2E"/>
<path d="M379.496 241.629C379.717 245.879 379.33 249.3 378.446 252.722C377.616 255.923 377.119 259.179 377.616 262.545C377.672 263.042 377.727 263.539 377.727 264.035C377.727 264.201 377.727 264.422 377.727 264.587C377.727 264.698 377.727 264.863 377.672 264.973C377.672 265.194 377.616 265.36 377.616 265.581C377.561 265.801 377.561 265.967 377.506 266.188C376.898 268.616 375.461 270.658 373.692 272.589C373.636 272.645 373.526 272.755 373.47 272.81C371.923 274.411 370.707 274.024 370.264 271.817C370.209 271.706 370.209 271.541 370.209 271.43C370.043 270.547 370.043 269.609 369.988 268.671C369.877 263.428 369.546 258.241 368.772 253.053C368.053 247.755 368.882 242.733 372.033 238.373C372.199 238.152 372.365 237.932 372.531 237.711C373.249 236.773 374.079 235.835 375.074 235.062C375.184 234.952 375.35 234.841 375.461 234.731C377.119 233.627 378.501 233.848 379.164 235.228C379.33 235.614 379.441 236.055 379.496 236.552C379.662 238.539 379.496 240.47 379.496 241.629Z" fill="#FF8A8A"/>
<path d="M375.405 234.786C377.064 233.627 378.446 233.903 379.109 235.283C378.446 233.903 377.064 233.683 375.405 234.786Z" fill="#DF2E2E"/>
<path d="M377.008 462.103C377.229 462.434 377.395 462.71 377.616 463.041C376.898 463.593 376.179 464.09 375.405 464.642C373.194 466.297 371.038 467.953 368.772 469.388C354.786 478.162 339.916 485.226 324.272 490.635C323.277 490.966 322.227 491.242 321.287 491.683C309.181 497.368 296.523 497.312 283.643 495.602C280.713 495.215 277.673 495.215 274.743 495.27C266.451 495.381 258.823 493.229 251.581 489.31C238.149 482.026 225.6 473.416 213.052 464.697C207.69 460.944 202.936 456.584 199.73 450.734C199.067 449.52 198.072 448.472 197.187 447.423C195.529 445.436 194.147 443.229 193.041 440.966C192.489 439.862 191.991 438.759 191.549 437.655C190.499 434.896 189.614 432.081 188.895 429.156C188.564 427.776 188.011 426.562 187.458 425.293C184.639 418.781 184.307 412.048 185.579 405.205C186.297 401.342 188.343 398.472 191.936 396.761C195.75 394.94 199.564 393.119 203.323 391.298C218.58 383.792 233.947 376.563 249.757 370.326C260.149 366.243 270.984 364.366 281.874 362.49C282.593 362.324 283.256 362.379 283.974 362.324C284.638 362.269 285.191 362.435 285.522 362.821C285.578 362.876 285.633 362.931 285.633 362.987C285.743 363.152 285.854 363.318 285.909 363.538C286.13 364.477 285.854 365.304 285.025 365.801C284.14 366.353 283.201 366.85 282.206 367.181C275.517 369.775 269.049 372.81 263.024 376.894C259.873 379.046 256.28 380.591 252.742 382.192C247.546 384.51 242.903 387.6 238.978 391.684C231.902 399.079 229.58 408.13 231.46 417.898C232.455 423.03 233.947 428.052 236.159 432.798C236.601 433.737 237.098 434.675 237.596 435.613C238.812 437.821 240.139 439.918 241.742 441.96C243.455 444.167 245.224 446.43 247.546 447.975C256.888 454.211 265.843 460.944 276.125 465.635C285.025 469.719 294.477 471.706 304.096 472.257C325.102 473.471 345.776 471.706 365.897 465.028C369.103 463.979 372.365 463.262 375.626 462.434C376.068 462.324 376.511 462.213 377.008 462.103Z" fill="#DF2E2E"/>
<path d="M377.285 231.365C376.234 231.42 375.129 231.862 373.968 232.689C369.656 235.89 366.395 240.471 365.842 245.714C364.902 254.93 366.339 264.201 367.832 273.307C368.219 275.68 369.49 276.95 371.038 277.115C369.435 277.005 368.164 275.68 367.777 273.307C366.284 264.201 364.847 254.93 365.787 245.714C366.339 240.471 369.546 235.946 373.913 232.689C375.073 231.806 376.234 231.365 377.285 231.365Z" fill="#DF2E2E"/>
<path d="M372.475 237.711C373.194 236.718 374.023 235.835 375.018 235.062C374.023 235.835 373.194 236.773 372.475 237.711Z" fill="#DF2E2E"/>
<path d="M371.923 238.373C368.772 242.733 367.942 247.755 368.661 253.053C367.887 247.755 368.772 242.733 371.923 238.373Z" fill="#DF2E2E"/>
<path d="M375.571 462.434C372.31 463.207 369.048 463.979 365.842 465.028C345.721 471.706 325.047 473.472 304.041 472.258C294.422 471.706 284.97 469.719 276.07 465.635C265.788 460.944 256.833 454.211 247.491 447.975C245.169 446.43 243.4 444.167 241.687 441.96C240.139 439.918 238.757 437.821 237.541 435.613C238.702 437.765 240.084 439.863 241.631 441.849C243.345 444.112 245.114 446.319 247.436 447.865C256.722 454.046 265.733 460.834 276.015 465.525C284.97 469.608 294.367 471.595 303.986 472.147C324.936 473.416 345.666 471.595 365.787 464.918C369.048 463.924 372.365 463.207 375.571 462.434Z" fill="#DF2E2E"/>
<path d="M327.258 351.177C336.71 349.411 346.163 347.81 355.616 345.989C346.163 347.81 336.655 349.466 327.258 351.177Z" fill="#DF2E2E"/>
<path d="M338.259 305.26C338.48 304.046 338.646 302.887 338.812 301.729C338.646 302.887 338.425 304.046 338.259 305.26Z" fill="#DF2E2E"/>
<path d="M336.324 288.483C336.435 294.112 336.103 299.631 335.274 305.15C334.5 310.668 333.228 316.132 331.515 321.596C331.294 322.258 331.073 322.975 330.851 323.637C330.63 324.244 330.409 324.907 330.243 325.514C329.635 327.39 329.083 329.322 328.751 331.253C327.479 338.648 322.449 344.498 320.238 351.507C320.127 351.948 319.851 352.28 319.575 352.5C319.519 352.556 319.464 352.611 319.409 352.611C319.354 352.666 319.298 352.721 319.243 352.721C318.414 353.163 317.308 353.273 316.368 353.494C306.861 356.032 297.187 357.633 287.403 358.626C274.136 359.951 261.035 362.434 248.542 367.346C232.732 373.582 217.42 380.922 202.218 388.538C198.349 390.524 194.314 392.346 190.444 394.332C188.122 395.491 186.298 397.036 184.971 398.747C184.75 399.023 184.584 399.244 184.419 399.52C182.539 402.224 181.544 405.535 181.268 409.343C180.715 416.297 182.318 422.809 184.75 429.156C185.137 430.149 185.58 431.087 185.911 432.08C186.575 433.957 186.796 434.95 186.353 435.557C185.911 435.999 185.027 436.219 183.589 436.551C178.891 437.599 174.137 437.378 169.438 436.826C164.961 436.33 160.428 435.668 155.895 435.116C151.086 434.564 146.608 433.019 142.96 429.818C139.533 426.838 135.829 424.189 131.904 421.871C119.964 414.807 112.667 403.659 105.702 392.29C101.003 384.675 96.7469 376.838 92.6563 368.891C89.1185 362.048 86.7416 354.598 84.8068 347.202C82.1534 337.103 79.0025 327.059 77.0125 316.739C74.6355 304.487 72.3691 292.236 73.9169 279.764C76.0728 262.435 81.877 246.541 93.8725 233.296C96.7469 230.15 99.3451 226.784 102.22 223.693C102.385 223.528 102.551 223.362 102.717 223.197C104.818 221.044 107.029 219.058 109.572 217.347C117.034 212.49 124.442 207.468 132.291 203.164C135.11 201.618 138.151 201.343 141.357 201.011C150.809 200.018 159.82 201.784 168.885 203.826C173.474 204.874 178.283 205.095 183.037 205.15C204.982 205.426 205.038 205.592 228.918 198.528C238.536 195.658 248.265 193.671 258.105 192.016C265.789 190.747 273.307 191.519 280.437 195.437C290.996 201.177 300.504 208.241 309.846 215.636C313.052 218.175 315.595 221.32 317.529 224.907C325.766 240.194 332.786 255.978 335.384 273.417C335.771 275.569 335.992 277.777 336.103 279.929C336.103 279.984 336.103 280.04 336.103 280.095C336.213 282.247 336.269 284.399 336.269 286.552C336.269 287.214 336.269 287.821 336.324 288.483ZM133.286 237.711C134.226 235.614 134.447 233.737 133.894 232.247C133.784 231.861 133.618 231.53 133.397 231.254C133.231 231.033 133.065 230.757 132.844 230.592C132.733 230.481 132.567 230.316 132.402 230.205C132.346 230.15 132.291 230.095 132.18 230.04C132.07 229.985 131.959 229.874 131.904 229.819C131.794 229.764 131.738 229.709 131.628 229.654C130.246 228.881 128.366 228.439 125.934 228.439C122.451 228.771 119.19 231.254 116.426 234.51C115.099 236.166 113.994 237.932 112.778 239.642C104.597 251.177 99.5662 263.87 98.8475 278.108C98.8475 278.384 98.8475 278.605 98.8475 278.825C98.8475 279.101 98.8475 279.322 98.8475 279.543C98.7923 286.993 101.556 293.395 107.968 297.699C114.768 302.28 118.969 299.907 119.245 291.85C119.301 290.635 119.301 289.477 119.356 288.262C119.522 283.461 119.577 278.715 119.522 273.914C119.522 273.748 119.522 273.638 119.522 273.472C119.522 265.912 121.788 259.068 125.547 252.611C127.316 249.521 129.03 246.43 130.633 243.285C130.964 242.623 131.296 242.015 131.628 241.353C132.07 240.139 132.678 238.925 133.286 237.711ZM122.12 333.957C123.889 332.633 123.668 330.701 123.336 328.715C122.23 322.092 119.411 316.077 116.924 309.951C115.984 307.744 114.27 306.916 111.949 306.861C111.893 306.861 111.893 306.861 111.838 306.861C111.783 306.861 111.783 306.861 111.727 306.861C109.461 306.805 107.747 307.688 106.587 309.675C105.536 311.386 105.481 313.317 105.481 315.249C105.481 319.995 110.567 330.37 114.27 333.13C114.823 333.571 115.376 333.957 116.039 334.233C117.642 334.84 119.245 335.227 120.683 334.73C121.18 334.509 121.622 334.289 122.12 333.957Z" fill="#DF2E2E"/>
<path d="M336.102 280.095C336.213 282.248 336.268 284.4 336.268 286.552C336.268 284.4 336.213 282.248 336.102 280.095Z" fill="#DF2E2E"/>
<path d="M338.037 306.475C336.323 315.746 334.333 324.907 331.293 333.792C334.278 324.907 336.268 315.691 338.037 306.475Z" fill="#DF2E2E"/>
<path d="M331.514 321.541C333.228 316.132 334.444 310.669 335.273 305.095C334.499 310.669 333.228 316.132 331.514 321.541Z" fill="#DF2E2E"/>
<path d="M331.238 333.792C330.961 334.675 330.63 335.558 330.298 336.441C330.63 335.558 330.961 334.675 331.238 333.792Z" fill="#DF2E2E"/>
<path d="M322.946 227.943C328.695 237.987 332.288 249.025 335.66 259.952C332.233 248.97 328.64 237.987 322.946 227.943Z" fill="#DF2E2E"/>
<path d="M324.162 350.734C325.047 351.452 325.987 351.397 326.926 351.231C325.987 351.342 324.992 351.507 324.162 350.734Z" fill="#DF2E2E"/>
<path d="M324.383 349.3C324.162 349.686 324.218 350.293 324.162 350.735C324.218 350.293 324.107 349.686 324.383 349.3Z" fill="#DF2E2E"/>
<path d="M322.614 187.656C323.001 186.718 323.609 185.946 324.604 185.339C323.609 186.001 323.001 186.718 322.614 187.656Z" fill="#DF2E2E"/>
<path d="M317.362 194.223C319.518 193.396 321.232 191.63 322.061 189.256C321.232 191.685 319.518 193.396 317.362 194.223Z" fill="#DF2E2E"/>
<path d="M319.629 183.573C319.684 183.904 319.684 184.29 319.629 184.677C319.574 185.835 319.187 186.994 318.523 188.098C318.468 188.209 318.413 188.264 318.358 188.374C318.137 188.705 317.86 189.036 317.473 189.312C317.363 189.423 317.197 189.533 317.086 189.588C316.92 189.699 316.755 189.809 316.589 189.919C314.709 191.078 312.001 191.961 309.845 192.016C309.679 192.016 309.513 192.016 309.347 192.016C308.573 191.961 307.91 191.851 307.412 191.575C301.221 188.098 294.643 186.939 287.678 187.215C284.417 187.326 281.487 186.167 278.668 184.621C272.919 181.531 267.059 179.103 260.205 179.489C256.612 179.71 252.853 178.772 249.481 177.171C248.375 176.619 247.767 176.012 247.601 175.295C247.491 174.522 247.933 173.694 249.038 172.866C251.36 171.1 254.235 170.935 257.054 170.88C262.692 170.825 268.22 171.708 273.803 172.37C277.562 172.811 281.266 173.694 286.075 172.977L286.02 172.922H286.075C280.934 168.948 273.582 167.844 254.013 167.679C257.164 163.981 261.144 161.774 264.959 159.511C266.562 158.573 268.386 159.456 270.044 160.063C279.22 163.429 288.673 161.719 298.015 162.16C298.015 162.05 298.07 161.884 298.07 161.774C298.07 161.663 298.07 161.608 298.07 161.498C298.07 159.953 296.91 160.063 296.08 160.008C293.095 159.842 290.11 159.787 287.125 159.787C280.934 159.842 275.075 158.021 268.994 156.862C271.813 151.675 274.135 150.516 279.386 151.288C283.532 151.895 287.678 152.061 293.04 151.288L292.985 151.233H293.04C288.452 148.198 283.974 150.626 279.994 148.474C281.874 145.328 286.628 145.218 287.954 140.803V140.748C283.422 142.072 280.16 144.555 276.678 146.597C273.195 148.639 269.934 150.957 266.285 154.324C266.064 148.529 267.336 143.231 268.939 138.099C269.381 136.719 269.823 135.394 270.265 134.07C271.868 129.379 273.527 124.743 274.411 119.942V119.887C273.582 120.163 273.029 120.163 272.974 120.328C270.652 128.496 264.903 135.394 264.019 144.169C263.798 146.045 263.411 147.977 263.356 149.853C263.356 150.35 263.356 150.792 263.356 151.288C263.356 151.564 263.411 151.785 263.411 152.061C263.411 152.282 263.466 152.502 263.466 152.723C263.466 153.109 263.466 153.496 263.466 153.882C263.3 156.697 261.863 158.683 259.044 160.063C257.993 160.56 257.275 161.829 255.561 161.388C255.561 161.167 255.561 160.891 255.617 160.67C255.893 156.09 256.888 151.564 257.662 147.039C257.828 146.045 257.994 145.107 258.104 144.169C258.159 144.004 258.159 143.838 258.159 143.672C258.215 143.121 258.325 142.513 258.38 141.906C258.436 141.299 258.491 140.637 258.546 140.03C258.602 139.478 258.602 138.871 258.602 138.319V138.264C256.501 141.355 254.511 144.5 254.013 148.308C253.571 151.619 253.018 154.875 252.797 158.187C252.797 158.352 252.797 158.518 252.742 158.683C252.687 159.07 252.631 159.456 252.631 159.842C252.576 160.008 252.576 160.173 252.521 160.339C252.466 160.67 252.41 161.001 252.3 161.332C252.189 161.774 252.079 162.215 251.913 162.657C251.858 162.822 251.802 162.933 251.747 163.098C251.747 163.098 251.747 163.154 251.692 163.209C250.476 166.52 248.43 169.39 246.053 172.204C244.561 173.97 243.455 173.584 242.515 171.708C241.686 170.107 241.355 168.451 241.244 166.63C241.244 166.41 241.189 166.244 241.189 166.023C240.415 152.006 242.35 138.54 248.099 125.626C251.692 117.569 256.888 111.002 264.903 106.807C269.049 104.655 273.527 103.827 277.949 102.944C281.874 102.172 286.13 106.421 286.573 111.167C286.738 112.933 286.849 114.699 286.959 116.465C287.125 119.39 287.181 122.37 287.181 125.295C287.181 125.737 287.181 126.233 287.236 126.675C287.512 133.628 289.392 139.864 295.141 144.555C295.528 144.887 295.97 145.273 296.191 145.714C300.226 153.661 307.081 159.842 310.84 168.01C311.171 168.727 311.558 169.5 311.945 170.162C311.945 170.162 311.945 170.217 312.001 170.217C313.161 172.425 314.543 174.522 316.036 176.454C316.423 176.95 316.81 177.447 317.141 177.944C317.473 178.44 317.805 178.937 318.137 179.489C318.192 179.599 318.247 179.71 318.302 179.765C319.076 180.979 319.518 182.303 319.629 183.573Z" fill="#13751E"/>
<path d="M319.298 352.721C319.353 352.666 319.408 352.666 319.464 352.611C319.408 352.611 319.353 352.666 319.298 352.721Z" fill="#DF2E2E"/>
<path d="M316.423 353.494C317.363 353.274 318.468 353.163 319.298 352.722C318.468 353.219 317.308 353.329 316.313 353.605C306.805 356.144 297.131 357.744 287.347 358.737C274.08 360.117 260.979 362.545 248.486 367.457C232.621 373.693 217.309 381.033 202.162 388.649C198.238 390.636 194.258 392.402 190.388 394.443C188.122 395.602 186.353 397.037 185.026 398.748C186.408 396.982 188.177 395.492 190.499 394.333C194.368 392.346 198.404 390.525 202.273 388.538C217.475 380.923 232.787 373.583 248.596 367.347C261.089 362.435 274.19 359.951 287.457 358.627C297.242 357.634 306.915 356.033 316.423 353.494Z" fill="#DF2E2E"/>
<path d="M318.414 179.709C319.132 180.979 319.574 182.303 319.63 183.573C319.519 182.303 319.077 180.979 318.414 179.709Z" fill="#DF2E2E"/>
<path d="M317.474 189.256C317.363 189.367 317.197 189.477 317.087 189.533C317.197 189.477 317.363 189.367 317.474 189.256Z" fill="#DF2E2E"/>
<path d="M316.147 176.343C316.534 176.895 316.921 177.392 317.253 177.889C316.866 177.337 316.534 176.895 316.147 176.343C314.599 174.412 313.273 172.315 312.112 170.162C313.217 172.315 314.599 174.357 316.147 176.343Z" fill="#DF2E2E"/>
<path d="M312.056 170.052C311.669 169.334 311.282 168.617 310.951 167.899C307.192 159.732 300.337 153.551 296.302 145.604C296.081 145.162 295.639 144.776 295.252 144.445C289.503 139.754 287.623 133.518 287.347 126.564C287.679 133.518 289.503 139.699 295.252 144.39C295.639 144.721 296.081 145.107 296.302 145.549C300.337 153.551 307.192 159.676 310.951 167.844C311.282 168.562 311.614 169.334 312.056 170.052Z" fill="#DF2E2E"/>
<path d="M309.845 192.017C312.001 191.961 314.709 191.078 316.589 189.919C314.709 191.134 312.001 191.961 309.845 192.017Z" fill="#DF2E2E"/>
<path d="M304.649 206.199C304.759 207.469 305.754 208.573 307.745 210.228C305.754 208.573 304.759 207.469 304.649 206.199Z" fill="#DF2E2E"/>
<path d="M298.015 162.105C298.015 161.994 298.015 161.884 298.071 161.774C298.015 161.884 298.015 161.994 298.015 162.105C288.673 161.718 279.221 163.429 270.045 160.063C268.386 159.456 266.562 158.573 264.959 159.511C261.089 161.774 257.165 163.981 254.014 167.679H253.958C257.109 163.981 261.089 161.718 264.959 159.456C266.562 158.518 268.386 159.401 270.045 160.008C279.221 163.374 288.729 161.608 298.015 162.105Z" fill="#DF2E2E"/>
<path d="M297.463 360.393V360.503H297.408C295.583 360.779 293.704 361 291.88 361.221C290.83 361.331 289.669 361.552 289.171 362.435C289.669 361.441 290.829 361.221 291.935 361.11C293.759 360.889 295.639 360.669 297.463 360.393Z" fill="#DF2E2E"/>
<path d="M292.93 151.289C292.93 151.289 292.985 151.289 292.985 151.344C287.623 152.117 283.477 151.951 279.331 151.344C274.025 150.571 271.703 151.73 268.939 156.918C268.939 156.918 268.939 156.918 268.884 156.918C271.703 151.675 274.025 150.571 279.331 151.289C283.477 151.896 287.623 152.061 292.93 151.289Z" fill="#DF2E2E"/>
<path d="M287.955 140.858C286.573 145.273 281.874 145.383 279.995 148.529C279.995 148.529 279.995 148.529 279.939 148.529C281.819 145.328 286.573 145.273 287.955 140.858Z" fill="#DF2E2E"/>
<path d="M282.759 369.774C284.97 368.891 287.181 368.008 288.231 365.966C287.181 368.063 284.97 369.057 282.704 369.94C277.286 372.037 271.869 374.079 267.115 377.5C263.08 380.37 258.713 382.467 254.235 384.62C251.692 385.778 249.094 386.993 246.883 388.648C242.074 392.235 238.204 396.319 235.938 401.341C238.149 396.264 242.074 392.125 246.938 388.538C249.149 386.882 251.803 385.723 254.29 384.509C258.713 382.412 263.135 380.26 267.17 377.39C271.924 373.968 277.342 371.871 282.759 369.774Z" fill="#DF2E2E"/>
<path d="M286.684 111.002C286.849 112.768 286.96 114.589 287.071 116.355C286.96 114.589 286.849 112.823 286.684 111.057C286.241 106.311 281.985 102.061 278.06 102.834C273.638 103.717 269.16 104.545 265.014 106.697C256.999 110.891 251.803 117.459 248.21 125.516C242.516 138.485 240.526 151.951 241.3 165.913C240.471 151.895 242.461 138.375 248.21 125.461C251.803 117.348 256.999 110.781 265.014 106.642C269.16 104.49 273.638 103.662 278.06 102.779C281.985 102.006 286.241 106.256 286.684 111.002Z" fill="#DF2E2E"/>
<path d="M285.965 172.922L286.02 172.977C281.211 173.694 277.507 172.811 273.748 172.37C268.165 171.707 262.637 170.824 256.999 170.88C254.18 170.935 251.305 171.1 248.983 172.866C247.878 173.694 247.436 174.522 247.546 175.295C247.38 174.467 247.822 173.639 248.983 172.811C251.305 171.045 254.18 170.88 256.999 170.824C262.637 170.769 268.165 171.652 273.748 172.315C277.452 172.756 281.211 173.584 285.965 172.922Z" fill="#DF2E2E"/>
<path d="M283.919 362.213C284.583 362.158 285.191 362.379 285.522 362.82C285.191 362.434 284.638 362.324 283.975 362.324C283.256 362.379 282.593 362.324 281.874 362.489C270.984 364.366 260.15 366.242 249.757 370.326C233.948 376.562 218.58 383.792 203.323 391.297C199.564 393.118 195.75 394.939 191.936 396.761C188.343 398.471 186.297 401.341 185.579 405.204C184.307 412.048 184.639 418.78 187.458 425.292C188.011 426.562 188.564 427.776 188.895 429.156C189.669 432.025 190.499 434.895 191.549 437.654C190.443 434.84 189.614 431.97 188.84 429.045C188.509 427.665 187.956 426.451 187.403 425.182C184.529 418.725 184.252 411.992 185.524 405.094C186.242 401.231 188.287 398.361 191.881 396.65C195.695 394.829 199.509 393.063 203.268 391.187C218.525 383.736 233.892 376.452 249.702 370.216C260.094 366.132 270.929 364.255 281.819 362.379C282.482 362.269 283.201 362.269 283.919 362.213Z" fill="#DF2E2E"/>
<path d="M274.412 119.942C273.528 124.799 271.869 129.379 270.266 134.07C271.869 129.379 273.528 124.744 274.412 119.942Z" fill="#DF2E2E"/>
<path d="M263.466 152.005C263.466 152.281 263.521 152.502 263.521 152.723C263.521 152.502 263.466 152.281 263.466 152.06C263.411 151.784 263.411 151.564 263.411 151.288C263.411 151.508 263.411 151.729 263.466 152.005Z" fill="#DF2E2E"/>
<path d="M258.381 141.851C258.437 141.244 258.492 140.582 258.547 139.975C258.547 140.582 258.492 141.189 258.381 141.851Z" fill="#DF2E2E"/>
<path d="M252.577 160.229C252.577 160.063 252.632 159.897 252.687 159.732C252.632 159.897 252.632 160.063 252.577 160.229Z" fill="#DF2E2E"/>
<path d="M252.355 161.167C252.41 160.836 252.521 160.505 252.576 160.173C252.521 160.56 252.466 160.891 252.355 161.167Z" fill="#DF2E2E"/>
<path d="M243.898 189.754C244.396 189.754 244.949 189.698 245.391 190.692C232.898 194.224 220.681 197.756 208.409 201.233C208.299 201.288 208.188 201.288 208.078 201.343C207.801 201.398 207.47 201.509 207.249 201.564C206.641 201.674 206.143 201.729 205.701 201.619C204.651 201.398 204.264 200.405 204.042 198.197C203.987 197.866 203.987 197.59 203.987 197.259C203.932 196.542 203.987 195.769 203.987 195.052C203.987 194.831 203.987 194.61 203.987 194.445C204.153 191.354 204.706 190.802 208.244 190.692C217.143 190.361 226.043 190.14 234.998 189.974C237.928 189.864 240.913 189.809 243.898 189.754Z" fill="#A11515"/>
<path d="M208.409 201.233C220.681 197.756 232.897 194.224 245.39 190.692C232.897 194.279 220.681 197.811 208.409 201.233Z" fill="#DF2E2E"/>
<path d="M234.943 189.919C226.043 190.14 217.143 190.306 208.188 190.637C204.65 190.747 204.097 191.299 203.931 194.39C204.097 191.244 204.595 190.692 208.188 190.582C217.088 190.306 226.043 190.14 234.943 189.919Z" fill="#DF2E2E"/>
<path d="M197.298 200.184C197.353 200.736 197.409 201.287 197.409 201.839C191.383 201.895 185.413 202.226 179.388 202.005C173.252 201.784 167.061 201.012 160.648 198.859C166.232 196.652 171.151 195.106 176.237 194.886C181.986 194.499 187.735 194.279 193.429 193.34C194.866 193.065 195.695 193.34 196.082 194.61C196.082 194.665 196.137 194.72 196.137 194.831C196.303 195.603 196.579 196.376 196.745 197.204C196.966 198.197 197.188 199.135 197.298 200.184Z" fill="#A11515"/>
<path d="M196.027 194.666C195.64 193.396 194.811 193.12 193.373 193.396C187.68 194.334 181.931 194.555 176.182 194.941C171.096 195.217 166.232 196.763 160.593 198.915C160.538 198.915 160.538 198.915 160.538 198.86C166.176 196.652 171.041 195.107 176.182 194.831C181.931 194.5 187.68 194.279 193.373 193.286C194.811 193.12 195.64 193.341 196.027 194.666Z" fill="#DF2E2E"/>
<path d="M183.59 436.551C185.027 436.22 185.911 436 186.354 435.558C185.967 436.055 185.082 436.331 183.479 436.662C178.78 437.71 174.082 437.545 169.328 436.938C164.795 436.386 160.317 435.724 155.785 435.227C150.975 434.675 146.498 433.13 142.849 429.929C139.422 426.894 135.718 424.3 131.794 421.982C119.854 414.918 112.557 403.77 105.592 392.402C100.948 384.786 96.6919 376.894 92.546 369.002C89.0082 362.159 86.6312 354.709 84.6964 347.314C82.0431 337.159 78.8922 327.17 76.9021 316.85C74.5252 304.599 72.314 292.347 73.8066 279.875C75.9624 262.491 81.7666 246.652 93.7621 233.407C96.6366 230.206 99.29 226.84 102.22 223.694C99.3452 226.785 96.7471 230.151 93.8726 233.297C81.8772 246.542 76.073 262.436 73.9171 279.764C72.3693 292.237 74.6357 304.488 77.0127 316.74C79.0027 327.06 82.1536 337.104 84.807 347.203C86.7417 354.598 89.1187 362.049 92.6565 368.892C96.7471 376.839 101.004 384.675 105.702 392.291C112.667 403.66 119.964 414.808 131.904 421.872C135.829 424.19 139.533 426.839 142.96 429.819C146.608 433.02 151.086 434.565 155.895 435.117C160.428 435.668 164.961 436.331 169.438 436.827C174.137 437.379 178.891 437.6 183.59 436.551Z" fill="#DF2E2E"/>
<path d="M133.838 232.248C134.391 233.738 134.225 235.559 133.23 237.657C132.677 238.926 132.069 240.14 131.461 241.354C131.13 242.016 130.798 242.623 130.466 243.286C128.863 246.376 127.15 249.467 125.381 252.502C121.511 259.014 119.3 265.857 119.355 273.473C119.355 273.639 119.355 273.749 119.355 273.915C119.466 278.716 119.355 283.517 119.189 288.263C119.134 289.422 119.134 290.581 119.079 291.74C118.803 299.797 114.601 302.17 107.802 297.59C101.5 293.285 98.6812 286.939 98.6812 279.544C98.6812 279.268 98.6812 279.047 98.6812 278.826C98.6812 278.606 98.6812 278.385 98.6812 278.219C99.3998 263.981 104.43 251.288 112.611 239.754C113.827 238.043 114.933 236.222 116.26 234.621C119.024 231.31 122.285 228.771 125.768 228.495C128.145 228.495 130.079 228.882 131.461 229.654C131.572 229.71 131.627 229.765 131.738 229.82C131.848 229.875 131.959 229.93 132.014 230.041C132.069 230.096 132.18 230.151 132.235 230.206C132.401 230.317 132.512 230.427 132.677 230.593C132.899 230.813 133.064 231.034 133.23 231.255C133.562 231.531 133.728 231.862 133.838 232.248ZM130.853 235.559C131.406 233.131 130.466 231.972 127.979 231.641C127.813 231.641 127.592 231.586 127.426 231.586C127.094 231.586 126.763 231.586 126.431 231.586C125.16 231.696 123.999 232.083 122.838 232.8C119.963 234.621 117.586 236.939 116.481 240.25C115.652 242.679 114.436 244.665 112.224 245.99C111.119 246.652 110.455 247.701 109.903 248.749C104.872 257.91 101.777 267.678 101.39 278.164C101.39 279.544 101.169 280.979 101.445 282.358C102.44 287.877 104.541 292.844 109.682 295.714C111.451 296.707 112.888 297.093 113.883 296.817C113.993 296.817 114.049 296.762 114.104 296.762C115.375 296.321 116.039 294.775 116.094 292.182C116.204 285.89 116.149 279.599 116.26 273.308C116.37 265.637 118.416 258.517 122.34 251.895C124.828 247.645 127.039 243.286 129.361 238.981C130.024 237.822 130.577 236.718 130.853 235.559Z" fill="black"/>
<path d="M132.346 230.151C132.29 230.096 132.235 230.041 132.125 229.985C132.18 230.041 132.235 230.096 132.346 230.151Z" fill="#DF2E2E"/>
<path d="M131.793 229.764C131.683 229.709 131.627 229.654 131.517 229.599C131.627 229.654 131.738 229.709 131.793 229.764Z" fill="#DF2E2E"/>
<path d="M127.979 231.641C130.466 231.972 131.406 233.131 130.853 235.559C130.577 236.718 130.024 237.822 129.416 238.925C127.094 243.23 124.883 247.59 122.395 251.839C118.471 258.462 116.425 265.581 116.315 273.252C116.204 279.543 116.26 285.835 116.149 292.126C116.094 294.775 115.43 296.265 114.159 296.706C115.375 296.21 115.983 294.665 116.094 292.126C116.204 285.835 116.204 279.543 116.26 273.252C116.37 265.581 118.415 258.462 122.34 251.839C124.828 247.645 127.039 243.285 129.361 238.925C129.969 237.822 130.521 236.718 130.798 235.559C131.351 233.131 130.466 231.972 127.923 231.641C127.757 231.641 127.592 231.585 127.426 231.585C127.592 231.585 127.757 231.585 127.979 231.641Z" fill="#DF2E2E"/>
<path d="M127.923 231.641C130.466 231.972 131.351 233.131 130.798 235.559C130.521 236.718 129.969 237.822 129.361 238.925C127.039 243.285 124.828 247.645 122.34 251.839C118.415 258.462 116.37 265.581 116.259 273.252C116.204 279.543 116.204 285.835 116.094 292.126C116.038 294.72 115.43 296.21 114.159 296.707C114.104 296.762 113.993 296.762 113.938 296.762C112.943 296.982 111.561 296.651 109.792 295.658C104.651 292.788 102.55 287.821 101.555 282.303C101.334 280.923 101.5 279.488 101.5 278.108C101.887 267.623 104.983 257.855 110.013 248.694C110.621 247.59 111.229 246.597 112.335 245.934C114.546 244.61 115.762 242.623 116.591 240.195C117.697 236.939 120.074 234.621 122.948 232.745C124.054 232.027 125.215 231.641 126.486 231.53C126.818 231.53 127.149 231.53 127.481 231.53C127.592 231.586 127.757 231.586 127.923 231.641Z" fill="#FF8A8A"/>
<path d="M131.517 229.599C130.135 228.826 128.255 228.385 125.823 228.44C122.34 228.716 119.079 231.255 116.315 234.566C114.988 236.166 113.883 237.987 112.667 239.698C104.485 251.232 99.4549 263.925 98.7363 278.164C98.7363 278.384 98.7363 278.605 98.7363 278.771C98.7363 278.55 98.7363 278.274 98.7363 278.053C99.4549 263.815 104.485 251.122 112.667 239.588C113.883 237.877 114.988 236.111 116.315 234.455C119.079 231.199 122.34 228.716 125.823 228.385C128.255 228.385 130.135 228.826 131.517 229.599Z" fill="#DF2E2E"/>
<path d="M123.335 328.715C123.667 330.702 123.888 332.633 122.119 333.958C121.677 334.289 121.179 334.565 120.737 334.731C121.179 334.565 121.677 334.344 122.119 333.958C123.833 332.633 123.612 330.647 123.335 328.715C122.174 322.093 119.355 316.077 116.812 309.951C115.873 307.744 114.159 306.916 111.837 306.861C111.893 306.861 111.893 306.861 111.948 306.861C114.27 306.916 115.983 307.744 116.923 309.951C119.411 316.077 122.23 322.093 123.335 328.715Z" fill="#DF2E2E"/>
<path d="M123.279 328.715C123.611 330.647 123.832 332.633 122.063 333.958C121.621 334.289 121.179 334.565 120.681 334.731C119.189 335.227 117.641 334.841 116.149 334.234C115.54 333.958 114.932 333.516 114.38 333.13C110.676 330.316 105.59 319.94 105.59 315.249C105.59 313.318 105.646 311.441 106.696 309.675C107.857 307.744 109.515 306.861 111.726 306.861C111.782 306.861 111.782 306.861 111.837 306.861C114.158 306.916 115.872 307.744 116.812 309.951C119.355 316.077 122.174 322.093 123.279 328.715ZM119.576 332.247C120.294 331.971 120.681 331.309 120.681 330.15C120.681 330.04 120.681 329.929 120.681 329.819C120.516 328.936 120.294 327.942 120.129 326.894C119.299 321.872 116.922 317.347 114.988 312.656C114.656 311.883 114.324 311.166 113.827 310.559C113.772 310.503 113.716 310.393 113.606 310.338C113.053 309.786 112.334 309.455 111.173 309.675C109.018 310.007 108.575 311.773 108.354 313.594C107.249 321.154 111.616 326.397 116.149 331.53C116.37 331.75 116.701 331.916 117.033 332.026C117.365 332.137 117.752 332.247 118.083 332.302C118.581 332.357 119.023 332.357 119.355 332.302C119.465 332.302 119.521 332.302 119.576 332.247Z" fill="black"/>
<path d="M120.682 329.874C120.682 329.984 120.682 330.095 120.682 330.205C120.682 331.364 120.295 332.026 119.576 332.302C119.521 332.302 119.466 332.357 119.411 332.357C119.079 332.468 118.637 332.468 118.139 332.357C117.807 332.302 117.421 332.247 117.089 332.081C116.757 331.971 116.426 331.805 116.26 331.585C111.727 326.452 107.36 321.21 108.465 313.649C108.742 311.883 109.129 310.062 111.285 309.731C112.335 309.565 113.109 309.896 113.662 310.393C113.717 310.448 113.772 310.558 113.883 310.614C114.325 311.165 114.657 311.938 114.988 312.711C116.923 317.346 119.3 321.872 120.129 326.949C120.24 327.998 120.516 329.046 120.682 329.874Z" fill="#FF8A8A"/>
<path d="M120.129 326.949C120.295 327.997 120.516 328.991 120.682 329.874C120.516 329.046 120.24 327.997 120.074 326.949C119.245 321.872 116.868 317.346 114.933 312.711C114.602 311.938 114.27 311.22 113.828 310.613C114.325 311.165 114.657 311.938 114.988 312.711C116.923 317.401 119.3 321.927 120.129 326.949Z" fill="#DF2E2E"/>
</svg>
