<svg width="50" height="50" viewBox="0 0 475 363" fill="none" xmlns="http://www.w3.org/2000/svg">
<path fill-rule="evenodd" clip-rule="evenodd" d="M297.375 5.38795C293.095 7.92429 288.498 11.2532 287.546 12.8385C286.437 14.2652 285.486 14.8992 285.486 14.2652C285.486 13.6311 282.949 15.2163 279.938 17.9112C276.767 20.606 273.597 22.8253 272.804 22.8253C272.011 22.8253 270.902 24.252 270.426 26.1543C269.792 28.0565 268.524 29.0077 267.097 28.5321C265.67 27.898 264.878 28.8491 264.878 30.9099C264.878 32.6537 264.244 33.6048 263.293 33.1292C262.5 32.6537 261.708 33.2877 261.708 34.7144C261.708 36.4582 260.915 37.0923 259.33 36.4582C258.062 35.9826 256.952 36.1411 256.952 36.9337C256.952 37.5678 254.099 40.8968 250.77 44.2257C247.441 47.5547 244.904 51.0422 245.221 51.6762C245.538 52.1518 245.221 53.1029 244.27 53.737C243.478 54.2126 242.685 56.1149 242.685 57.8586C242.685 59.4438 242.051 60.8705 241.1 60.8705C240.307 60.8705 239.515 61.9801 239.515 63.2483C239.515 64.5165 239.039 65.4676 238.405 65.4676C234.283 64.8335 233.015 65.7847 233.966 68.9551C234.759 71.0159 234.442 71.967 233.491 71.3329C231.588 70.2233 227.942 74.1863 229.528 75.613C230.003 76.2471 229.369 76.7227 227.942 76.7227C225.248 76.7227 224.772 77.8323 224.772 83.3806C224.772 84.9658 224.138 86.234 223.345 86.234C222.553 86.234 222.394 86.868 222.87 87.8192C223.345 88.7703 222.711 88.9288 221.443 88.4533C218.907 87.5021 218.114 89.2459 218.748 94.0015C219.065 95.1112 218.431 95.5867 217.639 95.1112C216.846 94.6356 214.627 97.0134 212.724 100.501C210.664 104.305 209.871 107 210.981 107.634C211.932 108.11 210.822 110.171 208.603 112.231C206.383 114.292 204.64 117.463 204.64 119.206C204.64 120.95 203.847 123.011 203.055 123.487C202.103 124.121 201.469 125.706 201.628 127.133C201.786 128.718 200.36 133.315 198.457 137.753C196.397 142.034 194.653 146.789 194.336 148.057C194.019 149.326 193.702 150.435 193.543 150.435C193.226 150.435 192.117 154.398 190.373 162.324C189.58 166.287 187.044 176.908 184.825 186.103C178.325 213.051 178.167 213.844 178.642 217.49C178.959 219.392 178.642 220.977 177.85 220.977C176.581 220.977 174.521 228.586 173.57 236.829C173.411 239.049 173.094 240.792 172.935 240.792C172.777 240.792 172.46 242.219 172.301 243.963C170.716 255.059 169.289 262.034 167.387 267.583C166.277 271.229 165.326 275.192 165.326 276.46C165.168 277.728 164.058 285.971 162.79 294.69C158.669 321.163 160.254 344.149 165.802 341.929C167.07 341.454 168.18 340.186 168.18 338.917C168.18 337.649 169.606 336.698 171.35 336.698C173.094 336.698 174.996 335.588 175.472 334.32C176.106 333.052 177.057 332.418 177.85 332.894C178.642 333.369 179.276 333.211 179.435 332.418C179.435 331.784 179.752 329.406 179.91 327.345C180.227 325.126 181.179 323.065 182.13 322.748C183.239 322.431 184.032 320.846 184.032 319.261C184.032 317.834 185.142 315.615 186.568 314.505C187.836 313.237 188.788 310.542 188.47 308.323C188.153 305.469 188.788 304.36 190.214 304.677C191.641 304.994 191.958 304.201 191.324 302.616C190.848 301.189 191.324 297.86 192.592 295.007C194.811 289.459 195.128 288.349 195.128 285.813C195.128 285.02 195.921 284.703 196.714 285.179C197.665 285.813 198.299 284.386 198.299 281.85C198.299 279.472 199.567 276.618 201.152 275.35C202.843 273.871 202.843 273.395 201.152 273.923C197.665 275.033 197.665 274.241 200.835 269.326C202.262 267.107 204.006 265.839 204.798 266.314C205.591 266.79 206.225 266.473 206.225 265.522C206.225 264.729 205.591 263.461 204.64 262.986C203.847 262.51 203.055 261.242 203.055 260.449C203.055 259.498 203.53 259.181 204.323 259.498C204.957 259.974 205.115 257.12 204.957 253.316C204.481 248.56 205.115 245.707 206.859 243.963C208.286 242.536 209.395 239.683 209.395 237.464C209.395 235.403 210.822 230.172 212.407 225.733C214.151 221.453 214.944 217.807 214.468 217.807C213.834 217.807 214.468 217.014 215.736 216.063C217.638 214.795 217.639 214.161 216.053 213.527C214.468 212.893 214.468 212.259 215.895 210.356C217.48 208.613 217.48 207.82 215.895 206.71C214.31 205.759 214.31 205.284 215.736 204.808C218.114 204.015 218.748 192.76 216.529 191.809C215.736 191.334 215.895 191.017 217.004 191.017C217.956 190.858 218.907 189.749 218.907 188.48C218.907 187.212 220.492 185.31 222.394 184.359C224.719 183.091 224.878 182.034 222.87 181.188C221.126 180.554 220.65 179.92 221.76 179.92C222.711 179.762 223.662 178.494 223.821 176.908C223.821 174.848 224.296 175.165 225.406 177.859C226.199 179.92 227.467 181.03 228.418 180.554C230.479 179.286 230.479 175.006 228.418 175.006C227.625 175.006 226.833 173.738 226.833 172.153C226.833 170.25 227.308 170.092 228.101 171.36C228.735 172.47 229.369 170.092 229.528 165.812C229.845 154.874 230.32 152.654 232.223 153.289C233.174 153.606 233.649 155.349 233.491 156.935C233.015 158.995 233.491 159.471 234.6 158.361C235.71 157.252 235.868 154.874 234.759 151.386C233.174 145.68 235.551 137.912 237.771 141.558C239.673 144.728 242.526 139.973 240.941 136.168C239.831 133.156 239.673 133.156 239.673 136.485C239.515 139.18 238.88 139.814 236.82 139.022C235.076 138.388 234.917 137.753 236.027 137.278C237.137 136.961 237.929 135.376 237.929 133.632C237.929 131.888 239.039 130.144 240.307 129.669C241.575 129.035 242.685 127.925 242.685 126.815C242.685 125.864 244.112 124.121 245.855 123.011C249.501 120.792 250.294 115.56 246.807 116.829C245.221 117.463 244.587 116.829 244.746 114.609C244.904 113.024 245.855 111.597 246.965 111.597C248.075 111.597 249.026 110.646 249.026 109.378C249.026 108.268 251.086 105.098 253.623 102.403C256.159 99.8668 258.062 96.3793 257.903 94.7941C257.745 93.3674 258.854 89.4044 260.439 86.0754C262.025 82.7465 263.293 79.4175 263.293 78.4664C263.293 77.6738 264.878 76.4056 266.622 75.93C269.317 74.9789 269.634 74.5034 267.89 73.3937C266.146 72.2841 266.305 71.967 268.524 71.967C270.109 71.967 271.219 70.6988 271.219 68.6381C271.219 66.8943 271.853 65.7847 272.645 66.2602C274.706 67.5284 279.303 59.9194 278.194 57.066C277.718 55.7978 278.669 54.0541 280.572 52.9444C282.474 51.9933 283.901 50.091 283.901 48.8229C283.901 47.5547 287.071 43.4331 291.034 39.9457C294.997 36.2997 298.009 32.4951 297.533 31.3855C297.058 30.2758 298.643 28.2151 300.862 26.4713C304.825 23.6179 307.203 21.7157 318.775 11.7288L324.324 6.97316L320.519 3.80273C315.288 -0.794393 306.886 -0.160307 297.375 5.38795ZM237.929 121.743C237.929 122.218 237.295 123.011 236.344 123.487C235.551 123.962 234.759 123.645 234.759 122.852C234.759 121.901 235.551 121.109 236.344 121.109C237.295 121.109 237.929 121.426 237.929 121.743ZM220.492 175.006C220.492 175.799 219.699 176.591 218.748 176.591C217.956 176.591 217.638 175.799 218.114 175.006C218.59 174.055 219.382 173.421 219.858 173.421C220.175 173.421 220.492 174.055 220.492 175.006ZM176.898 327.504C177.374 327.979 176.423 328.772 174.521 329.248C172.46 329.723 171.35 329.248 171.35 327.979C171.35 325.919 174.996 325.602 176.898 327.504Z" fill="#171717"/>
<path fill-rule="evenodd" clip-rule="evenodd" d="M11.2434 49.9323C11.2434 52.9442 5.6952 56.2732 2.68329 55.1635C0.781032 54.3709 0.46393 56.1147 0.939495 65.1504C1.89062 84.0145 6.64633 99.5496 28.8394 155.032C30.4246 159.312 31.8512 163.592 31.8512 164.702C31.8512 165.653 34.0706 169.933 36.7654 173.896C39.4603 178.018 41.3625 182.139 40.887 183.249C40.0943 185.627 45.484 197.199 47.3863 197.199C48.0204 197.199 48.6545 199.577 48.6545 202.43C48.6545 205.283 50.2397 210.673 52.1419 214.319C54.0442 218.124 55.6294 222.404 55.6294 223.831C55.6294 225.416 56.7391 228.111 58.0073 229.854C59.2754 231.44 60.3851 234.134 60.3851 235.561C60.3851 237.146 61.1778 238.415 62.1289 238.415C62.9215 238.415 63.3971 239.049 62.9215 239.683C62.2874 240.792 66.409 255.535 69.7379 262.985C71.1646 266.314 77.664 286.922 81.9441 301.823C83.3708 306.579 84.9559 311.969 85.7485 313.712C86.3826 315.456 87.9678 320.37 88.919 324.809C95.1013 349.697 100.174 360.952 106.356 362.537C110.161 363.488 110.319 361.903 106.832 355.245C104.454 350.648 104.454 350.331 106.832 352.233C109.051 354.135 109.844 353.977 112.222 351.599C113.807 350.014 114.916 348.428 114.758 347.953C114.441 347.477 115.234 347.002 116.343 347.002C117.294 347.002 118.562 345.575 119.038 343.831C119.672 341.929 121.733 340.344 124.586 339.868C128.866 339.076 129.501 338.283 130.293 332.259C130.769 328.455 132.195 324.65 133.464 323.858C135.366 322.589 135.366 322.272 133.305 320.846C132.037 320.053 130.927 317.041 130.769 314.188C130.452 303.091 130.135 301.665 126.647 300.238L123.001 298.653L126.647 299.128C130.135 299.445 130.452 298.653 130.927 292.312C131.244 287.873 130.927 286.447 130.135 288.349C129.183 291.044 128.866 290.568 128.232 285.971C127.757 282.959 128.074 279.947 128.866 279.472C129.818 278.838 129.183 277.728 127.598 276.618C125.696 275.561 125.907 274.98 128.232 274.874C130.135 274.874 131.72 274.082 131.72 273.131C131.72 272.338 131.086 271.863 130.452 272.338C129.818 272.814 128.391 271.07 127.44 268.534C126.172 265.046 126.172 263.936 127.44 264.254C130.135 264.729 129.818 260.29 127.123 259.339C125.855 258.864 125.379 259.339 126.013 260.449C126.647 261.4 126.33 262.193 125.538 262.193C123.794 262.193 123.477 259.815 123.16 246.341C123.001 242.061 122.208 239.207 121.099 239.207C117.611 239.207 116.977 236.829 119.038 232.866C120.623 229.696 120.782 228.428 119.355 227.001C118.245 225.891 117.453 223.831 117.453 222.245C117.453 220.819 116.343 218.916 115.075 218.124C113.648 217.331 112.222 213.527 111.746 208.929C111.112 204.649 109.685 199.894 108.259 198.309C106.99 196.882 106.356 195.138 106.832 194.663C107.307 194.028 106.832 192.126 105.564 190.224C104.296 188.48 103.186 185.785 103.186 184.2C103.186 182.615 102.552 181.347 101.601 181.347C100.808 181.347 100.015 179.92 100.015 178.176C100.015 176.433 99.3814 175.006 98.4303 175.006C97.6377 175.006 96.211 171.994 95.1014 168.189C94.1502 164.543 92.8821 161.214 92.248 160.739C90.8213 159.629 82.5781 142.667 82.5781 140.924C82.5781 139.973 81.1514 138.229 79.4077 136.961C77.6639 135.693 76.2372 133.79 76.2372 132.681C76.2372 130.144 73.701 124.596 70.055 118.731C68.3112 116.036 66.8845 113.024 66.8845 111.756C66.726 110.646 64.9822 107.951 62.7629 105.89C60.5436 103.83 58.7999 101.135 58.7999 99.7081C58.7999 98.4399 57.6902 97.3303 56.4221 97.3303C54.2027 97.3303 53.7272 96.5377 53.4102 90.8309C53.2517 89.2457 51.3494 86.0753 49.1301 83.5389C46.9108 81.0026 45.3256 78.1492 45.6426 77.198C45.9596 76.2469 43.4233 72.4424 39.9359 68.6379C36.4484 64.8334 31.8512 59.7607 29.9489 57.3829C27.8881 55.005 25.5103 53.1028 24.4007 53.1028C23.4495 52.9442 22.3399 52.3102 22.0228 51.359C21.8643 50.5664 19.1695 49.4568 16.4746 48.8227C12.5116 48.0301 11.2434 48.3471 11.2434 49.9323Z" fill="#171717"/>
<path fill-rule="evenodd" clip-rule="evenodd" d="M456.689 127.608C456.689 128.242 454.945 128.559 452.884 128.084C450.348 127.608 448.446 128.401 447.494 129.986C446.543 131.571 445.592 131.888 444.958 130.937C443.531 128.559 421.18 137.595 417.217 142.351C416.107 143.777 414.205 144.887 413.254 144.887C412.303 144.887 410.242 146.314 408.657 148.057C407.23 149.801 404.852 151.228 403.584 151.228C402.316 151.228 401.206 151.862 401.206 152.813C401.206 153.606 400.097 154.398 398.828 154.398C397.402 154.398 395.975 155.508 395.499 156.776C394.865 158.044 393.121 159.154 391.536 159.154C389.951 159.154 388.524 160.105 388.524 161.215C388.524 164.385 383.769 168.19 378.221 169.616C375.684 170.25 371.88 172.311 369.977 174.213C368.075 176.116 363.954 178.969 360.783 180.554C357.771 182.298 355.235 184.2 355.235 184.834C355.235 185.627 354.284 186.102 353.174 186.102C350.796 186.102 343.187 194.187 343.821 195.931C343.98 196.723 342.712 197.199 340.809 197.199C339.066 197.199 337.956 197.833 338.431 198.467C338.907 199.26 336.529 202.272 333.042 205.284C329.554 208.295 326.701 211.624 326.701 212.576C326.701 213.685 325.75 214.636 324.799 214.636C322.579 214.636 309.264 227.794 309.264 230.013C309.264 230.647 306.41 233.025 302.923 235.244C299.435 237.305 296.582 239.683 296.582 240.317C296.582 241.426 293.253 245.865 289.131 250.304C288.022 251.572 287.071 253.157 287.071 254.108C287.071 255.059 285.644 256.486 283.742 257.437C281.839 258.547 280.888 260.291 281.364 261.559C281.839 262.827 281.522 263.778 280.73 263.778C279.937 263.778 278.035 266.156 276.45 268.851C273.755 274.082 273.438 275.033 272.962 278.045C272.962 278.838 271.694 279.63 270.426 279.63C267.572 279.63 267.255 282.801 270.109 282.959C271.06 283.118 270.267 283.593 268.048 284.227C265.353 285.02 264.085 286.447 263.926 289.3C263.609 296.275 263.292 297.068 260.756 297.068C259.171 297.068 258.537 298.019 259.012 299.287C259.488 300.555 259.488 301.982 259.012 302.457C258.378 302.933 257.744 305.311 257.585 307.689C257.268 309.908 256.476 312.286 255.683 312.761C253.623 314.188 253.623 330.516 255.683 334.637C257.586 338.6 261.707 339.551 261.707 336.222C261.866 332.735 269.475 325.601 273.121 325.601C275.816 325.601 276.291 325.284 274.547 324.175C272.011 322.59 273.121 321.163 287.229 305.786C291.351 301.348 298.801 293.263 304.032 287.556C315.763 274.716 367.6 224.306 386.464 207.503C390.268 204.332 392.804 201.003 392.329 200.211C391.853 199.418 393.439 198.784 395.658 198.784C398.036 198.784 399.462 198.15 398.828 197.199C398.353 196.248 399.304 195.614 401.206 195.614C403.108 195.614 404.06 194.821 403.584 194.029C403.108 193.077 403.267 192.443 404.059 192.443C404.852 192.443 405.962 191.017 406.437 189.273C406.913 187.529 408.339 186.102 409.766 186.102C411.193 186.102 412.303 184.993 412.303 183.725C412.303 182.456 413.095 181.347 414.205 181.347C415.156 181.347 417.375 180.079 419.119 178.493C421.497 176.591 422.448 176.274 422.924 177.701C423.716 180.079 428.155 176.433 428.155 173.421C428.155 172.311 429.264 171.836 430.533 172.47C432.276 173.104 432.91 172.311 432.91 169.775C433.016 167.45 433.809 167.344 435.288 169.458C436.768 171.571 438.67 171.466 440.995 169.141L444.324 165.812L440.044 166.763C436.874 167.238 435.922 166.921 436.715 165.653C437.349 164.702 438.934 163.909 440.202 163.909C441.471 163.909 442.422 162.483 442.422 160.739C442.422 158.995 443.056 157.569 443.848 157.569C444.641 157.569 448.763 154.874 453.043 151.386C457.323 148.057 463.347 143.936 466.2 142.509C475.236 137.912 476.504 135.851 473.175 132.047C471.59 130.303 469.529 129.193 468.419 129.669C467.31 130.144 466.2 129.669 465.883 128.876C465.249 126.974 456.689 125.706 456.689 127.608Z" fill="#171717"/>
</svg>
