<svg width="1011" height="164" viewBox="0 0 1011 164" fill="none" xmlns="http://www.w3.org/2000/svg">
<path fill-rule="evenodd" clip-rule="evenodd" d="M237.945 2.10527C237.945 3.0564 236.994 3.53212 235.726 3.05656C234.458 2.58099 233.031 2.58095 232.556 3.21504C231.921 3.6906 229.544 4.48321 227.324 4.80025C224.946 5.1173 222.093 6.54399 220.825 7.97069C219.715 9.39738 219.081 9.71446 219.715 8.60481C220.191 7.65368 220.032 6.70244 219.081 6.70244C218.289 6.70244 217.337 7.17812 217.02 7.8122C216.703 8.60481 214.484 10.824 211.948 13.0433C209.411 15.2626 207.826 16.0553 208.46 14.9457C210.204 11.9338 207.668 12.7264 203.388 16.5309C201.168 18.5917 200.059 19.0671 200.693 17.7989C201.961 15.7382 201.802 15.7382 198.949 17.7989C197.364 19.0671 195.461 20.8109 194.827 21.762C194.193 22.5546 192.925 23.5057 191.974 23.5057C188.328 23.9813 188.169 24.2983 190.389 25.725C191.974 26.8347 192.132 27.3102 190.864 27.4687C189.755 27.6272 188.169 27.7858 187.218 27.9444C186.426 27.9444 185.792 28.5784 186.109 29.0539C186.743 30.7977 180.56 36.8216 179.134 35.8704C178.341 35.3949 177.231 36.1874 176.597 37.7726C176.122 39.1993 173.585 42.3698 171.049 44.7476C168.671 47.1254 166.611 50.2959 166.611 51.7226C166.611 53.1493 165.976 54.4174 165.025 54.4174C164.233 54.5759 162.806 54.7345 162.013 54.893C161.221 54.893 159.953 55.6856 159.16 56.4783C158.367 57.4294 158.843 57.4293 160.111 56.6367C161.855 55.6856 162.172 56.0027 161.379 58.0635C160.745 59.6487 160.27 61.0753 160.27 61.5509C160.27 61.8679 159.16 61.7095 157.892 61.2339C156.465 60.5998 155.038 61.3923 154.404 63.1361C153.77 64.8798 152.027 67.5748 150.441 69.16C149.015 70.7452 148.063 72.6474 148.381 73.2815C148.856 73.9156 147.112 74.8668 144.735 75.3424C141.406 76.135 139.662 75.3424 136.967 72.0135C134.906 69.6356 133.321 67.0992 133.321 66.148C133.321 64.2458 125.553 57.4293 123.334 57.4293C122.383 57.4293 122.224 56.9539 122.7 56.3198C123.334 55.8442 122.066 53.7834 119.847 51.7226C117.627 49.6618 116.518 47.601 117.469 47.1254C118.42 46.6499 119.054 45.2233 118.896 44.2722C118.896 42.8455 118.578 42.8455 117.944 44.2722C117.469 45.6989 116.359 45.8573 114.457 44.7476C112.872 43.955 111.128 43.6379 110.811 44.1135C110.335 44.5891 109.543 43.1624 108.909 40.9431C108.116 37.7726 106.372 36.5045 101.141 35.2363C97.4951 34.4437 92.5809 32.5414 90.2031 31.4318C86.2401 29.371 85.606 29.3711 84.1793 31.7489C83.2282 33.4927 82.5941 33.6512 82.5941 32.383C82.5941 30.7978 80.8503 30.4806 75.1436 31.4318C65.3152 32.8585 61.1937 34.4437 56.9136 38.4068C55.0113 40.1505 52.475 41.5772 51.3653 41.5772C50.2557 41.5772 49.3046 42.2113 49.3046 43.1624C49.3046 43.955 48.1949 44.7476 46.7682 44.7476C44.5489 44.7476 44.5489 45.2232 46.1341 47.1254C47.2438 48.3936 47.5608 49.6617 46.7682 49.6617C39.4762 50.6129 34.8791 53.1494 35.8302 55.3687C36.3058 57.1124 35.9888 57.4293 34.245 56.7952C32.5013 56.1611 31.2331 57.2708 30.282 59.9657C29.3309 62.185 27.5871 65.6725 26.1604 67.4163L23.6241 70.9037L24.7337 67.2578C25.8434 63.6118 25.8434 63.4533 22.8315 66.4652C21.0877 68.0504 20.4536 69.794 21.0877 70.2696C21.7218 70.7451 21.4047 72.4889 20.1366 74.0741C18.5514 76.1349 18.3928 78.0373 19.344 79.9395C20.2951 81.5247 20.1366 82.9513 19.1855 83.5854C18.3929 84.061 17.6003 83.2684 17.6003 81.6832C17.6003 79.4639 17.2832 79.3054 16.1735 81.0491C15.3809 82.1588 14.1128 82.7928 13.1616 82.1587C12.369 81.6831 11.2594 82.7929 10.6253 84.8537C9.19858 90.4019 9.51562 90.8774 13.0031 89.1337C16.015 87.5484 16.1735 87.5485 14.5883 90.4019C13.4787 92.4627 11.7349 93.2553 9.9912 92.7797C8.08894 92.3042 7.13782 93.0967 6.9793 95.4745C6.66225 98.1694 7.29633 98.645 9.9912 97.6939C12.2105 97.0598 12.8446 97.3768 12.2105 98.4865C11.5764 99.4376 9.8327 100.23 8.08897 100.23C6.50375 100.23 4.75998 101.34 4.28441 102.766C3.65032 104.352 3.96739 104.827 5.39408 104.035C6.34521 103.401 5.86963 104.352 4.28441 106.254C2.54067 108.156 1.74808 110.217 2.22365 110.851C2.85774 111.327 2.5407 112.753 1.58957 114.022C0.162879 115.448 0.3214 116.082 1.58957 116.082C2.5407 116.082 3.33332 115.29 3.33332 114.497C3.33332 111.01 6.18669 113.229 6.9793 117.351C7.61338 120.838 8.72302 121.948 11.5764 121.789C15.3809 121.631 20.6122 117.668 19.661 115.607C19.344 114.973 20.2951 114.497 21.8803 114.497C23.4655 114.497 25.6848 113.07 26.636 111.327C28.3797 108.632 28.2212 108.473 25.8434 109.266C24.0996 109.9 24.7337 108.79 27.5871 105.778C29.9649 103.401 31.8672 100.706 31.8672 100.072C31.8672 99.2791 32.9769 98.645 34.245 98.645C35.5132 98.645 36.6229 97.8524 36.6229 96.7428C36.6229 95.6331 38.3666 93.0967 40.4274 90.8774C42.6467 88.4995 44.5489 85.8047 44.8659 84.5365C45.6586 80.8905 50.7313 76.4519 54.0602 76.4519C55.804 76.4519 57.2307 75.818 57.2307 75.1839C57.2307 74.3913 58.9744 72.9646 61.1937 72.0135C66.2664 69.6356 67.2175 69.6355 65.9493 71.6963C64.9982 73.123 68.1686 73.9156 72.7658 73.44C73.7169 73.2815 74.668 73.7572 74.668 74.3913C74.668 75.1839 72.6072 75.8178 69.9124 75.6593C67.376 75.6593 65.1567 75.1838 65.1567 74.5498C65.1567 72.6475 60.7181 73.1231 59.4499 75.1839C58.6573 76.2935 58.9744 76.4519 60.4011 75.6593C61.9863 74.7082 62.3033 75.1839 61.6692 77.5617C61.0352 79.9395 61.5107 80.732 63.413 80.415C64.8397 80.2565 66.9005 81.3662 68.0101 83.11C69.1198 84.6952 70.8635 85.4877 71.8146 85.0121C72.9243 84.3781 73.0828 84.6951 72.4487 85.6463C71.8146 86.5974 72.7658 88.3412 74.668 89.4508C76.4118 90.5605 77.8385 92.6213 77.8385 94.2065C77.8385 95.6332 79.1066 97.8525 80.8504 98.9621C82.4356 100.072 83.8623 101.657 84.0208 102.608C84.0208 103.401 85.2889 105.461 86.7156 107.047C87.9838 108.79 88.7764 110.376 88.4594 110.851C87.9838 111.168 89.4105 113.229 91.6298 115.448C93.8491 117.668 95.1173 120.362 94.8002 121.631C94.3247 122.74 94.9588 124.167 96.2269 124.643C97.4951 125.118 98.4463 126.703 98.4463 127.971C98.4463 129.398 99.2389 130.032 100.031 129.557C100.983 129.081 101.617 129.557 101.617 130.666C101.617 132.093 102.092 132.093 103.202 130.349C104.47 128.447 104.787 128.764 104.787 131.618C104.787 133.995 105.897 135.739 107.958 136.215C109.701 136.69 110.652 137.641 110.177 138.434C109.384 139.861 113.506 141.129 121.907 142.08C125.553 142.397 126.98 141.921 126.98 140.178C126.98 138.434 125.712 138.117 121.432 138.751C113.981 140.019 114.457 138.751 122.066 136.69C125.553 135.739 129.833 133.837 131.736 132.252C134.906 129.715 135.065 129.24 132.687 127.337C130.468 125.435 130.151 125.594 130.151 128.447C130.151 130.191 129.041 131.935 127.931 132.41C126.188 133.044 125.871 132.569 126.346 130.666C127.139 128.289 126.98 128.288 125.078 130.508C123.017 133.044 118.261 132.886 119.847 130.349C120.322 129.557 118.896 129.24 116.518 129.557C113.981 129.715 112.872 129.24 113.189 128.13C113.664 127.02 112.555 126.228 110.969 126.228C107.323 126.228 107.165 126.862 110.811 130.983C112.872 133.52 112.872 133.837 110.969 132.252C109.543 131.301 107.958 130.825 107.482 131.459C106.848 131.935 106.372 130.983 106.372 129.081C106.372 125.277 109.067 123.057 113.347 123.85C115.567 124.167 116.042 123.691 115.25 121.631C114.457 119.411 114.933 119.094 117.627 119.728C119.53 120.204 122.7 120.045 124.761 119.253C127.139 118.302 128.565 118.302 128.565 119.253C128.565 120.204 127.614 120.838 126.346 120.838C121.907 120.838 122.542 123.216 127.139 123.374C129.517 123.533 131.26 122.899 130.785 122.265C130.309 121.472 130.785 120.838 131.736 120.838C132.845 120.838 133.955 122.265 134.431 124.008C135.382 127.813 136.333 127.971 140.613 124.801C142.515 123.533 144.418 123.057 145.052 123.533C145.527 124.009 146.003 123.691 146.003 122.74C146.003 121.631 146.795 120.838 147.588 120.838C148.539 120.838 148.381 122.582 146.954 125.277C145.369 128.289 143.308 129.715 140.296 130.032C135.857 130.349 130.785 133.52 134.589 133.52C136.174 133.52 136.174 134.312 134.748 137.007C133.48 139.438 133.955 139.649 136.174 137.641C138.077 136.056 139.186 133.995 138.711 133.361C138.235 132.569 139.028 131.934 140.454 131.934C142.04 131.934 142.515 132.569 141.723 133.837C141.089 134.947 143.308 133.203 146.637 129.874C150.124 126.703 153.453 124.008 154.246 124.008C155.038 124.008 156.307 122.265 157.099 120.045C157.892 117.826 159.477 116.241 160.587 116.399C161.696 116.717 162.647 116.082 162.647 115.29C163.282 111.485 165.501 108.156 167.879 108.156C169.147 108.156 169.939 107.839 169.464 107.364C168.671 106.571 181.353 93.0968 183.731 91.9871C186.267 91.036 194.669 81.8418 194.035 80.7321C193.718 80.0981 195.303 78.8298 197.839 77.8787C200.217 77.0861 205.131 73.5985 208.619 70.2696C217.337 61.8679 221.3 61.2339 227.007 66.9406C229.544 69.477 231.604 72.3304 231.604 73.2815C231.604 74.2326 232.238 74.7082 233.031 74.0741C233.824 73.5985 234.775 74.8668 235.092 76.7691C235.409 78.8299 236.518 80.415 237.628 80.415C238.738 80.415 240.957 82.4758 242.701 85.1706C246.188 90.4018 246.822 93.0967 244.286 91.5115C241.274 89.6092 242.701 95.3161 245.871 97.5354C247.615 98.8036 248.566 100.23 247.932 100.706C246.822 101.974 255.224 114.497 257.126 114.497C257.919 114.497 258.553 115.607 258.553 117.033C258.553 120.521 264.418 127.654 265.686 125.594C266.162 124.801 267.589 124.008 268.54 124.008C269.967 124.008 269.967 124.326 268.54 125.277C267.272 126.069 267.272 127.179 269.016 129.398C270.284 131.142 271.235 131.617 271.235 130.508C271.235 129.398 272.027 129.081 272.82 129.557C273.771 130.191 274.247 131.618 274.088 133.044C273.296 136.849 278.527 139.385 282.331 137.166C284.868 135.422 285.185 135.581 284.392 137.8C283.758 139.385 284.075 140.019 285.026 139.385C285.977 138.751 287.562 139.385 288.672 140.653C290.099 142.397 291.208 142.555 292.635 141.446C293.745 140.495 295.33 139.861 295.964 140.019C296.757 140.178 298.659 140.178 300.244 140.019C302.939 139.861 302.939 139.544 300.72 137.483C297.232 133.995 300.561 128.764 306.109 128.923C309.755 128.923 309.755 129.081 306.902 130.349C304.207 131.459 304.207 131.776 306.585 131.776C308.012 131.935 309.755 132.093 310.39 132.252C310.865 132.569 311.499 131.459 311.816 130.032C311.975 128.447 310.707 127.02 308.17 126.386C304.524 125.594 304.366 125.277 306.585 121.789C308.963 118.302 308.804 118.143 305.158 118.936C302.146 119.411 301.512 119.094 302.305 117.192C303.573 113.546 310.073 116.399 310.231 120.679C310.548 126.386 311.975 126.069 313.084 120.204C313.719 117.35 315.304 113.863 316.889 112.753C319.267 110.851 319.425 110.851 317.682 113.07C315.304 116.082 313.719 127.654 315.779 126.386C316.572 125.752 317.206 124.325 317.206 123.057C317.206 121.789 318.316 120.362 319.584 119.887C320.852 119.253 321.962 117.985 321.962 116.875C321.962 115.765 323.388 114.497 325.132 114.022C327.193 113.546 328.62 111.327 329.254 108.315C329.888 105.461 330.68 103.559 330.997 103.876C331.314 104.352 334.96 101.498 339.082 97.6939C343.521 93.5723 346.85 91.5115 347.484 92.4626C348.752 94.6819 350.178 92.3042 349.703 88.6582C349.227 86.2804 350.813 85.1707 354.142 85.8047C354.934 85.9633 355.093 85.3291 354.617 84.5365C353.349 82.4757 357.946 79.1468 360.165 80.5735C361.592 81.3661 361.751 80.8907 361.116 79.1469C359.848 75.818 363.019 73.757 364.921 76.6104C366.031 78.3542 366.348 78.3543 366.348 76.7691C366.348 75.6594 367.933 74.2326 369.994 73.44C375.066 71.5377 386.955 78.0372 386.955 82.7928C386.955 83.7439 387.59 84.2195 388.224 83.7439C388.858 83.4268 389.65 84.378 389.65 86.1217C389.809 87.7069 391.077 90.2433 392.345 91.67C393.772 92.9381 394.882 94.8404 394.882 95.633C394.882 98.0108 400.271 103.401 402.808 103.401C404.393 103.401 404.551 103.876 403.442 104.669C402.174 105.461 403.125 107.205 406.137 109.9C408.673 112.278 410.734 113.704 410.734 113.07C410.734 112.595 411.526 113.229 412.319 114.497C413.587 116.558 413.904 116.399 413.904 114.022C413.904 112.595 414.855 111.327 415.965 111.327C417.233 111.327 417.075 110.693 415.489 109.741C413.746 108.632 413.587 108.156 415.172 108.156C416.441 108.156 417.709 109.583 418.184 111.327C418.66 113.07 419.77 114.497 420.562 114.497C421.355 114.497 421.513 113.705 421.038 112.912C420.404 111.961 421.83 111.327 424.05 111.327C426.269 111.327 428.33 111.961 428.33 112.912C428.488 113.705 428.647 115.448 428.805 116.399C429.122 118.46 432.927 118.302 434.512 116.399C434.988 115.765 436.573 115.131 438.317 114.814C439.902 114.497 442.755 112.753 444.657 111.01C446.401 109.107 447.035 108.156 446.084 108.79C444.974 109.424 444.023 109.107 444.023 108.156C444.023 106.888 445.45 106.571 447.669 107.205C450.206 107.839 451.949 107.047 453.535 104.986C454.644 103.401 456.388 102.45 457.181 102.925C457.973 103.401 460.668 101.498 463.046 98.8034C465.582 96.1086 468.594 93.8893 469.862 93.8893C471.13 93.8893 473.35 92.4626 474.935 90.7189C476.52 88.9751 479.374 87.5484 481.276 87.5484C483.337 87.5484 485.239 86.4388 485.873 85.1706C486.349 83.9025 487.458 82.7928 488.409 82.7928C489.36 82.7928 489.836 83.427 489.361 84.0611C489.043 84.6951 490.787 85.4877 493.324 85.6463C496.177 85.8048 497.921 85.1707 497.921 84.0611C498.079 82.7929 498.872 83.11 500.14 84.6952C501.25 86.2804 502.835 87.5484 503.469 87.5484C505.371 87.5484 520.272 98.8035 526.613 104.986C536.283 114.497 545.477 121.155 547.855 120.204C549.123 119.728 550.55 120.045 551.025 120.996C551.659 121.789 552.769 122.106 553.562 121.631C554.354 120.997 554.988 121.789 554.988 123.057C554.988 124.325 555.622 125.752 556.415 126.228C558.793 127.813 562.914 125.435 562.914 122.74C562.914 120.68 563.39 120.838 565.292 123.374C566.56 124.96 567.67 125.594 567.67 124.801C567.67 123.85 568.146 124.008 568.938 124.96C570.523 127.337 584.473 123.85 583.998 121.314C583.681 120.204 584.632 119.728 586.376 120.204C588.278 120.838 587.961 120.204 585.266 117.826C581.145 114.022 581.62 113.704 587.327 116.241C590.497 117.826 592.082 117.509 596.204 114.497C600.009 111.802 600.801 110.534 599.057 109.583C597.948 108.79 595.728 108.632 594.302 109.107C592.716 109.583 591.448 109.266 591.448 108.473C591.448 106.096 595.094 105.303 597.948 107.047C600.484 108.632 610.471 105.461 610.471 103.242C610.471 102.608 611.739 101.815 613.324 101.498C616.653 100.547 617.446 95.4745 614.117 95.4745C613.007 95.4745 612.056 94.682 612.056 93.7308C612.056 92.9382 612.69 92.4627 613.483 92.9382C614.276 93.4138 615.227 92.3041 615.702 90.5604C616.231 88.4468 615.544 88.2354 613.641 89.9263C610.471 92.7797 608.093 99.2791 610.788 97.5354C611.898 97.0598 612.056 97.3769 611.422 98.328C610.788 99.4376 608.41 100.072 606.032 100.072C603.337 99.9132 602.703 99.5962 604.606 99.1206C606.349 98.645 607.301 96.9013 607.301 93.7308C607.301 91.1945 607.776 89.2921 608.569 89.2921C611.581 89.7677 613.8 88.9751 613.007 87.7069C612.373 86.9143 613.324 86.4388 614.751 86.7558C616.336 87.0729 618.556 87.39 619.665 87.39C622.043 87.5485 622.202 92.6212 619.665 95.1576C618.556 96.2672 618.397 97.0597 619.031 97.0597C621.409 97.0597 626.482 90.2434 625.689 88.1826C625.214 86.7559 626.323 86.4388 629.652 86.7558C632.347 87.2314 633.932 86.7558 633.457 85.9632C632.823 85.0121 633.774 84.378 635.517 84.378C637.103 84.378 639.797 83.11 641.541 81.5247C643.285 79.9395 645.504 78.8298 646.614 79.3054C647.565 79.6224 652.162 79.1468 656.759 78.1956C663.734 76.6104 665.161 76.769 666.271 78.8298C667.063 80.0979 668.49 81.2076 669.599 81.2076C670.709 81.2076 672.294 82.4758 673.087 84.0611C675.94 89.2923 684.025 100.23 689.89 106.571C693.061 109.9 695.439 113.071 695.122 113.388C694.329 114.18 704.791 122.423 706.377 122.423C706.852 122.423 708.754 123.85 710.657 125.594C713.193 127.971 714.62 128.289 716.205 127.02C717.79 125.594 718.266 125.752 718.266 127.654C718.266 130.508 722.546 132.41 723.972 130.191C724.607 129.081 725.558 129.24 726.984 130.349C728.57 131.617 729.996 131.617 732.374 130.508C734.118 129.557 736.971 128.764 738.715 128.764C740.459 128.764 742.836 127.654 744.263 126.386C745.531 125.118 747.592 124.008 748.702 124.008C750.287 124.008 750.128 123.533 748.385 122.423C746.482 121.155 746.641 120.838 749.653 120.838C751.714 120.838 753.14 120.045 752.823 118.777C752.506 117.826 752.823 116.875 753.457 116.875C755.677 116.875 760.908 110.851 759.957 109.266C759.323 108.315 760.274 107.998 762.176 108.473C766.139 109.583 776.285 99.9132 774.382 96.9013C773.748 95.7916 773.907 95.4746 775.016 96.1087C775.967 96.5842 777.711 96.1086 778.821 94.8404C780.089 93.7308 783.259 91.5115 786.113 90.0848C788.966 88.6581 791.186 86.9145 791.186 86.2804C791.186 85.6463 793.563 85.1706 796.575 85.1706C799.587 85.1706 801.648 85.6461 801.331 86.1217C800.38 87.7069 804.818 90.8775 805.928 89.6093C806.562 89.1337 807.038 89.4507 807.038 90.5604C807.038 91.6701 808.623 93.8893 810.684 95.633C812.903 97.3767 813.379 98.4864 811.952 98.645C809.257 98.645 813.537 105.62 819.244 110.534C821.305 112.278 822.89 114.656 822.89 115.607C822.89 118.143 828.914 121.472 833.986 121.948C836.206 122.106 838.108 123.057 838.425 124.008C838.742 124.801 839.852 125.118 840.803 124.484C841.754 123.85 842.071 124.484 841.437 126.069C840.803 127.813 841.754 128.764 844.924 129.557C851.107 130.825 857.923 128.923 862.362 124.484C864.423 122.582 866.8 120.838 867.593 120.838C868.386 120.838 868.544 120.045 868.068 119.253C867.593 118.302 866.325 117.668 865.532 117.668C864.581 117.668 864.264 118.302 864.898 119.094C865.849 120.838 859.667 124.801 858.24 123.374C857.606 122.899 856.179 123.374 854.911 124.326C852.216 126.545 848.253 127.337 848.253 125.752C848.253 124.96 850.156 123.057 852.375 121.472C854.594 119.887 857.448 117.668 858.557 116.558C859.667 115.448 861.094 115.131 861.886 115.765C862.679 116.399 862.203 115.448 860.935 113.863C859.667 112.119 859.35 111.168 860.459 111.802C861.411 112.436 863.313 111.961 864.581 110.693C865.849 109.424 867.276 108.632 867.751 109.107C868.227 109.741 870.129 109.107 871.873 107.839C873.775 106.571 874.726 104.986 874.092 104.51C873.617 103.876 873.934 103.401 874.885 103.401C875.836 103.401 876.47 104.827 876.312 106.571C876.153 108.473 875.202 109.583 873.617 109.266C872.19 109.107 871.397 109.9 871.714 111.644C872.19 114.814 869.495 115.448 868.386 112.436C867.751 111.01 867.117 111.168 865.849 112.912C864.581 114.656 865.057 115.765 867.751 117.192C870.763 118.777 872.032 118.46 876.312 115.131C879.007 113.07 882.018 111.327 882.811 111.327C883.604 111.327 885.189 110.217 886.299 108.949C887.408 107.522 887.567 106.571 886.616 106.571C885.823 106.571 884.555 105.303 883.921 103.718C883.128 101.657 883.445 101.498 884.872 102.925C885.823 103.876 887.725 104.352 888.835 103.876C890.103 103.401 891.371 104.193 892.005 105.461C892.639 107.364 893.908 107.522 897.554 106.571C900.09 105.778 902.151 105.62 902.151 106.254C902.151 106.888 904.529 107.205 907.223 107.205C910.235 107.047 912.296 106.095 912.138 105.144C911.82 104.193 912.455 103.401 913.406 103.401C914.357 103.401 914.674 104.827 914.04 106.571C913.089 109.741 914.357 110.534 919.271 109.9C920.381 109.741 921.015 110.534 920.856 111.644C920.539 112.595 921.173 113.705 921.966 113.705C926.88 114.339 932.111 116.558 931.477 117.826C931.002 118.46 932.111 118.777 933.855 118.46C935.916 118.143 937.026 118.619 937.026 120.204C937.026 121.472 937.659 122.265 938.452 121.789C939.245 121.155 940.196 121.631 940.513 122.582C940.83 123.533 943.049 124.326 945.427 124.326C947.805 124.326 950.5 125.435 951.451 126.545C952.402 127.813 954.621 128.764 956.207 128.764C957.95 128.764 959.219 129.24 959.219 129.874C959.219 130.666 960.962 131.935 963.182 133.044C965.401 133.995 966.828 134.154 966.352 133.52C965.876 132.727 966.352 131.935 967.462 131.618C968.413 131.3 968.73 130.032 968.096 128.923C967.145 127.654 966.352 127.496 964.767 128.764C963.34 129.874 962.23 129.715 960.804 127.971C959.06 125.911 959.694 125.594 964.767 125.594C969.839 125.594 970.473 125.277 968.571 123.057C967.144 121.314 966.193 121.155 965.876 122.423C965.401 123.533 964.133 123.216 961.913 121.314C959.06 118.777 958.743 118.777 959.694 121.155C960.328 123.057 960.011 123.533 958.267 122.899C953.67 121.155 956.207 118.46 961.913 119.094C962.864 119.253 964.133 118.619 964.767 117.668C965.242 116.875 966.51 116.082 967.303 116.082C968.254 116.082 968.571 116.716 967.937 117.509C967.462 118.46 968.413 118.936 970.156 118.777C972.27 118.672 972.323 117.668 970.315 115.765C966.352 111.961 961.755 111.961 963.023 115.607C963.815 117.985 963.499 117.826 961.596 115.29C960.011 113.387 959.694 111.961 960.804 111.644C961.596 111.327 962.389 109.741 962.389 108.156C962.389 106.571 963.182 104.669 963.974 104.193C965.084 103.559 965.401 104.51 964.608 107.205C963.657 111.01 963.974 111.327 968.73 111.327C971.583 111.327 973.327 111.961 972.693 112.912C972.059 113.863 973.802 114.497 976.814 114.497C981.57 114.497 981.729 114.656 979.034 116.558C976.814 118.302 976.656 119.094 978.241 120.045C979.668 120.838 979.985 120.679 979.192 119.411C978.4 118.302 979.826 117.351 982.997 116.558C985.85 116.082 988.386 114.656 988.862 113.546C989.338 112.278 990.923 111.327 992.349 111.327C994.252 111.327 994.41 111.644 992.825 112.753C991.081 113.705 991.24 114.339 993.459 115.131C996.947 116.399 999.641 113.863 998.215 110.534C997.581 108.79 996.312 108.156 994.41 108.949C992.349 109.741 992.191 109.424 993.618 107.998C995.044 106.571 996.63 106.73 1000.59 108.79C1006.93 111.961 1006.77 111.961 1006.77 107.998C1006.77 105.937 1007.41 105.144 1008.84 105.937C1009.79 106.571 1009.63 106.096 1008.36 104.827C1007.09 103.559 1005.19 101.498 1004.08 100.23C1002.34 98.1694 1002.18 98.1695 1002.97 100.547C1003.6 102.608 1003.13 102.925 1000.59 102.291C998.69 101.815 997.264 100.706 997.264 99.9132C997.264 99.1206 997.898 98.8035 998.69 99.4376C999.483 99.9131 1000.59 99.5961 1001.23 98.8034C1001.7 97.8523 1003.29 97.6939 1004.71 98.1695C1006.14 98.8036 1006.93 98.4865 1006.3 97.6939C1005.82 96.7427 1006.62 95.1574 1008.2 94.0478C1011.05 91.987 1011.05 84.378 1008.2 84.378C1007.41 84.378 1007.25 83.427 1007.73 82.3174C1008.2 81.0492 1006.62 78.8298 1004.4 77.0861C1002.18 75.5008 1000.43 72.8061 1000.43 71.2208C1000.43 68.526 1000.28 68.5259 997.898 70.7452C995.678 72.9645 995.044 72.8059 991.24 69.3185C988.862 67.0992 986.484 65.3554 986.008 65.3554C983.948 65.3554 976.339 57.1124 976.022 54.5761C975.705 52.8323 972.851 51.0884 967.779 49.6617C963.498 48.5521 958.267 46.1744 956.207 44.5891C952.085 41.2602 948.915 40.626 950.658 43.3209C951.292 44.5891 950.5 44.7476 947.963 43.955C945.903 43.3209 943.525 42.6868 942.574 42.5283C941.781 42.5283 940.037 41.4188 938.928 40.3091C936.074 37.7728 933.538 37.9312 934.172 40.6261C934.489 41.8943 934.014 43.004 933.062 42.8454C932.27 42.8454 931.636 42.2113 931.794 41.5772C931.953 40.9431 931.16 39.8334 929.892 39.3578C928.624 38.8823 927.514 39.358 927.514 40.3091C927.514 41.4188 926.88 41.4187 925.612 40.4676C923.868 39.1994 913.406 38.8823 912.138 39.992C911.345 40.6261 908.492 41.1017 905.163 41.4187C902.785 41.5772 902.151 42.3698 902.785 43.955C903.419 45.8573 902.626 46.1743 898.822 45.5402C894.859 44.7476 893.749 45.2232 893.115 47.918C892.639 49.6618 891.53 51.0885 890.737 51.0885C889.944 51.0885 889.628 50.4544 890.103 49.6617C890.579 49.0277 889.152 48.7107 887.091 49.1863C885.03 49.5033 883.445 50.613 883.604 51.7226C883.762 52.6737 882.811 53.4663 881.543 53.4663C880.275 53.4663 878.214 54.1005 877.263 54.7346C875.995 55.5272 875.202 55.21 875.202 54.2589C875.202 53.3078 874.568 52.8322 873.775 53.4663C872.824 53.9419 871.714 53.3077 870.922 52.0396C870.288 50.7714 869.02 49.6617 868.068 49.6617C867.276 49.5032 866.483 48.8692 866.483 47.918C866.483 47.1254 864.423 44.2721 862.045 41.5772C859.508 38.8823 857.289 35.8705 857.131 34.7609C856.497 30.1637 851.424 26.3591 851.424 30.4807C851.424 31.2733 852.533 32.0659 853.96 32.0659C855.228 32.0659 855.862 32.8585 855.387 33.8096C854.119 35.7118 848.253 31.1148 848.729 28.5785C848.887 27.7859 847.619 26.2007 845.875 25.2496C844.132 24.1399 842.388 23.0302 841.912 22.5546C841.437 22.079 839.059 21.4451 836.523 21.2865C833.828 21.128 831.45 20.3353 830.816 19.5426C830.34 18.5915 827.646 18.1161 824.951 18.1161C821.146 18.2746 820.195 18.9086 820.829 20.8109C821.622 23.0302 821.463 23.0302 818.927 20.8109C816.708 18.5916 815.122 18.4331 811.159 19.7013C808.464 20.4939 801.965 22.3961 796.734 23.9813C791.344 25.5665 787.381 27.4688 787.54 28.5785C787.857 29.6881 786.905 30.4807 785.637 30.4807C784.369 30.4807 783.259 31.5903 783.259 33.017C783.259 34.2852 782.625 35.0778 781.991 34.6022C780.406 33.6511 773.748 39.3579 773.748 41.4187C773.748 42.2113 771.846 43.321 769.468 43.7965C767.249 44.4306 763.92 46.6498 762.335 48.8691C760.591 50.9299 758.372 52.6737 757.103 52.6737C755.994 52.6737 754.25 53.7833 752.982 55.21C751.238 57.4293 750.921 57.4294 749.494 54.893C748.226 52.8323 747.751 52.6737 746.641 54.4174C745.531 56.1611 745.214 56.1612 745.214 54.1004C745.214 52.6737 743.788 50.2959 742.044 48.7107C740.3 47.1254 738.873 44.9062 738.873 43.638C738.873 42.3699 738.239 41.7357 737.447 42.2113C736.654 42.6869 734.752 41.2602 733.325 39.0409C731.423 36.1875 731.264 35.2363 732.691 36.0289C733.959 36.663 733.325 35.712 731.264 34.1267C728.728 32.066 727.935 30.1636 728.57 28.1029C729.362 26.0421 729.204 25.5666 728.252 26.8348C726.35 29.5297 720.643 25.5665 720.643 21.6035C720.643 19.7012 718.9 18.116 715.888 17.1648C713.351 16.3722 708.754 14.6286 705.742 13.3605C702.889 12.0923 699.56 10.9825 698.609 10.824C697.658 10.6654 696.073 10.19 695.28 9.5559C694.329 8.92182 687.988 8.76322 681.013 9.08026C668.173 9.55582 652.479 13.836 650.26 17.482C648.675 20.1768 638.054 25.7251 636.786 24.6155C636.31 23.9814 635.834 24.4569 635.834 25.5665C635.834 26.8347 634.566 27.1517 632.347 26.6761C630.286 26.2006 629.652 26.2006 630.762 26.6761C632.188 27.3102 631.396 28.5784 627.908 30.6392C625.213 32.3829 622.36 33.334 621.726 33.017C620.458 32.2244 612.532 39.6749 613.324 40.9431C614.592 43.3209 613.166 44.7477 609.837 43.7965C607.301 43.1624 605.874 43.638 605.24 45.3817C602.703 52.0396 586.534 54.259 581.937 48.5522C580.827 47.4425 579.401 46.8084 578.608 47.2839C577.816 47.7595 577.181 47.284 577.181 46.3328C577.181 45.3817 575.438 43.004 573.377 41.1017C569.889 37.7728 569.255 36.8217 569.255 33.9683C569.255 33.3342 568.621 33.8097 567.829 35.0778C566.719 36.8216 565.768 36.8215 562.756 34.6022C560.695 33.1755 559.744 32.0659 560.695 32.0659C561.488 32.0659 563.232 33.0171 564.341 33.9683C565.926 35.5535 565.926 35.2364 564.341 32.383C563.073 30.4808 561.012 29.0541 559.586 29.2126C558.159 29.5297 557.049 29.0541 556.891 28.42C556.732 26.0422 551.184 22.7131 547.538 22.5546C545.636 22.5546 543.575 21.762 542.941 20.8109C542.307 19.8598 539.77 19.5427 536.6 20.1768C532.161 20.9694 531.369 20.6523 532.161 18.5916C532.954 16.5308 532.003 16.0552 526.296 16.3722C516.151 16.6893 501.091 19.7013 502.042 21.2865C502.518 21.9206 500.14 22.5546 496.811 22.5546C492.848 22.5546 491.58 23.0302 492.848 23.9813C494.592 25.091 494.592 25.4081 492.689 26.2007C491.421 26.6762 489.519 26.2007 488.409 25.2496C486.824 23.8229 486.666 23.8229 487.458 25.2496C488.092 26.3592 487.775 27.3102 486.983 27.3102C486.032 27.3102 485.239 26.6762 485.239 25.725C485.239 24.9324 484.129 24.6155 482.703 25.2496C480.8 25.8837 480.8 26.5176 482.227 27.3102C483.495 28.2614 483.178 29.054 480.8 30.3222C478.422 31.5904 477.313 31.5904 476.837 30.0052C476.203 28.8956 475.886 29.0539 475.886 30.6392C475.728 32.2244 473.033 34.4438 469.545 35.8704C466.058 37.1386 461.936 39.675 460.351 41.4187C456.546 45.3817 448.779 45.3817 448.779 41.4187C448.779 39.8335 447.352 37.6142 445.608 36.5046C443.865 35.3949 442.438 33.6511 442.438 32.7C442.438 31.5904 439.268 28.4199 435.305 25.5665C431.5 22.5546 428.171 18.9087 428.171 17.482C428.171 14.3116 420.721 10.0315 414.538 9.5559C412.319 9.23886 409.941 8.28773 409.624 7.17808C409.149 6.06843 408.197 5.43426 407.563 5.90983C406.771 6.38539 405.82 6.06831 405.344 5.2757C404.868 4.64162 401.539 4.48313 397.735 5.11722C394.089 5.90983 390.126 6.06843 389.016 5.59286C387.907 5.1173 386.955 5.59282 386.955 6.54395C386.955 7.49508 386.48 8.12921 385.846 7.97069C382.517 7.01956 374.274 10.0314 374.274 12.2507C374.274 13.5189 373.481 14.6285 372.53 14.6285C371.737 14.6285 371.42 15.4211 371.896 16.2137C372.53 17.3234 371.579 17.6405 368.884 16.8479C366.348 16.2138 364.762 16.5309 364.762 17.482C364.762 18.4331 363.177 19.7012 361.275 20.3353C357.629 21.6034 356.519 21.7621 352.556 22.2376C351.447 22.3962 350.496 23.3472 350.496 24.2983C350.496 25.5665 351.447 25.408 353.349 23.9813C354.934 22.7132 354.776 23.3472 352.715 25.5665C350.971 27.4688 348.118 29.2125 346.691 29.5296C345.106 29.6881 343.362 30.7978 342.728 31.9074C342.094 33.0171 340.826 33.6511 340.033 33.4926C336.704 32.8585 335.912 33.8097 337.972 36.3461C339.082 37.9313 339.399 38.7239 338.765 38.0898C337.972 37.4557 336.387 38.0898 335.119 39.675C333.639 41.3659 333.164 41.3131 333.692 39.5165C334.168 37.7728 334.009 36.9801 333.058 37.6141C332.107 38.0897 331.473 39.9921 331.473 41.8943C331.473 43.9551 330.68 44.7477 329.254 44.2722C327.668 43.6381 327.193 44.1135 327.827 45.6987C328.303 47.1254 327.668 47.918 325.766 47.918C323.388 47.918 323.23 48.2351 324.974 49.3448C327.193 50.7715 326.083 54.2589 323.388 54.2589C322.437 54.2589 322.279 53.3079 322.913 52.1982C323.864 50.9301 323.388 50.93 321.486 52.5152C319.584 54.1004 319.267 55.3685 320.376 57.5878C321.645 59.9657 321.486 60.2828 319.742 59.6487C318.474 59.1731 316.73 60.1242 315.621 62.185C314.67 63.9287 313.243 65.0384 312.45 64.5628C311.658 64.0873 310.707 64.4043 310.073 65.3554C308.329 68.2088 306.109 65.3555 306.109 60.4413C306.109 57.4294 305.317 55.8441 303.732 55.8441C302.305 55.8441 301.354 54.4175 301.354 52.5152C301.354 48.8692 296.598 39.992 294.696 39.992C294.062 39.992 293.428 39.1994 293.428 38.0898C293.428 37.1387 291.526 33.8097 289.306 30.9563C286.294 26.9933 284.709 25.8836 283.441 27.1518C282.49 28.1029 281.063 28.8955 280.27 28.8955C279.478 28.8955 280.112 27.7858 281.38 26.3592C284.392 23.3472 283.282 20.8108 279.478 21.9205C277.259 22.7131 277.1 22.5546 279.161 21.1279C281.222 19.5426 281.222 19.2256 279.161 17.7989C277.893 17.0063 277.417 16.2137 278.051 16.2137C278.844 16.2137 277.893 13.9945 275.99 11.2996C273.613 8.12917 271.393 6.70255 269.016 7.0196C267.272 7.17812 264.735 6.86092 263.626 6.06831C262.516 5.43422 261.089 5.1173 260.772 5.59286C260.297 6.06843 257.443 5.4343 254.431 4.16613C251.261 2.89796 247.298 2.26379 244.762 2.89788C241.908 3.69049 240.957 3.53197 241.75 2.10527C242.384 1.15414 241.908 0.361572 240.482 0.361572C239.055 0.361572 237.945 1.15414 237.945 2.10527ZM423.415 14.9457C423.415 15.8968 422.464 15.7382 421.038 14.6285C419.769 13.5189 418.66 12.4093 418.66 12.0922C418.66 11.7752 419.769 11.9336 421.038 12.4092C422.306 13.0433 423.415 14.1531 423.415 14.9457ZM194.986 31.4318C194.035 32.6999 192.608 33.3341 192.133 32.7C191.657 32.0659 192.132 31.2734 193.242 30.9563C194.193 30.4808 194.669 29.3711 194.193 28.5785C193.559 27.4688 193.876 27.3103 194.986 27.9444C196.413 28.8955 196.413 29.688 194.986 31.4318ZM331.948 48.7107C331.473 50.1374 330.68 50.9299 330.363 50.4544C329.888 49.9788 330.046 49.0277 330.68 48.0765C332.107 45.5402 333.058 46.0158 331.948 48.7107ZM495.701 63.1361C495.701 64.5628 496.494 66.1481 497.762 66.6237C499.347 67.0992 499.664 66.6236 499.03 64.7213C498.396 63.1361 498.555 62.3435 499.506 62.9776C500.457 63.4532 501.091 65.0384 501.091 66.148C501.091 67.4162 502.042 68.0503 503.152 67.5748C505.53 66.7822 512.188 72.489 512.029 75.3424C512.029 76.7691 511.712 76.7691 511.078 75.1839C510.761 74.2327 509.334 73.2815 508.066 73.2815C506.798 73.2815 505.371 72.3305 504.896 71.2208C503.944 68.6845 499.189 68.6845 496.018 71.2208C494.909 72.0135 492.848 73.44 491.58 74.0741C489.519 75.1838 489.519 75.0253 491.263 72.9645C493.006 70.7452 492.531 70.7452 486.824 72.1719C483.337 73.1231 481.276 74.3912 482.068 74.8667C482.861 75.3423 482.068 76.6105 480.483 77.7202C477.788 79.3054 477.313 79.3054 477.313 77.0861C477.313 74.0742 472.399 74.7082 471.289 77.8787C470.813 79.1468 471.289 79.6225 472.24 79.1469C474.618 77.5617 475.569 83.4268 473.508 86.9143C470.655 91.67 467.484 91.5116 467.802 86.4389C468.277 79.781 467.96 78.5127 466.216 81.2076C465.265 82.6343 464.631 82.7929 464.631 81.6832C464.631 79.3054 471.448 74.7082 480.483 70.9037C484.446 69.3185 489.36 66.3066 491.58 64.2458C496.177 59.9658 496.018 59.9657 495.701 63.1361ZM658.344 63.1361C656.284 64.5628 654.223 65.1969 653.747 64.7213C653.113 64.2457 653.589 63.7702 654.698 63.7702C655.808 63.7702 656.125 62.9776 655.65 62.185C655.174 61.2339 656.284 60.5998 658.344 60.5998H661.832L658.344 63.1361ZM669.917 62.185C669.441 62.9776 671.026 64.2457 673.404 64.7213C677.367 65.8309 677.367 65.9895 674.672 67.0991C670.234 68.8429 668.807 68.8429 669.917 67.0991C670.392 66.3065 670.075 65.1969 669.124 64.5628C667.539 63.6117 668.331 60.5998 670.075 60.5998C670.551 60.5998 670.392 61.2339 669.917 62.185ZM284.709 65.3554C285.185 66.148 284.868 66.9406 284.075 66.9406C283.124 66.9406 282.331 66.148 282.331 65.3554C282.331 64.4043 282.648 63.7702 282.965 63.7702C283.441 63.7702 284.234 64.4043 284.709 65.3554ZM494.116 78.3543C494.592 78.9884 496.177 78.9884 497.604 78.5128C499.506 77.8787 499.347 78.3543 497.128 80.098C493.958 82.4758 489.836 81.6832 487.617 78.0372C486.507 76.2934 492.372 76.7691 494.116 78.3543ZM633.457 80.7321C635.676 82.4759 635.834 82.9514 634.091 82.3174C632.664 81.8418 630.603 82.3173 629.494 83.2684C627.908 84.6951 627.274 84.6952 626.799 83.11C626.323 82.1588 625.372 81.5246 624.579 82.1587C623.787 82.6342 623.153 82.1587 623.153 81.2076C623.153 80.2565 624.896 79.9394 627.591 80.5735C630.92 81.2075 631.396 81.049 629.494 79.7809C628.225 78.8297 627.908 78.0372 628.701 78.0372C629.652 78.1957 631.713 79.3054 633.457 80.7321ZM484.763 81.3661C483.337 82.3172 482.385 83.5854 482.861 84.5365C483.495 85.3291 482.386 85.9632 480.642 85.9632C476.679 85.9632 476.203 81.6833 480.166 80.7321C485.556 79.3054 487.775 79.6223 484.763 81.3661ZM911.662 83.4269C911.662 83.744 910.552 84.5366 909.126 85.0121C907.857 85.4877 907.223 85.3291 907.699 84.378C908.65 82.7928 911.662 82.1588 911.662 83.4269ZM463.68 91.5115C459.558 94.5234 458.766 92.9382 462.412 88.9752C464.156 87.0729 465.582 86.4388 465.899 87.5484C466.216 88.4996 465.265 90.2433 463.68 91.5115ZM923.551 87.5484C924.185 88.4996 924.027 89.1337 923.234 88.9752C920.064 88.4996 919.271 89.2922 921.173 91.5115C922.6 93.2552 922.6 93.8893 921.332 93.8893C920.381 93.8893 919.112 92.7797 918.637 91.5115C918.003 90.2433 917.052 89.6092 916.259 90.0848C915.466 90.5603 914.832 90.5604 914.832 89.9263C914.832 89.2922 918.478 87.2314 922.283 86.1217C922.441 85.9632 923.076 86.7558 923.551 87.5484ZM904.211 90.2434C903.894 91.3531 905.163 92.6211 906.906 93.0967C908.65 93.7308 910.077 94.8406 910.077 95.7917C910.077 96.7428 909.126 96.7427 907.699 95.4745C905.797 93.8893 905.321 93.8894 905.321 96.1087C905.321 97.5353 904.211 98.645 902.943 98.645C901.675 98.645 900.565 97.8523 900.565 97.0597C900.565 96.1086 901.358 95.4745 902.309 95.4745C903.102 95.4745 903.419 94.682 902.785 93.7308C902.151 92.4627 901.358 92.6211 900.407 94.0478C899.297 95.7915 898.505 95.7917 896.285 93.4139C893.749 91.036 893.749 90.4018 895.81 89.1337C898.98 87.0729 904.687 87.8656 904.211 90.2434ZM412.319 92.4626C412.319 93.4137 411.685 93.5723 410.734 93.0967C409.941 92.6211 409.149 91.353 409.149 90.5604C409.149 89.6093 409.941 89.4507 410.734 89.9263C411.685 90.4018 412.319 91.67 412.319 92.4626ZM890.262 92.3041C888.676 94.0478 886.774 95.4745 886.14 95.4745C883.762 95.4745 886.457 90.8775 889.152 90.2434C890.737 89.7679 892.164 89.4507 892.481 89.2921C892.798 89.2921 891.847 90.5604 890.262 92.3041ZM937.026 94.6819C937.818 95.633 936.867 96.2671 934.806 96.2671C931.794 96.2671 931.636 95.7916 933.062 92.7797C934.014 90.719 934.965 90.0849 935.282 91.1945C935.599 92.3042 936.391 93.7308 937.026 94.6819ZM882.335 95.4745C881.86 96.2671 880.433 97.0597 879.482 97.0597C878.372 97.0597 878.531 96.4257 879.958 95.4745C882.97 93.5723 883.604 93.5723 882.335 95.4745ZM919.43 96.1087C921.015 98.0109 920.856 98.3279 918.637 98.0108C917.052 97.6938 915.466 96.7428 915.149 95.7917C914.357 93.0968 917.21 93.4138 919.43 96.1087ZM423.415 97.0597C423.415 97.8523 423.098 98.645 422.781 98.645C422.306 98.645 421.513 97.8523 421.038 97.0597C420.562 96.1086 420.879 95.4745 421.672 95.4745C422.623 95.4745 423.415 96.1086 423.415 97.0597ZM440.853 97.0597C440.853 97.8523 440.536 98.645 440.219 98.645C439.743 98.645 438.951 97.8523 438.475 97.0597C437.999 96.1086 438.317 95.4745 439.109 95.4745C440.06 95.4745 440.853 96.1086 440.853 97.0597ZM897.871 98.1695C897.712 99.2792 899.931 99.7546 903.577 99.5961C907.065 99.5961 909.443 99.9132 908.967 100.547C908.65 101.34 905.163 101.815 901.2 101.815C896.285 101.815 894.383 101.181 895.176 100.072C895.651 99.1206 895.176 97.6939 894.066 96.7428C892.322 95.6331 892.639 95.4746 895.017 95.9502C896.761 96.2672 898.029 97.2184 897.871 98.1695ZM433.719 100.23C434.195 101.023 433.878 101.815 433.085 101.815C432.134 101.815 431.342 101.023 431.342 100.23C431.342 99.279 431.659 98.645 431.976 98.645C432.451 98.645 433.244 99.279 433.719 100.23ZM447.194 101.815C447.194 103.718 446.084 104.986 444.657 104.986C442.597 104.986 442.438 104.51 443.865 102.925C444.816 101.657 445.133 100.23 444.499 99.7547C444.023 99.1206 444.34 98.645 445.291 98.645C446.401 98.645 447.194 100.072 447.194 101.815ZM995.361 102.608C994.886 103.084 993.935 102.291 993.459 100.706C992.508 98.4865 992.667 98.328 994.252 99.7547C995.361 100.864 995.837 102.132 995.361 102.608ZM419.452 101.815C418.977 102.608 417.55 103.401 416.599 103.401C415.489 103.401 415.648 102.767 417.075 101.815C420.087 99.9131 420.721 99.9131 419.452 101.815ZM942.732 106.888C941.781 107.522 940.513 107.205 940.037 106.254C939.403 105.303 937.501 104.986 935.599 105.461C933.697 105.937 931.953 105.778 931.636 105.144C931.16 104.51 932.428 103.876 934.331 103.876C936.233 103.718 937.977 102.767 938.294 101.815C938.769 100.706 940.037 101.181 941.781 102.925C943.525 104.827 943.842 106.096 942.732 106.888ZM867.276 104.352C867.276 105.62 866.642 106.254 865.691 105.778C864.898 105.303 864.106 106.096 863.947 107.681C863.947 110.217 863.789 110.217 862.679 107.364C861.569 104.51 862.679 103.084 866.959 101.974C867.117 101.815 867.276 102.925 867.276 104.352ZM924.344 103.401C924.344 104.193 924.027 104.986 923.71 104.986C923.234 104.986 922.441 104.193 921.966 103.401C921.49 102.449 921.807 101.815 922.6 101.815C923.551 101.815 924.344 102.449 924.344 103.401ZM602.545 104.986C602.545 105.778 601.911 106.571 600.96 106.571C600.167 106.571 599.374 105.778 599.374 104.986C599.374 104.035 600.167 103.401 600.96 103.401C601.911 103.401 602.545 104.035 602.545 104.986ZM908.016 104.352C907.54 104.827 906.114 104.986 905.004 104.51C903.736 104.035 904.211 103.559 905.955 103.559C907.699 103.401 908.65 103.876 908.016 104.352ZM973.485 104.986C973.485 105.778 972.376 106.096 971.108 105.62C969.839 104.986 968.73 104.352 968.73 104.035C968.73 103.718 969.839 103.401 971.108 103.401C972.376 103.401 973.485 104.035 973.485 104.986ZM979.826 105.778C978.717 107.047 977.131 108.156 976.18 108.156C975.229 108.156 975.863 107.047 977.607 105.778C981.57 102.767 982.363 102.767 979.826 105.778ZM1005.19 106.571C1005.19 109.266 1004.87 109.583 1002.97 107.839C1001.39 106.413 1001.23 105.461 1002.65 104.669C1005.19 102.925 1005.19 103.084 1005.19 106.571ZM580.827 106.096C579.718 106.413 577.815 106.413 576.864 106.096C575.755 105.62 576.547 105.303 578.767 105.303C580.986 105.303 581.779 105.62 580.827 106.096ZM159.16 111.485C158.05 113.863 155.831 116.241 154.246 116.716C152.661 117.245 152.713 116.822 154.404 115.448C156.148 114.022 156.624 112.753 155.673 112.119C153.612 111.01 156.624 107.047 159.477 107.047C160.745 107.047 160.745 108.473 159.16 111.485ZM440.536 109.266C440.06 112.595 437.682 114.656 435.78 113.546C433.719 112.278 434.353 109.742 436.573 110.059C437.524 110.376 438.316 109.583 438.158 108.473C437.841 107.522 438.475 106.571 439.268 106.571C440.219 106.571 440.853 107.839 440.536 109.266ZM744.422 108.156C743.946 108.949 742.519 109.266 741.251 108.632C737.922 107.522 738.239 106.571 742.202 106.571C743.946 106.571 745.056 107.205 744.422 108.156ZM756.152 111.485C754.884 112.278 752.506 112.753 750.763 112.753L747.592 112.595L750.763 111.802C752.506 111.327 754.567 109.9 755.36 108.473C756.469 106.413 757.103 106.413 757.579 107.998C757.896 109.107 757.262 110.693 756.152 111.485ZM956.048 108.949C957.792 111.01 957.633 111.168 955.414 110.376C953.987 109.9 952.878 108.79 952.878 107.998C952.878 105.937 953.829 106.254 956.048 108.949ZM586.693 110.534C586.693 111.961 585.266 112.912 583.205 112.753C580.51 112.595 580.193 112.436 582.413 111.802C583.839 111.485 585.107 110.376 585.107 109.583C585.107 108.79 585.425 108.156 585.9 108.156C586.376 108.156 586.693 109.266 586.693 110.534ZM107.641 114.814C106.531 115.448 104.946 115.29 103.836 114.497C102.885 113.546 101.775 113.229 101.3 113.705C100.983 114.18 100.507 113.546 100.507 112.278C100.507 110.693 101.458 110.534 104.946 111.961C107.958 112.912 108.75 114.022 107.641 114.814ZM314.036 111.168C314.036 112.119 313.401 113.229 312.45 113.705C311.658 114.18 310.865 113.546 310.865 112.278C310.865 110.851 311.658 109.741 312.45 109.741C313.401 109.741 314.036 110.376 314.036 111.168ZM564.024 112.119C564.024 113.387 563.39 114.022 562.597 113.546C561.805 113.07 561.646 111.961 562.122 111.168C563.549 109.107 564.024 109.424 564.024 112.119ZM738.556 111.961C737.447 113.229 736.179 113.863 735.862 113.705C735.069 112.753 737.447 109.741 739.032 109.741C739.825 109.741 739.666 110.693 738.556 111.961ZM726.192 112.912C726.192 113.705 725.875 114.497 725.558 114.497C725.082 114.497 724.289 113.705 723.814 112.912C723.338 111.961 723.655 111.327 724.448 111.327C725.399 111.327 726.192 111.961 726.192 112.912ZM743.154 120.363C741.41 122.106 740.459 122.423 740.459 121.155C740.459 120.045 741.251 119.253 742.202 119.253C743.154 119.253 743.471 118.143 742.836 116.399C742.044 114.18 742.202 114.022 743.788 115.765C745.531 117.351 745.373 118.143 743.154 120.363ZM947.646 115.448C947.171 115.924 945.744 116.082 944.634 115.607C943.366 115.131 943.842 114.656 945.586 114.656C947.329 114.497 948.28 114.973 947.646 115.448ZM722.229 117.668C722.704 118.46 722.387 119.253 721.595 119.253C720.643 119.253 719.851 118.46 719.851 117.668C719.851 116.716 720.168 116.082 720.485 116.082C720.961 116.082 721.753 116.716 722.229 117.668ZM749.97 117.668C749.97 118.46 749.653 119.253 749.336 119.253C748.86 119.253 748.068 118.46 747.592 117.668C747.117 116.716 747.434 116.082 748.226 116.082C749.177 116.082 749.97 116.716 749.97 117.668ZM561.329 119.253C561.329 120.045 560.537 120.838 559.586 120.838C558.793 120.838 558.476 120.045 558.951 119.253C559.427 118.302 560.22 117.668 560.695 117.668C561.012 117.668 561.329 118.302 561.329 119.253ZM573.06 119.094C574.487 121.314 567.987 122.265 566.243 120.204C565.134 118.936 565.768 118.302 568.463 117.985C570.523 117.826 572.584 118.302 573.06 119.094ZM103.836 124.96C104.946 127.971 104.153 127.813 100.824 124.008C98.2877 121.314 98.2877 120.838 100.348 121.631C101.775 122.265 103.36 123.691 103.836 124.96ZM284.234 131.776C281.38 137.007 279.161 138.117 279.161 134.471C279.161 133.203 280.27 131.934 281.539 131.3C285.185 129.874 284.392 125.594 280.429 125.594C278.21 125.594 278.051 124.854 279.953 123.374C282.648 121.472 283.282 121.472 285.026 124.008C286.77 126.386 286.611 127.813 284.234 131.776ZM292.635 125.435C293.111 126.228 292.794 127.337 291.843 127.971C291.05 128.447 290.257 127.813 290.257 126.545C290.257 123.691 291.208 123.216 292.635 125.435ZM280.746 128.764C280.746 129.557 279.953 130.349 279.002 130.349C278.21 130.349 277.893 129.557 278.368 128.764C278.844 127.813 279.636 127.179 280.112 127.179C280.429 127.179 280.746 127.813 280.746 128.764ZM292.318 136.69C290.416 138.592 289.148 138.909 288.355 137.641C286.294 134.629 286.928 133.837 291.05 133.837C295.172 133.837 295.013 133.995 292.318 136.69Z" fill="#171717"/>
<path fill-rule="evenodd" clip-rule="evenodd" d="M490.946 89.7821C490.47 90.5747 491.104 91.5259 492.373 92.16C494.75 93.1111 496.97 91.0502 495.226 89.3065C493.799 87.8798 491.897 88.0384 490.946 89.7821Z" fill="#171717"/>
<path fill-rule="evenodd" clip-rule="evenodd" d="M51.8414 103.415C52.4755 104.683 52.9511 105.793 53.2681 105.793C53.5852 105.793 54.0607 104.683 54.6948 103.415C55.1704 101.988 54.6948 101.037 53.2681 101.037C51.8415 101.037 51.3659 101.988 51.8414 103.415Z" fill="#171717"/>
<path fill-rule="evenodd" clip-rule="evenodd" d="M48.5135 105.793C48.989 106.585 49.7816 107.378 50.2572 107.378C50.5742 107.378 50.8913 106.585 50.8913 105.793C50.8913 104.842 50.0987 104.208 49.1476 104.208C48.355 104.208 48.0379 104.842 48.5135 105.793Z" fill="#171717"/>
<path fill-rule="evenodd" clip-rule="evenodd" d="M237.946 107.378C237.946 108.171 238.739 108.963 239.69 108.963C240.483 108.963 240.8 108.171 240.324 107.378C239.849 106.427 239.056 105.793 238.58 105.793C238.263 105.793 237.946 106.427 237.946 107.378Z" fill="#171717"/>
<path fill-rule="evenodd" clip-rule="evenodd" d="M424.367 137.18C423.891 137.973 424.525 138.607 425.794 138.607C427.062 138.607 427.696 137.973 427.22 137.18C426.745 136.546 426.111 135.912 425.794 135.912C425.476 135.912 424.842 136.546 424.367 137.18Z" fill="#171717"/>
<path fill-rule="evenodd" clip-rule="evenodd" d="M3.80957 143.045C3.80957 144.313 4.44365 144.948 5.23625 144.472C6.02886 143.996 6.18741 142.887 5.71185 142.094C4.28515 140.033 3.80957 140.35 3.80957 143.045Z" fill="#171717"/>
<path fill-rule="evenodd" clip-rule="evenodd" d="M11.2598 147.008C11.2598 147.801 12.0523 148.594 13.0035 148.594C13.7961 148.594 14.1132 147.801 13.6376 147.008C13.162 146.057 12.3694 145.423 11.8938 145.423C11.5768 145.423 11.2598 146.057 11.2598 147.008Z" fill="#171717"/>
<path fill-rule="evenodd" clip-rule="evenodd" d="M6.50439 149.545C6.50439 150.813 7.297 151.447 8.08961 150.971C9.04074 150.496 9.67483 149.386 9.67483 148.435C9.67483 147.642 9.04074 147.008 8.08961 147.008C7.297 147.008 6.50439 148.118 6.50439 149.545Z" fill="#171717"/>
<path fill-rule="evenodd" clip-rule="evenodd" d="M832.402 148.594C832.402 150.654 836.84 152.557 838.426 151.13C838.901 150.496 838.426 149.386 837.158 148.594C833.987 146.533 832.402 146.691 832.402 148.594Z" fill="#171717"/>
<path fill-rule="evenodd" clip-rule="evenodd" d="M970.792 152.398C971.585 154.935 974.597 155.251 975.548 152.715C976.182 151.13 975.548 150.496 973.328 150.654C971.743 150.813 970.475 151.606 970.792 152.398Z" fill="#171717"/>
<path fill-rule="evenodd" clip-rule="evenodd" d="M128.566 161.117C128.566 161.909 129.359 163.177 130.151 163.653C131.102 164.129 131.736 163.97 131.736 163.019C131.736 162.226 131.102 160.958 130.151 160.483C129.359 160.007 128.566 160.166 128.566 161.117Z" fill="#171717"/>
</svg>
