<svg width="100" height="100" viewBox="0 0 600 600" fill="none" xmlns="http://www.w3.org/2000/svg">
<path d="M534.58 225.3C540.851 227.425 543.494 232.817 541.162 239.195C539.711 243.29 537.275 246.764 533.802 249.408C529.967 252.312 525.821 254.593 521.26 255.889C505.453 260.452 492.185 269.11 480.627 280.62C476.222 285.027 471.609 289.175 466.686 293.011C462.798 296.07 458.756 298.818 453.677 299.544C452.122 299.751 451.345 300.425 450.93 302.292C449.22 309.55 448.39 317.016 445.954 324.171C445.488 325.571 444.918 326.971 444.814 328.422C443.83 342.317 439.165 355.331 433.879 367.826C427.037 384.002 416.154 397.274 400.864 406.918C386.145 416.198 370.079 421.02 353.442 424.701C351.369 425.168 349.192 425.064 347.119 425.168C342.558 425.427 337.946 425.997 333.385 425.79C327.166 425.531 322.864 428.434 319.236 432.997C314.52 439.011 308.456 443.418 302.236 447.721C289.746 456.431 275.649 460.838 260.826 463.171C254.503 464.156 248.336 465.815 242.427 468.149C235.12 471.052 227.967 474.163 220.556 476.755C215.373 478.57 210.916 481.629 207.962 486.45C207.444 487.332 206.874 488.213 205.733 487.954C204.49 487.695 204.541 486.606 204.645 485.621C205.993 474.267 204.956 462.705 206.822 451.35C207.444 447.514 208.066 443.677 208.688 439.737C207.029 439.737 206.614 440.981 205.837 441.759C193.502 454.72 178.679 463.119 160.903 465.815C153.854 466.852 146.857 466.23 140.223 463.379C135.248 461.253 130.169 459.542 124.986 458.039C119.959 456.587 115.035 454.72 110.371 452.439C106.017 450.313 101.56 448.965 96.6881 449.225C95.8589 449.276 95.0296 449.276 94.2522 449.121C90.8316 448.447 90.106 447.41 91.2462 444.04C93.7857 436.367 97.2064 429.16 102.026 422.679C112.185 409.044 121.98 395.097 134.833 383.691C135.662 382.965 136.388 382.032 137.114 381.15C137.269 380.943 137.217 380.528 137.269 380.01C129.961 381.876 123.017 379.698 116.02 378.195C112.91 377.521 110.215 376.017 107.727 374.099C104.255 371.403 100.368 369.848 96.0662 369.277C89.6914 368.448 84.3013 365.544 79.4295 361.5C71.8627 355.279 66.3689 347.398 60.927 339.414C60.3051 338.481 60.5643 337.599 60.6161 336.614C60.8752 332.726 61.3417 328.785 59.3722 325.104C58.9058 324.223 58.9058 323.186 59.2167 322.201C61.9118 313.542 60.4606 304.677 60.1496 295.915C60.046 292.493 59.8387 289.071 59.6832 285.649C59.4759 281.19 60.3051 276.887 61.6008 272.584C67.0427 254.023 75.9052 237.069 86.789 221.256C93.5784 211.405 102.078 202.902 111.925 195.903C128.147 184.341 145.302 174.749 164.79 169.772C172.201 167.854 179.509 167.543 187.127 168.009C199.099 168.735 210.657 171.639 222.318 174.024C224.702 174.49 227.138 174.801 229.574 175.009C238.955 175.838 247.817 178.223 256.991 182.889C256.732 174.853 260.308 168.735 263.469 162.514C265.439 158.677 268.289 155.462 271.814 152.974C275.286 150.485 279.018 149.085 283.319 150.744C286.533 151.989 289.02 150.9 291.301 148.671C300.267 140.116 310.684 133.48 321.465 127.776C334.111 121.036 347.482 114.919 361.89 113.415C378.941 111.6 396.148 110.615 412.888 116.318C417.812 117.977 422.943 119.118 427.97 120.518C429.37 120.933 430.873 121.192 432.168 121.814C441.964 126.273 451.707 130.835 461.762 134.776C464.872 135.968 466.945 138.664 469.225 140.997C482.804 154.685 491.355 171.69 500.166 188.489C502.706 193.31 503.639 199.014 505.401 204.25C508.51 213.271 514.004 219.856 523.8 222.085C527.531 222.707 531.055 224.107 534.58 225.3ZM537.327 240.439C540.022 235.773 537.897 228.981 532.247 227.633C528.101 226.648 524.162 224.989 520.068 223.848C516.492 222.811 513.745 220.685 511.05 218.249C504.261 212.079 502.706 203.265 499.285 195.488C497.938 192.377 497.16 189.007 495.45 186C491.407 178.742 487.468 171.379 483.374 164.121C482.026 161.736 480.472 159.351 478.71 157.225C474.615 152.144 470.313 147.167 466.115 142.19C464.301 140.064 462.28 138.094 459.637 137.057C450.308 133.48 441.238 129.436 432.272 125.08C431.132 124.51 429.836 124.199 428.54 123.836C420.818 121.71 413.096 119.585 405.373 117.459C401.745 116.474 398.014 116.007 394.282 115.644C385.109 114.815 375.987 115.696 366.814 115.748C361.89 115.748 357.07 116.681 352.406 118.289C346.705 120.311 341.055 122.436 335.354 124.51C318.977 130.421 304.828 140.064 291.923 151.574C289.124 154.063 286.585 155.203 283.164 153.907C278.551 152.144 274.923 153.803 271.555 156.862C265.543 162.41 262.485 169.617 260.204 177.186C259.116 180.867 259.945 184.652 262.226 187.97C263.729 190.096 265.18 192.325 267.253 193.984C269.326 195.643 270.881 197.717 271.814 200.258C273.006 203.524 274.872 206.376 277.152 209.02C279.277 211.405 280.521 214.205 280.624 217.471C280.676 219.441 281.039 221.308 282.283 223.485C283.682 222.552 284.667 221.93 285.548 221.256C295.706 213.531 307.212 209.435 319.754 207.62C327.736 206.479 335.769 207.309 343.75 206.946C351.887 206.635 359.713 207.983 367.176 211.197C371.893 213.219 376.816 214.205 381.896 214.619C388.581 215.19 394.697 217.419 400.087 221.359C406.462 225.974 412.37 231.106 417.346 237.276C421.855 242.876 426.519 248.371 431.08 253.919C434.915 258.637 438.802 263.355 440.824 269.11C443.674 277.302 446.369 285.545 449.064 293.789C450.101 296.952 450.774 297.522 453.884 296.796C457.616 295.915 460.777 293.893 463.783 291.559C469.07 287.412 474.045 282.953 478.813 278.183C490.578 266.414 504.209 257.652 520.275 252.986C521.675 252.571 523.126 252.156 524.422 251.482C529.708 248.89 534.269 245.727 537.327 240.439ZM446.732 306.284C447.095 303.484 447.302 300.84 446.784 298.04C445.436 290.419 441.86 283.471 439.942 276.057C437.818 267.866 433.309 261.229 428.022 254.904C423.824 249.875 419.574 244.898 415.532 239.765C410.712 233.647 404.959 228.618 398.791 224.004C394.127 220.53 388.84 218.352 383.036 217.73C376.505 217.056 370.182 215.708 364.067 213.116C358.573 210.783 352.82 209.798 346.86 209.901C340.796 210.057 334.784 209.798 328.72 209.901C312.654 210.057 298.246 214.93 285.496 224.833C282.024 227.529 278.448 230.173 275.027 232.921C259.582 245.157 247.403 259.467 242.531 279.376C240.976 285.753 240.51 291.819 240.821 298.196C240.924 300.477 241.235 302.758 241.546 305.04C244.449 327.126 249.735 348.435 261.085 367.877C272.228 386.957 270.57 386.127 289.383 396.341C295.032 399.452 300.682 402.148 307.316 402.304C309.389 402.355 311.565 402.822 313.535 403.548C324.989 407.54 336.857 408.318 348.829 408.11C355.515 408.059 362.201 408.266 368.887 407.281C371.375 406.918 373.499 405.259 375.728 405.259C382.673 405.207 388.529 402.304 393.66 398.311C401.746 391.986 409.312 384.987 416.05 377.054C421.285 370.936 425.534 364.145 430.717 358.027C432.738 355.642 434.034 352.738 434.812 349.731C438.284 335.111 444.659 321.319 446.732 306.284ZM429.94 369.64C431.339 367.1 432.479 364.352 433.101 360.671C430.873 362.174 429.784 363.833 428.696 365.441C420.092 378.61 409.105 389.497 397.081 399.348C389.514 405.57 380.341 408.214 371.115 410.029C360.543 412.103 349.659 411.377 338.879 411.014C331.519 410.755 324.263 409.925 317.163 407.747C314.053 406.814 310.84 405.674 307.678 405.466C300.06 405.051 293.581 402.096 287.051 398.467C268.238 388.098 269.119 387.372 259.634 371.04C251.653 357.405 246.159 342.784 243.101 327.178C241.65 319.764 239.991 312.402 238.955 304.936C235.742 321.06 237.763 336.821 241.961 352.427C244.708 362.589 249.476 371.87 254.296 381.202C257.768 387.89 262.277 393.127 268.652 396.808C272.85 399.245 276.426 402.304 279.173 406.244C282.594 411.169 287.362 414.021 292.959 415.887C301.822 418.843 310.944 420.657 320.065 422.524C322.605 423.042 325.3 423.405 327.839 423.094C331.415 422.679 334.992 422.679 338.568 422.679C342.973 422.679 347.482 423.301 351.784 422.213C366.969 418.376 381.947 414.384 395.785 406.348C411.023 397.482 421.647 384.831 429.94 369.64ZM321.102 426.205C318.821 425.686 317.111 425.272 315.349 424.909C307.575 423.146 299.697 421.59 292.078 419.05C285.703 416.976 280.21 413.762 276.323 408.059C273.783 404.377 270.362 401.63 266.475 399.348C259.841 395.46 254.451 390.379 251.549 383.017C250.979 381.513 250.098 380.061 249.269 378.662C247.351 375.395 247.092 375.343 244.345 378.039C235.742 386.49 228.797 396.082 224.391 407.436C221.489 414.902 218.535 422.316 215.062 429.575C213.456 432.997 212.367 436.574 211.59 440.255C209.102 451.973 208.273 463.845 208.273 475.822C208.273 477.014 207.755 478.414 209.102 479.71C212.212 477.325 215.373 474.992 219.105 473.8C226.724 471.311 234.031 468.045 241.443 465.09C247.662 462.601 254.14 460.942 260.774 459.957C284.978 456.379 305.087 445.699 321.102 426.205ZM273.939 230.277C277.774 227.685 280.573 225.092 277.929 220.115C277.618 219.597 277.618 218.819 277.618 218.197C277.67 214.879 276.167 212.234 274.042 209.849C272.384 208.035 270.984 205.961 270.052 203.68C266.786 195.851 260.256 190.77 254.348 185.274C252.586 183.615 250.202 182.734 247.817 182.008C241.132 179.882 234.29 178.171 227.294 177.653C223.873 177.394 220.504 176.668 217.136 175.942C205.008 173.298 192.88 170.653 179.612 170.653C175.103 170.239 170.024 171.431 164.945 172.727C145.562 177.549 128.614 187.296 112.651 198.806C103.322 205.546 95.1333 213.738 88.7067 223.226C79.5332 236.758 71.5517 251.016 66.1616 266.621C63.1038 275.435 61.2898 284.197 62.43 293.53C62.9483 297.885 62.7929 302.344 62.8965 306.75C62.9483 308.876 62.8965 311.002 62.9483 313.128C62.9483 314.32 63.1038 315.357 64.6586 315.616C72.3809 316.809 76.7863 322.097 80.3106 328.474C81.9691 331.429 83.0056 334.799 86.1671 336.718C86.789 337.133 87.2037 337.962 87.5664 338.688C89.7432 342.576 88.9658 346.465 85.1824 350.146C82.4874 352.79 82.2282 352.79 77.1491 349.628C76.0089 348.902 74.9723 348.228 73.7803 349.628C72.5364 351.079 73.4175 351.961 74.2986 352.946C80.6734 360.049 87.8774 365.648 97.8283 366.737C101.456 367.152 104.929 368.292 107.779 370.574C114.31 375.758 122.135 376.432 129.91 377.417C131.672 377.625 133.589 377.573 135.248 377.054C144.11 374.306 153.284 372.492 161.835 368.603C169.869 364.922 177.85 361.241 185.935 357.716C200.965 351.235 216.254 345.583 232.476 342.991C236.467 342.369 236.675 342.058 235.845 337.755C234.239 329.822 233.876 321.89 235.172 313.853C235.483 311.935 235.534 309.913 235.534 307.995C235.431 298.455 236.623 289.071 238.799 279.79C239.681 276.109 239.059 271.806 242.946 269.214C243.516 268.851 243.516 267.71 243.827 266.984C244.863 264.755 245.744 262.422 247.092 260.4C254.451 249.097 262.433 238.106 273.939 230.277ZM244.138 374.825C245.9 373.218 245.693 371.922 244.915 370.159C241.909 363.263 239.629 356.108 237.815 348.798C236.986 345.48 236.882 345.532 233.513 345.998C217.239 348.487 202.002 354.242 186.972 360.671C176.192 365.285 165.826 371.144 154.58 374.618C147.894 376.691 142.711 380.787 137.684 384.883C123.172 396.808 112.444 412.206 101.612 427.345C97.7246 432.789 95.0296 438.907 93.2157 445.958C97.7765 446.477 101.767 445.958 105.499 447.41C109.127 448.862 112.703 450.521 116.331 451.921C119.389 453.113 122.498 454.098 125.608 455.083C130.739 456.639 135.922 458.142 140.897 460.268C147.583 463.171 154.58 463.586 161.576 462.497C176.71 460.112 189.46 452.698 200.654 442.485C202.935 440.411 204.956 438.026 206.511 435.278C206.977 434.448 207.547 433.515 208.325 432.997C211.901 430.508 213.404 426.671 215.062 422.99C216.514 419.724 218.12 416.458 219.26 413.036C224.34 398.208 232.58 385.402 244.138 374.825ZM69.6859 322.719C69.6341 325 69.7378 326.608 72.4846 326.4C72.1737 324.586 71.4481 323.497 69.6859 322.719ZM72.0182 346.465C72.07 345.843 71.6035 345.687 71.1371 345.583C70.6188 345.532 70.1524 345.635 69.9969 346.154C69.7896 346.88 70.256 347.502 70.8779 347.606C71.5517 347.761 71.9663 347.139 72.0182 346.465ZM66.5763 322.719C66.5763 321.942 66.6281 321.268 66.5763 320.645C66.5244 320.023 66.5244 319.349 65.7988 319.09C64.9178 318.779 64.244 319.142 63.7257 319.816C63.1038 320.594 62.9483 321.527 62.9483 322.512C62.9483 324.015 63.052 325.571 65.1251 325.467C67.0945 325.415 66.3689 323.704 66.5763 322.719ZM63.9331 334.644C64.7623 332.829 66.2653 331.274 66.5244 329.148C65.0214 328.733 63.2593 328.267 63.1556 329.978C62.9483 333.348 61.7045 337.029 64.9696 340.658C64.7105 338.169 63.052 336.562 63.9331 334.644Z" fill="black"/>
<path d="M532.763 227.565C538.367 228.915 540.546 235.716 537.848 240.389C534.787 245.684 530.221 248.799 524.981 251.343C523.683 251.966 522.231 252.433 520.83 252.849C504.694 257.521 491.1 266.295 479.322 278.08C474.549 282.857 469.568 287.322 464.276 291.475C461.267 293.811 458.102 295.836 454.366 296.719C451.253 297.445 450.579 296.874 449.541 293.707C446.843 285.453 444.197 277.198 441.291 268.995C439.268 263.18 435.377 258.456 431.537 253.783C426.971 248.176 422.302 242.725 417.788 237.118C412.807 230.94 406.892 225.8 400.51 221.18C395.114 217.234 388.992 215.053 382.299 214.43C377.214 213.963 372.285 213.029 367.564 211.004C360.093 207.785 352.258 206.383 344.112 206.747C336.122 207.058 328.08 206.227 320.09 207.422C307.534 209.239 295.964 213.34 285.846 221.076C284.964 221.751 283.979 222.374 282.578 223.308C281.333 221.128 280.969 219.259 280.917 217.286C280.814 214.015 279.517 211.263 277.441 208.823C275.158 206.227 273.29 203.32 272.097 200.049C271.163 197.505 269.607 195.429 267.531 193.767C265.456 192.106 264.003 189.874 262.499 187.745C260.216 184.474 259.385 180.632 260.475 176.946C262.758 169.418 265.819 162.15 271.838 156.595C275.158 153.532 278.79 151.819 283.46 153.636C286.884 154.934 289.426 153.791 292.228 151.299C305.147 139.826 319.312 130.169 335.707 124.199C341.414 122.122 347.07 119.994 352.777 117.969C357.447 116.308 362.272 115.425 367.201 115.425C376.384 115.425 385.516 114.542 394.699 115.321C398.435 115.633 402.171 116.1 405.803 117.138C413.533 119.267 421.264 121.395 428.995 123.524C430.24 123.887 431.537 124.199 432.73 124.77C441.706 129.183 450.786 133.232 460.125 136.763C462.771 137.749 464.795 139.722 466.611 141.903C470.865 146.887 475.12 151.871 479.219 156.958C480.931 159.087 482.487 161.475 483.888 163.863C487.987 171.132 491.93 178.504 495.977 185.772C497.689 188.783 498.468 192.158 499.817 195.273C503.241 203.112 504.798 211.886 511.594 218.065C514.292 220.557 517.042 222.685 520.622 223.672C524.721 224.918 528.664 226.631 532.763 227.565Z" fill="#FCE727"/>
<path d="M446.711 298.083C447.176 300.879 447.021 303.52 446.659 306.316C444.591 321.332 438.232 335.105 434.613 349.654C433.837 352.658 432.544 355.557 430.528 357.939C425.358 364.049 421.118 370.832 415.896 376.942C409.175 384.812 401.626 391.802 393.561 398.171C388.494 402.158 382.6 405.005 375.672 405.109C373.5 405.109 371.329 406.766 368.847 407.128C362.178 408.112 355.508 407.905 348.838 407.957C336.895 408.216 325.055 407.387 313.629 403.4C311.664 402.727 309.493 402.209 307.425 402.158C300.807 402.002 295.171 399.258 289.536 396.203C270.768 385.951 272.422 386.779 261.306 367.777C249.984 348.412 244.71 327.079 241.815 305.022C241.504 302.743 241.194 300.465 241.091 298.187C240.781 291.87 241.246 285.76 242.797 279.391C247.657 259.56 259.807 245.218 275.214 232.998C278.678 230.254 282.194 227.665 285.658 224.921C298.325 215.031 312.75 210.164 328.778 210.009C334.827 209.957 340.876 210.164 346.874 210.009C352.871 209.905 358.61 210.889 364.039 213.219C370.14 215.808 376.447 217.154 382.962 217.827C388.753 218.397 394.026 220.623 398.679 224.092C404.832 228.7 410.623 233.723 415.379 239.833C419.412 244.959 423.652 249.93 427.84 254.952C433.113 261.269 437.663 267.897 439.731 276.078C441.799 283.534 445.367 290.42 446.711 298.083ZM429.391 326.095C431.665 311.39 431.51 296.478 426.805 281.98C425.875 279.184 425.306 276.285 425.048 273.333C424.686 268.984 422.876 265.515 419.774 262.615C418.688 261.631 417.447 260.751 416.879 259.353C414.5 253.554 409.795 249.619 405.401 245.528C399.3 239.885 392.94 234.655 384.41 232.636C373.811 230.098 363.16 227.768 352.716 224.558C350.7 223.937 348.58 223.782 346.46 223.626C337.464 223.005 328.571 224.61 319.782 226.163C309.907 227.924 300.962 232.532 292.483 237.762C284.159 242.939 276.817 249.464 269.992 256.557C267.717 258.939 265.701 261.424 264.047 264.324C257.222 276.336 254.585 289.333 255.722 303.002C257.118 319.882 261.513 336.037 266.994 352.036C271.957 366.586 281.987 376.786 294.706 384.449C300.703 388.022 307.321 390.507 313.681 393.459C314.405 393.821 315.387 394.391 315.956 394.132C320.609 392.164 325.262 394.08 329.295 393.873C335.809 394.443 341.703 394.236 347.494 393.407C354.267 392.475 361.144 392.268 367.865 390.87C378.877 388.592 388.804 383.828 398.111 377.615C403.798 373.835 408.503 369.278 412.07 363.427C413.415 361.201 414.966 359.078 416.517 357.007C423.341 347.739 427.684 337.176 429.391 326.095Z" fill="#FFFAC9"/>
<path d="M433 360.606C432.378 364.279 431.236 366.969 429.836 369.555C421.537 384.659 410.904 397.332 395.551 406.177C381.65 414.195 366.66 418.178 351.514 422.006C347.209 423.092 342.696 422.471 338.288 422.471C334.709 422.471 331.13 422.471 327.551 422.885C325.009 423.196 322.312 422.833 319.77 422.316C310.641 420.454 301.513 418.644 292.643 415.695C287.041 413.833 282.269 411.04 278.846 406.074C276.097 402.143 272.518 399.091 268.316 396.66C261.937 392.987 257.424 387.763 253.949 381.09C249.125 371.779 244.353 362.572 241.604 352.382C237.351 336.812 235.38 321.087 238.596 305C239.633 312.449 241.293 319.794 242.745 327.191C245.805 342.709 251.304 357.296 259.291 370.952C268.783 387.194 267.902 387.97 286.73 398.315C293.265 401.884 299.801 404.884 307.374 405.298C310.59 405.453 313.754 406.591 316.866 407.574C323.972 409.747 331.233 410.574 338.599 410.833C349.387 411.195 360.28 411.867 370.861 409.85C380.094 408.091 389.275 405.402 396.847 399.194C408.933 389.315 419.929 378.452 428.487 365.365C429.629 363.762 430.77 362.158 433 360.606Z" fill="#FCE727"/>
<path d="M426.959 281.584C431.731 296.105 431.835 311.041 429.553 325.77C427.841 336.868 423.483 347.447 416.584 356.731C415.028 358.805 413.472 360.931 412.123 363.161C408.596 369.021 403.823 373.585 398.117 377.371C388.78 383.594 378.82 388.366 367.771 390.647C361.027 392.048 354.128 392.255 347.333 393.189C341.471 394.018 335.609 394.278 329.073 393.655C325.079 393.863 320.358 391.996 315.69 393.915C315.119 394.174 314.133 393.552 313.407 393.24C307.027 390.284 300.335 387.847 294.369 384.217C281.608 376.541 271.545 366.325 266.565 351.752C261.066 335.779 256.657 319.546 255.257 302.64C254.115 288.949 256.761 275.931 263.608 263.9C265.268 261.047 267.291 258.506 269.574 256.121C276.421 249.068 283.787 242.481 292.139 237.295C300.594 232.057 309.568 227.442 319.528 225.678C328.347 224.123 337.269 222.515 346.295 223.137C348.422 223.293 350.601 223.448 352.572 224.071C363.05 227.286 373.736 229.672 384.37 232.161C392.93 234.184 399.31 239.37 405.431 245.074C409.84 249.171 414.561 253.113 416.947 258.921C417.518 260.321 418.763 261.203 419.852 262.188C422.965 265.093 424.78 268.567 425.143 272.924C425.454 275.828 426.077 278.784 426.959 281.584ZM427.166 318.924C427.426 315.812 427.218 312.701 427.218 309.589C427.011 302.121 427.633 294.498 425.299 287.185C423.691 282.207 422.342 277.176 421.823 271.886C421.564 269.345 420.734 266.493 418.503 265.611C415.132 264.315 414.457 261.722 413.42 259.025C412.642 257.002 411.345 255.343 409.84 253.787C406.676 250.52 403.253 247.408 399.933 244.296C394.382 239.058 387.898 236.102 380.532 234.443C372.543 232.68 364.555 230.864 356.774 228.531C351.69 227.027 346.658 226.197 341.367 226.197C337.58 226.197 333.897 227.027 330.162 227.234C317.246 227.908 305.522 232.628 294.732 239.11C285.447 244.711 276.992 251.453 269.885 260.062C262.208 269.345 258.888 279.665 258.11 291.075C256.813 310.056 262 328 267.706 345.84C271.752 358.442 278.34 369.125 289.338 377.112C296.081 382.039 303.603 384.995 310.865 388.625C311.28 388.832 311.799 388.884 312.266 388.988C324.923 391.114 337.58 391.581 350.341 389.87C359.73 388.573 369.275 388.054 378.146 384.32C391.218 378.823 403.719 372.393 410.878 359.116C411.552 357.82 412.59 356.731 413.472 355.538C421.201 344.543 426.129 332.46 427.166 318.924Z" fill="black"/>
<path d="M337.437 290.849C334.953 296.355 335.833 296.251 330.45 293.082C329.726 292.667 329.053 292.199 328.328 291.888C326.931 291.264 325.637 290.017 323.463 291.368C327.035 294.225 331.537 295.264 334.332 298.537C331.071 302.693 327.086 303.94 322.17 303.576C316.994 303.213 311.715 303.576 306.488 303.68C305.194 303.732 303.59 303.576 302.865 305.498C310.162 305.498 317.149 305.602 324.136 305.446C327.242 305.395 329.829 306.226 332.158 308.979C328.95 310.538 325.896 312.044 322.894 313.551C321.445 314.278 320.048 315.109 318.65 315.94C318.236 316.2 317.926 316.668 318.133 317.187C318.443 317.966 319.064 317.966 319.685 317.655C320.824 317.083 321.963 316.356 323.153 315.836C326.672 314.33 329.881 312.096 333.866 311.265C334.435 313.551 333.504 315.057 332.572 316.564C330.45 320.044 328.277 323.525 326.206 327.058C325.689 327.941 324.654 328.824 325.896 330.227C327.449 329.447 328.121 327.941 328.949 326.59C330.864 323.525 332.676 320.408 334.591 317.395C335.367 316.2 335.988 314.33 337.696 314.797C339.507 315.317 339.507 317.239 339.559 318.901C339.559 319.889 339.559 320.876 339.559 321.863C339.456 326.278 339.249 330.694 339.145 335.11C339.093 336.305 338.628 337.759 340.129 338.642C341.629 336.928 341.215 334.902 341.319 332.98C341.474 328.564 341.526 324.148 341.629 319.733C341.681 317.862 342.302 316.564 344.424 316.46C345.045 316.408 345.718 316.356 346.339 316.148C347.012 315.94 347.478 315.421 347.322 314.745C347.219 314.33 346.753 313.81 346.391 313.706C345.459 313.499 344.476 313.395 343.493 313.447C340.905 313.551 338.472 311.94 337.955 310.226C337.127 307.68 335.781 306.485 333.607 305.498C332.883 305.187 332.365 304.407 332.624 303.472C332.883 302.641 333.504 302.018 334.384 301.914C335.005 301.81 335.678 302.07 336.299 302.122C338.11 302.174 339.922 302.226 338.162 299.524C337.334 298.225 337.437 296.771 338.99 295.472C340.439 296.979 341.267 299.68 343.803 299.005C346.391 298.277 348.823 299.472 351.929 298.537C350.065 302.018 350.48 304.252 353.688 305.498C354.775 305.914 355.137 306.745 355.086 307.836C355.034 309.187 353.895 309.187 353.016 309.447C351.773 309.81 350.428 310.018 349.289 310.59C348.306 311.109 347.995 312.252 348.772 313.083C350.014 314.434 351.618 315.473 353.378 315.681C355.603 315.94 354.672 314.018 354.827 312.875C354.827 312.771 354.982 312.616 355.137 312.512C358.812 310.538 361.038 306.174 366.11 306.485C368.646 306.641 371.233 305.706 373.821 305.135C374.804 304.927 376.15 304.875 376.305 303.265C375.27 302.329 374.183 302.797 373.096 303.005C369.06 303.784 365.074 304.459 361.089 305.291C358.087 305.914 356.535 303.628 354.982 302.018C353.792 300.771 355.759 299.161 356.431 297.758C357.052 296.407 358.346 295.576 359.537 294.693C362.124 292.719 364.816 290.797 367.403 288.823C368.076 288.303 369.267 287.784 368.024 286.173C364.402 287.939 361.296 290.537 358.139 293.03C356.173 294.589 354.309 295.316 351.566 293.81C353.585 289.29 355.5 284.822 357.622 280.407C359.692 276.095 361.969 271.835 364.402 267.004C361.452 267.315 360.882 269.186 360.054 270.588C356.69 276.199 354.206 282.277 351.515 288.251C350.997 289.446 350.117 291.628 349.703 291.524C346.339 290.952 345.459 294.433 343.182 295.524C340.232 291.368 340.232 291.316 337.437 290.849C337.489 290.849 337.489 290.797 337.489 290.797L337.437 290.745C337.955 286.277 336.143 281.082 332.935 278.796C334.229 283.16 334.901 287.316 337.437 290.745C337.437 290.745 337.437 290.797 337.437 290.849ZM426.922 310.434C426.922 313.551 427.129 316.668 426.87 319.785C425.835 333.344 420.918 345.5 413.207 356.565C412.378 357.76 411.343 358.851 410.619 360.15C403.477 373.449 391.004 379.839 377.961 385.397C369.111 389.138 359.588 389.657 350.221 390.956C337.489 392.67 324.861 392.203 312.233 390.073C311.767 389.969 311.249 389.917 310.835 389.709C303.538 386.073 296.033 383.059 289.357 378.176C278.385 370.176 271.812 359.474 267.775 346.85C262.082 329.032 256.907 311.005 258.2 291.991C258.977 280.563 262.289 270.225 269.949 260.925C277.091 252.302 285.475 245.496 294.739 239.938C305.504 233.392 317.201 228.717 330.088 228.041C333.814 227.833 337.489 227.054 341.267 227.002C346.546 226.95 351.566 227.782 356.638 229.34C364.453 231.678 372.372 233.496 380.342 235.262C387.691 236.873 394.161 239.886 399.699 245.133C403.011 248.302 406.427 251.367 409.584 254.64C411.085 256.198 412.378 257.86 413.155 259.887C414.19 262.588 414.863 265.185 418.227 266.484C420.452 267.315 421.28 270.225 421.539 272.77C422.057 278.017 423.402 283.056 425.007 288.095C427.336 295.316 426.766 302.953 426.922 310.434ZM371.026 325.811C366.834 322.434 362.383 319.577 357.259 317.759C360.572 321.395 367.714 325.447 371.026 325.811ZM362.124 343.006C362.435 341.032 361.038 339.733 360.209 338.227C356.845 332.253 353.223 326.434 351.204 319.785C350.945 318.901 350.842 317.551 349.548 317.966C348.306 318.382 348.875 319.577 349.134 320.46C349.289 321.083 349.548 321.707 349.755 322.33C352.394 329.084 355.914 335.318 359.795 341.396C360.158 342.175 360.623 343.162 362.124 343.006Z" fill="#FCE727"/>
<path d="M377 302.938C376.844 304.534 375.488 304.585 374.497 304.791C371.941 305.358 369.282 306.284 366.727 306.13C361.616 305.821 359.321 310.146 355.671 312.102C355.567 312.154 355.41 312.308 355.358 312.463C355.202 313.544 356.14 315.5 353.898 315.243C352.125 315.037 350.508 314.007 349.256 312.669C348.474 311.845 348.735 310.712 349.778 310.197C350.925 309.631 352.281 309.425 353.533 309.065C354.419 308.807 355.567 308.807 355.619 307.468C355.671 306.387 355.306 305.563 354.211 305.152C350.977 303.967 350.56 301.753 352.438 298.252C349.309 299.128 346.91 297.995 344.25 298.716C341.695 299.437 340.86 296.708 339.4 295.215C337.836 296.45 337.731 297.892 338.566 299.231C340.339 301.908 338.566 301.856 336.688 301.805C336.063 301.805 335.385 301.547 334.759 301.599C333.872 301.702 333.247 302.268 332.986 303.144C332.673 304.07 333.247 304.843 333.977 305.152C336.167 306.078 337.523 307.314 338.357 309.837C338.931 311.484 341.382 313.132 343.937 313.029C344.928 312.978 345.919 313.08 346.858 313.286C347.223 313.389 347.692 313.904 347.796 314.316C347.953 315.037 347.483 315.552 346.805 315.706C346.18 315.861 345.502 315.964 344.876 316.015C342.738 316.118 342.112 317.354 342.06 319.259C342.008 323.635 341.956 328.012 341.747 332.388C341.643 334.241 342.06 336.301 340.548 338C339.035 337.125 339.505 335.735 339.557 334.499C339.661 330.123 339.817 325.746 339.974 321.37C340.026 320.392 340.026 319.413 339.974 318.435C339.974 316.788 339.922 314.831 338.097 314.368C336.376 313.904 335.698 315.809 334.968 316.942C333.038 319.928 331.161 323.017 329.283 326.055C328.449 327.394 327.771 328.938 326.206 329.659C324.955 328.269 326.05 327.394 326.519 326.518C328.605 323.017 330.796 319.568 332.934 316.118C333.872 314.625 334.811 313.08 334.237 310.867C330.222 311.69 326.989 313.904 323.443 315.397C322.243 315.912 321.148 316.633 319.949 317.199C319.323 317.508 318.697 317.508 318.384 316.736C318.175 316.221 318.488 315.758 318.906 315.5C320.314 314.677 321.722 313.853 323.182 313.132C326.206 311.587 329.283 310.146 332.517 308.601C330.17 305.821 327.562 305.049 324.433 305.1C317.393 305.203 310.353 305.152 303 305.152C303.73 303.195 305.347 303.35 306.65 303.35C311.918 303.247 317.185 302.886 322.452 303.247C327.406 303.607 331.421 302.371 334.707 298.252C331.839 295.009 327.302 293.979 323.755 291.147C325.946 289.809 327.302 291.096 328.657 291.662C329.388 291.971 330.118 292.434 330.796 292.846C336.219 295.935 335.333 296.09 337.888 290.632C340.704 291.096 340.704 291.147 343.52 295.266C345.762 294.185 346.701 290.787 350.091 291.302C350.508 291.353 351.342 289.191 351.916 288.058C354.628 282.137 357.131 276.113 360.521 270.553C361.355 269.162 361.929 267.309 364.901 267C362.398 271.788 360.156 276.01 358.07 280.284C355.932 284.66 354.002 289.088 351.968 293.567C354.68 295.06 356.61 294.339 358.591 292.795C361.772 290.323 364.901 287.749 368.552 285.999C369.803 287.595 368.604 288.109 367.926 288.624C365.319 290.581 362.659 292.486 359.999 294.442C358.852 295.318 357.496 296.141 356.87 297.48C356.192 298.87 354.211 300.518 355.41 301.702C356.922 303.298 358.539 305.563 361.564 304.946C365.579 304.122 369.647 303.452 373.662 302.68C374.862 302.474 375.957 302.062 377 302.938Z" fill="black"/>
<path d="M357 317C362.211 318.806 366.789 321.645 371 325C367.632 324.639 360.368 320.613 357 317Z" fill="black"/>
<path d="M360.968 337.23C361.827 338.677 363.276 340.02 362.954 341.984C361.397 342.139 360.968 341.157 360.431 340.382C356.458 334.336 352.753 328.135 350.015 321.418C349.746 320.798 349.532 320.177 349.371 319.557C349.102 318.627 348.512 317.439 349.8 317.077C351.196 316.664 351.25 318.007 351.518 318.886C353.72 325.448 357.478 331.287 360.968 337.23Z" fill="black"/>
<path d="M337 290L337.052 290.052L337 290.104C337 290.052 337 290 337 290Z" fill="#FCE727"/>
<path d="M337.428 290.315V290.368H337.375L337.428 290.315Z" fill="#FCE727"/>
<path d="M332.867 278.286C336.08 280.619 337.946 285.804 337.376 290.211C334.784 286.789 334.162 282.693 332.867 278.286Z" fill="black"/>
<path d="M315.401 424.908C317.163 425.323 318.873 425.686 321.153 426.205C305.087 445.699 284.978 456.379 260.93 459.957C254.296 460.942 247.817 462.653 241.598 465.09C234.187 468.045 226.879 471.311 219.26 473.8C215.529 474.992 212.367 477.377 209.258 479.71C207.858 478.414 208.428 477.014 208.428 475.822C208.377 463.845 209.258 451.972 211.745 440.255C212.523 436.574 213.611 432.945 215.218 429.575C218.69 422.368 221.644 414.902 224.547 407.436C228.952 396.134 235.897 386.49 244.5 378.039C247.247 375.343 247.506 375.395 249.424 378.661C250.253 380.061 251.083 381.513 251.704 383.017C254.607 390.379 259.997 395.46 266.631 399.348C270.518 401.629 273.939 404.325 276.478 408.058C280.365 413.71 285.859 416.976 292.234 419.05C299.749 421.539 307.575 423.146 315.401 424.908Z" fill="#13751E"/>
<path d="M277.878 220.115C280.521 225.092 277.722 227.684 273.887 230.277C262.381 238.053 254.451 249.045 246.988 260.451C245.641 262.473 244.76 264.806 243.723 267.036C243.36 267.762 243.36 268.902 242.842 269.265C238.955 271.857 239.577 276.161 238.696 279.842C236.519 289.122 235.275 298.506 235.431 308.046C235.483 310.016 235.379 311.987 235.068 313.905C233.824 321.941 234.135 329.874 235.742 337.806C236.623 342.109 236.415 342.42 232.373 343.043C216.099 345.583 200.81 351.286 185.832 357.767C177.747 361.241 169.713 364.974 161.732 368.655C153.232 372.543 144.059 374.358 135.144 377.106C133.486 377.624 131.568 377.676 129.806 377.469C122.032 376.484 114.154 375.81 107.676 370.625C104.825 368.344 101.353 367.203 97.7247 366.788C87.8256 365.7 80.5698 360.048 74.195 352.997C73.3139 352.012 72.381 351.131 73.6767 349.679C74.9206 348.227 75.9053 348.953 77.0455 349.679C82.1246 352.842 82.3837 352.893 85.0788 350.197C88.8622 346.516 89.6914 342.628 87.4628 338.739C87.0482 338.014 86.6854 337.184 86.0635 336.769C82.902 334.851 81.8654 331.533 80.207 328.526C76.6827 322.2 72.2773 316.86 64.555 315.668C63.0002 315.408 62.8447 314.372 62.8447 313.179C62.7929 311.053 62.8447 308.928 62.7929 306.802C62.6892 302.395 62.8965 297.936 62.3264 293.581C61.1862 284.249 63.0002 275.487 66.058 266.673C71.4481 251.067 79.4295 236.809 88.603 223.277C95.0297 213.789 103.218 205.598 112.547 198.858C128.562 187.296 145.458 177.601 164.841 172.779C169.972 171.483 175 170.29 179.509 170.705C192.828 170.705 204.956 173.349 217.032 175.993C220.401 176.719 223.718 177.445 227.19 177.704C234.239 178.223 241.028 179.934 247.714 182.059C250.046 182.785 252.482 183.718 254.244 185.326C260.204 190.821 266.683 195.902 269.948 203.731C270.881 206.012 272.28 208.034 273.939 209.901C276.064 212.286 277.567 214.93 277.515 218.248C277.567 218.818 277.618 219.596 277.878 220.115ZM158.208 248.164C158.311 245.26 157.378 243.964 154.735 242.979C151.574 241.786 148.464 242.409 145.873 244.223C139.031 248.993 132.449 254.178 127.733 261.073C121.306 270.561 117.575 281.138 117.005 292.752C117.16 294.722 117.316 296.64 117.523 298.61C117.678 299.958 118.352 301.099 119.492 301.825C122.913 304.002 127.526 303.017 129.858 299.543C131.309 297.366 132.294 294.929 133.071 292.389C136.181 281.812 141.985 272.842 149.034 264.547C151.47 261.696 153.802 258.74 155.72 255.526C157.067 253.245 158.156 250.86 158.208 248.164Z" fill="#FCE727"/>
<path d="M244.915 370.159C245.692 371.973 245.9 373.27 244.137 374.825C232.58 385.402 224.339 398.208 219.26 413.036C218.12 416.406 216.513 419.672 215.062 422.99C213.404 426.723 211.952 430.56 208.324 432.997C207.547 433.515 207.029 434.448 206.511 435.278C204.956 438.026 202.934 440.359 200.654 442.485C189.459 452.698 176.71 460.112 161.576 462.497C154.579 463.586 147.583 463.171 140.897 460.268C135.921 458.142 130.739 456.639 125.608 455.083C122.498 454.15 119.388 453.113 116.33 451.921C112.703 450.521 109.126 448.862 105.498 447.41C101.767 445.958 97.7762 446.477 93.2153 445.958C95.0293 438.907 97.6725 432.789 101.611 427.345C112.443 412.206 123.172 396.808 137.683 384.883C142.711 380.735 147.893 376.691 154.579 374.618C165.826 371.144 176.14 365.337 186.972 360.671C202.002 354.242 217.239 348.435 233.513 345.998C236.882 345.48 236.985 345.428 237.814 348.798C239.628 356.108 241.857 363.263 244.915 370.159Z" fill="#13751E"/>
<path d="M154.735 242.98C157.379 243.965 158.312 245.313 158.208 248.165C158.156 250.861 157.068 253.246 155.72 255.527C153.802 258.793 151.418 261.697 149.034 264.548C141.986 272.844 136.181 281.813 133.071 292.39C132.346 294.878 131.361 297.315 129.858 299.545C127.526 303.018 122.965 304.003 119.493 301.826C118.301 301.1 117.679 299.959 117.523 298.611C117.316 296.693 117.16 294.723 117.005 292.753C117.627 281.139 121.307 270.562 127.733 261.074C132.449 254.179 139.032 248.994 145.873 244.224C148.464 242.41 151.522 241.788 154.735 242.98ZM155.461 249.409C156.031 246.713 155.046 245.469 152.248 245.209C149.967 245.002 148.101 245.935 146.287 247.128C141.675 250.083 138.202 254.127 135.145 258.638C134.367 259.778 133.693 261.904 132.087 261.282C129.651 260.349 129.184 262.06 128.459 263.304C123.121 272.273 119.596 281.813 119.285 291.249C119.285 293.375 119.233 294.36 119.285 295.345C119.441 297.419 119.13 299.7 122.084 300.322C125.038 300.944 126.904 300.167 128.407 297.16C129.444 295.138 130.376 293.012 130.998 290.834C134.004 280.776 139.498 272.17 146.08 264.133C148.464 261.23 150.693 258.223 152.921 255.164C154.113 253.453 155.046 251.483 155.461 249.409Z" fill="black"/>
<path d="M152.247 245.209C155.046 245.468 156.083 246.712 155.461 249.408C154.994 251.482 154.113 253.452 152.869 255.163C150.641 258.17 148.412 261.229 146.028 264.133C139.446 272.169 134.004 280.775 130.946 290.834C130.272 293.011 129.391 295.137 128.355 297.159C126.8 300.166 124.934 300.944 122.032 300.321C119.078 299.699 119.44 297.418 119.233 295.344C119.129 294.359 119.233 293.374 119.233 291.248C119.544 281.812 123.068 272.273 128.407 263.303C129.184 262.059 129.599 260.348 132.035 261.281C133.641 261.903 134.315 259.778 135.092 258.637C138.15 254.126 141.623 250.082 146.235 247.127C148.101 245.935 149.967 245.001 152.247 245.209Z" fill="#FFFAC9"/>
</svg>
