<svg width="600" height="600" viewBox="0 0 600 600" fill="none" xmlns="http://www.w3.org/2000/svg">
<path d="M489.832 324.34C497.608 325.002 505.384 325.714 513.16 326.375C523.63 327.29 534.1 327.087 544.569 327.799C553.26 328.409 561.799 330.24 570.49 330.647C573.844 330.799 577.198 331.613 580.553 330.494C582.484 329.833 584.365 330.443 586.296 330.749C588.837 331.206 590.362 332.529 590.616 335.173C590.87 337.615 591.582 339.903 592.395 342.192C593.208 344.379 593.106 346.616 592.649 348.854C590.768 357.907 588.176 366.706 582.992 374.487C582.281 375.555 581.62 376.725 581.213 377.894C575.826 392.999 564.696 403.832 553.87 414.869C552.752 416.038 551.532 417.055 550.363 418.225C544.823 423.921 538.877 429.007 532.067 433.178C523.935 438.162 516.006 443.247 507.061 446.808C494.609 451.792 481.903 454.691 468.486 454.487C452.374 454.233 436.263 454.08 420.254 451.283C413.392 450.062 406.988 447.316 400.127 446.096C393.215 444.875 386.862 442.485 380.916 438.619C375.376 435.059 369.226 432.465 363.432 429.261C361.552 428.193 359.265 428.804 357.638 427.227C356.825 426.464 356.215 427.43 355.707 427.99C354.436 429.414 353.115 430.889 351.895 432.364C344.068 441.925 334.005 448.537 323.23 454.233C319.673 456.115 316.217 458.251 312.71 460.133C296.853 468.524 280.589 476 262.648 478.798C249.84 480.781 236.931 479.916 224.022 479.001C209.384 477.933 195.458 474.017 181.838 468.778C171.673 464.862 162.321 459.268 154.189 452.148C149.615 448.13 144.888 444.265 140.416 440.043C137.722 437.501 135.029 434.907 132.945 431.804C128.777 425.447 123.898 419.649 119.324 413.597C114.394 407.138 110.938 399.916 107.787 392.44C100.824 376.013 98.1811 358.67 95.5891 341.276C94.6235 334.563 95.03 327.748 95.335 320.933C93.5561 320.933 93.607 322.357 93.1496 323.222C85.4751 337.055 78.5122 351.295 70.0754 364.62C57.0644 385.167 44.6125 406.121 30.4834 426.006C27.2815 430.533 24.5878 435.263 22.4532 440.298C22.1483 441.061 21.8433 441.823 21.3351 442.434C20.3694 443.705 18.9463 443.553 18.2348 442.179C17.9299 441.62 17.8282 440.959 17.7266 440.298C17.4724 438.365 17.1167 436.483 17.0659 434.551C16.6084 418.073 16.151 401.645 15.8461 385.167C15.6936 377.589 15.592 369.96 16.5576 362.433C17.4725 355.11 16.3035 348.041 14.6771 340.971C12.1359 329.935 11.8818 318.593 8.934 307.608C7.56175 302.471 7.91753 296.979 8.62907 291.689C9.69638 283.705 10.967 275.72 13.4065 267.989C15.9477 259.954 19.048 252.172 22.0975 244.391C24.9436 237.118 29.162 230.608 33.8886 224.454C42.8845 212.706 53.2018 202.28 65.3996 193.99C69.1097 191.498 72.9724 188.854 78.1056 188.854C80.3927 188.854 82.6289 186.616 84.4586 184.734C89.541 179.496 95.2842 175.071 101.078 170.748C102.095 169.985 103.162 169.171 104.331 168.663C108.549 166.883 110.836 163.577 113.479 159.915C119.07 152.185 118.155 143.59 118.714 135.096C118.867 132.96 118.765 131.18 120.34 129.349C122.526 126.857 123.187 126.603 125.626 128.79C128.371 131.282 128.472 133.621 125.779 135.808C125.067 136.419 124.711 136.876 124.711 137.69C124.61 142.216 124.508 146.743 124.406 151.218C124.356 153.253 125.016 154.321 127.253 153.71C131.014 152.693 134.571 153.202 138.129 154.728C140.263 155.643 142.601 155.49 144.838 155.338C150.073 155.033 154.698 156.508 158.967 159.457C165.116 163.679 171.724 166.984 178.941 169.019C183.21 170.189 186.513 172.528 187.632 177.207C188.089 179.14 189.36 180.665 190.478 182.242C191.85 184.225 192.968 186.26 193.629 188.701C194.594 192.363 197.339 195.058 200.185 197.449C204.048 200.653 207.91 203.806 212.027 206.654C218.177 210.824 222.853 216.266 226.868 222.369C227.732 223.692 228.443 225.166 230.324 225.472C238.151 226.641 245.673 229.235 253.55 230.1C257.006 230.456 259.192 229.744 261.174 226.692C263.105 223.692 265.087 220.793 266.46 217.538C271.745 205.179 278.607 193.736 286.586 182.954C290.652 177.461 295.785 173.037 301.427 169.171C308.491 164.34 315.708 159.915 323.739 156.66C330.295 154.016 336.14 149.896 342.594 146.794C351.336 142.572 360.281 138.961 369.023 134.791C373.851 132.452 378.883 130.824 383.965 129.248C387.065 128.281 390.064 127.213 393.012 125.789C394.536 125.077 395.96 124.213 396.315 122.483C396.874 119.788 398.297 119.534 400.534 120.551C401.093 120.805 401.804 120.652 402.465 120.805C406.277 121.568 407.547 123.958 405.972 127.518C405.21 129.298 404.142 130.926 403.278 132.655C402.211 134.384 401.144 136.063 401.093 138.249C407.039 139.216 411.563 142.369 415.12 146.946C416.086 148.167 417.102 148.421 418.475 148.167C421.524 147.607 424.574 147.811 427.623 147.709C433.773 147.455 439.058 149.489 443.531 153.609C447.597 157.423 452.273 160.068 457.203 162.56C464.928 166.425 471.637 171.714 476.821 178.733C477.939 180.259 478.803 182.089 479.464 183.869C481.039 188.396 483.987 191.6 488.053 193.939C490.594 195.363 493.135 196.686 495.727 198.008C499.793 200.042 502.69 203.094 504.418 207.366C506.654 212.808 507.722 218.453 507.671 224.353C507.62 234.88 508.078 245.357 511.178 255.478C512.296 259.191 513.668 262.751 515.498 266.26C518.242 271.6 519.716 277.398 521.292 283.196C522.054 285.942 522.156 288.943 524.29 291.232C524.849 291.842 524.9 292.757 524.138 293.419C523.426 294.029 522.613 293.825 521.953 293.317C518.446 290.418 514.481 288.282 510.568 286.044C506.959 284.01 503.148 282.993 499.082 282.637C497.201 282.484 496.388 283.247 496.388 285.078C496.388 285.383 496.337 285.739 496.388 286.044C497.354 296.674 494.355 306.845 492.525 317.169C492.424 317.627 492.424 318.136 492.271 318.593C491.966 319.509 491.051 324.34 489.832 324.34ZM489.73 324.34C489.679 324.34 489.679 324.34 489.73 324.34C488.714 324.086 489.527 319.051 489.679 318.237C490.34 314.728 490.95 311.27 491.712 307.811C493.898 298.403 493.745 288.892 493.186 279.382C492.881 274.245 493.491 269.108 492.475 263.972C490.086 252.122 488.002 240.221 484.089 228.727C481.801 221.962 478.142 215.961 474.229 209.96C469.553 202.789 465.233 195.414 459.286 189.159C451.917 181.428 444.192 174.105 434.535 169.273C428.385 166.171 422.693 162.051 415.832 160.373C407.7 158.389 399.619 158.084 391.487 160.322C387.624 161.39 383.609 161.899 379.645 162.56C376.748 163.018 374.156 163.933 371.157 162.56C369.734 161.899 367.651 162.458 365.923 162.661C360.942 163.221 355.91 163.374 350.929 162.712C347.423 162.204 345.593 163.577 344.221 166.628C342.238 170.85 340.053 174.969 337.563 178.987C334.92 183.208 331.667 186.565 327.195 188.854C323.027 190.99 319.063 193.482 315.048 195.821C309.457 199.076 303.815 202.026 297.767 204.416C283.842 209.909 272.406 218.911 263.055 230.557C263.919 232.592 265.748 232.541 267.171 232.999C273.169 234.982 279.013 237.271 284.706 239.865C293.956 244.086 301.427 250.748 308.644 257.665C312.354 261.276 316.115 264.785 320.282 267.888C321.197 268.549 322.112 269.261 322.773 270.176C325.822 274.194 329.634 277.449 333.243 280.907C337.664 285.129 341.578 289.757 345.186 294.792C347.982 298.657 350.37 302.827 353.369 306.54C354.944 308.523 356.673 309.897 359.366 310.049C365.313 310.456 371.259 311.117 377.205 311.626C387.675 312.49 398.196 312.999 408.411 315.186C425.997 318.949 443.683 320.984 461.573 322.154C470.976 322.764 480.328 323.527 489.73 324.34ZM587.668 356.432C590.057 349.617 590.057 342.904 587.566 336.14C587.211 335.224 587.109 334.207 585.94 334.004C584.619 333.749 583.856 334.563 583.246 335.58C581.722 338.072 580.604 340.768 579.587 343.463C578.164 347.227 576.69 350.99 574.708 354.499C569.016 364.417 561.646 373.266 555.903 383.234C555.344 384.201 554.582 385.065 553.768 385.828C543.349 395.237 532.981 404.646 522.461 413.953C519.818 416.293 517.023 418.581 513.922 420.158C502.944 425.701 491.204 429.211 479.565 433.076C471.891 435.619 464.064 437.5 455.932 437.653C446.428 437.856 436.924 437.653 427.42 436.788C414.764 435.568 402.821 431.906 391.335 426.566C385.49 423.87 380.001 420.412 374.105 417.767C364.093 413.292 367.447 413.699 361.501 421.429C360.383 422.904 360.586 423.667 362.06 424.938C364.804 427.227 367.752 429.058 370.903 430.685C377.51 434.042 383.711 438.416 390.623 440.857C399.67 444.061 409.225 446.095 418.678 448.079C431.994 450.825 445.564 451.283 459.134 451.283C463.302 451.283 467.52 451.283 471.687 451.283C488.256 451.334 503.503 445.994 517.734 438.212C530.288 431.347 542.384 423.464 551.735 412.224C552.244 411.613 552.955 411.156 553.514 410.596C563.628 400.577 573.183 390.202 578.367 376.572C578.926 375.097 579.74 373.622 580.654 372.3C584.009 367.468 585.737 361.925 587.668 356.432ZM579.13 337.309C579.435 336.496 580.248 335.478 578.825 334.919C577.961 334.563 577.198 334.41 576.233 335.275C573.387 337.869 570.642 340.463 568.863 344.073C565.763 350.482 561.951 356.585 555.903 360.653C551.888 363.349 548.94 366.858 546.45 370.825C543.451 375.657 539.995 380.132 535.624 383.794C529.17 389.185 522.105 393.762 514.685 397.577C507.366 401.34 499.641 404.392 492.678 408.664C478.6 417.259 463.098 421.277 447.19 424.023C435.653 426.007 424.014 424.989 412.477 423.616C407.192 423.006 401.957 421.836 397.332 418.937C393.723 416.649 389.759 415.377 385.744 414.258C380.306 412.783 374.766 411.664 369.988 408.409C368.159 407.189 367.396 408.257 366.837 409.833C366.177 411.868 367.651 412.376 369.023 412.885C375.833 415.479 382.288 418.785 388.641 422.294C398.653 427.837 409.631 430.482 420.609 432.872C428.385 434.449 436.365 434.296 447.699 434.602C455.83 435.314 467.113 433.839 478.091 430.279C484.343 428.244 490.543 425.803 496.795 423.82C507.874 420.31 517.785 414.868 526.222 406.782C528.915 404.239 531.762 401.849 534.404 399.255C540.453 393.254 547.822 388.524 553.006 381.709C556.716 376.826 559.867 371.588 563.425 366.604C569.93 357.5 575.165 347.735 579.13 337.309ZM572.624 333.292C570.744 333.698 569.067 333.444 567.389 333.444C561.849 333.393 556.615 331.562 551.176 331.206C542.994 330.698 534.76 330.342 526.578 329.884C520.479 329.579 514.329 329.375 508.23 328.867C490.086 327.341 471.942 325.714 453.797 324.137C444.344 323.323 434.738 323.374 425.488 321.085C410.546 317.373 395.35 315.644 380.153 314.067C373.14 313.304 366.075 312.948 359.061 312.44C364.499 320.17 367.244 328.257 369.938 336.597C376.799 358.009 374.817 379.268 370.141 400.577C369.328 404.392 369.328 404.9 372.58 406.884C376.189 409.121 380.306 410.088 384.372 411.054C389.861 412.427 395.248 414.106 400.127 417.055C402.262 418.327 404.549 419.141 406.887 419.547C421.727 422.141 436.67 423.057 451.561 419.954C462.641 417.666 473.72 415.225 483.682 409.783C493.999 404.137 504.774 399.407 515.04 393.66C526.984 386.998 538.013 379.318 545.078 367.112C546.907 363.908 549.296 360.908 552.498 358.975C557.174 356.127 560.528 352.058 563.323 347.481C566.271 342.751 568.202 337.36 572.624 333.292ZM518.7 286.654C517.429 281.213 516.514 276.89 514.583 272.77C511.788 266.921 509.45 260.92 507.671 254.715C504.977 245.154 504.621 235.287 504.571 225.421C504.571 219.877 503.91 214.486 501.826 209.299C500.301 205.535 498.014 202.687 494.253 200.907C491.458 199.636 488.815 198.059 486.172 196.482C482.056 194.041 478.854 190.786 476.973 186.209C473.009 176.597 465.436 170.392 456.593 165.764C451.256 162.967 446.174 160.068 441.803 155.897C438.601 152.795 434.738 150.455 430.164 150.71C424.879 150.964 418.881 148.167 414.612 153.812C414.155 154.422 412.427 153.405 412.427 154.982C412.427 156.508 413.951 156.609 414.917 156.813C422.541 158.288 428.843 162.662 435.552 166.12C445.462 171.155 453.645 178.377 461.218 186.412C466.91 192.465 471.281 199.381 475.906 206.196C481.242 214.181 485.918 222.42 488.459 231.676C490.492 239.051 492.83 246.324 493.135 254.207C493.44 261.378 495.473 268.498 496.49 275.669C496.795 278.059 498.065 279.432 500.556 279.636C505.486 279.992 509.907 281.925 514.126 284.417C515.244 285.078 516.413 285.535 518.7 286.654ZM411.308 148.167C411.817 147.658 411.359 146.946 410.902 146.489C408.513 144.251 406.074 142.166 402.77 141.454C400.89 141.047 399.06 141.403 398.094 143.132C395.4 147.811 392.351 152.337 388.692 157.728C395.553 156.202 401.55 155.338 407.649 155.49C408.615 155.49 409.021 154.829 409.174 153.965C409.58 151.93 409.631 149.794 411.308 148.167ZM383.711 150.71C387.523 144.302 389.911 137.283 393.215 129.705C380.763 133.011 369.887 137.639 359.061 142.623C357.181 143.488 355.961 144.963 355.046 146.641C353.318 149.743 351.692 152.897 350.167 156.101C348.896 158.695 349.405 159.559 352.2 160.017C353.623 160.22 355.097 160.169 356.52 160.271C361.348 160.627 366.126 159.152 370.954 159.457C374.309 159.661 376.85 158.44 379.238 156.355C381.068 154.728 382.491 152.795 383.711 150.71ZM360.789 405.205C370.141 389.795 372.682 372.605 370.751 354.805C369.836 346.464 367.142 338.428 364.804 330.393C363.839 327.138 362.365 324.035 360.434 321.238C358.35 318.187 356.673 314.22 353.725 312.49C349.811 310.253 350.421 305.981 347.778 303.438C346.711 302.42 345.491 301.708 344.322 300.895C343.407 300.284 342.391 299.878 342.493 298.403C342.645 295.758 340.917 293.927 339.443 292.045C333.395 284.213 325.873 277.805 318.758 271.041C312.252 264.836 305.543 258.733 298.682 252.834C285.773 241.696 270.577 236.101 254.109 233.355C249.637 232.592 245.063 232.287 240.794 230.964C233.221 228.676 225.597 228.167 217.821 228.93C215.89 229.133 213.958 229.133 212.027 229.235C212.027 229.286 212.027 229.286 212.027 229.337C207.809 229.337 203.641 229.439 199.423 229.337C194.239 229.184 189.055 229.693 184.125 231.27C172.74 234.931 161.559 239 151.343 245.357C149.005 246.832 146.616 248.104 144.228 249.426C134.825 254.664 126.287 260.869 120.239 270.024C117.85 273.635 115.715 277.449 113.479 281.111C106.262 292.757 102.806 305.167 103.772 318.848C104.28 325.968 105.754 332.885 107.329 339.801C111.345 357.5 118.358 373.775 129.133 388.473C130.556 390.406 132.03 392.389 133.097 394.576C136.096 400.577 140.924 404.697 146.108 408.613C155.917 415.987 166.438 422.446 175.129 431.143C181.177 437.195 188.241 440.908 196.272 443.298C202.625 445.18 208.978 446.96 215.229 449.147C222.141 451.639 229.206 452.911 236.575 452.809C241.607 452.758 246.587 453.368 251.467 454.385C254.516 455.047 257.566 455.047 260.564 454.436C273.372 451.893 285.976 448.435 298.428 444.57C305.035 442.535 311.388 439.636 318.046 437.653C322.773 436.28 327.144 434.449 331.26 431.855C334.259 429.973 337.258 428.041 340.155 426.057C348.439 420.463 355.707 413.597 360.789 405.205ZM356.52 422.141C359.722 418.785 360.789 414.716 362.466 409.884C359.01 412.376 357.028 415.072 354.741 417.513C345.999 426.82 335.733 434.246 323.942 438.721C315.861 441.823 307.627 444.672 299.292 447.265C287.145 451.08 274.744 453.928 262.343 456.776C261.428 456.979 260.158 456.878 259.598 457.437C257.718 459.268 255.736 458.658 253.703 458.149C247.452 456.471 241.048 455.86 234.542 455.86C229.714 455.86 224.835 455.454 220.21 454.03C210.655 451.131 201.1 448.181 191.596 445.078C186.208 443.298 180.974 441.111 176.857 436.992C167.149 427.227 155.816 419.497 144.736 411.41C140.823 408.562 136.706 405.612 134.215 401.544C130.2 394.932 125.22 388.982 121.408 382.268C118.46 377.081 115.919 371.69 113.428 366.248C105.297 348.549 100.976 330.037 101.281 310.456C101.281 309.795 101.688 308.93 100.519 308.371C97.063 318.543 96.5548 329.019 97.8762 339.445C100.112 357.704 103.416 375.758 110.735 392.898C113.428 399.153 116.325 405.256 120.442 410.647C125.525 417.31 130.861 423.769 135.537 430.736C138.231 434.754 141.941 437.958 145.702 441.01C150.073 444.57 154.342 448.232 158.611 451.944C160.085 453.216 161.203 454.792 162.829 455.911C175.383 464.557 189.41 469.745 204.048 473.254C220.464 477.17 237.236 477.729 254.059 476.967C259.853 476.712 265.596 475.899 271.186 474.169C279.064 471.779 286.84 469.338 294.311 465.727C301.833 462.065 309.711 459.115 316.572 454.131C317.589 453.368 318.859 452.961 320.028 452.402C330.498 447.214 340.206 440.908 347.982 432.059C350.828 428.804 353.471 425.244 356.52 422.141ZM352.708 146.539C351.895 145.878 351.438 145.98 350.98 146.183C344.119 149.743 336.851 152.49 330.295 156.609C327.296 158.491 323.993 159.813 320.791 161.288C306.712 167.798 294.057 176.139 285.417 189.464C281.046 196.228 276.828 203.094 272.66 209.96C270.881 212.706 269.56 215.605 268.798 218.911C269.56 218.758 269.916 218.809 270.119 218.657C271.136 217.843 272.101 217.029 273.067 216.165C280.182 209.909 288.162 205.077 296.954 201.772C303.358 199.381 309.203 196.126 315.048 192.668C318.25 190.786 321.35 188.701 324.704 187.175C330.6 184.48 334.259 179.903 337.461 174.461C340.968 168.409 343.56 161.848 347.626 156.101C349.71 153.151 351.082 149.693 352.708 146.539ZM219.041 225.98C220.718 225.929 222.497 226.082 224.276 224.658C221.836 221.352 219.702 218.148 217.211 215.249C215.636 213.418 213.603 212.045 211.722 210.57C201.557 202.636 191.088 195.058 181.329 186.667C176.247 182.344 170.961 179.852 164.456 179.394C159.627 179.089 154.799 179.19 149.971 179.445C142.703 179.801 135.588 181.225 128.371 182.039C122.475 182.7 122.221 183.259 124.508 188.701C125.321 190.583 125.626 192.261 122.882 192.566C121.154 192.77 120.798 193.787 120.798 195.211C120.798 196.482 120.849 197.805 120.696 199.076C120.391 201.975 119.578 202.789 117.037 201.721C114.546 200.704 113.428 201.67 112.412 203.552C112.005 204.264 111.599 204.976 111.192 205.637C110.582 206.603 109.82 207.57 108.498 207.264C106.872 206.908 106.872 205.484 106.821 204.162C106.77 201.263 106.923 198.364 107.431 195.465C107.889 193.075 109.108 190.735 108.956 187.735C102.857 187.786 102.908 187.836 103.67 192.973C104.636 199.33 105.195 205.789 105.297 212.248C105.551 224.81 105.297 237.423 104.788 249.985C104.28 262.903 103.162 275.72 101.281 288.536C100.722 292.35 99.7567 296.165 99.96 300.132C101.79 295.961 103.365 291.74 104.992 287.57C105.805 285.485 106.415 283.145 108.143 281.67C112.361 278.008 115.258 273.329 118.257 268.803C122.119 262.903 126.948 258.072 132.691 254.003C147.785 243.323 163.998 234.83 181.583 229.083C186.971 227.303 192.561 226.54 198.254 226.438C205.166 226.336 212.129 226.184 219.041 225.98ZM189.207 189.057C188.597 184.276 185.243 181.174 183.769 177.105C182.752 174.257 180.567 172.833 177.772 172.019C170.25 169.934 163.388 166.425 157.035 161.899C153.63 159.508 149.971 158.186 145.752 158.44C142.195 158.644 138.688 158.186 135.384 156.609C132.437 155.185 129.438 155.643 126.439 156.457C124.61 156.965 123.796 157.983 123.593 159.813C123.085 164.289 121.916 168.663 120.95 173.087C120.544 174.969 120.442 176.902 120.391 178.834C120.34 180.36 120.9 181.327 122.729 180.716C127.049 179.241 131.623 179.241 136.045 178.428C145.905 176.597 155.867 176.19 165.879 176.8C171.825 177.156 177.162 178.987 181.634 183.157C184.023 185.344 186.717 187.124 189.207 189.057ZM120.391 189.464C121.001 188.955 120.645 188.294 120.29 187.786C120.137 187.531 119.832 187.226 119.578 187.175C118.765 186.972 118.409 187.582 118.257 188.192C118.053 189.21 117.952 190.278 117.799 191.346C117.748 191.397 117.698 191.397 117.698 191.447C117.698 191.498 117.698 191.549 117.698 191.6C116.275 192.719 116.224 194.55 115.461 195.974C115.055 196.787 115.207 197.55 116.122 197.805C117.088 198.11 117.545 197.5 117.596 196.584C117.647 194.906 117.698 193.227 117.698 191.6C117.748 191.549 117.748 191.549 117.799 191.498C117.799 191.447 117.799 191.397 117.799 191.346C118.714 190.735 119.629 190.125 120.391 189.464ZM114.343 168.866C114.699 167.697 115.309 166.476 114.14 165.255C113.022 165.56 112.361 166.425 111.65 167.239C110.836 168.205 111.09 168.968 112.107 169.527C113.073 170.087 114.038 170.036 114.343 168.866ZM112.31 177.512C113.937 174.41 111.294 173.291 109.769 171.663C108.143 169.934 106.313 170.189 104.483 171.155C101.434 172.782 99.1976 175.274 97.1138 177.919C100.011 180.208 100.011 180.208 100.976 182.242C102.603 185.802 102.603 185.649 106.262 185.293C109.21 185.039 111.09 183.869 111.446 180.767C111.599 179.648 111.802 178.478 112.31 177.512ZM110.938 200.144C111.09 199.839 110.989 199.585 110.633 199.432C110.074 199.381 109.718 199.686 109.667 200.195C109.617 200.449 109.82 200.907 109.972 200.907C110.531 201.06 110.785 200.602 110.938 200.144ZM101.739 243.425C102.298 227.76 102.552 212.147 100.976 196.533C100.773 194.448 100.722 191.854 99.5025 190.583C97.927 188.955 97.622 187.887 98.2319 185.751C98.6385 184.225 98.0795 182.344 95.5383 183.361C95.1317 183.513 94.4202 183.615 94.166 183.361C91.7265 181.327 89.9985 182.852 88.3721 184.48C84.3062 188.396 80.3927 192.465 76.2759 196.33C70.9902 201.263 66.9751 207.061 63.9765 213.52C57.9284 226.54 51.8804 239.559 46.2389 252.732C40.2417 266.82 35.2101 281.314 31.5507 296.267C30.9408 298.759 30.4326 301.352 29.5178 303.743C23.8763 318.187 21.5892 333.292 20.1661 348.6C17.5233 377.589 19.4038 406.579 20.3186 436.687C23.1139 431.906 25.1469 427.837 27.7389 424.176C35.4134 413.241 42.9861 402.205 49.8982 390.762C59.199 375.301 69.4655 360.399 77.9023 344.43C81.0534 338.428 84.3061 332.529 87.7622 326.68C91.0658 321.187 93.9119 315.237 94.9284 308.829C96.5039 299.115 97.927 289.401 99.1976 279.636C100.773 267.633 101.281 255.529 101.739 243.425ZM71.4985 197.652C72.1592 196.889 73.4806 196.381 72.8199 194.804C69.9229 193.685 67.9408 195.77 65.9078 197.144C55.7938 204.213 47.0521 212.706 39.1743 222.217C33.2787 229.337 28.1455 236.966 24.5878 245.51C20.9793 254.156 17.4725 262.802 15.0329 271.905C11.2719 286.095 9.84884 300.437 13.1016 314.982C13.6098 317.322 13.9656 319.763 14.1181 322.154C14.6263 328.816 16.1002 335.224 17.4216 342.7C18.8447 338.683 18.8447 335.58 19.3021 332.58C22.4532 313.05 29.0603 294.487 34.8543 275.72C41.868 252.935 53.2526 232.032 62.7567 210.367C64.8405 205.586 67.9916 201.466 71.4985 197.652Z" fill="black"/>
<path d="M588.117 336.177C590.611 342.922 590.611 349.617 588.218 356.413C586.284 361.89 584.554 367.418 581.194 372.237C580.278 373.555 579.464 375.026 578.904 376.497C573.712 390.089 564.143 400.435 554.014 410.426C553.454 410.984 552.741 411.441 552.232 412.049C542.867 423.258 530.753 431.119 518.18 437.965C503.928 445.725 488.658 451.05 472.065 451C467.891 451 463.667 451 459.493 451C445.903 451 432.312 450.543 418.977 447.804C409.509 445.827 399.94 443.798 390.88 440.603C383.958 438.168 377.748 433.807 371.131 430.459C367.975 428.836 365.023 427.011 362.274 424.728C360.798 423.46 360.595 422.7 361.715 421.229C367.67 413.52 364.31 413.114 374.338 417.577C380.242 420.215 385.739 423.663 391.593 426.351C403.096 431.677 415.057 435.328 427.731 436.545C437.25 437.408 446.768 437.61 456.286 437.408C464.43 437.255 472.269 435.379 479.955 432.843C491.611 428.989 503.368 425.489 514.363 419.961C517.468 418.389 520.267 416.107 522.914 413.774C533.45 404.492 543.834 395.11 554.268 385.727C555.083 384.966 555.846 384.104 556.406 383.141C562.158 373.2 569.538 364.375 575.239 354.486C577.224 350.986 578.7 347.233 580.125 343.48C581.143 340.792 582.263 338.104 583.79 335.619C584.401 334.605 585.164 333.793 586.488 334.047C587.658 334.25 587.76 335.264 588.117 336.177Z" fill="#F97305"/>
<path d="M579.186 335.283C580.61 335.841 579.796 336.857 579.491 337.67C575.526 348.081 570.291 357.832 563.784 366.923C560.226 371.9 557.074 377.131 553.363 382.007C548.178 388.812 540.808 393.536 534.758 399.529C532.115 402.119 529.269 404.506 526.574 407.045C518.136 415.12 508.224 420.555 497.142 424.059C490.89 426.04 484.688 428.478 478.436 430.509C467.456 434.064 456.171 435.537 448.038 434.826C436.702 434.521 428.721 434.674 420.944 433.099C409.964 430.712 398.984 428.071 388.97 422.535C382.616 419.031 376.16 415.73 369.349 413.14C367.976 412.632 366.502 412.124 367.163 410.092C367.722 408.518 368.485 407.451 370.315 408.67C375.093 411.921 380.634 413.038 386.073 414.511C390.089 415.628 394.053 416.898 397.663 419.184C402.288 422.078 407.524 423.246 412.811 423.856C424.35 425.227 435.99 426.243 447.53 424.262C463.44 421.52 478.944 417.507 493.025 408.924C499.989 404.658 507.715 401.611 515.035 397.853C522.457 394.044 529.523 389.473 535.978 384.089C540.35 380.433 543.807 375.963 546.806 371.139C549.297 367.177 552.245 363.673 556.261 360.981C562.31 356.918 566.122 350.823 569.223 344.424C571.002 340.818 573.747 338.228 576.594 335.638C577.56 334.775 578.322 334.927 579.186 335.283Z" fill="#F8BB89"/>
<path d="M567.754 332.913C569.435 332.913 571.116 333.166 573 332.761C568.569 336.812 566.634 342.18 563.68 346.889C560.879 351.447 557.518 355.498 552.832 358.333C549.624 360.257 547.23 363.245 545.397 366.435C538.318 378.588 527.267 386.234 515.298 392.868C505.011 398.59 494.214 403.299 483.876 408.92C473.894 414.338 462.792 416.769 451.689 419.048C436.767 422.136 421.794 421.225 406.923 418.642C404.581 418.237 402.289 417.427 400.15 416.161C395.261 413.224 389.862 411.553 384.362 410.186C380.288 409.224 376.163 408.262 372.547 406.034C369.287 404.059 369.287 403.552 370.102 399.755C374.788 378.538 376.774 357.371 369.899 336.053C367.199 327.748 364.449 319.697 359 312C366.028 312.506 373.107 312.861 380.135 313.62C395.363 315.19 410.59 316.912 425.563 320.608C434.832 322.887 444.457 322.836 453.93 323.647C472.111 325.216 490.293 326.837 508.474 328.356C514.585 328.862 520.748 329.065 526.859 329.369C535.059 329.824 543.309 330.179 551.508 330.685C556.958 331.04 562.203 332.863 567.754 332.913ZM498.136 356.51C499.103 357.422 499.816 358.789 502.057 358.688C500.886 356.156 499.307 354.586 497.677 353.118C492.584 348.408 487.695 343.496 482.246 339.192C476.695 334.787 470.685 330.938 464.625 327.293C463.606 326.685 462.486 325.368 461.213 326.482C460.092 327.546 461.569 328.457 461.875 329.419C462.282 330.888 461.009 332.559 460.041 331.901C456.629 329.622 453.013 329.115 449.092 330.179C448.837 330.28 448.532 329.976 448.226 329.824C445.272 328.204 442.318 328.407 439.314 329.571C438.244 329.976 437.073 330.483 436.411 329.065C434.934 325.925 431.98 324.862 429.23 323.14C426.48 321.469 425.257 322.229 423.424 323.697C416.803 329.065 410.081 334.382 403.46 339.749C402.849 340.256 401.627 340.61 402.544 342.18C406.567 339.952 409.928 336.914 413.34 334.078C416.243 331.698 419.299 329.622 422.711 328.153C425.818 326.837 429.128 325.065 432.286 327.495C435.443 329.875 434.832 333.572 434.068 336.863C430.503 351.7 428.008 366.79 422.966 381.272C422.558 382.538 421.54 383.804 422.406 385.526C424.035 384.918 424.341 383.449 424.646 382.285C426.072 377.677 427.498 373.069 428.772 368.41C429.841 364.511 430.656 360.561 431.573 356.662C432.438 352.915 433.762 349.168 434.017 345.37C434.272 341.117 437.684 338.433 438.397 334.483C438.804 332.204 441.656 331.09 444.712 331.495C447.462 331.901 447.36 333.622 447.309 335.749C447.157 341.674 447.157 347.649 447.208 353.573C447.208 354.738 446.851 356.156 448.634 357.017C449.448 352.915 448.786 348.915 448.99 344.965C449.143 342.332 448.175 339.445 451.282 337.673C452.148 337.167 451.689 335.901 451.842 334.939C452.198 332.458 453.115 331.799 455.356 332.761C458.055 333.926 460.398 335.395 461.671 338.382C462.944 341.37 464.014 344.611 466.356 347.244C467.528 345.674 466.56 344.762 466.153 343.8C465.287 341.724 464.37 339.648 463.301 337.673C462.231 335.648 462.588 333.926 464.218 332.508C465.847 331.09 467.528 331.597 469.158 332.508C470.278 333.166 471.297 333.977 472.417 334.635C482.093 340.661 489.987 348.712 498.136 356.51Z" fill="#F97305"/>
<path d="M513.894 272.158C515.82 276.265 516.733 280.575 518 286C515.719 284.885 514.553 284.428 513.438 283.769C509.23 281.285 504.82 279.358 499.902 279.003C497.418 278.8 496.151 277.431 495.847 275.048C494.833 267.899 492.805 260.801 492.501 253.651C492.197 245.792 489.865 238.542 487.837 231.19C485.303 221.962 480.639 213.748 475.316 205.788C470.703 198.994 466.343 192.098 460.666 186.064C453.112 178.053 444.951 170.853 435.066 165.834C428.374 162.386 422.088 158.025 414.484 156.555C413.521 156.352 412 156.251 412 154.73C412 153.158 413.724 154.172 414.18 153.564C418.438 147.936 424.42 150.724 429.692 150.471C434.254 150.217 438.107 152.549 441.301 155.642C445.66 159.8 450.73 162.69 456.053 165.479C464.873 170.093 472.427 176.279 476.381 185.861C478.256 190.425 481.45 193.67 485.556 196.103C488.192 197.675 490.828 199.247 493.616 200.515C497.368 202.289 499.649 205.129 501.17 208.881C503.248 214.052 503.907 219.427 503.907 224.953C503.958 234.79 504.313 244.626 507 254.158C508.774 260.344 511.106 266.327 513.894 272.158Z" fill="#13751E"/>
<path d="M502 359.88C499.756 359.982 499.041 358.601 498.072 357.68C489.911 349.8 482.005 341.664 472.313 335.574C471.191 334.909 470.171 334.09 469.049 333.425C467.416 332.504 465.733 331.992 464.101 333.425C462.469 334.858 462.112 336.598 463.183 338.644C464.254 340.64 465.172 342.738 466.039 344.836C466.447 345.808 467.416 346.729 466.243 348.316C463.897 345.655 462.826 342.38 461.551 339.361C460.275 336.342 457.929 334.858 455.226 333.681C452.981 332.709 452.063 333.374 451.706 335.881C451.553 336.854 452.012 338.133 451.145 338.644C448.033 340.435 449.003 343.352 448.85 346.013C448.645 350.004 449.309 354.047 448.492 358.191C446.707 357.322 447.064 355.889 447.064 354.712C447.013 348.725 447.013 342.687 447.166 336.7C447.217 334.551 447.319 332.811 444.565 332.402C441.504 331.992 438.648 333.118 438.24 335.421C437.526 339.412 434.108 342.124 433.853 346.422C433.598 350.26 432.272 354.047 431.405 357.833C430.487 361.773 429.67 365.765 428.599 369.705C427.324 374.412 425.896 379.069 424.468 383.725C424.162 384.902 423.856 386.386 422.223 387C421.356 385.26 422.376 383.981 422.784 382.702C427.834 368.067 430.334 352.819 433.904 337.826C434.669 334.5 435.281 330.764 432.119 328.359C428.956 325.903 425.641 327.694 422.529 329.025C419.112 330.508 416.051 332.606 413.144 335.011C409.726 337.877 406.36 340.947 402.33 343.199C401.412 341.612 402.636 341.254 403.248 340.742C409.879 335.318 416.612 329.946 423.243 324.522C425.08 323.038 426.304 322.27 429.058 323.959C431.813 325.698 434.771 326.773 436.251 329.946C436.914 331.378 438.087 330.867 439.158 330.457C442.167 329.28 445.126 329.076 448.084 330.713C448.39 330.867 448.697 331.174 448.952 331.071C452.879 329.997 456.501 330.508 459.918 332.811C460.887 333.476 462.163 331.788 461.755 330.304C461.449 329.332 459.969 328.411 461.091 327.336C462.367 326.21 463.489 327.541 464.509 328.155C470.579 331.839 476.598 335.728 482.158 340.18C487.616 344.529 492.512 349.492 497.613 354.251C499.246 355.735 500.827 357.321 502 359.88Z" fill="black"/>
<path d="M492.645 279.927C493.203 289.461 493.355 298.996 491.174 308.429C490.413 311.896 489.805 315.363 489.146 318.881C488.993 319.697 488.182 324.745 489.146 325H489.196C479.864 324.184 470.482 323.419 461.099 322.808C443.247 321.635 425.598 319.595 408.05 315.822C397.856 313.63 387.357 313.12 376.91 312.253C370.976 311.743 365.042 311.08 359.108 310.672C356.42 310.519 354.696 309.143 353.123 307.154C350.131 303.432 347.747 299.251 344.958 295.376C341.357 290.328 337.452 285.688 333.04 281.456C329.439 277.989 325.635 274.726 322.592 270.698C321.933 269.78 321.02 269.066 320.107 268.404C315.948 265.293 312.195 261.775 308.493 258.155C301.291 251.221 293.836 244.541 284.605 240.309C278.925 237.709 273.093 235.414 267.108 233.426C265.688 232.967 263.862 233.018 263 230.978C272.332 219.302 283.743 210.277 297.639 204.771C303.675 202.374 309.304 199.417 314.883 196.154C318.89 193.808 322.846 191.31 327.004 189.168C331.467 186.874 334.713 183.509 337.351 179.277C339.836 175.249 342.016 171.119 343.994 166.887C345.364 163.828 347.19 162.451 350.689 162.961C355.659 163.624 360.68 163.471 365.65 162.91C367.375 162.706 369.454 162.145 370.874 162.808C373.867 164.184 376.453 163.267 379.344 162.808C383.3 162.145 387.306 161.635 391.161 160.564C399.276 158.321 407.34 158.627 415.454 160.615C422.301 162.298 427.981 166.428 434.118 169.538C443.754 174.382 451.463 181.724 458.817 189.474C464.751 195.746 469.062 203.139 473.728 210.328C477.633 216.345 481.284 222.362 483.567 229.143C487.472 240.666 489.551 252.597 491.935 264.478C492.949 269.627 492.341 274.777 492.645 279.927ZM377.366 223.075C379.699 215.07 379.344 207.065 376.757 199.213C374.424 192.177 370.418 190.698 363.673 193.961C358.449 196.46 353.935 200.182 348.863 202.986C347.798 203.547 347.443 204.72 346.835 205.638C344.248 209.513 343.893 214.102 342.727 218.435C340.546 226.441 339.481 234.599 339.075 240.105C338.72 251.068 341.053 258.512 345.871 265.089C349.32 269.831 353.833 269.882 357.587 265.497C359.362 263.407 361.035 261.214 362.1 258.665C366.056 249.283 370.215 240.003 374.577 230.826C375.743 228.327 376.605 225.727 377.366 223.075Z" fill="#F97305"/>
<path d="M376.827 198.867C379.421 206.677 379.777 214.639 377.437 222.602C376.674 225.239 375.81 227.825 374.64 230.31C370.266 239.439 366.095 248.669 362.127 258.001C361.059 260.536 359.381 262.717 357.601 264.796C353.837 269.158 349.31 269.107 345.851 264.391C341.019 257.849 338.679 250.444 339.035 239.54C339.442 234.063 340.51 225.949 342.697 217.987C343.867 213.676 344.223 209.112 346.817 205.257C347.428 204.344 347.784 203.178 348.852 202.62C353.938 199.831 358.465 196.129 363.704 193.644C370.469 190.398 374.487 191.869 376.827 198.867ZM374.335 222.855C376.674 214.944 376.522 206.982 373.826 199.171C372.3 194.81 370.113 193.948 365.993 195.926C362.382 197.65 358.872 199.628 355.566 201.961C350.683 205.46 347.377 210.024 345.698 215.806C343.359 223.92 341.833 232.085 341.833 240.961C341.273 248.061 342.392 255.211 347.021 261.551C350.378 266.166 353.277 266.318 356.278 261.652C358.567 258.153 360.754 254.603 362.229 250.647C364.315 245.068 366.858 239.693 369.553 234.418C371.435 230.716 373.114 226.862 374.335 222.855Z" fill="black"/>
<path d="M373.867 199.243C376.541 207.035 376.692 214.978 374.371 222.871C373.16 226.868 371.495 230.714 369.628 234.407C366.954 239.669 364.432 245.033 362.363 250.598C360.9 254.545 358.731 258.087 356.46 261.578C353.483 266.233 350.607 266.081 347.278 261.477C342.686 255.152 341.576 248.018 342.131 240.934C342.131 232.08 343.645 223.934 345.966 215.838C347.631 210.07 350.91 205.517 355.754 202.025C359.033 199.698 362.515 197.725 366.097 196.004C370.183 194.031 372.353 194.891 373.867 199.243Z" fill="#F8BB89"/>
<path d="M371.396 355.044C373.329 372.822 370.785 389.99 361.425 405.381C356.337 413.762 349.062 420.619 340.77 426.206C337.87 428.187 334.869 430.117 331.867 431.997C327.746 434.587 323.371 436.416 318.64 437.787C311.976 439.768 305.617 442.663 299.003 444.695C286.539 448.555 273.923 452.009 261.103 454.549C258.101 455.159 255.049 455.159 251.996 454.498C247.113 453.482 242.127 452.873 237.091 452.924C229.714 453.025 222.643 451.755 215.724 449.267C209.467 447.082 203.107 445.305 196.748 443.425C188.71 441.038 181.639 437.33 175.585 431.286C166.886 422.6 156.355 416.149 146.537 408.784C141.347 404.873 136.515 400.759 133.513 394.765C132.445 392.581 130.969 390.6 129.545 388.67C118.76 373.99 111.739 357.736 107.72 340.06C106.143 333.152 104.668 326.244 104.159 319.133C103.193 305.47 106.652 293.076 113.876 281.444C116.114 277.787 118.251 273.978 120.642 270.371C126.696 261.229 135.243 255.032 144.654 249.8C147.045 248.479 149.436 247.21 151.776 245.737C162.002 239.387 173.194 235.324 184.59 231.667C189.524 230.092 194.713 229.584 199.902 229.737C204.125 229.838 208.296 229.737 212.519 229.737C212.519 229.686 212.519 229.686 212.519 229.635C214.452 229.533 216.385 229.533 218.318 229.33C226.102 228.568 233.733 229.076 241.313 231.362C245.586 232.683 250.165 232.987 254.642 233.749C271.125 236.492 286.336 242.079 299.258 253.203C306.125 259.095 312.841 265.191 319.352 271.387C326.475 278.143 334.004 284.543 340.058 292.365C341.533 294.244 343.263 296.073 343.11 298.714C343.008 300.187 344.026 300.594 344.942 301.203C346.112 302.016 347.333 302.727 348.401 303.743C351.046 306.283 350.436 310.549 354.353 312.784C357.304 314.511 358.983 318.473 361.068 321.521C363.002 324.314 364.477 327.413 365.443 330.663C367.784 338.689 370.48 346.714 371.396 355.044ZM351.352 381.762C354.353 366.473 351.911 351.235 351.199 335.997C351.199 335.54 351.046 335.032 350.945 334.575C350.741 333.609 350.385 332.594 349.469 332.187C347.384 331.273 347.078 329.292 346.264 327.565C344.84 324.517 343.873 321.063 341.889 318.422C335.632 309.99 330.901 300.543 323.575 292.924C321.591 290.841 319.505 288.759 317.775 286.473C313.502 280.886 308.211 276.467 302.412 272.606C300.835 271.54 299.156 270.524 297.782 269.152C291.423 262.854 283.792 258.943 275.195 256.606C268.632 254.829 262.171 252.898 256.422 249.038C250.216 244.873 243.246 243.197 235.819 242.994C229.511 242.841 223.253 242.283 216.945 242.232C208.398 242.181 199.852 241.318 191.356 242.994C187.235 243.806 183.063 244.264 178.943 244.975C176.552 245.381 174.11 245.737 171.871 246.549C160.323 250.765 150.149 257.064 141.704 266.105C136.413 271.794 131.885 278.041 127.103 284.137C122.626 289.775 120.439 296.327 120.184 303.387C119.828 312.581 119.777 321.775 121.049 330.917C122.117 338.435 123.491 345.8 128.171 352.2C130.817 355.806 132.648 360.022 134.683 364.035C138.142 370.79 141.398 377.698 145.672 383.895C153.353 394.968 163.426 403.857 173.804 412.34C178.943 416.555 184.997 419.4 190.135 423.565C192.729 425.597 194.51 429.508 198.885 427.12C198.987 427.07 199.19 427.171 199.343 427.222C209.975 429.762 221.066 430.473 231.495 434.028C234.242 434.943 237.091 435.501 239.99 435.755C248.028 436.466 256.066 437.025 264.155 436.822C268.174 436.822 272.193 436.771 276.263 436.822C281.503 436.822 286.539 435.908 291.474 434.282C308.923 428.492 324.898 419.908 339.346 408.53C342.551 406.041 344.789 403.044 346.163 399.336C348.299 393.597 350.182 387.806 351.352 381.762Z" fill="#F8BB89"/>
<path d="M362 409.581C360.324 414.415 359.258 418.487 356.059 421.845C353.013 424.95 350.373 428.512 347.529 431.769C339.761 440.625 330.063 446.935 319.604 452.126C318.436 452.686 317.166 453.093 316.151 453.857C309.296 458.844 301.426 461.796 293.912 465.46C286.448 469.073 278.68 471.516 270.81 473.908C265.224 475.638 259.487 476.453 253.699 476.707C236.892 477.471 220.137 476.911 203.737 472.992C189.114 469.48 175.1 464.29 162.559 455.638C160.934 454.518 159.817 452.941 158.345 451.668C154.08 447.953 149.815 444.289 145.448 440.726C141.691 437.673 137.984 434.467 135.293 430.446C130.622 423.474 125.291 417.011 120.213 410.344C116.101 404.949 113.207 398.842 110.516 392.583C103.204 375.432 99.9037 357.365 97.6696 339.095C96.3495 328.662 96.8572 318.178 100.31 308C101.478 308.56 101.071 309.425 101.071 310.087C100.767 329.68 105.083 348.205 113.207 365.915C115.694 371.361 118.233 376.755 121.178 381.946C124.986 388.664 129.962 394.618 133.973 401.234C136.461 405.306 140.574 408.257 144.483 411.107C155.552 419.199 166.875 426.935 176.573 436.706C180.685 440.828 185.915 443.017 191.297 444.798C200.792 447.902 210.338 450.854 219.883 453.755C224.504 455.18 229.378 455.587 234.201 455.587C240.701 455.587 247.098 456.198 253.343 457.877C255.374 458.386 257.354 458.997 259.233 457.165C259.792 456.605 261.061 456.707 261.975 456.503C274.364 453.653 286.753 450.803 298.888 446.986C307.215 444.391 315.44 441.541 323.513 438.436C335.293 433.958 345.549 426.528 354.282 417.214C356.567 414.772 358.547 412.074 362 409.581Z" fill="#F97305"/>
<path d="M351.27 146.154C351.728 145.95 352.186 145.848 353 146.51C351.372 149.669 349.998 153.133 347.912 156.087C343.842 161.844 341.247 168.415 337.737 174.477C334.531 179.928 330.868 184.513 324.966 187.213C321.608 188.741 318.505 190.829 315.299 192.714C309.448 196.178 303.597 199.438 297.187 201.833C288.385 205.144 280.397 209.983 273.274 216.249C272.307 217.115 271.34 217.93 270.323 218.745C270.119 218.898 269.763 218.847 269 219C269.763 215.689 271.086 212.785 272.867 210.034C277.039 203.157 281.262 196.28 285.637 189.505C294.286 176.158 306.955 167.804 321.048 161.283C324.254 159.806 327.561 158.482 330.563 156.597C337.126 152.471 344.402 149.72 351.27 146.154Z" fill="#13751E"/>
<path d="M351.386 336.081C352.099 351.326 354.543 366.572 351.539 381.869C350.368 387.917 348.485 393.71 346.347 399.453C344.972 403.163 342.732 406.161 339.525 408.651C325.068 420.035 309.083 428.623 291.622 434.417C286.684 436.043 281.644 436.958 276.401 436.958C272.328 436.907 268.306 436.958 264.285 436.958C256.191 437.161 248.147 436.602 240.104 435.89C237.202 435.636 234.352 435.077 231.603 434.163C221.167 430.605 210.069 429.894 199.43 427.353C199.277 427.302 199.073 427.2 198.971 427.251C194.593 429.64 192.812 425.727 190.215 423.694C185.074 419.527 179.016 416.681 173.874 412.463C163.489 403.976 153.41 395.082 145.723 384.004C141.447 377.804 138.189 370.892 134.727 364.133C132.691 360.118 130.858 355.9 128.211 352.292C123.528 345.889 122.153 338.52 121.084 330.999C119.811 321.851 119.862 312.653 120.219 303.454C120.473 296.39 122.662 289.835 127.142 284.194C131.927 278.095 136.458 271.844 141.752 266.153C150.203 257.107 160.384 250.805 171.94 246.587C174.18 245.774 176.623 245.418 179.016 245.012C183.139 244.3 187.314 243.843 191.437 243.03C199.939 241.353 208.491 242.217 217.043 242.267C223.356 242.318 229.617 242.877 235.93 243.03C243.362 243.233 250.336 244.91 256.547 249.077C262.299 252.94 268.765 254.871 275.332 256.649C283.935 258.987 291.571 262.9 297.934 269.202C299.309 270.574 300.989 271.59 302.567 272.658C308.37 276.52 313.664 280.941 317.941 286.531C319.671 288.818 321.759 290.902 323.744 292.985C331.075 300.608 335.809 310.061 342.07 318.497C344.056 321.14 345.023 324.595 346.448 327.645C347.263 329.372 347.568 331.354 349.656 332.269C350.572 332.676 350.928 333.692 351.132 334.658C351.234 335.115 351.386 335.623 351.386 336.081ZM343.139 398.995C348.332 385.731 350.674 372.01 349.706 357.781C349.503 355.189 348.841 352.648 348.943 350.107C349.146 344.263 347.925 338.927 345.532 333.438C339.576 319.869 331.635 307.672 322.217 296.39C319.417 293.036 316.464 289.835 313.715 286.481C310.457 282.466 306.436 279.162 302.058 276.317C299.767 274.792 297.425 273.318 295.491 271.387C289.687 265.695 282.764 262.087 274.975 260.003C267.136 257.869 259.551 255.226 252.729 250.703C247.842 247.451 242.242 246.638 236.541 246.384C230.228 246.028 223.916 245.723 217.654 245.469C217.654 245.367 217.654 245.266 217.654 245.215C214.091 245.215 210.527 245.418 207.015 245.164C196.222 244.351 185.838 247.248 175.3 248.417C173.874 248.569 172.5 249.128 171.125 249.636C156.566 255.226 144.807 264.526 135.44 276.876C133.76 279.112 133.251 281.907 131.214 284.143C128.924 286.582 128.109 290.292 125.207 292.579C124.648 292.985 124.546 294.002 124.291 294.815C123.477 297.458 122.866 300.1 122.815 302.895C122.764 310.62 122.509 318.395 123.273 326.12C123.884 332.167 124.037 338.469 127.04 344.008C133.607 356.053 139.92 368.199 146.894 379.989C149.745 384.766 152.952 389.187 156.922 392.948C164.66 400.215 171.94 408.041 181.001 413.886C183.852 415.715 187.059 417.138 189.503 419.374C194.441 423.846 200.346 425.676 206.658 426.438C216.331 427.607 225.698 429.843 235.115 432.231C236.693 432.638 238.271 432.791 239.9 432.943C252.474 434.417 265.099 433.654 277.673 433.858C281.237 433.909 284.749 433.299 288.16 432.231C305.774 426.845 321.86 418.358 336.369 407.076C339.169 404.89 341.765 402.502 343.139 398.995Z" fill="black"/>
<path d="M348.787 357.844C349.753 372.084 347.413 385.816 342.225 399.09C340.852 402.6 338.258 404.99 335.46 407.177C320.964 418.467 304.89 426.961 287.291 432.352C283.883 433.42 280.373 434.03 276.813 433.979C264.249 433.776 251.635 434.539 239.071 433.064C237.443 432.911 235.866 432.758 234.29 432.352C224.88 429.961 215.52 427.724 205.856 426.554C199.549 425.791 193.648 423.96 188.715 419.484C186.273 417.247 183.069 415.823 180.22 413.992C171.166 408.143 163.892 400.311 156.161 393.038C152.193 389.275 148.989 384.85 146.141 380.069C139.172 368.27 132.865 356.115 126.303 344.062C123.302 338.518 123.15 332.212 122.539 326.159C121.776 318.429 122.031 310.648 122.081 302.917C122.132 300.12 122.743 297.475 123.557 294.831C123.811 294.017 123.913 293 124.472 292.593C127.371 290.304 128.185 286.592 130.474 284.15C132.509 281.913 133.017 279.115 134.696 276.878C144.055 264.519 155.805 255.212 170.352 249.618C171.726 249.109 173.099 248.549 174.523 248.397C185.052 247.227 195.429 244.328 206.212 245.142C209.722 245.396 213.282 245.193 216.843 245.193C216.843 245.244 216.843 245.345 216.843 245.447C223.099 245.701 229.407 246.007 235.714 246.363C241.411 246.617 247.006 247.431 251.889 250.686C258.705 255.212 266.284 257.857 274.117 259.993C281.899 262.078 288.817 265.689 294.615 271.385C296.548 273.317 298.888 274.792 301.177 276.318C305.551 279.166 309.57 282.472 312.825 286.49C315.572 289.846 318.522 293.051 321.32 296.407C330.73 307.698 338.665 319.904 344.616 333.483C347.006 338.976 348.227 344.316 348.024 350.165C347.922 352.707 348.583 355.25 348.787 357.844ZM289.682 352.199C289.427 351.995 289.224 351.69 288.969 351.639C288.206 351.538 287.393 351.436 286.579 351.436C279.865 351.385 273.507 349.605 267.352 347.062C266.335 346.604 264.91 346.299 264.453 345.485C262.876 342.739 260.129 342.383 257.586 341.468C256.518 341.061 255.399 340.756 254.432 340.196C253.262 339.586 252.041 338.772 252.398 337.246C252.754 335.568 254.33 335.721 255.551 335.721C263.283 335.822 271.014 334.856 278.695 336.534C279.865 336.789 281.085 337.196 282.56 335.873C279.763 334.398 277.067 334.195 274.422 333.992C269.895 333.636 265.419 333.076 261.045 331.906C257.281 330.94 253.669 329.669 250.414 327.431C249.295 326.719 248.43 325.651 249.04 324.176C249.498 323.006 250.414 322.548 251.635 322.294C261.757 320.26 271.37 316.547 280.984 312.834C281.747 312.58 282.459 312.224 282.103 311.054C280.424 310.292 279.051 311.41 277.576 311.919C272.387 313.699 267.25 315.581 262.011 317.259C260.689 317.717 259.315 318.48 257.789 317.819C256.06 317.056 254.33 317.361 252.601 317.971C251.177 318.48 249.753 318.48 248.328 318.073C244.717 317.005 243.75 314.97 245.429 311.563C245.887 310.546 246.955 309.58 246.395 308.461C245.276 306.274 246.395 304.443 247.006 302.459C248.125 298.95 249.244 295.39 250.261 291.83C250.515 291.016 251.126 289.948 249.753 289.338C248.227 290.101 248.277 291.728 247.82 293C246.497 296.814 245.327 300.679 244.056 304.494C243.089 307.444 241.665 310.19 239.63 312.478C236.426 316.14 232.255 316.039 230.169 311.766C228.084 307.443 225.541 303.324 224.32 298.594C222.591 291.728 220.353 284.964 217.606 278.403C217.199 277.488 216.894 276.42 215.52 276.166C215.52 276.979 215.368 277.488 215.52 277.895C219.895 288.016 221.777 298.899 225.439 309.224C226.151 311.258 226.151 313.343 225.643 315.428C225.287 316.903 224.473 318.632 222.845 318.327C219.132 317.717 215.164 318.632 211.706 316.344C206.772 313.038 201.736 309.834 196.7 306.63C195.378 305.816 194.208 304.595 192.479 304.646C192.529 305.053 192.428 305.511 192.58 305.613C201.939 311.817 210.739 318.937 221.217 323.362C222.387 323.871 223.252 324.379 222.845 325.803C222.235 327.99 218.064 330.94 216.385 329.872C213.435 327.99 210.027 328.753 207.179 327.482C200.414 324.532 193.191 323.057 186.375 320.26C181.899 318.429 177.423 316.598 172.896 314.92C171.726 314.513 169.996 312.936 169.284 314.971C168.725 316.496 170.759 316.598 171.929 317.005C174.065 317.768 176.151 318.581 178.287 319.344C188.155 322.904 197.26 328.245 207.331 331.347C208.603 331.754 210.18 332.059 210.943 333.636C210.281 335.06 209.111 335.822 207.585 335.924C205.653 336.026 204.584 337.704 202.906 338.264C202.041 338.518 201.583 339.586 202.55 340.044C206.161 341.824 203.262 342.637 202.041 343.451C195.124 347.876 188.511 352.809 181.339 356.878C179.762 357.793 177.829 358.454 177.117 360.54C178.796 361.201 179.762 360.082 180.83 359.522C186.629 356.369 192.072 352.555 197.565 348.893C200.108 347.164 202.702 345.536 205.398 344.112C208.552 342.485 212.011 341.569 215.622 341.671C218.776 341.773 219.946 343.146 219.996 346.248C220.047 347.215 219.844 348.181 219.742 349.147C218.979 356.624 216.436 363.591 214.045 370.61C213.537 372.034 212.469 373.407 213.282 375.034C214.757 374.831 214.91 373.712 215.266 372.898C217.402 367.507 219.183 361.964 220.505 356.318C221.217 353.267 222.743 350.622 224.473 348.13C226.1 345.842 227.982 346.096 229.254 348.588C230.17 350.368 230.119 352.351 229.915 354.284C229.407 359.268 228.796 364.201 228.237 369.186C228.084 370.66 227.474 372.237 228.44 373.712C230.119 373.203 229.864 371.83 230.017 370.508C230.627 366.032 231.339 361.557 231.695 357.081C231.95 353.826 233.374 351.131 235.103 348.69C236.68 346.452 238.969 344.774 241.919 344.57C243.496 344.468 244.768 344.875 245.124 346.757C246.751 355.25 251.177 362.727 253.923 370.813C254.229 371.678 254.33 372.796 256.009 373C256.009 369.44 254.025 366.643 253.059 363.54C252.296 361.099 250.21 358.76 252.804 356.064C253.567 355.25 252.855 353.877 252.448 352.809C251.889 351.283 251.177 349.808 250.719 348.283C249.905 345.485 251.736 343.502 254.636 344.112C255.449 344.265 256.212 344.57 256.925 344.926C261.858 347.367 267.098 349.046 272.235 350.877C277.118 352.606 282.204 353.47 287.444 353.318C288.308 353.318 289.427 353.572 289.682 352.199Z" fill="#F97305"/>
<path d="M288.291 351.574C288.544 351.625 288.747 351.931 289 352.134C288.747 353.509 287.632 353.255 286.771 353.255C281.553 353.407 276.488 352.542 271.625 350.81C266.508 348.977 261.291 347.296 256.377 344.852C255.668 344.495 254.908 344.19 254.097 344.037C251.21 343.426 249.386 345.412 250.197 348.213C250.653 349.741 251.362 351.218 251.919 352.745C252.324 353.815 253.034 355.19 252.274 356.005C249.69 358.704 251.767 361.046 252.527 363.491C253.489 366.597 255.465 369.398 255.465 372.963C253.793 372.759 253.692 371.639 253.388 370.773C250.653 362.676 246.246 355.19 244.625 346.685C244.27 344.801 243.004 344.394 241.433 344.495C238.495 344.699 236.215 346.38 234.645 348.62C232.923 351.065 231.504 353.764 231.251 357.023C230.896 361.505 230.187 365.986 229.579 370.468C229.427 371.792 229.681 373.167 228.009 373.676C227.047 372.199 227.654 370.62 227.806 369.144C228.364 364.153 228.972 359.213 229.478 354.222C229.681 352.287 229.731 350.301 228.82 348.519C227.553 346.023 225.679 345.769 224.058 348.06C222.335 350.556 220.816 353.204 220.107 356.259C218.789 361.912 217.017 367.463 214.889 372.861C214.534 373.676 214.382 374.796 212.913 375C212.103 373.37 213.167 371.995 213.673 370.569C216.054 363.542 218.587 356.565 219.347 349.079C219.448 348.111 219.651 347.143 219.6 346.176C219.549 343.069 218.384 341.694 215.243 341.593C211.647 341.491 208.202 342.407 205.061 344.037C202.377 345.463 199.793 347.093 197.26 348.824C191.789 352.491 186.369 356.31 180.594 359.468C179.53 360.028 178.568 361.148 176.896 360.486C177.605 358.398 179.53 357.736 181.101 356.819C188.243 352.745 194.829 347.806 201.718 343.375C202.934 342.56 205.821 341.745 202.225 339.963C201.262 339.505 201.718 338.435 202.579 338.181C204.251 337.62 205.315 335.94 207.24 335.838C208.759 335.736 209.925 334.972 210.583 333.546C209.823 331.968 208.253 331.662 206.986 331.255C196.956 328.148 187.889 322.801 178.061 319.236C175.934 318.472 173.857 317.657 171.729 316.894C170.564 316.486 168.538 316.384 169.095 314.857C169.804 312.819 171.527 314.398 172.692 314.806C177.2 316.486 181.658 318.319 186.116 320.153C192.904 322.954 200.097 324.431 206.834 327.384C209.671 328.657 213.065 327.894 216.003 329.778C217.675 330.847 221.829 327.894 222.437 325.704C222.842 324.278 221.981 323.769 220.816 323.259C210.38 318.829 201.617 311.699 192.296 305.486C192.144 305.384 192.245 304.926 192.195 304.519C193.917 304.468 195.082 305.69 196.399 306.505C201.414 309.713 206.429 312.921 211.343 316.231C214.788 318.523 218.739 317.606 222.437 318.218C224.058 318.523 224.868 316.792 225.223 315.315C225.73 313.227 225.729 311.139 225.02 309.102C221.373 298.764 219.499 287.866 215.142 277.731C214.99 277.324 215.142 276.815 215.142 276C216.51 276.255 216.814 277.324 217.219 278.241C219.955 284.81 222.183 291.583 223.906 298.458C225.122 303.194 227.654 307.319 229.731 311.648C231.808 315.926 235.962 316.028 239.154 312.361C241.18 310.069 242.598 307.319 243.561 304.366C244.827 300.546 245.992 296.676 247.309 292.856C247.765 291.583 247.715 289.954 249.234 289.19C250.602 289.801 249.994 290.87 249.741 291.685C248.728 295.25 247.613 298.815 246.499 302.329C245.891 304.315 244.776 306.148 245.891 308.338C246.448 309.458 245.384 310.426 244.928 311.444C243.257 314.856 244.219 316.894 247.816 317.963C249.234 318.37 250.653 318.37 252.071 317.861C253.793 317.25 255.516 316.944 257.238 317.708C258.758 318.37 260.126 317.607 261.443 317.148C266.66 315.468 271.777 313.583 276.944 311.801C278.413 311.292 279.78 310.171 281.452 310.935C281.807 312.106 281.098 312.463 280.338 312.718C270.764 316.435 261.189 320.153 251.109 322.19C249.893 322.444 248.981 322.903 248.525 324.074C247.917 325.551 248.778 326.62 249.893 327.333C253.135 329.574 256.732 330.847 260.48 331.815C264.837 332.986 269.294 333.546 273.803 333.903C276.437 334.107 279.122 334.31 281.908 335.787C280.439 337.111 279.223 336.704 278.058 336.449C270.409 334.769 262.709 335.736 255.009 335.634C253.793 335.634 252.223 335.481 251.868 337.162C251.514 338.69 252.73 339.505 253.895 340.116C254.857 340.676 255.972 340.981 257.035 341.389C259.568 342.306 262.304 342.662 263.874 345.412C264.33 346.227 265.749 346.532 266.762 346.991C272.891 349.537 279.223 351.32 285.91 351.37C286.72 351.37 287.531 351.472 288.291 351.574ZM252.122 332.681C251.159 331.968 250.805 331.662 250.399 331.458C246.651 329.472 243.966 327.028 245.891 322.241C246.043 321.782 246.296 321.273 245.79 320.917C243.814 319.542 242.041 317.912 240.167 316.435C239.204 315.671 237.887 317.301 236.671 317.556C234.544 318.065 232.518 317.912 230.593 316.792C229.934 316.384 229.073 315.671 228.414 316.282C227.148 317.505 226.743 319.389 225.324 320.56C224.412 321.324 224.919 322.292 225.172 323.259C226.135 326.773 224.615 329.269 221.626 330.898C219.549 332.069 217.32 332.986 215.092 333.954C213.015 334.87 211.444 336.245 210.38 338.639C211.444 338.741 212.052 338.843 212.66 338.843C216.51 338.588 220.157 338.894 222.032 343.069C222.335 343.732 222.943 344.139 223.551 343.935C227.148 342.56 229.681 344.343 231.758 347.194C232.72 346.431 233.328 345.921 233.936 345.412C237.634 342.407 241.383 340.37 246.246 343.222C248.019 344.241 249.994 342.509 249.133 340.574C247.613 336.958 248.728 334.616 252.122 332.681Z" fill="black"/>
<path d="M251.267 331.34C251.675 331.542 252.032 331.846 253 332.556C249.585 334.482 248.464 336.813 249.993 340.411C250.859 342.337 248.871 344.061 247.087 343.047C242.194 340.209 238.422 342.236 234.701 345.226C234.09 345.733 233.478 346.24 232.51 347C230.42 344.162 227.871 342.388 224.252 343.756C223.641 343.959 223.029 343.554 222.723 342.895C220.837 338.739 217.167 338.435 213.294 338.688C212.682 338.688 212.07 338.587 211 338.486C212.07 336.104 213.651 334.735 215.74 333.823C217.983 332.86 220.226 331.948 222.316 330.782C225.323 329.16 226.852 326.677 225.883 323.18C225.629 322.217 225.119 321.254 226.036 320.494C227.464 319.328 227.871 317.453 229.146 316.237C229.808 315.628 230.675 316.338 231.337 316.743C233.274 317.858 235.313 318.01 237.454 317.504C238.677 317.25 240.002 315.628 240.971 316.389C242.857 317.858 244.641 319.48 246.629 320.849C247.138 321.203 246.883 321.71 246.731 322.166C244.794 326.93 247.495 329.363 251.267 331.34Z" fill="#F8BB89"/>
<path d="M224 224.48C222.226 225.905 220.452 225.752 218.78 225.803C211.887 226.007 204.943 226.159 198.05 226.261C192.373 226.363 186.798 227.126 181.426 228.907C163.889 234.658 147.721 243.156 132.668 253.843C126.941 257.914 122.126 262.749 118.274 268.652C115.283 273.181 112.394 277.863 108.188 281.527C106.464 283.003 105.856 285.344 105.045 287.43C103.423 291.603 101.852 295.827 100.028 300C99.8248 296.031 100.788 292.214 101.345 288.397C103.221 275.573 104.336 262.749 104.843 249.823C105.349 237.253 105.603 224.633 105.349 212.063C105.248 205.6 104.691 199.137 103.728 192.776C102.967 187.636 102.917 187.585 108.999 187.534C109.151 190.537 107.934 192.878 107.478 195.269C106.971 198.17 106.819 201.071 106.87 203.972C106.921 205.295 106.921 206.72 108.542 207.076C109.86 207.381 110.62 206.414 111.229 205.447C111.634 204.786 112.04 204.073 112.445 203.361C113.459 201.478 114.574 200.511 117.057 201.529C119.591 202.597 120.402 201.783 120.707 198.883C120.859 197.61 120.808 196.287 120.808 195.015C120.808 193.59 121.163 192.572 122.886 192.369C125.623 192.063 125.319 190.384 124.508 188.501C122.227 183.056 122.48 182.496 128.36 181.835C135.557 181.02 142.653 179.595 149.9 179.239C154.715 178.985 159.53 178.883 164.345 179.188C170.833 179.646 176.104 182.14 181.172 186.466C190.904 194.862 201.344 202.445 211.481 210.384C213.356 211.859 215.384 213.233 216.955 215.065C219.439 217.966 221.567 221.172 224 224.48Z" fill="#F97305"/>
<path d="M183.548 177.18C185.025 181.204 188.389 184.272 189 189C186.503 187.089 183.802 185.328 181.407 183.165C176.923 179.041 171.572 177.23 165.61 176.878C155.572 176.274 145.584 176.677 135.698 178.487C131.265 179.292 126.679 179.292 122.347 180.751C120.513 181.355 119.952 180.399 120.003 178.89C120.054 176.979 120.156 175.067 120.564 173.206C121.532 168.83 122.704 164.504 123.213 160.078C123.417 158.267 124.233 157.261 126.067 156.758C129.074 155.953 132.08 155.501 135.036 156.909C138.348 158.468 141.864 158.921 145.431 158.72C149.661 158.468 153.33 159.776 156.744 162.14C163.113 166.617 169.993 170.088 177.534 172.15C180.337 172.955 182.528 174.363 183.548 177.18Z" fill="#13751E"/>
<path d="M118.102 191C118.102 191.051 118.102 191.102 118.102 191.152C118.051 191.203 118.051 191.203 118 191.254C118 191.203 118 191.152 118 191.102C118.051 191.051 118.051 191.051 118.102 191Z" fill="#F97305"/>
<path d="M100.976 196.533C102.552 212.147 102.298 227.76 101.739 243.425C101.281 255.529 100.773 267.633 99.1975 279.636C97.9269 289.401 96.5039 299.115 94.9283 308.829C93.9119 315.237 91.0657 321.187 87.7621 326.68C84.3061 332.529 81.0534 338.428 77.9023 344.43C69.4655 360.399 59.199 375.301 49.8982 390.762C42.9861 402.205 35.4133 413.241 27.7389 424.176C25.1468 427.837 23.1139 431.906 20.3185 436.687C19.4037 406.579 17.5232 377.589 20.166 348.6C21.5891 333.292 23.8762 318.187 29.5177 303.743C30.4325 301.353 30.9408 298.759 31.5507 296.267C35.21 281.314 40.2416 266.82 46.2388 252.732C51.8803 239.56 57.9284 226.54 63.9764 213.52C66.9751 207.061 70.9902 201.263 76.2759 196.33C80.3926 192.465 84.3061 188.396 88.372 184.48C89.9984 182.852 91.7264 181.327 94.166 183.361C94.4201 183.615 95.1316 183.514 95.5382 183.361C98.0794 182.344 98.6385 184.226 98.2319 185.751C97.622 187.887 97.9269 188.955 99.5025 190.583C100.722 191.854 100.773 194.448 100.976 196.533Z" fill="#13751E"/>
<path d="M72.82 194.804C73.4807 196.38 72.1592 196.889 71.4985 197.652C67.9917 201.466 64.8406 205.586 62.7568 210.366C53.2527 232.032 41.8681 252.935 34.8544 275.72C29.0604 294.486 22.4533 313.05 19.3022 332.579C18.8448 335.58 18.8448 338.682 17.4217 342.7C16.1003 335.224 14.6264 328.816 14.1181 322.153C13.9657 319.763 13.6099 317.322 13.1016 314.982C9.8489 300.437 11.272 286.095 15.033 271.905C17.4725 262.801 20.9794 254.156 24.5879 245.51C28.1456 236.965 33.2788 229.337 39.1744 222.216C47.0521 212.706 55.7939 204.213 65.9079 197.143C67.9408 195.77 69.923 193.685 72.82 194.804Z" fill="#F97305"/>
</svg>
