<svg width="400" height="400" viewBox="0 0 600 600" fill="none" xmlns="http://www.w3.org/2000/svg">
<path d="M535.845 303.336C536.081 304.23 536.034 305.125 535.798 305.972C533.533 315.813 532.825 325.937 530.655 335.778C527.871 348.491 523.388 360.545 517.254 371.987C515.98 374.341 514.47 376.602 513.337 379.003C509.798 386.49 504.278 392.187 497.672 396.99C492.245 400.945 486.819 404.806 481.298 408.62C477.618 411.163 473.466 412.764 469.219 414.223C450.439 420.862 431.093 421.427 411.558 419.921C410.709 421.239 411.747 421.992 412.172 422.793C418.211 434.847 425.903 445.724 435.623 455.141C441.332 460.65 447.514 465.5 455.205 468.043C456.904 468.608 459.357 469.079 458.838 471.197C458.319 473.41 455.818 472.375 454.214 472.139C449.071 471.386 444.069 469.879 438.831 469.502C434.443 469.173 430.196 469.502 426.044 470.538C417.692 472.657 409.293 474.588 400.706 475.765C399.667 475.906 398.629 476.141 397.686 476.565C389.947 479.626 381.784 480.191 373.621 480.897C365.316 481.651 357.012 482.875 348.754 481.038C336.627 478.402 324.831 474.917 314.403 467.807C313.082 466.866 311.572 466.159 310.156 465.359C304.588 462.298 299.964 458.202 296.331 452.975C294.444 450.197 292.367 447.466 290.433 444.782C288.404 445.818 287.413 447.325 286.328 448.69C279.108 457.401 270.19 463.946 260.045 468.937C251.929 472.94 243.483 474.352 234.518 473.363C222.816 472.045 211.114 471.386 199.317 471.48C193.372 471.527 187.427 471.103 181.529 470.256C177.565 469.691 173.696 468.655 170.157 466.583C165.485 463.805 160.201 462.769 155.01 461.498C149.395 460.132 144.96 457.119 141.657 452.457C141.091 451.657 140.147 450.809 141.043 449.726C141.751 448.832 142.648 449.397 143.497 449.679C151.188 452.551 159.257 452.504 167.278 451.986C170.676 451.798 174.026 450.95 177.471 450.668C185.775 449.962 191.39 445.206 195.967 438.802C197.524 436.636 198.657 434.188 199.553 431.645C202.196 424.064 205.404 416.719 209.132 409.562C209.557 408.714 210.453 407.914 209.698 406.266C207.103 407.537 204.413 408.714 201.865 410.08C195.684 413.282 189.031 414.647 182.095 414.977C174.498 415.353 166.995 414.977 159.54 412.952C156.143 412.01 152.509 411.869 148.971 411.539C146.422 411.304 143.874 410.88 141.751 409.468C134.437 404.665 126.416 400.851 120.659 393.929C118.441 391.292 115.516 389.456 112.496 387.808C108.249 385.501 104.899 382.393 102.21 378.25C98.1044 371.893 93.9993 365.489 89.4695 359.415C77.1068 342.841 70.5008 323.912 67.3866 303.665C66.2541 296.32 65.1689 288.974 65.0273 281.535C64.7442 269.716 66.6788 258.133 70.0762 246.832C75.1722 229.834 82.1085 213.495 93.1971 199.464C107.306 181.571 125.283 168.669 146.8 160.853C148.215 160.335 149.631 159.77 151.094 159.676C155.388 159.393 158.077 156.945 160.437 153.696C165.344 147.01 171.761 141.972 179.075 138.063C185.115 134.814 191.013 131.283 197.194 128.458C207.245 123.89 217.909 121.207 228.856 119.559C237.868 118.193 246.975 118.805 256.035 118.24C264.009 117.722 272.125 118.052 280.052 119.135C291.565 120.689 301.616 125.868 309.732 134.297C315.111 139.853 320.443 145.456 325.964 150.871C332.192 157.086 336.203 164.714 339.27 172.813C341.346 178.369 343.045 184.066 344.272 189.905C344.555 191.318 344.649 192.872 345.781 194.284C347.527 194.096 348.896 192.872 350.358 192.071C363.051 185.008 376.688 180.253 390.702 176.862C401.083 174.367 411.7 174.979 422.175 177.004C425.431 177.616 428.639 177.71 431.895 177.945C447.23 179.028 461.622 182.984 475.023 190.894C484.885 196.733 492.764 204.831 501.258 212.224C504.514 215.049 506.967 218.675 509.043 222.489C514.375 232.424 519.707 242.406 524.049 252.859C528.012 262.465 530.56 272.541 532.259 282.853C533.25 289.633 533.957 296.602 535.845 303.336ZM529.994 323.441C531.504 313.553 534.005 303.618 530.985 293.542C530.466 291.847 530.324 290.057 530.088 288.268C527.823 272.259 523.577 256.909 516.074 242.5C513.337 237.227 510.601 231.953 507.958 226.632C504.844 220.276 500.597 214.814 495.077 210.293C492.198 207.939 489.556 205.302 486.819 202.807C479.694 196.403 471.672 191.412 462.896 187.457C455.205 184.019 446.995 182.56 438.926 180.629C436.047 179.923 432.792 179.593 430.102 180.535C427.554 181.477 425.431 180.912 423.213 180.253C412.691 177.239 402.027 177.098 391.41 179.358C379.472 181.948 368.053 186.28 357.012 191.459C352.859 193.437 348.094 194.896 345.498 199.369C345.357 199.652 344.696 199.84 344.319 199.746C342.384 199.369 341.299 200.782 339.978 201.677C321.151 215.096 307.42 232.801 296.897 253.142C294.963 256.814 293.641 260.77 292.556 264.819C291.565 268.586 291.282 272.353 292.273 276.261C293.83 282.523 293.877 288.927 293.405 295.331C292.886 302.3 292.273 309.268 291.282 316.143C290.527 321.228 291.188 325.89 293.5 330.41C294.585 332.529 295.718 334.648 296.992 336.625C299.351 340.298 301.191 344.112 302.512 348.256C304.305 353.765 306.759 358.991 309.968 363.888C312.893 368.361 317.376 370.574 321.717 373.117C322.425 373.541 323.085 373.447 323.84 373.258C328.653 372.034 333.23 372.835 337.854 374.341C344.932 376.649 351.963 378.956 359.135 380.98C364.042 382.393 368.619 384.371 373.007 386.96C384.945 394.118 396.129 402.169 404.952 413.093C407.17 415.824 409.907 417.19 413.398 417.331C416.984 417.472 420.523 417.661 425.761 417.896C429.913 418.461 435.717 417.755 441.474 417.331C452.845 416.436 463.604 413.14 474.268 409.279C475.636 408.761 476.957 407.961 478.184 407.16C485.592 402.169 493.048 397.225 499.89 391.528C502.532 389.315 505.221 387.102 506.92 384.135C511.261 376.696 515.744 369.35 519.283 361.44C524.709 349.292 528.012 336.531 529.994 323.441ZM446.853 467.901C446.57 467.572 446.334 467.148 446.004 466.913C433.122 458.202 422.883 446.995 415.003 433.576C412.219 428.82 410.001 423.782 406.604 419.403C399.148 409.844 390.277 401.698 380.227 394.918C374.423 391.01 368.619 386.866 361.872 384.889C353.567 382.44 345.451 379.662 337.194 377.167C335.212 376.554 333.23 375.895 331.154 375.66C324.973 374.954 320.207 378.579 315.016 380.933C314.261 381.263 314.12 382.016 314.12 382.817C314.12 384.936 313.554 386.066 311.242 384.512C310.392 383.947 309.92 384.889 309.59 385.501C308.646 387.196 307.891 388.985 306.853 390.586C304.588 394.023 305.296 397.319 306.948 400.663C307.891 402.593 309.354 404.053 310.911 405.418C323.18 416.06 336.863 424.253 352.34 429.385C355.313 430.374 358.191 431.598 361.022 432.869C365.505 434.894 370.129 436.495 374.848 437.861C386.833 441.392 398.393 446.195 410.237 450.197C411.322 450.574 412.455 450.903 412.927 452.41C410.898 453.493 409.34 452.363 407.783 451.798C389.145 444.782 370.035 438.991 351.491 431.598C338.232 426.324 325.728 420.015 314.592 411.163C313.648 410.409 312.846 409.42 311.761 408.997C307.561 407.16 305.108 403.676 302.89 399.627C302.324 399.909 301.993 400.003 301.805 400.192C299.115 402.97 296.284 405.607 293.783 408.573C291.282 411.539 291.801 416.248 287.885 418.32C287.507 418.508 287.413 419.403 287.319 419.968C286.375 424.394 286.28 428.82 287.885 433.152C291.707 443.37 298.218 451.798 306.146 459.19C306.995 459.991 308.033 460.65 309.024 461.309C320.49 468.655 332.475 474.682 345.97 477.554C353.378 479.155 360.692 479.202 368.147 478.543C379.095 477.554 389.9 475.953 400.611 473.128C408.727 470.962 417.173 469.785 425.431 467.854C431.801 466.348 438.265 465.029 444.635 467.949C445.249 468.184 446.051 468.325 446.853 467.901ZM340.78 197.863C342.29 196.968 342.573 195.791 342.195 194.096C340.544 186.845 338.798 179.593 336.061 172.719C332.758 164.385 328.276 156.709 321.528 150.494C317.281 146.586 313.271 142.348 309.401 138.016C305.957 134.249 302.04 131.048 297.699 128.411C291.943 124.879 285.667 122.101 278.919 121.866C268.397 121.442 257.875 120.924 247.258 121.112C236.028 121.301 225.364 123.749 214.889 126.574C195.354 131.848 178.178 141.877 163.221 155.532C162.513 156.144 161.427 156.662 161.852 158.546C168.883 156.898 175.536 159.723 182.425 160.335C183.18 160.382 183.935 160.523 184.643 160.476C189.692 160.147 194.363 161.512 198.94 163.396C207.669 166.927 216.116 170.929 223.76 176.439C228.856 180.064 233.81 183.878 238.859 187.504C252.637 197.439 265 208.645 273.069 223.901C273.116 224.043 273.257 224.137 273.304 224.278C276.843 230.446 280.713 236.426 283.166 243.207C285.384 249.234 288.309 255.072 290.15 261.947C291.754 259.781 292.037 257.85 292.792 256.108C293.594 254.366 294.255 252.53 295.199 250.835C306.004 230.493 319.829 212.695 338.798 199.181C339.553 198.71 340.119 198.239 340.78 197.863ZM317.659 375.895C316.574 375.142 315.677 374.483 314.686 373.87C314.073 373.494 313.507 372.976 312.185 373.164C312.516 374.953 312.28 376.931 313.837 377.637C315.111 378.202 316.574 377.308 317.659 375.895ZM309.637 380.886C310.581 379.898 310.345 378.673 310.109 377.496C309.071 372.27 306.9 367.608 303.173 363.794C297.699 358.191 288.923 359.18 284.959 365.866C283.497 368.361 281.703 370.433 279.25 371.987C271.747 376.743 263.537 379.709 254.808 381.216C249.523 382.158 244.097 383.382 239.661 386.254C235.603 388.891 231.498 391.057 226.968 392.564C222.674 394.023 219.513 396.754 217.012 400.427C210.784 409.562 206.254 419.591 202.62 429.997C201.299 433.811 199.884 437.578 197.524 440.827C192.57 447.749 186.294 452.457 177.423 453.493C169.26 454.435 161.192 455.424 152.981 454.435C151.566 454.246 149.914 453.729 148.31 454.859C150.244 457.119 152.698 457.825 155.152 458.437C161.616 460.132 168.128 461.686 173.979 465.217C175.206 465.971 176.763 466.253 178.178 466.583C186.2 468.466 194.41 468.419 202.573 468.608C213.143 468.89 223.712 468.937 234.188 470.397C242.351 471.527 250.136 470.35 257.639 466.818C269.058 461.498 278.542 453.87 286.469 444.17C288.168 442.098 288.357 440.497 287.177 438.237C284.063 432.21 283.638 425.854 284.723 419.167C285.148 416.625 286.092 414.788 287.743 412.999C290.008 410.598 291.707 407.725 293.783 404.1C290.574 405.607 288.309 406.737 285.997 407.772C275.428 412.528 264.953 417.519 254.194 421.851C245.04 425.524 236.217 429.715 227.629 434.47C224.279 436.307 220.834 438.096 218.664 441.627C217.861 439.556 218.899 438.284 220.126 437.248C221.353 436.212 222.722 435.224 224.09 434.376C231.404 430.044 238.812 425.901 246.692 422.746C263.679 415.918 280.099 407.867 296.567 399.909C299.162 398.638 300.861 396.943 302.088 394.447C304.305 389.738 305.957 384.747 309.637 380.886ZM303.503 359.603C300.342 348.444 295.812 338.226 289.348 327.962C287.932 335.778 285.761 342.7 284.157 349.762C282.553 356.825 279.344 363.229 275.475 370.245C279.533 369.021 281.137 366.619 282.6 364.029C285.054 359.556 288.876 357.72 293.925 357.532C297.322 357.39 300.436 358.332 303.503 359.603ZM290.197 301.829C291.801 286.573 289.819 271.835 285.667 257.38C282.694 247.021 277.881 237.227 272.314 227.809C264.622 214.908 255.657 203.231 243.294 194.425C237.349 190.188 231.404 185.95 225.741 181.383C217.012 174.414 207.197 169.611 197.005 165.373C191.107 162.925 184.973 162.407 178.084 162.736C184.124 168.669 190.73 179.358 192.9 188.069C194.74 195.414 197.902 202.383 198.421 210.058C198.515 211.329 198.893 212.271 200.45 212.506C203.47 212.977 205.404 215.143 207.056 217.451C210.689 222.489 213.19 227.998 213.332 234.307C213.379 236.567 214.275 237.603 216.587 237.321C225.222 236.379 232.63 239.11 240.18 243.442C254.996 252.012 263.631 264.725 267.453 280.828C270.662 294.342 270.379 308.28 270.049 322.076C270.001 323.724 270.096 325.513 268.916 326.737C267.595 328.15 267.265 329.845 266.651 331.493C264.198 337.991 262.31 344.771 259.762 351.175C256.129 360.357 251.882 369.492 245.559 377.308C244.616 378.485 243.389 379.615 243.342 381.781C250.75 378.767 258.394 378.108 265.519 375.519C268.303 374.483 270.568 373.023 272.03 370.48C275.664 364.171 279.108 357.814 281.043 350.657C285.29 334.648 288.451 318.403 290.197 301.829ZM267.17 306.914C267.312 298.109 266.368 289.304 264.386 280.781C259.951 261.335 247.258 248.716 229.422 240.758C228.903 240.523 228.289 240.334 227.723 240.287C220.457 239.911 213.143 239.487 205.876 240.052C201.299 240.429 200.214 241.841 199.978 246.267C199.884 248.056 199.789 249.846 199.884 251.635C200.12 257.238 198.94 262.559 196.958 267.738C194.882 273.295 192.806 278.851 190.541 284.36C187.804 290.952 184.973 297.544 180.16 302.959C173.884 309.975 168.222 317.414 163.221 325.325C160.814 329.139 157.464 331.21 153.17 332.058C150.244 332.623 147.366 333.188 144.629 334.459C142.129 335.637 140.288 334.93 139.816 332.341C138.826 326.737 135.758 325.231 130.379 325.843C126.085 326.314 124.198 324.148 123.915 319.722C123.726 317.038 124.009 314.401 124.34 311.717C124.764 308.185 125.142 304.607 123.821 301.122C120.47 292.459 119.951 283.512 120.942 274.378C122.216 262.229 126.227 251.447 134.909 242.359C142.695 234.213 151.896 228.516 162.182 224.231C167.137 222.112 172.139 221.312 177.423 222.347C180.538 222.96 183.652 222.865 186.766 222.913C190.447 222.96 193.419 220.323 190.588 216.226C189.975 215.332 189.786 214.437 190.918 214.155C193.042 213.589 193.042 211.894 193.23 210.293C193.608 206.574 193.514 202.901 192.759 199.228C191.39 192.495 188.984 186.091 186.389 179.782C183.841 173.519 179.358 168.858 174.12 164.714C172.941 163.772 171.572 163.113 170.157 162.784C161.38 160.571 152.934 161.183 144.535 164.761C132.786 169.752 122.075 176.344 112.638 184.961C108.344 188.869 103.814 192.448 99.9919 196.921C93.669 204.314 88.5729 212.554 83.8072 220.888C74.606 236.944 69.6043 254.46 68.1888 272.965C67.2451 285.066 68.9909 297.026 71.2087 308.845C74.4173 325.937 80.4098 342.04 90.7907 356.213C96.0755 363.417 100.888 370.904 105.843 378.297C108.108 381.687 110.797 384.088 114.289 385.877C117.498 387.525 120.47 389.55 122.83 392.234C128.445 398.638 136.136 402.122 143.025 406.784C144.771 407.961 146.847 408.29 148.971 408.526C153.123 408.997 157.322 409.232 161.286 410.315C167.892 412.104 174.498 412.104 181.198 412.01C192.711 411.916 202.526 407.255 211.822 401.133C212.577 400.663 213.332 400.097 213.803 399.391C217.767 393.6 223.24 390.115 229.799 387.902C234.282 386.395 238.01 383.712 240.322 379.427C243.766 373.023 247.919 366.902 250.561 360.168C255.185 348.444 262.263 337.708 264.669 325.136C265.047 323.159 266.604 321.558 266.604 319.298C266.604 315.201 266.934 311.058 267.17 306.914ZM205.074 237.65C211.633 236.709 211.774 236.52 209.462 230.164C209.132 229.222 208.99 228.139 207.197 227.244C207.528 229.316 207.905 230.87 208 232.471C208.047 234.025 207.386 235.249 205.546 234.26C204.036 233.46 203.659 234.213 203.564 235.39C203.517 236.191 202.809 237.085 203.753 237.886C204.178 237.839 204.649 237.745 205.074 237.65ZM197.383 237.839C197.43 236.191 197.477 234.449 195.495 232.706C194.599 240.334 188.182 241.982 183.416 245.278C182.661 245.796 182 245.42 181.529 244.713C181.057 243.96 181.387 243.207 182.048 242.783C182.661 242.406 183.416 242.218 184.077 241.935C187.332 240.617 190.352 239.157 191.06 235.202C191.202 234.543 191.721 233.789 192.287 233.413C194.74 231.576 193.655 228.987 193.278 226.962C192.9 224.984 190.494 225.126 188.748 224.984C188.323 224.937 187.851 224.937 187.427 224.937C183.086 224.89 178.792 225.031 174.498 224.325C171.808 223.854 169.119 224.325 166.571 225.314C155.765 229.41 145.951 234.919 137.693 243.348C124.104 257.285 122.075 274.048 124.104 292.129C127.218 300.51 128.067 309.033 126.84 317.932C126.227 322.405 127.359 323.159 131.795 323.065C132.55 323.065 133.305 322.97 134.013 322.97C137.929 322.97 139.722 324.195 141.232 327.726C141.798 329.045 141.704 330.693 143.403 331.917C146.187 330.128 149.631 329.892 152.934 329.139C155.954 328.48 158.408 327.114 160.153 324.43C165.58 316.049 171.667 308.185 178.178 300.605C183.605 294.295 186.53 286.62 189.078 278.804C184.737 282.523 180.679 286.432 176.621 290.34C174.922 291.988 173.177 293.636 171.053 294.766C169.59 295.519 168.081 296.037 166.712 294.107C168.222 293.447 169.779 293.165 170.865 292.27C176.574 287.703 181.67 282.523 186.341 276.92C188.559 274.236 189.55 270.564 192.995 268.821C193.561 268.539 193.844 267.597 194.08 266.938C195.448 263.171 196.675 259.357 196.817 255.261C197.053 249.422 197.241 243.63 197.383 237.839Z" fill="black"/>
<path d="M530.56 293.529C533.621 303.592 531.078 313.514 529.571 323.388C527.593 336.461 524.296 349.204 518.88 361.382C515.347 369.282 510.92 376.618 506.54 384.047C504.798 387.01 502.113 389.22 499.523 391.43C492.694 397.166 485.252 402.057 477.858 407.041C476.633 407.887 475.315 408.64 473.949 409.157C463.352 413.013 452.566 416.304 441.216 417.198C435.47 417.668 429.677 418.373 425.532 417.762C420.305 417.527 416.725 417.339 413.193 417.198C409.755 417.057 406.976 415.74 404.762 412.966C395.955 402.057 384.793 394.016 372.877 386.868C368.544 384.282 363.929 382.26 359.031 380.897C351.919 378.875 344.854 376.571 337.79 374.267C333.174 372.762 328.606 371.915 323.802 373.185C323.048 373.373 322.389 373.42 321.682 373.044C317.349 370.505 312.875 368.295 309.955 363.828C306.752 358.937 304.303 353.765 302.514 348.216C301.195 344.078 299.311 340.222 297.003 336.602C295.732 334.627 294.601 332.511 293.518 330.395C291.163 325.928 290.551 321.225 291.304 316.147C292.293 309.235 292.906 302.322 293.424 295.363C293.895 288.968 293.848 282.573 292.293 276.319C291.351 272.416 291.634 268.702 292.576 264.893C293.612 260.849 294.978 256.899 296.909 253.231C307.412 232.918 321.164 215.237 339.909 201.836C341.181 200.895 342.311 199.532 344.242 199.908C344.619 200.002 345.278 199.814 345.42 199.532C348.01 195.112 352.767 193.607 356.911 191.632C367.932 186.46 379.33 182.134 391.245 179.547C401.795 177.29 412.439 177.431 422.989 180.441C425.203 181.052 427.275 181.616 429.865 180.723C432.597 179.735 435.8 180.112 438.673 180.817C446.726 182.698 454.968 184.156 462.598 187.635C471.311 191.585 479.318 196.569 486.477 202.964C489.256 205.457 491.893 208.09 494.719 210.441C500.229 214.955 504.421 220.41 507.576 226.758C510.214 232.071 512.898 237.338 515.677 242.604C523.213 256.993 527.452 272.322 529.665 288.31C529.901 290.05 530.042 291.884 530.56 293.529ZM395.72 338.859C396.897 338.483 397.321 337.025 396.238 336.508C394.071 335.426 392.046 333.404 389.267 334.956C387.996 335.661 386.677 335.473 385.358 335.379C375.892 334.768 367.885 330.959 361.48 324C358.701 320.943 356.158 317.652 353.709 314.313C351.731 311.633 349.517 309.282 346.267 308.2C344.006 307.448 343.065 305.849 342.405 303.733C341.981 302.322 341.981 300.489 340.097 299.642C339.061 301.711 341.087 303.498 340.333 305.379C338.072 305.614 336.706 304.533 335.765 302.652C333.975 299.078 332.232 295.457 330.866 291.695C330.584 290.943 330.442 289.862 328.747 290.379C329.218 294.846 332.185 298.608 333.457 303.451C330.16 302.417 327.569 301.57 324.979 300.865C319.987 299.454 316.407 296.398 314.1 291.789C310.709 285.065 310.143 277.918 310.567 270.582C310.614 269.595 311.368 268.608 310.191 267.385C308.448 268.749 308.73 270.441 308.589 272.04C307.93 280.222 310.332 287.887 312.592 295.551C313.205 297.714 314.665 299.454 316.313 301.006C318.621 303.169 321.588 303.639 324.461 304.203C325.733 304.438 326.439 304.721 326.675 306.319C327.617 312.714 331.008 317.934 335.435 322.448C339.014 326.069 343.488 327.291 348.528 326.116C350.694 325.598 352.908 325.269 355.027 324.517C356.911 323.859 358.089 324.423 359.266 325.834C361.291 328.185 363.74 330.113 366.331 331.899C374.903 337.918 384.887 338.389 394.825 339C395.155 339 395.437 338.953 395.72 338.859Z" fill="#ED7B3B"/>
<path d="M446.152 467.119C446.482 467.353 446.717 467.729 447 468.104C446.152 468.526 445.398 468.339 444.739 468.057C438.332 465.148 431.925 466.462 425.566 467.963C417.322 469.887 408.889 471.107 400.787 473.219C390.093 476.081 379.352 477.676 368.376 478.615C360.933 479.272 353.631 479.178 346.235 477.629C332.762 474.767 320.797 468.761 309.349 461.441C308.36 460.784 307.324 460.127 306.476 459.33C298.562 451.963 292.108 443.61 288.245 433.381C286.643 429.064 286.737 424.654 287.68 420.243C287.821 419.68 287.868 418.835 288.245 418.601C292.155 416.536 291.637 411.844 294.133 408.887C296.63 405.931 299.457 403.351 302.142 400.535C302.33 400.348 302.66 400.254 303.225 399.972C305.487 404.008 307.889 407.48 312.082 409.31C313.118 409.779 313.966 410.764 314.908 411.468C326.073 420.29 338.509 426.577 351.747 431.833C370.261 439.153 389.292 444.924 407.947 451.963C409.502 452.526 411.056 453.652 413.082 452.573C412.658 451.071 411.48 450.743 410.397 450.367C398.573 446.379 387.031 441.593 375.066 438.074C370.355 436.666 365.738 435.117 361.263 433.1C358.436 431.833 355.516 430.613 352.595 429.627C337.143 424.513 323.482 416.348 311.234 405.744C309.632 404.383 308.219 402.928 307.277 401.004C305.628 397.673 304.921 394.388 307.182 390.963C308.219 389.368 308.973 387.538 309.915 385.895C310.244 385.332 310.716 384.347 311.563 384.91C313.872 386.458 314.39 385.332 314.437 383.221C314.437 382.423 314.578 381.719 315.332 381.344C320.514 379.045 325.225 375.385 331.443 376.088C333.516 376.323 335.495 376.98 337.473 377.59C345.717 380.124 353.867 382.892 362.111 385.285C368.847 387.256 374.642 391.385 380.436 395.28C390.47 402.084 399.326 410.154 406.77 419.68C410.161 423.997 412.375 429.064 415.155 433.803C423.069 447.27 433.292 458.391 446.152 467.119Z" fill="#13751E"/>
<path d="M397.391 336.494C398.435 337.014 398.055 338.48 396.869 338.858C396.585 338.953 396.3 339 395.968 339C385.959 338.385 375.902 337.913 367.268 331.861C364.707 330.065 362.193 328.127 360.153 325.763C358.967 324.392 357.781 323.777 355.883 324.439C353.796 325.196 351.567 325.527 349.337 326.047C344.261 327.228 339.755 326.047 336.149 322.359C331.643 317.821 328.275 312.573 327.326 306.144C327.089 304.536 326.425 304.253 325.096 304.016C322.155 303.449 319.214 302.976 316.89 300.802C315.229 299.242 313.759 297.492 313.142 295.318C310.913 287.612 308.446 279.859 309.11 271.68C309.252 270.12 308.968 268.371 310.723 267C311.909 268.182 311.15 269.222 311.102 270.215C310.675 277.59 311.197 284.775 314.66 291.536C317.032 296.169 320.59 299.242 325.618 300.66C328.275 301.416 330.884 302.267 334.157 303.26C332.876 298.343 329.84 294.609 329.413 290.117C331.121 289.597 331.263 290.685 331.548 291.441C332.924 295.223 334.679 298.863 336.481 302.456C337.43 304.347 338.806 305.387 341.083 305.198C341.794 303.26 339.802 301.464 340.846 299.431C342.743 300.329 342.743 302.125 343.17 303.544C343.834 305.671 344.783 307.278 347.06 308.035C350.333 309.122 352.563 311.439 354.555 314.181C357.022 317.537 359.584 320.846 362.382 323.919C368.834 330.916 376.898 334.745 386.433 335.36C387.761 335.454 389.137 335.643 390.371 334.934C393.169 333.374 395.209 335.407 397.391 336.494ZM354.603 321.65C355.267 321.555 355.646 320.894 355.314 320.326C354.508 319.003 353.844 316.781 352.136 317.064C349.859 317.443 348.578 315.93 346.491 315.221C345.922 319.286 346.254 320.468 348.483 321.414C350.428 322.312 352.515 322.028 354.603 321.65ZM344.024 310.493C345.068 312.148 346.538 312.762 348.815 312.148C347.202 311.108 345.874 310.351 344.214 310.257C342.696 309.359 341.178 308.271 338.996 308.602C339.85 310.399 340.419 311.959 341.747 313.093C342.221 311.864 342.743 310.824 344.024 310.493ZM334.11 308.697C334.204 307.846 334.489 306.947 333.54 306.427C333.398 306.333 332.876 306.475 332.829 306.617C332.402 307.515 332.734 308.271 333.303 308.933C333.398 309.028 333.54 309.075 333.825 309.311C334.015 308.98 334.11 308.838 334.11 308.697Z" fill="black"/>
<path d="M354.88 320.277C355.205 320.864 354.834 321.499 354.183 321.646C352.186 322.037 350.142 322.281 348.191 321.401C346.007 320.424 345.682 319.202 346.239 315C348.33 315.733 349.584 317.297 351.768 316.906C353.394 316.613 354.044 318.909 354.88 320.277Z" fill="#ED7B3B"/>
<path d="M348 313.013C345.681 313.74 344.184 313.065 343.121 311.196C341.816 311.559 341.285 312.702 340.802 314C339.401 312.754 338.87 311.092 338 309.067C340.222 308.703 341.768 309.898 343.314 310.884C344.957 311.04 346.357 311.871 348 313.013Z" fill="#ED7B3B"/>
<path d="M341.857 194.088C342.233 195.785 341.904 196.963 340.444 197.859C339.785 198.236 339.22 198.707 338.655 199.178C319.728 212.657 305.932 230.518 295.151 250.878C294.256 252.574 293.55 254.412 292.749 256.156C291.949 257.853 291.667 259.785 290.113 262C288.277 255.119 285.357 249.275 283.145 243.243C280.649 236.457 276.836 230.471 273.304 224.298C273.21 224.156 273.116 224.062 273.069 223.921C265.018 208.651 252.635 197.434 238.934 187.49C233.896 183.814 228.953 180.044 223.868 176.415C216.193 170.949 207.765 166.896 199.102 163.361C194.535 161.523 189.827 160.156 184.836 160.439C184.083 160.486 183.33 160.392 182.623 160.298C175.749 159.685 169.111 156.857 162.095 158.507C161.672 156.622 162.755 156.15 163.461 155.491C178.386 141.823 195.524 131.738 215.016 126.507C225.516 123.679 236.156 121.228 247.315 121.04C257.861 120.851 268.361 121.37 278.907 121.794C285.64 122.03 291.902 124.857 297.646 128.345C301.978 130.984 305.885 134.141 309.322 137.959C313.23 142.248 317.185 146.489 321.423 150.448C328.155 156.669 332.628 164.303 335.924 172.692C338.467 179.62 340.209 186.831 341.857 194.088Z" fill="#ED7B3B"/>
<path d="M314.261 373.8C315.13 374.453 316 375.207 317 375.962C316 377.42 314.652 378.425 313.522 377.822C312.087 377.068 312.304 374.956 312 373.046C313.174 372.844 313.696 373.347 314.261 373.8Z" fill="#ED7B3B"/>
<path d="M309.789 377.383C310.025 378.565 310.261 379.793 309.317 380.785C305.636 384.659 303.984 389.713 301.813 394.39C300.633 396.941 298.887 398.642 296.291 399.87C279.819 407.854 263.395 415.932 246.404 422.782C238.522 425.948 231.113 430.105 223.797 434.451C222.381 435.301 221.06 436.246 219.833 437.333C218.606 438.372 217.567 439.648 218.37 441.726C220.588 438.23 223.986 436.435 227.337 434.545C235.927 429.774 244.8 425.57 253.908 421.885C264.669 417.539 275.147 412.531 285.719 407.76C288.031 406.72 290.297 405.587 293.506 404.075C291.43 407.76 289.778 410.594 287.465 413.003C285.766 414.799 284.869 416.641 284.444 419.192C283.359 425.9 283.784 432.278 286.899 438.325C288.079 440.592 287.89 442.151 286.191 444.277C278.262 454.009 268.775 461.662 257.354 467C249.85 470.496 242.062 471.724 233.897 470.591C223.42 469.126 212.848 469.079 202.276 468.795C194.111 468.559 185.899 468.606 177.875 466.764C176.412 466.433 174.902 466.15 173.675 465.394C167.822 461.851 161.357 460.292 154.843 458.591C152.436 457.93 149.982 457.268 148 455.001C149.557 453.867 151.209 454.387 152.672 454.576C160.885 455.568 169.002 454.528 177.12 453.631C185.993 452.592 192.223 447.867 197.226 440.923C199.586 437.616 201.001 433.837 202.323 430.057C205.957 419.617 210.488 409.602 216.718 400.39C219.219 396.705 222.381 393.918 226.676 392.501C231.207 390.989 235.313 388.816 239.372 386.17C243.808 383.289 249.189 382.06 254.522 381.116C263.253 379.604 271.418 376.58 278.97 371.856C281.424 370.297 283.217 368.219 284.68 365.715C288.692 359.007 297.423 358.062 302.898 363.636C306.58 367.463 308.751 372.14 309.789 377.383Z" fill="#13751E"/>
<path d="M285.906 257.58C290.066 272.027 292.051 286.756 290.444 302.003C288.648 318.614 285.481 334.849 281.133 350.895C279.195 358.048 275.744 364.354 272.105 370.706C270.64 373.247 268.371 374.706 265.582 375.741C258.445 378.33 250.788 378.988 243.368 382C243.415 379.835 244.644 378.706 245.589 377.53C251.923 369.671 256.177 360.589 259.816 351.413C262.368 345.013 264.306 338.237 266.717 331.743C267.331 330.096 267.662 328.402 268.985 326.99C270.12 325.766 270.072 323.978 270.12 322.331C270.451 308.496 270.687 294.615 267.52 281.109C263.739 265.015 255.09 252.31 240.201 243.746C232.639 239.416 225.218 236.687 216.568 237.628C214.3 237.863 213.354 236.875 213.307 234.616C213.165 228.311 210.66 222.805 207.021 217.77C205.366 215.464 203.429 213.299 200.404 212.829C198.844 212.594 198.466 211.652 198.371 210.382C197.851 202.759 194.685 195.747 192.841 188.406C190.667 179.701 184.05 169.019 178 163.089C184.901 162.76 191.045 163.278 196.953 165.725C207.163 169.96 217.041 174.76 225.738 181.724C231.457 186.242 237.365 190.524 243.32 194.759C255.704 203.559 264.684 215.229 272.389 228.123C278.155 237.393 282.929 247.181 285.906 257.58Z" fill="#ED7B3B"/>
<path d="M264.213 281.417C266.145 289.956 267.088 298.73 266.994 307.599C266.805 311.75 266.475 315.901 266.428 320.1C266.428 322.364 264.873 323.921 264.496 325.949C262.092 338.545 255.023 349.3 250.405 361.047C247.766 367.792 243.619 373.925 240.179 380.341C237.869 384.633 234.146 387.322 229.669 388.832C223.119 391.049 217.652 394.54 213.694 400.342C213.222 401.05 212.421 401.616 211.714 402.088C202.43 408.22 192.628 412.891 181.129 412.985C174.437 413.032 167.84 413.079 161.242 411.287C157.283 410.202 153.042 409.919 148.942 409.494C146.821 409.258 144.748 408.928 143.004 407.749C136.171 403.078 128.442 399.635 122.834 393.172C120.478 390.483 117.509 388.455 114.304 386.803C110.817 385.011 108.13 382.558 105.868 379.208C100.873 371.802 96.0661 364.302 90.8351 357.084C80.4673 342.885 74.5293 326.798 71.2776 309.627C69.0627 297.787 67.319 285.804 68.2615 273.681C69.6753 255.189 74.6707 237.593 83.8603 221.507C88.6201 213.157 93.7569 204.901 100.025 197.495C103.795 193.014 108.366 189.428 112.655 185.513C122.08 176.88 132.73 170.276 144.512 165.275C152.9 161.69 161.336 161.077 170.102 163.294C171.563 163.672 172.882 164.332 174.06 165.228C179.244 169.332 183.721 174.05 186.313 180.324C188.905 186.645 191.308 193.061 192.675 199.807C193.429 203.533 193.523 207.213 193.146 210.893C193.005 212.496 192.958 214.195 190.837 214.761C189.706 215.091 189.895 215.94 190.507 216.836C193.288 220.893 190.366 223.582 186.69 223.535C183.58 223.488 180.469 223.582 177.359 222.969C172.081 221.931 167.086 222.733 162.137 224.856C151.864 229.196 142.721 234.857 134.898 243.018C126.227 252.122 122.221 262.925 120.949 275.096C120.006 284.248 120.525 293.211 123.824 301.891C125.143 305.382 124.766 308.92 124.342 312.505C124.012 315.147 123.729 317.835 123.918 320.524C124.201 324.911 126.086 327.129 130.374 326.657C135.746 326.044 138.81 327.553 139.799 333.167C140.271 335.761 142.109 336.469 144.606 335.29C147.34 333.969 150.214 333.45 153.136 332.884C157.425 332.035 160.771 329.959 163.174 326.138C168.169 318.213 173.872 310.759 180.092 303.73C184.899 298.305 187.774 291.701 190.46 285.097C192.722 279.578 194.749 274.011 196.869 268.445C198.802 263.255 200.027 257.925 199.791 252.311C199.697 250.518 199.791 248.726 199.886 246.933C200.121 242.499 201.252 241.084 205.776 240.706C213.034 240.14 220.338 240.565 227.596 240.942C228.161 240.989 228.774 241.178 229.292 241.414C247.106 249.292 259.783 261.982 264.213 281.417Z" fill="#FBB15B"/>
<path d="M209.562 230.018C212.01 236.588 211.86 236.783 204.915 237.757C204.466 237.805 203.966 237.951 203.516 238C202.517 237.221 203.267 236.248 203.317 235.42C203.417 234.204 203.816 233.425 205.415 234.252C207.313 235.274 208.063 234.009 208.013 232.403C207.963 230.796 207.513 229.19 207.164 227C209.062 227.925 209.212 229.044 209.562 230.018Z" fill="#ED7B3B"/>
<path d="M195.097 232.605C197.08 234.351 197.033 236.098 196.986 237.75C196.844 243.555 196.608 249.36 196.419 255.165C196.278 259.224 195.05 263.047 193.681 266.869C193.445 267.53 193.162 268.474 192.595 268.757C189.149 270.504 188.158 274.232 185.939 276.875C181.266 282.491 176.167 287.683 170.455 292.261C169.369 293.11 167.811 293.441 166.301 294.102C167.67 296.037 169.18 295.565 170.644 294.762C172.768 293.63 174.515 291.978 176.214 290.326C180.274 286.409 184.334 282.491 188.677 278.763C186.128 286.597 183.201 294.338 177.772 300.615C171.257 308.213 165.168 316.095 159.739 324.496C157.992 327.233 155.537 328.555 152.516 329.215C149.212 329.971 145.765 330.207 142.98 332C141.281 330.773 141.375 329.121 140.809 327.8C139.298 324.26 137.504 323.033 133.586 323.033C132.83 323.033 132.122 323.127 131.367 323.127C126.93 323.222 125.797 322.466 126.41 317.983C127.638 309.063 126.788 300.52 123.672 292.119C121.642 273.996 123.672 257.194 137.268 243.224C145.529 234.776 155.349 229.254 166.159 225.148C168.708 224.204 171.399 223.732 174.09 224.157C178.386 224.912 182.682 224.771 187.025 224.771C187.45 224.771 187.922 224.771 188.347 224.818C190.14 224.959 192.501 224.818 192.879 226.8C193.256 228.829 194.389 231.425 191.887 233.266C191.321 233.691 190.801 234.399 190.66 235.059C189.952 239.024 186.883 240.534 183.673 241.808C182.965 242.092 182.21 242.28 181.643 242.658C180.982 243.083 180.652 243.838 181.124 244.593C181.549 245.301 182.21 245.678 183.012 245.159C187.827 241.903 194.2 240.251 195.097 232.605ZM187.686 262.905C188.111 262.244 188.724 261.206 187.497 260.687C186.647 260.309 186.128 261.112 185.797 261.772C184.051 265.123 181.36 267.719 178.811 270.409C175.884 273.43 172.627 276.167 169.086 278.81C168.756 276.875 170.125 276.073 170.455 274.846C170.597 274.279 170.785 273.666 170.219 273.241C169.464 272.675 168.756 273.005 168.236 273.571C167.528 274.326 166.962 275.223 166.348 276.026C164.129 279.046 161.674 281.783 158.795 284.19C158.087 284.804 157.378 285.795 156.151 285.182C155.16 283.813 157.615 282.869 156.529 281.547C155.16 281.075 154.64 282.114 154.168 283.01C153.366 284.521 152.894 286.173 154.31 287.541C155.679 288.863 157.19 288.06 158.37 287.211C160.069 286.031 161.58 284.568 163.185 283.246C164.082 282.491 164.696 281.359 166.206 281.972C168.331 282.822 169.936 281.642 171.494 280.462C173.146 279.188 174.609 277.725 176.356 276.545C181.502 273.052 184.476 267.861 187.686 262.905ZM183.39 236.664C184.334 236.192 185.467 235.626 185.137 234.115C183.059 234.021 181.879 235.201 180.605 236.145C177.867 238.221 178.103 239.449 181.832 241.431C180.51 239.024 181.407 237.702 183.39 236.664ZM182.587 254.315C183.39 254.032 184.523 253.702 184.192 252.616C183.72 251.2 182.493 251.72 181.549 252.097C179.472 252.947 177.442 253.891 175.412 254.787C174.043 255.401 172.721 256.014 171.305 256.581C170.644 256.817 169.605 257.147 169.322 256.25C168.142 252.569 166.537 254.693 165.357 256.062C162.146 259.696 158.559 262.669 154.216 264.887C153.413 265.312 152.516 265.926 153.13 266.917C153.649 267.813 154.688 267.719 155.49 267.153C156.576 266.398 157.567 265.501 158.7 264.746C159.644 264.085 160.636 263.235 161.958 264.038C164.129 264.698 165.545 263.235 167.103 262.15C168.567 261.112 169.652 259.554 171.446 259.129C175.459 258.091 178.763 255.542 182.587 254.315ZM175.223 240.864C175.789 239.921 176.073 238.646 175.27 237.986C173.335 236.428 173.854 235.154 175.27 233.691C175.648 233.266 175.695 232.558 175.176 232.086C174.704 231.661 174.043 231.614 173.523 231.944C172.627 232.511 171.824 233.124 171.021 233.738C167.245 236.617 163.468 239.496 159.692 242.375C158.323 243.413 156.954 244.168 155.254 243.083C153.177 241.808 151.194 242.375 149.448 243.649C145.86 246.292 142.319 248.935 138.873 251.814C136.938 253.419 135.427 255.542 134.766 258.044C134.152 260.451 135.333 261.914 137.693 261.867C139.204 261.725 140.573 261.112 141.847 260.309C144.491 258.61 147.087 256.864 149.117 254.504C154.263 248.605 161.013 244.735 167.292 240.251C169.18 238.929 171.871 237.938 173.571 241.242C173.854 241.997 174.751 241.62 175.223 240.864ZM160.919 302.078C161.344 301.653 161.674 301.087 161.344 300.52C160.966 299.859 160.353 299.907 159.786 300.19C158.228 301.039 157.851 300.851 158.039 298.916C158.228 297.405 156.812 297.311 155.915 298.113C155.065 298.868 154.404 299.954 153.838 300.945C152.469 303.446 150.581 305.476 148.031 307.552C147.795 306.042 148.503 305.617 148.834 305.004C149.212 304.343 149.448 303.541 148.551 303.116C147.984 302.833 147.418 303.21 147.04 303.73C146.001 305.193 145.104 306.75 144.68 308.496C144.444 309.393 144.491 310.337 145.341 310.903C146.19 311.47 147.087 311.139 147.843 310.62C148.928 309.865 150.014 309.063 150.958 308.119C152.752 306.373 154.357 304.485 157.237 304.343C158.606 304.296 159.88 303.163 160.919 302.078ZM159.644 316.803C160.164 316.142 160.117 315.387 159.031 315.293C158.511 315.245 157.756 315.812 157.473 315.057C156.529 312.225 155.207 313.641 153.98 314.726C152.422 316.095 150.864 317.464 149.353 318.879C147.229 320.862 145.01 321.994 142.225 320.107C141.753 319.776 141.139 319.587 140.573 319.54C139.817 319.446 139.109 319.682 138.779 320.484C138.401 321.334 138.826 321.947 139.487 322.372C140.997 323.41 142.838 323.41 144.68 323.882C145.577 323.646 146.71 323.599 147.559 323.08C149.589 321.853 151.525 321.003 154.027 320.815C156.245 320.673 158.134 318.691 159.644 316.803ZM146.237 291.978C146.71 291.175 146.804 290.232 146.19 289.476C145.435 288.532 144.396 288.627 143.358 288.957C141.045 289.76 139.345 291.411 137.74 293.205C137.079 293.96 136.135 294.715 136.654 295.895C137.221 297.122 138.495 297.217 139.723 297.547C142.744 296.745 144.68 294.574 146.237 291.978ZM142.319 307.222C142.838 306.184 143.452 304.957 142.603 303.918C141.658 302.738 140.478 303.541 139.392 303.918C136.796 304.909 134.2 306.373 131.603 303.824C131.273 303.494 130.753 303.635 130.423 303.966C129.951 304.485 130.045 305.051 130.376 305.57C131.509 307.269 133.255 307.411 135.097 307.411C136.796 307.411 139.109 306.137 139.109 309.44C139.109 309.582 139.534 309.771 139.817 309.959C141.47 309.818 141.753 308.355 142.319 307.222ZM139.534 276.167C139.77 275.459 139.912 274.657 139.251 274.138C138.495 273.619 137.882 274.09 137.315 274.657C136.56 275.365 135.899 276.214 135.049 276.781C133.114 278.055 131.65 277.205 131.414 274.94C131.32 273.949 132.5 273.099 131.698 272.108C130.942 271.872 130.47 272.203 130.187 272.722C128.582 275.79 129.856 278.668 133.303 279.376C134.436 279.612 135.38 279.471 135.946 281.028C137.315 284.757 138.071 284.898 142.697 282.916C138.165 281.311 138.165 281.311 139.298 277.064C139.345 276.733 139.44 276.45 139.534 276.167Z" fill="black"/>
<path d="M188.272 261.095C189.506 261.604 188.889 262.621 188.462 263.269C185.234 268.124 182.243 273.21 177.068 276.54C175.311 277.649 173.839 279.129 172.178 280.378C170.611 281.534 168.997 282.736 166.86 281.857C165.341 281.256 164.676 282.366 163.822 283.106C162.208 284.401 160.688 285.834 158.979 286.99C157.792 287.822 156.273 288.608 154.896 287.314C153.472 285.973 153.994 284.354 154.754 282.875C155.229 282.042 155.751 280.979 157.128 281.441C158.172 282.782 155.751 283.661 156.748 285.002C157.982 285.603 158.694 284.632 159.406 284.031C162.303 281.672 164.819 278.99 167.003 276.031C167.62 275.199 168.19 274.366 168.902 273.627C169.424 273.072 170.136 272.748 170.896 273.303C171.466 273.765 171.276 274.32 171.133 274.875C170.753 276.077 169.377 276.91 169.756 278.759C173.365 276.17 176.593 273.488 179.536 270.528C182.1 267.893 184.854 265.396 186.563 262.067C186.848 261.512 187.37 260.726 188.272 261.095Z" fill="#ED7B3B"/>
<path d="M184.945 234.005C185.254 235.449 184.197 235.991 183.316 236.442C181.467 237.435 180.631 238.698 181.863 241C178.385 239.105 178.165 237.931 180.719 235.946C181.907 235.043 183.008 233.915 184.945 234.005Z" fill="#ED7B3B"/>
<path d="M183.926 252.955C184.301 254.053 183.176 254.435 182.333 254.674C178.54 255.915 175.261 258.445 171.374 259.448C169.594 259.925 168.47 261.453 167.065 262.503C165.519 263.601 164.114 265.128 161.96 264.412C160.648 263.601 159.665 264.46 158.728 265.128C157.651 265.892 156.667 266.799 155.543 267.563C154.747 268.136 153.717 268.231 153.202 267.324C152.593 266.274 153.483 265.701 154.279 265.272C158.541 263.028 162.147 260.02 165.332 256.345C166.503 255.008 168.095 252.812 169.266 256.536C169.547 257.443 170.578 257.108 171.233 256.87C172.592 256.345 173.95 255.676 175.308 255.056C177.322 254.149 179.336 253.194 181.397 252.335C182.24 252.048 183.457 251.523 183.926 252.955Z" fill="#ED7B3B"/>
<path d="M175.49 238.275C176.288 238.933 176.053 240.201 175.444 241.14C174.974 241.892 174.083 242.268 173.707 241.469C172.018 238.181 169.344 239.168 167.467 240.483C161.227 244.945 154.517 248.797 149.403 254.668C147.339 257.017 144.758 258.755 142.178 260.446C140.911 261.244 139.597 261.855 138.049 261.996C135.75 262.09 134.577 260.634 135.14 258.191C135.75 255.655 137.298 253.588 139.222 251.991C142.6 249.173 146.166 246.542 149.732 243.865C151.515 242.549 153.485 242.033 155.503 243.301C157.239 244.334 158.552 243.63 159.913 242.596C163.667 239.731 167.42 236.866 171.174 234.001C172.018 233.39 172.816 232.732 173.661 232.216C174.177 231.887 174.834 231.934 175.303 232.357C175.866 232.826 175.772 233.531 175.397 233.954C174.036 235.457 173.567 236.678 175.49 238.275ZM141.192 254.058C141.662 253.635 142.553 253.494 142.459 252.601C142.459 252.461 141.99 252.226 141.802 252.273C141.145 252.554 140.535 252.977 140.489 253.776C140.489 254.105 140.817 254.198 141.192 254.058ZM140.348 258.99C139.879 258.144 139.081 258.849 138.471 258.567C137.908 258.332 137.251 258.379 137.392 259.271C137.486 259.741 137.955 259.882 138.424 259.835C139.128 259.835 139.879 259.788 140.348 258.99Z" fill="#ED7B3B"/>
<path d="M161.856 301.011C162.188 301.643 161.904 302.177 161.431 302.614C160.389 303.682 159.111 304.896 157.691 304.945C154.804 305.091 153.195 307.033 151.397 308.83C150.45 309.801 149.362 310.627 148.273 311.404C147.516 311.938 146.616 312.278 145.764 311.695C144.913 311.112 144.913 310.141 145.102 309.218C145.528 307.422 146.427 305.819 147.468 304.314C147.847 303.779 148.415 303.391 148.983 303.682C149.835 304.119 149.646 304.945 149.267 305.625C148.936 306.256 148.226 306.693 148.462 308.247C151.065 306.159 152.911 304.071 154.284 301.448C154.852 300.38 155.514 299.312 156.366 298.535C157.313 297.66 158.685 297.806 158.496 299.36C158.307 301.351 158.685 301.497 160.247 300.671C160.815 300.38 161.478 300.331 161.856 301.011Z" fill="#ED7B3B"/>
<path d="M159.08 314.764C160.148 314.854 160.195 315.574 159.684 316.204C158.198 317.959 156.341 319.895 154.112 320.075C151.651 320.255 149.747 321.065 147.75 322.235C146.914 322.73 145.8 322.775 144.918 323C143.107 322.55 141.296 322.595 139.81 321.56C139.206 321.155 138.788 320.525 139.113 319.76C139.438 318.994 140.135 318.769 140.878 318.859C141.435 318.904 142.039 319.085 142.503 319.4C145.243 321.2 147.425 320.075 149.515 318.229C151.001 316.879 152.533 315.574 154.065 314.269C155.273 313.234 156.573 311.884 157.502 314.584C157.827 315.259 158.57 314.719 159.08 314.764Z" fill="#ED7B3B"/>
<path d="M146.574 289.766C147.181 290.537 147.087 291.548 146.621 292.318C145.127 295.015 143.168 297.181 140.181 298C138.968 297.663 137.661 297.567 137.148 296.315C136.635 295.111 137.568 294.341 138.221 293.57C139.761 291.741 141.441 290.055 143.774 289.237C144.754 288.9 145.827 288.803 146.574 289.766Z" fill="#ED7B3B"/>
<path d="M143.544 303.663C144.444 304.752 143.829 306.039 143.26 307.129C142.692 308.317 142.408 309.851 140.75 310C140.466 309.802 140.04 309.653 140.04 309.455C140.04 305.94 137.672 307.277 136.014 307.327C134.167 307.327 132.415 307.178 131.279 305.396C130.947 304.851 130.852 304.257 131.326 303.713C131.657 303.316 132.178 303.217 132.51 303.564C135.067 306.237 137.719 304.703 140.324 303.663C141.413 303.217 142.597 302.425 143.544 303.663Z" fill="#ED7B3B"/>
<path d="M139.603 274.121C140.301 274.633 140.115 275.376 139.882 276.12C139.789 276.399 139.696 276.677 139.65 276.956C138.533 281.139 138.533 281.139 143 282.719C138.486 284.718 137.742 284.578 136.346 280.86C135.788 279.327 134.857 279.513 133.74 279.234C130.39 278.49 129.087 275.701 130.669 272.681C130.948 272.169 131.414 271.844 132.158 272.076C132.949 273.052 131.786 273.889 131.879 274.865C132.112 277.142 133.601 277.932 135.462 276.677C136.299 276.12 136.951 275.283 137.695 274.586C138.254 274.075 138.905 273.61 139.603 274.121Z" fill="#ED7B3B"/>
</svg>
