<svg width="600" height="600" viewBox="0 0 600 600" fill="none" xmlns="http://www.w3.org/2000/svg">
<path d="M300 371C304.561 366.754 306.667 366.148 312 367.967C307.579 369.719 304.07 370.461 300 371Z" fill="#FDAE37"/>
<path d="M346.857 367.657C347.472 369.767 345.968 370.107 344.942 370.788C340.292 373.783 334.821 375.417 330.65 379.365C329.488 380.522 327.983 379.909 326 379.024C328.393 377.118 330.377 375.621 332.36 374.055C333.385 373.238 334.958 372.694 335.3 371.673C337.625 365.206 342.412 367.18 346.857 367.657Z" fill="#FDAE37"/>
<path d="M307 374.654C313.63 372.724 319.575 373.069 326 373C321.147 379.136 316.568 379.549 307 374.654Z" fill="#FDAE37"/>
<path d="M324.795 383.392C324.863 383.864 324.932 384.336 325 384.808C317.47 386.561 309.872 388.247 302.342 390C302.205 389.595 302.137 389.123 302 388.719C309.735 387.37 316.238 381.436 324.795 383.392Z" fill="#FDAE37"/>
<path d="M351 377C347.115 384.295 341.936 388.013 336.348 391.309C336.007 391.52 335.462 391.871 335.189 391.8C326.193 388.854 318.083 394.326 309.428 394.676C307.316 394.746 305.203 395.518 302 394.396C310.451 392.362 317.947 390.608 325.444 388.854C329.124 387.942 333.281 388.153 335.189 383.594C335.462 382.962 336.62 382.612 337.37 382.401C341.732 381.279 345.684 379.034 351 377Z" fill="#FDAE37"/>
<path d="M414.097 317.7C418.558 331.381 421.372 345.338 420.96 359.775C420.754 368.85 421.029 377.994 420.068 387C417.94 406.044 411.626 423.575 398.93 438.425C398.244 439.25 397.763 440.281 396.734 442C395.224 438.562 396.665 436.981 397.146 435.4C401.607 419.45 404.283 403.294 402.224 386.656C400.508 372.769 394.812 361.494 381.224 355.375C377.174 353.588 377.174 352.625 379.919 349.256C385.89 341.831 391.861 334.406 397.763 326.981C401.812 321.894 404.42 315.913 406.96 310C411.078 311.306 412.93 314.056 414.097 317.7Z" fill="#FDAE37"/>
<path d="M361.843 361.631C365.757 364.923 366.106 366.938 362.472 370.701C360.865 372.38 358.838 373.589 357.021 375C355.274 374.798 356.182 372.985 355.413 372.649C352.688 371.507 351.36 370.365 351.779 366.804C352.059 364.117 347.865 364.318 345 363.243C349.752 361.161 353.946 359.011 358.978 360.489C359.956 360.758 360.935 360.825 361.843 361.631Z" fill="#FDAE37"/>
<path d="M345.176 351.169C347.213 354.27 345.244 359.644 341.78 360.884C336.142 362.951 330.437 364.674 324.528 365.57C321.2 366.052 317.804 366.603 314 364.329C323.713 358.06 335.803 357.784 343.07 348C344.293 348.276 344.429 350.067 345.176 351.169Z" fill="#FDAE37"/>
<path d="M300.692 375.927C302.876 378.972 306.426 379.526 311 381.394C305.948 383.608 302.603 385.269 297.825 384.3C290.862 382.847 283.762 384.784 276.799 385.891C275.98 386.03 275.161 386.168 274 385.407C281.509 382.086 288.95 378.764 296.528 375.581C297.825 375.028 299.6 374.474 300.692 375.927Z" fill="#FDAE37"/>
<path d="M313.854 396.033C315.698 395.765 317.473 394.895 320 395.966C313.581 399.449 307.298 402.196 300.332 402.464C288.517 402.932 276.635 402.932 264.888 403.937C259.562 404.406 257.581 402.263 257.035 397.038C256.83 394.961 257.513 393.823 259.562 393.421C266.049 391.947 272.332 389.804 279.844 389C276.771 392.684 273.152 393.488 269.737 394.694C268.371 395.162 266.391 395.497 266.664 397.373C266.937 399.784 269.191 399.248 270.761 399.181C285.171 398.646 299.581 398.244 313.854 396.033Z" fill="#FDAE37"/>
<path d="M284.824 371C285.17 371 285.585 371.272 286 371.408C285.378 375.417 282.68 377.387 279.015 378.882C271.546 381.804 264.146 384.929 257.368 389.21C255.847 390.161 254.671 390.501 253.634 388.802C252.596 387.172 250.937 386.016 250.314 384.114C249.692 382.007 249.83 380.309 252.251 379.425C262.832 375.688 273.344 371.544 284.824 371Z" fill="#FDAE37"/>
<path d="M306.73 355.505C307.403 356.559 306.663 357.192 306.191 357.824C304.777 359.652 305.787 362.955 303.094 364.01C298.987 365.626 295.418 368.649 290.571 367.876C287.474 367.384 284.242 367.805 280 367.805C286.329 362.815 293.129 360.284 297.91 354.872C298.92 353.747 300.401 353.747 301.411 354.661C303.094 356.207 305.047 355.012 306.73 355.505Z" fill="#FDAE37"/>
<path d="M299.331 345.755C308.657 343.906 317.982 342.331 327.582 343.29C330.393 343.564 333.136 344.112 335.742 345.207C338.622 346.509 338.759 348.084 336.085 349.727C333.89 351.097 331.491 352.193 329.091 353.083C323.125 355.343 317.365 358.288 310.714 360C310.988 357.74 311.948 357.192 312.771 356.507C316.954 352.946 317.159 351.85 314.417 347.262C313.594 345.892 312.428 345.687 311.125 345.687C307.285 345.755 303.308 345.139 299.811 347.536C298.851 348.221 297.891 348.289 297 347.536C297.137 345.824 298.44 345.961 299.331 345.755Z" fill="#FDAE37"/>
<path d="M337 341.454C331.583 339.746 325.686 340.429 320.406 337.765C318.623 336.877 316.634 337.014 314.646 337.082C306.486 337.492 298.257 337.902 290.097 338.38C289 338.448 287.903 338.448 286.943 338.926C285.434 339.609 285.16 341.386 286.737 341.727C291.88 342.752 291.88 347.67 294.074 350.881C295.583 353.067 293.8 355.595 291.469 354.638C288.726 353.477 286.943 354.57 284.817 355.526C278.097 358.6 271.857 362.084 266.371 367.208C262.189 371.033 257.526 374.722 251.766 376.498C249.914 377.045 247.994 377.728 247.171 379.777C245.731 383.466 243.743 381.827 241 380.119C249.64 374.244 255.743 367.344 261.983 360.445C268.223 353.545 274.394 346.714 281.114 340.293C291.606 330.182 303.88 327.928 317.663 331.753C325.137 333.666 332.611 337.355 337 341.454Z" fill="#FDAE37"/>
<path d="M402.711 297.083C405.045 300.582 405.594 304.218 404.358 308.197C402.917 312.999 400.926 317.596 397.906 321.575C391.865 329.533 385.618 337.217 379.44 345.038C374.91 350.733 369.487 352.997 362.348 350.184C359.945 349.223 357.405 348.743 354.865 348.194C350.884 347.371 347.452 345.93 345.529 342.02C344.98 340.922 343.882 339.961 342.852 339.207C329.947 330.7 316.218 324.662 300.224 326.72C294.32 327.475 289.103 330.082 284.298 333.581C279.767 336.943 275.855 340.991 272.011 345.175C266.588 351.076 261.233 357.044 255.879 363.013C249.632 370.011 242.905 376.391 234.324 380.508C233.569 380.851 232.745 381.262 232.128 381.811C231.716 382.223 231.304 382.909 231.304 383.458C231.373 384.418 232.196 384.898 233.089 384.967C233.912 385.036 234.805 385.104 235.629 384.967C245.033 383.526 251.142 387.299 253.614 396.218C256.909 408.293 257.458 408.567 270.226 407.675C276.472 407.195 282.788 407.264 289.034 407.127C290.339 407.127 292.055 406.784 292.879 407.47C296.585 410.763 300.155 408.636 303.725 407.47C308.736 405.892 313.884 405.068 319.033 405C329.055 404.863 337.635 401.432 344.912 394.64C349.03 390.798 352.6 386.202 357.199 383.115C364.064 378.587 368.594 372 374.223 366.375C376.351 364.248 378.479 361.984 377.724 357.868C391.385 363.013 396.945 372.892 398.661 385.104C401.064 402.53 398.455 419.613 393.169 436.353C392.483 438.617 391.453 440.812 390.835 443.076C388.158 453.573 380.539 459.13 371.065 462.835C368.663 463.795 366.054 464.413 363.858 465.716C353.836 471.822 342.646 474.155 331.251 475.801C328.025 476.281 324.73 476.556 321.71 477.516C311.07 480.878 300.43 480.261 289.584 478.957C270.432 476.693 253.339 469.489 237.345 459.061C232.677 456.043 229.244 452.063 226.567 447.124C220.87 436.696 214.829 426.405 209.131 415.977C203.571 405.892 200.825 395.189 201.374 383.595C201.718 376.734 200.825 369.805 201.031 362.876C201.443 346.685 205.15 331.591 215.172 318.488C216.751 316.43 218.261 314.303 219.497 312.039C230.823 291.937 247.847 277.942 267.617 266.827C280.042 259.83 293.016 254.753 307.637 255.508C307.843 255.508 308.049 255.508 308.255 255.508C323.494 253.724 337.841 256.742 351.776 262.986C354.934 264.358 358.366 265.044 361.661 266.004C368.182 267.857 374.223 270.669 379.509 274.992C380.813 276.089 382.186 277.324 383.696 278.01C392.757 281.852 397.7 289.536 402.711 297.083Z" fill="#FFCC80"/>
<path d="M111.872 254.477C112.285 260.399 112.01 260.949 106.235 262.464C103.966 263.015 102.248 264.117 100.941 265.907C96.1291 272.38 93.4479 279.541 94.3416 287.804C94.8228 292.211 96.129 295.929 102.11 295.86C100.46 301.644 98.8102 306.396 96.4728 310.734C94.2729 314.865 90.0105 315.209 87.9481 311.009C85.2669 305.638 82.9983 299.785 87.8106 294.139C88.2231 293.657 88.7044 292.968 88.7044 292.417C88.4981 285.256 91.1105 278.37 90.5605 271.209C89.7355 260.536 93.5854 251.654 100.735 244.217C104.104 240.705 107.197 241.463 109.603 245.801C111.116 248.486 111.666 251.447 111.872 254.477Z" fill="#FDAE37"/>
<path d="M471.997 188.242C472.135 197.726 467.44 204.974 460.534 211.003C459.706 211.681 458.877 212.358 457.979 212.968C457.289 213.442 456.529 213.781 454.181 215C455.701 210.665 456.874 207.684 457.772 204.703C458.67 201.858 459.084 199.013 457.979 195.897C455.839 190.139 455.977 190.274 450.038 192.713C447.138 193.932 443.893 194.136 441.2 196.236C440.302 196.913 438.507 196.032 439.128 194.203C439.75 192.374 440.578 190.681 441.407 188.92C442.719 186.074 445.964 183.907 443.616 179.842C442.719 178.216 444.859 176.387 446.586 175.371C452.386 172.052 458.325 172.458 464.125 175.1C469.718 177.674 471.928 182.552 471.997 188.242Z" fill="#FDAE37"/>
<path d="M525.216 187.47C537.075 205.6 544.068 225.303 539.68 247.538C538.446 253.901 537.624 260.332 536.664 266.694C535.978 271.415 535.087 276.067 534.676 280.788C533.716 290.844 530.426 300.149 525.627 308.906C520.965 317.458 515.413 325.462 509.106 332.919C500.674 342.839 490.596 350.297 478.051 354.401C469.482 357.206 461.462 361.79 452.344 363.227C443.432 364.664 434.452 365.895 426.226 370C424.923 367.127 425.54 364.732 425.608 362.406C426.157 346.671 423.552 331.483 418.616 316.568C416.148 309.043 411.144 303.159 407.031 296.728C405.18 293.855 402.986 291.118 401.135 288.245C397.913 283.251 393.869 279.214 388.522 276.409C385.848 275.041 383.449 273.125 381.049 271.278C376.182 267.515 370.903 264.71 365.008 263C355.273 260.126 345.539 257.185 336.284 253.08C332.857 251.575 329.223 251.233 325.453 251.301C318.324 251.438 311.194 251.369 304.064 251.506C300.774 251.575 299.677 250.412 299.403 247.059C296.798 216.615 307.012 189.865 324.562 165.988C335.873 150.526 351.503 139.17 368.436 130.139C379.473 124.255 391.743 122.545 404.014 120.835C406.619 120.493 409.156 120.219 411.761 120.082C419.782 119.603 427.185 121.177 433.835 125.966C442.472 132.191 450.219 139.101 457.006 147.448C464.341 156.479 473.801 162.841 486.141 163.799C503.142 165.03 516.167 173.719 525.216 187.47ZM456.114 218.257C468.454 212.51 476.68 198.622 475.241 185.76C474.555 179.466 471.539 174.677 465.849 171.94C457.348 167.767 445.42 168.041 438.154 178.508C433.972 184.597 430.544 191.165 431.847 197.938C431.847 200.537 431.778 202.043 431.847 203.548C432.258 209.705 434.52 214.768 440.142 218.051C447.545 222.225 447.477 222.225 456.114 218.257Z" fill="#FDAE37"/>
<path d="M286.734 250.106C287.488 253.122 286.666 254.355 283.924 255.315C269.05 260.455 256.301 269.433 243.552 278.411C236.766 283.14 231.008 289.035 226.347 295.888C220.315 304.592 214.558 313.502 208.594 322.206C201.945 331.938 198.998 342.904 198.176 354.487C197.696 361.135 197.49 367.851 197.01 374.568C196.462 381.558 192.349 385.396 185.289 385.67C180.971 385.808 176.653 385.67 171.444 385.67C156.775 387.384 142.381 382.038 127.85 378.337C120.584 376.487 113.661 372.1 107.355 367.44C102.009 363.465 96.7996 359.353 90.425 356.817C85.5584 354.898 81.8571 350.923 78.8412 346.673C65.955 328.443 57.7982 308.499 58.0038 285.813C58.0038 283.003 57.9352 280.193 58.8263 277.452C66.1605 253.739 75.4825 231.053 93.2354 212.891C109.549 196.168 129.221 185.202 151.84 180.199C164.864 177.321 178.367 175.813 191.733 176.019C212.433 176.43 232.311 181.09 251.229 189.726C261.099 194.249 268.022 201.788 273.094 211.109C279.674 223.308 283.307 236.673 286.734 250.106ZM114.758 265.39C116.06 258.81 116.197 252.094 113.181 245.72C109.343 237.633 103.037 236.467 96.7996 242.841C91.3846 248.393 87.8889 255.109 86.6551 262.717C84.8044 274.436 83.5707 286.225 82.0627 297.944C82.2683 302.056 82.2683 306.169 83.7077 310.144C85.4898 315.078 88.917 318.025 92.9611 318.025C97.5535 317.957 99.0616 314.324 100.432 310.966C106.533 296.231 111.605 281.084 114.758 265.39Z" fill="#FDAE37"/>
<path d="M524.338 179.46C538.389 196.665 546.271 216.681 544.832 239.369C544.215 249.034 542.09 258.63 540.651 268.227C540.034 272.477 539.417 276.795 538.869 281.045C535.236 308.737 520.088 329.781 499.8 347.671C494.248 352.538 487.6 355.759 480.54 358.159C470.944 361.38 461.965 366.384 451.752 367.892C447.914 368.44 444.076 369.126 440.237 369.811C436.81 370.428 433.657 371.731 430.504 373.239C426.803 374.952 425.364 377.42 425.09 381.738C423.787 404.358 416.522 424.853 401.306 441.99C396.576 447.268 392.121 452.82 386.775 457.618C381.497 462.279 375.054 464.678 369.023 467.9C354.766 475.577 339.344 477.839 323.991 481.335C290.131 489.012 260.453 479.484 232.762 460.703C229.129 458.235 226.319 454.945 224.194 451.106C218.299 440.276 212.336 429.514 206.442 418.684C201.301 409.225 198.011 399.286 197.874 388.387C197.874 387.565 197.6 386.742 197.326 384.686C191.774 389.415 185.948 389.141 180.122 389.621C162.232 391.266 145.303 386.742 128.441 382.149C119.942 379.887 112.266 374.952 105.137 369.674C100.271 366.041 95.5415 362.408 89.921 359.941C84.5063 357.542 80.0511 353.566 76.5554 348.836C62.7786 330.123 54.3478 309.423 54.0051 285.843C53.9366 281.456 54.5535 277.206 55.9243 273.094C59.6256 261.989 63.464 251.022 68.6731 240.534C84.7804 207.975 111.1 187.754 145.165 176.856C150.786 175.073 156.612 174.731 162.37 174.045C172.034 172.88 181.698 171.852 191.431 171.372C198.559 171.029 205.688 172.126 212.679 173.497C225.154 175.965 237.56 178.843 249.417 183.779C263.126 189.537 272.516 199.407 278.89 212.499C284.099 223.261 287.115 234.777 290.542 246.155C291.159 248.28 290.748 252.187 293.284 251.982C297.328 251.639 295.614 247.595 295.614 245.058C295.751 237.93 294.86 230.732 296.163 223.672C302.194 191.936 315.08 164.038 341.126 143.542C348.803 137.51 356.342 131.341 365.116 127.023C382.32 118.523 400.689 115.302 419.812 116.124C424.473 116.33 428.791 117.632 432.629 120.168C442.225 126.475 451.684 132.986 458.332 142.651C463.336 149.849 470.67 154.03 478.141 157.937C481.705 159.856 485.749 159.514 489.587 159.925C504.118 161.364 515.564 168.767 524.338 179.46ZM539.554 247.526C543.941 225.249 536.949 205.439 525.092 187.343C516.044 173.565 503.021 164.86 486.092 163.558C473.823 162.598 464.295 156.223 456.961 147.175C450.176 138.813 442.431 131.89 433.794 125.652C427.146 120.854 419.743 119.277 411.724 119.757C409.119 119.894 406.515 120.168 403.979 120.511C391.778 122.225 379.509 123.938 368.406 129.833C351.476 138.881 335.848 150.26 324.539 165.751C306.992 189.674 296.78 216.475 299.384 246.978C299.658 250.336 300.755 251.502 304.045 251.433C311.173 251.227 318.302 251.296 325.43 251.227C329.131 251.159 332.832 251.502 336.26 253.01C345.581 257.122 355.246 260.07 364.978 262.949C370.873 264.662 376.151 267.541 381.017 271.243C383.416 273.094 385.815 275.013 388.488 276.384C393.835 279.194 397.879 283.238 401.1 288.242C402.951 291.121 405.144 293.863 406.995 296.742C411.176 303.185 416.179 309.08 418.578 316.62C423.445 331.563 426.118 346.78 425.569 362.545C425.501 364.876 424.884 367.275 426.186 370.154C434.411 366.11 443.39 364.807 452.301 363.368C461.417 361.929 469.367 357.336 478.004 354.526C490.478 350.413 500.622 342.941 509.053 333.002C515.359 325.531 520.842 317.58 525.572 308.943C530.369 300.1 533.728 290.847 534.619 280.771C535.03 276.041 535.921 271.311 536.607 266.65C537.498 260.344 538.32 253.901 539.554 247.526ZM421.32 359.529C421.663 345.135 418.921 331.22 414.466 317.58C413.3 313.878 411.45 311.205 407.406 309.971C404.801 315.866 402.265 321.829 398.221 326.902C392.258 334.305 386.363 341.708 380.4 349.111C377.659 352.469 377.659 353.429 381.703 355.211C395.205 361.243 400.894 372.553 402.676 386.399C404.733 402.987 402.06 419.096 397.604 434.998C397.125 436.575 395.754 438.22 397.193 441.578C398.29 439.796 398.701 438.837 399.386 438.014C411.998 423.208 418.304 405.729 420.497 386.742C421.388 377.694 421.046 368.577 421.32 359.529ZM403.773 308.257C404.938 304.282 404.459 300.649 402.128 297.153C397.056 289.544 392.121 281.936 383.279 278.097C381.771 277.412 380.4 276.178 379.098 275.081C373.82 270.763 367.789 267.953 361.277 266.102C357.987 265.142 354.492 264.457 351.407 263.086C337.562 256.848 323.168 253.832 307.952 255.614C307.746 255.614 307.541 255.614 307.335 255.614C292.736 254.86 279.781 259.933 267.375 266.924C247.635 278.029 230.637 292.012 219.328 312.096C218.025 314.358 216.517 316.483 215.01 318.539C205.002 331.631 201.37 346.711 200.89 362.888C200.684 369.811 201.575 376.734 201.233 383.589C200.684 395.242 203.426 405.935 208.978 415.942C214.735 426.361 220.767 436.643 226.387 447.062C229.06 451.929 232.487 455.905 237.148 458.989C253.05 469.408 270.185 476.605 289.309 478.867C300.138 480.17 310.762 480.786 321.386 477.428C324.47 476.468 327.76 476.194 330.913 475.714C342.291 474.069 353.464 471.739 363.471 465.638C365.664 464.336 368.268 463.719 370.667 462.759C380.126 459.058 387.734 453.505 390.407 443.018C391.024 440.756 391.984 438.562 392.738 436.3C398.016 419.644 400.689 402.576 398.221 385.097C396.508 372.896 390.956 363.025 377.316 357.884C378.07 362.066 375.945 364.328 373.82 366.384C368.2 371.936 363.676 378.585 356.822 383.109C352.23 386.125 348.666 390.786 344.553 394.625C337.288 401.411 328.72 404.838 318.713 404.975C313.504 405.044 308.363 405.866 303.428 407.443C299.864 408.608 296.3 410.733 292.599 407.443C291.845 406.757 290.062 407.1 288.76 407.1C282.523 407.237 276.217 407.237 269.98 407.648C257.231 408.608 256.683 408.334 253.393 396.201C250.925 387.29 244.894 383.52 235.435 384.96C234.612 385.097 233.721 385.028 232.899 384.96C232.008 384.891 231.185 384.343 231.117 383.452C231.048 382.903 231.528 382.218 231.939 381.807C232.556 381.258 233.379 380.847 234.133 380.504C242.7 376.392 249.417 370.017 255.655 363.025C260.932 356.993 266.347 351.098 271.762 345.203C275.532 341.022 279.439 336.978 284.031 333.619C288.829 330.123 294.038 327.519 299.933 326.765C315.903 324.777 329.611 330.809 342.497 339.24C343.525 339.925 344.622 340.954 345.17 342.05C347.158 345.957 350.585 347.397 354.492 348.219C357.028 348.768 359.632 349.248 361.963 350.207C369.091 353.086 374.574 350.824 379.029 345.066C385.198 337.252 391.504 329.507 397.467 321.624C400.277 317.648 402.334 313.056 403.773 308.257ZM362.511 371.251C366.007 367.412 365.732 365.356 361.894 361.997C361.003 361.243 360.112 361.106 359.084 360.832C354.149 359.392 350.036 361.517 345.376 363.642C348.186 364.739 352.298 364.533 352.024 367.275C351.613 370.839 352.915 372.073 355.588 373.239C356.342 373.581 355.451 375.432 357.165 375.638C358.947 374.198 360.935 372.964 362.511 371.251ZM345.239 370.839C346.198 370.223 347.706 369.811 347.158 367.686C342.771 367.207 337.973 365.219 335.574 371.662C335.231 372.69 333.655 373.307 332.627 374.061C330.639 375.638 328.651 377.146 326.252 379.065C328.24 379.956 329.748 380.573 330.913 379.408C335.094 375.501 340.578 373.855 345.239 370.839ZM341.743 360.626C345.239 359.392 347.226 353.977 345.17 350.961C344.416 349.865 344.279 348.082 343.045 347.808C335.78 357.61 323.579 357.816 313.709 364.053C317.548 366.316 320.906 365.836 324.333 365.287C330.297 364.396 336.122 362.683 341.743 360.626ZM336.739 390.512C342.36 387.359 347.569 383.658 351.476 376.529C346.13 378.585 342.154 380.71 337.767 381.738C336.945 381.944 335.78 382.287 335.574 382.904C333.655 387.359 329.474 387.153 325.773 388.044C318.233 389.758 310.694 391.54 302.194 393.459C305.416 394.556 307.541 393.871 309.665 393.734C318.37 393.391 326.527 388.113 335.574 390.923C335.848 391.06 336.397 390.718 336.739 390.512ZM335.848 350.139C338.521 348.494 338.384 346.917 335.506 345.615C332.97 344.449 330.159 343.97 327.349 343.695C317.753 342.736 308.432 344.312 299.11 346.163C298.15 346.369 296.848 346.232 296.848 348.014C297.739 348.768 298.63 348.699 299.658 348.014C303.154 345.683 307.129 346.232 310.968 346.163C312.27 346.163 313.435 346.369 314.258 347.74C316.931 352.332 316.794 353.429 312.613 356.993C311.79 357.679 310.831 358.227 310.556 360.489C317.205 358.844 322.963 355.828 328.926 353.566C331.256 352.606 333.655 351.51 335.848 350.139ZM331.804 397.367C330.365 397.504 329.131 397.709 328.24 398.875C329.954 399.697 331.119 398.875 331.804 397.367ZM320.632 338.212C325.841 340.885 331.804 340.2 337.219 341.913C332.832 337.801 325.361 334.031 317.89 331.974C304.182 328.136 291.913 330.398 281.358 340.542C274.641 346.986 268.472 353.909 262.235 360.763C255.997 367.686 249.897 374.609 241.261 380.504C244.002 382.218 245.922 383.863 247.43 380.162C248.252 378.174 250.171 377.488 252.022 376.871C257.779 375.158 262.44 371.456 266.621 367.549C272.173 362.408 278.41 358.913 285.059 355.828C287.184 354.868 289.034 353.772 291.708 354.937C293.969 355.965 295.82 353.36 294.312 351.167C292.119 347.945 292.119 343.079 286.978 341.982C285.402 341.639 285.676 339.925 287.184 339.171C288.143 338.76 289.24 338.692 290.337 338.623C298.493 338.143 306.718 337.732 314.875 337.321C316.862 337.458 318.85 337.252 320.632 338.212ZM325.636 373.307C319.193 373.376 313.23 373.033 306.581 374.952C316.108 379.819 320.701 379.408 325.636 373.307ZM325.224 384.48C325.156 384 325.087 383.52 325.019 383.041C316.383 381.053 309.94 387.085 302.194 388.387C302.332 388.798 302.4 389.278 302.537 389.689C310.077 387.976 317.685 386.194 325.224 384.48ZM320.015 396.338C317.548 395.242 315.697 396.133 313.846 396.407C299.521 398.6 284.991 399.08 270.528 399.56C268.952 399.629 266.69 400.177 266.416 397.709C266.21 395.79 268.129 395.447 269.5 394.968C272.927 393.734 276.56 392.911 279.644 389.141C272.105 389.964 265.799 392.157 259.287 393.665C257.231 394.145 256.546 395.242 256.751 397.367C257.3 402.713 259.219 404.907 264.634 404.427C276.491 403.399 288.349 403.399 300.207 402.919C307.266 402.713 313.572 399.971 320.015 396.338ZM311.448 367.755C306.238 365.904 304.251 366.521 299.727 370.839C303.771 370.291 307.198 369.537 311.448 367.755ZM306.513 358.021C306.992 357.405 307.746 356.788 307.061 355.759C305.279 355.28 303.36 356.445 301.577 354.937C300.549 354.114 299.041 354.046 298.013 355.143C293.147 360.421 286.224 362.82 279.781 367.755C284.168 367.755 287.389 367.412 290.542 367.824C295.477 368.509 299.178 365.561 303.291 364.053C306.101 362.957 305.005 359.804 306.513 358.021ZM311.448 381.327C306.855 379.408 303.291 378.928 301.098 375.912C300.07 374.472 298.288 375.021 296.917 375.569C289.377 378.791 281.838 382.081 274.298 385.303C275.463 386.057 276.286 385.919 277.108 385.782C284.099 384.686 291.228 382.766 298.219 384.206C302.948 385.165 306.375 383.52 311.448 381.327ZM305.759 350.55C305.896 350.413 305.622 349.59 305.484 349.59C304.251 349.385 303.017 349.453 302.4 350.893C303.634 351.51 304.73 351.578 305.759 350.55ZM283.962 254.792C286.772 253.832 287.527 252.598 286.773 249.582C283.414 236.147 279.713 222.781 273.064 210.58C267.992 201.326 261.069 193.718 251.199 189.194C232.282 180.488 212.336 175.896 191.705 175.485C178.34 175.21 164.837 176.719 151.814 179.666C129.264 184.67 109.524 195.637 93.2109 212.362C75.4586 230.527 66.137 253.215 58.803 276.932C57.9805 279.674 58.0491 282.484 57.9806 285.295C57.775 308.052 65.9313 327.93 78.8172 346.163C81.833 350.413 85.5343 354.389 90.4008 356.308C96.7752 358.844 101.984 362.957 107.331 366.932C113.636 371.593 120.559 375.98 127.824 377.831C142.355 381.533 156.818 386.879 171.417 385.165C176.626 385.165 180.944 385.303 185.262 385.165C192.322 384.891 196.435 380.984 196.983 374.061C197.531 367.412 197.668 360.695 198.148 353.977C199.039 342.393 201.987 331.426 208.567 321.692C214.53 312.918 220.287 304.076 226.319 295.371C231.048 288.585 236.737 282.69 243.523 277.892C256.34 268.981 269.089 259.933 283.962 254.792ZM286.087 371.662C285.676 371.525 285.333 371.251 284.922 371.251C273.544 371.731 263.126 375.98 252.57 379.682C250.171 380.504 250.034 382.287 250.651 384.411C251.199 386.331 252.913 387.496 253.941 389.141C255.038 390.855 256.134 390.581 257.642 389.552C264.359 385.234 271.762 382.081 279.096 379.134C282.797 377.763 285.402 375.706 286.087 371.662Z" fill="black"/>
<path d="M475.849 185.433C477.228 198.341 469.024 212.348 456.616 218.047C447.93 222.029 447.999 222.029 440.623 217.772C434.97 214.545 432.696 209.396 432.282 203.216C432.213 201.706 432.282 200.195 432.282 197.586C430.972 190.72 434.419 184.197 438.624 178.086C445.862 167.581 457.857 167.375 466.474 171.495C472.196 174.31 475.229 179.116 475.849 185.433ZM461.097 211.249C468.059 205.07 472.678 197.792 472.54 188.179C472.471 182.343 470.265 177.468 464.751 174.859C458.96 172.113 453.032 171.701 447.241 175.134C445.449 176.164 443.312 178.018 444.277 179.665C446.552 183.785 443.381 185.982 442.071 188.866C441.244 190.651 440.416 192.368 439.796 194.222C439.176 196.075 440.899 196.968 441.864 196.281C444.553 194.222 447.793 193.947 450.688 192.711C456.616 190.239 456.478 190.102 458.615 195.938C459.718 199.028 459.305 201.912 458.409 204.864C457.443 207.885 456.34 210.906 454.824 215.3C457.099 214.064 457.926 213.721 458.615 213.241C459.443 212.623 460.27 211.936 461.097 211.249Z" fill="black"/>
<path d="M113.515 244.944C116.569 251.296 116.43 257.989 115.111 264.546C111.918 280.186 106.782 295.212 100.604 309.964C99.2152 313.311 97.6882 316.931 93.0373 316.999C89.0111 317.067 85.5403 314.062 83.6661 309.145C82.2084 305.183 82.2082 301.154 82 296.987C83.5272 285.24 84.7766 273.493 86.6509 261.882C87.9003 254.301 91.4406 247.607 96.9245 242.075C103.241 235.724 109.697 236.885 113.515 244.944ZM106.157 262.292C111.988 260.857 112.265 260.243 111.849 254.369C111.641 251.364 111.085 248.359 109.558 245.695C107.129 241.461 104.005 240.709 100.604 244.124C93.3149 251.569 89.4275 260.379 90.3299 270.897C90.8853 278 88.2475 284.83 88.4557 291.933C88.4557 292.48 87.9698 293.163 87.5533 293.641C82.6942 299.241 85.0543 305.047 87.6921 310.374C89.7052 314.472 94.0091 314.199 96.2998 310.101C98.66 305.73 100.326 301.085 101.992 295.348C95.9527 295.417 94.6337 291.797 94.1478 287.357C93.2454 279.161 95.8833 272.058 100.812 265.638C102.2 263.931 103.866 262.838 106.157 262.292Z" fill="black"/>
</svg>
