<svg width="600" height="600" viewBox="0 0 600 600" fill="none" xmlns="http://www.w3.org/2000/svg">
<path d="M590.097 254.766C591.893 257.487 590.623 261.085 589.615 264.068C588.344 267.886 586.679 271.528 584.006 274.687C582.385 276.573 581.29 278.855 579.975 281.005C577.741 284.735 575.243 288.245 571.606 290.746C570.029 291.843 569.635 293.291 569.547 295.002C569.328 299.478 568.89 303.909 567.269 308.122C566.217 310.93 565.165 313.694 564.421 316.59C563.895 318.609 562.493 320.759 559.776 320.671C558.243 320.627 557.936 321.768 557.454 322.689C553.16 330.982 546.368 337.257 540.015 343.838C535.546 348.489 529.937 351.912 523.978 354.194C515.171 357.572 506.452 361.346 497.163 363.364C495.279 363.759 493.351 364.198 491.423 364.461C490.065 364.68 489.539 365.295 489.583 366.699C489.671 368.937 489.539 371.174 489.671 373.368C489.802 375.562 489.232 377.405 487.874 379.16C486.428 381.047 485.289 382.89 482.353 382.451C480.907 382.232 479.549 383.416 478.322 384.382C474.466 387.541 470.392 390.525 466.623 393.815C457.597 401.713 447.038 406.891 436.347 411.981C425.962 416.939 415.753 422.38 404.711 425.89C403.528 426.285 402.389 426.855 401.162 427.075C393.845 428.523 387.317 431.989 380.613 434.973C374.259 437.781 368.081 440.984 361.728 443.749C352.176 447.917 342.318 451.296 332.021 453.402C324.791 454.85 317.605 456.473 310.463 458.228C300.211 460.729 289.782 460.729 279.354 460.159C276.988 460.027 274.622 459.896 272.256 459.72C270.416 459.588 269.32 460.159 269.364 462.265C269.408 463.494 268.838 464.985 269.32 465.995C270.898 469.329 268.4 471.392 267.348 473.893C267.129 474.463 266.691 474.726 266.209 474.99C258.366 478.851 250.304 482.054 241.848 484.467C234.399 486.617 226.906 488.855 219.808 492.146C215.383 494.164 210.563 495.261 205.699 495.568C189.531 496.534 173.451 495.875 157.458 493.638C147.249 492.19 137.916 488.241 128.89 483.546C112.459 475.033 96.3786 465.951 80.7802 455.99C79.86 455.376 78.8961 454.762 78.0198 454.104C70.6149 448.487 63.0347 443.003 55.8051 437.123C51.0729 433.262 46.9542 428.698 43.3175 423.74C36.7889 414.833 31.4434 405.224 25.9665 395.746C22.6803 390.086 20.5771 383.811 18.693 377.537C15.8887 368.235 13.2598 358.845 11.2443 349.279C9.31635 340.679 8.74679 331.816 9.09732 324.049C9.36021 312.729 9.05346 302.418 11.9015 292.589C16.2831 277.495 21.2343 262.533 29.5155 249.018C33.1084 243.095 37.1833 237.347 41.6963 232.081C50.109 222.34 59.4419 213.653 71.8856 209.045C81.8756 205.36 90.9017 199.831 99.6649 193.864C104.748 190.397 109.085 186.141 112.152 180.612C113.861 177.541 114.694 174.382 113.686 171.003C112.897 168.37 113.774 166.44 115.263 164.465C115.789 163.807 116.227 163.061 116.841 162.535C128.145 151.872 136.339 139.016 143.174 125.238C145.672 120.192 148.695 115.585 152.901 111.812C153.953 110.89 155.004 109.969 156.056 109.091C158.904 106.722 162.059 105.406 165.871 104.967C170.559 104.44 175.247 104.089 179.98 104.001C182.784 103.958 184.975 104.879 186.07 107.424C186.859 109.223 187.735 110.583 189.619 111.68C191.459 112.733 192.642 114.883 194.044 116.594C198.996 122.65 203.509 128.968 205.962 136.515C206.707 138.797 207.145 141.078 206.97 143.492C206.795 145.993 205.962 148.187 203.64 149.415C201.668 150.468 200.836 151.96 201.055 154.154C202.15 166.089 203.246 178.155 209.38 188.774C215.47 199.392 223.27 208.475 234.18 214.574C238.43 216.943 242.592 219.4 247.062 221.419C253.196 224.183 257.84 229.229 263.58 232.696C265.026 233.573 266.341 234.495 267.918 235.109C273.746 237.434 278.741 241.383 284.481 243.928C293.638 247.965 302.664 252.265 311.822 256.302C317.562 258.847 323.477 260.777 329.699 261.874C339.689 263.673 349.635 265.516 359.581 267.578C370.754 269.904 381.883 269.685 393.144 268.017C404.843 266.306 416.191 262.796 427.846 260.865C440.772 258.715 453.566 256.126 466.054 252.265C478.498 248.404 491.379 247.219 504.086 244.937C511.754 243.577 519.203 241.164 527.002 240.462C534.363 239.804 541.505 238.4 548.691 236.776C557.366 234.802 566.261 234.1 575.199 235.46C576.032 235.591 576.864 235.504 577.697 235.548C580.939 235.679 582.21 237.434 584.138 240.243C587.249 244.718 587.117 250.247 590.097 254.766ZM586.241 267.359C581.772 265.034 581.684 264.858 581.202 260.119C581.027 258.189 580.676 256.258 580.545 254.327C580.37 252.441 579.888 250.817 578.004 249.852C576.996 249.325 575.9 248.272 576.295 247.219C577.171 244.762 575.462 243.051 575.024 241.032C574.367 237.961 572.439 237.829 570.117 237.741C562.843 237.522 555.57 237.873 548.559 239.628C541.943 241.252 535.371 242.656 528.492 243.138C520.166 243.753 512.148 246.385 503.955 247.833C491.379 250.027 478.673 251.256 466.36 255.117C452.69 259.373 438.581 261.918 424.473 264.419C413.825 266.306 403.397 269.378 392.618 270.913C381.621 272.449 370.754 272.668 359.844 270.431C350.336 268.456 340.784 266.569 331.188 264.902C323.039 263.498 315.283 260.997 307.834 257.443C295.084 251.3 281.764 246.254 269.627 238.795C268.225 237.917 266.604 237.434 265.026 236.82C259.856 234.714 254.905 232.257 250.304 229.01C246.974 226.684 244.301 223.525 240.621 221.814C233.961 218.786 228.177 214.53 222.35 210.23C216.171 205.667 211.264 200.094 207.934 193.205C203.815 184.649 200.748 175.698 199.653 166.177C199.215 162.315 198.514 158.454 198.076 154.593C197.9 153.057 197.374 152.355 195.709 152.53C192.993 152.838 191.678 153.627 191.897 155.383C192.642 161.92 191.722 168.458 192.292 174.996C193.343 187.194 196.98 198.427 205.217 207.773C207.978 210.932 210.563 214.179 212.929 217.645C216.741 223.262 221.386 227.957 227.607 230.94C230.368 232.257 233.084 233.661 235.757 235.197C245.923 240.945 256.351 246.122 267.392 250.027C276.024 253.055 284.524 256.609 292.674 260.865C296.88 263.059 301.262 264.726 305.863 265.999C308.404 266.701 310.945 267.491 313.443 268.281C322.469 271.089 331.276 274.467 340.521 276.573C346.48 277.934 352.614 278.592 358.53 280.084C372.463 283.594 386.616 283.813 400.812 283.287C414.132 282.76 427.496 282.146 440.86 282.278C447.563 282.365 454.18 281.795 460.708 280.128C464.345 279.206 467.982 278.241 471.706 277.714C485.464 275.652 499.223 273.765 512.981 271.835C522.795 270.431 532.391 271.879 541.812 274.687C544.747 275.564 547.683 276.398 550.619 277.232C554.124 278.197 557.498 279.469 560.258 281.97C561.178 282.804 561.879 282.936 563.15 282.409C565.954 281.268 567.838 282.321 569.109 285.086C569.678 286.314 569.328 287.85 570.686 289.298C577.872 283.199 580.764 274.423 586.241 267.359ZM577.916 240.067C578.004 239.628 577.916 239.277 577.478 239.189C576.952 239.233 576.777 239.584 576.864 240.023C576.908 240.418 577.083 240.857 577.565 240.725C577.741 240.681 577.872 240.286 577.916 240.067ZM565.779 288.201C565.867 287.938 566.042 287.718 565.998 287.455C565.954 286.797 565.91 286.095 565.165 285.788C565.078 285.744 564.903 285.832 564.859 285.919C564.508 286.622 564.771 287.192 565.165 287.762C565.341 287.938 565.604 288.069 565.779 288.201ZM560.083 312.027C561.354 306.41 561.836 300.794 560.74 295.09C560.39 293.159 560.302 291.229 558.593 289.825C557.761 289.123 557.366 288.026 558.593 287.499C561.573 286.227 559.732 284.998 558.593 283.901C556.665 282.014 554.255 280.961 551.67 280.171C547.814 279.031 543.915 278.021 540.059 276.837C531.559 274.248 522.927 273.458 514.076 274.248C505.751 274.994 497.601 276.705 489.32 277.802C479.681 279.075 470.041 280.259 460.577 282.76C453.961 284.515 447.169 284.998 440.334 284.998C429.643 284.998 418.864 284.691 408.217 285.525C387.054 287.192 366.329 284.91 345.735 280.391C334.606 277.934 323.783 274.38 312.917 270.869C303.76 267.93 294.602 265.253 286.189 260.47C285.094 259.856 283.867 259.549 282.728 259.022C273.176 254.854 263.361 251.3 253.722 247.307C243.951 243.27 235.231 237.127 225.767 232.388C219.808 229.405 215.076 224.929 211.483 219.313C208.986 215.451 206.181 211.81 203.071 208.431C201.099 206.281 198.952 204.131 197.813 201.454C193.913 192.24 189.969 182.938 190.32 172.583C190.495 167.405 190.013 162.271 189.663 157.138C189.444 153.803 189.181 153.627 185.807 154.505C184.054 154.944 182.346 155.646 180.593 155.997C178.446 156.48 177.482 157.576 177.044 159.858C174.59 172.978 173.67 186.141 173.451 199.392C173.013 212.731 175.116 225.763 177.57 238.751C178.271 242.48 179.454 246.078 181.688 249.15C184.975 253.669 187.735 258.496 190.714 263.191C194.22 268.719 196.892 274.731 200.792 279.996C205.612 286.49 210.782 292.545 217.267 297.591C225.986 304.392 235.757 309.394 245.046 315.274C253.766 320.802 263.098 325.103 272.782 328.744C275.761 329.885 278.828 330.719 281.983 331.289C290.22 332.869 298.545 333.264 306.87 333.703C329.085 334.843 351.344 334.449 373.558 335.896C399.892 337.608 426.357 337.827 452.471 342.434C453.566 342.61 454.662 342.698 455.801 342.741C460.139 342.873 464.389 343.575 468.595 344.54C473.809 345.725 478.76 347.524 482.529 351.561C483.493 352.614 484.369 352.438 485.508 352C487.611 351.21 488.619 352.263 489.101 354.194C489.583 356.124 489.495 358.055 489.583 359.985C489.627 361.214 490.196 361.784 491.423 361.565C492.387 361.39 493.351 361.258 494.315 361.039C512.28 357.353 528.185 349.674 541.461 336.818C542.644 335.677 544.002 334.624 545.317 333.615C546.412 332.737 547.464 331.816 548.253 330.675C551.67 325.585 555.088 320.495 558.462 315.405C559.163 314.352 559.776 313.299 560.083 312.027ZM486.735 356.563C486.866 355.949 486.91 355.291 486.209 354.896C485.683 354.808 485.42 355.115 485.333 355.51C485.201 356.08 485.377 356.563 485.859 356.87C486.253 357.133 486.603 357.046 486.735 356.563ZM483.712 368.103C484.632 368.103 485.114 367.489 485.158 366.523C485.114 365.734 484.544 365.426 483.887 365.207C482.967 365.251 482.879 365.953 482.923 366.611C482.923 367.225 482.704 368.103 483.712 368.103ZM480.513 361.741C481.083 360.556 481.433 359.678 480.688 358.801C479.856 359.678 479.943 360.556 480.513 361.741ZM478.848 354.501C479.242 352.307 478.541 351.473 477.052 350.508C474.291 348.753 471.268 347.831 468.157 347.085C463.425 345.901 458.517 345.769 453.698 345.067C442.7 343.487 431.658 342.083 420.617 340.942C412.598 340.153 404.536 340.328 396.518 339.933C371.105 338.705 345.691 337.301 320.278 337.037C313.487 336.95 306.651 337.037 299.86 336.291C293.507 335.589 287.153 335.019 280.8 334.361C278.04 334.054 275.323 333.395 272.825 332.123C265.289 328.306 257.271 325.497 249.778 321.373C238.912 315.405 227.958 309.657 218.406 301.672C217.442 300.882 216.303 300.311 215.339 299.478C207.408 292.721 199.653 285.744 194.132 276.705C191.153 271.835 188.261 266.92 185.281 262.05C181.25 255.512 177.613 248.799 175.642 241.339C171.172 224.359 169.946 207.071 171.172 189.563C171.742 179.121 172.837 168.765 174.546 157.884C170.252 158.147 166.66 159.068 163.023 159.902C158.86 160.867 156.494 163.149 156.144 167.581C155.968 169.511 155.355 171.398 154.829 173.285C154.259 175.479 153.383 177.629 151.674 179.077C148.081 182.148 144.489 185.22 140.589 187.808C138.968 188.905 138.267 189.827 138.179 191.67C137.829 197.11 135.682 201.937 132.702 206.369C131.388 208.343 130.117 210.318 128.89 212.336C123.895 220.585 120.039 229.361 115.702 237.917C110.444 248.316 106.763 259.198 104.353 270.562C102.732 278.197 102.863 286.095 102.031 293.818C100.585 306.849 102.688 319.398 107.858 331.377C112.766 342.698 119.47 353.053 127.839 362.048C135.112 369.858 142.736 377.361 151.412 383.811C164.994 393.903 179.235 402.679 194.439 410.05C203.596 414.482 213.28 417.729 222.043 422.906C227.564 426.197 233.041 427.821 239.438 426.724C242.855 426.153 246.404 426.417 249.866 426.812C256.614 427.557 263.449 428.04 270.153 429.269C286.759 432.34 303.453 433.7 320.322 434.183C332.985 434.534 345.604 434.008 358.223 433.569C367.161 433.306 375.793 430.98 384.469 429.093C407.297 424.135 427.846 413.692 448.352 403.074C457.466 398.379 465.09 391.709 473.021 385.347C475.781 383.109 478.629 381.179 476.964 376.966C477.797 369.507 477.49 361.916 478.848 354.501ZM367.293 438.132C369.703 437.606 371.85 436.289 374.61 434.227C364.226 435.938 354.717 436.596 345.209 436.816C324.353 437.342 303.54 437.474 282.903 433.964C273.176 432.296 263.317 431.77 253.59 430.19C248.201 429.313 242.593 430.015 237.072 430.015C241.015 432.603 244.608 435.807 249.033 436.904C253.722 438.088 258.41 439.492 263.142 440.414C264.851 440.765 265.859 441.598 266.516 443.09C267.918 446.293 268.838 449.628 269.057 453.138C269.276 456.605 269.452 456.693 272.957 457.175C281.808 458.448 290.702 458.492 299.553 457.57C312.304 456.21 324.528 452.305 337.016 449.716C340.258 449.014 343.282 447.566 346.436 446.425C353.491 443.88 359.888 439.756 367.293 438.132ZM260.864 451.339C263.098 445.416 261.39 442.783 255.343 441.467C250.698 440.458 246.142 439.317 241.891 437.079C222.7 426.987 202.808 418.343 183.835 407.812C165.871 397.852 148.958 386.532 134.148 372.227C133.841 371.92 133.578 371.613 133.228 371.35C127.926 367.181 123.807 361.916 120.039 356.387C118.068 353.535 116.14 350.639 113.817 348.051C111.057 344.935 108.428 341.513 106.894 337.652C103.477 328.964 100.716 320.1 99.5773 310.754C98.438 301.54 99.402 292.413 100.015 283.243C100.454 276.442 101.68 269.729 103.477 263.103C106.412 252.177 110.619 241.778 115.789 231.686C121.398 220.805 126.261 209.572 133.14 199.348C134.849 196.759 135.638 193.776 135.988 190.704C136.164 189.169 135.901 187.896 134.236 187.37C128.759 185.614 124.202 182.016 119.119 179.472C117.323 178.55 116.096 178.287 115.22 180.437C114.869 181.314 114.299 182.148 113.73 182.938C109.173 189.081 104.353 194.96 97.6931 199.085C89.8939 203.955 81.5689 207.817 73.9011 212.863C72.4113 213.872 70.7464 214.662 69.0376 215.276C59.6609 218.655 51.9055 224.49 45.4207 231.862C39.3303 238.751 34.2915 246.473 29.6032 254.371C24.9149 262.225 22.4173 270.957 20.4456 279.82C17.247 293.993 15.2753 308.297 14.881 322.821C14.7057 327.691 14.6181 332.562 15.1001 337.432C16.2831 350.069 18.4739 362.53 20.8838 374.948C21.5848 378.677 22.8555 382.188 24.389 385.654C28.2887 394.43 32.9332 402.854 37.6653 411.191C39.0236 413.604 40.5134 416.018 42.5289 417.948C49.2327 424.442 54.7535 432.033 61.9393 438.044C65.1379 440.721 68.4241 443.31 71.535 446.03C74.5583 448.707 77.9759 450.857 81.3498 453.094C90.4197 459.062 100.41 463.318 109.655 469.066C120.872 475.999 132.921 481.527 145.409 485.915C160.788 491.312 176.518 494.296 192.905 492.585C196.498 492.19 200.091 491.839 203.684 491.619C208.591 491.356 213.28 490.04 217.88 488.548C230.412 484.423 242.855 480.123 255.387 475.911C261.828 473.761 262.792 472.84 260.513 466.565C258.585 461.212 258.892 456.517 260.864 451.339ZM204.911 144.457C205.437 144.15 205.393 143.623 205.349 143.097C205.305 142.746 205.042 142.614 204.867 142.921C204.692 143.228 204.56 143.623 204.473 143.974C204.473 144.281 204.604 144.457 204.911 144.457ZM202.282 145.686C202.545 142.658 203.421 139.63 203.114 136.559C202.808 133.356 201.23 130.899 198.645 129.407C200.573 132.522 198.251 135.945 199.39 139.148C199.478 139.367 198.996 139.981 198.689 140.069C196.542 140.508 196.805 141.693 197.243 143.404C197.856 145.861 196.98 146.431 194.57 145.554C194.044 145.247 193.606 144.896 192.949 144.545C192.336 145.378 192.642 145.905 192.642 146.475C192.642 148.976 192.598 148.845 190.101 148.494C187.297 148.055 184.493 147.879 182.17 146.037C181.382 147.309 182.127 148.23 182.083 149.152C182.083 151.434 183.178 152.004 185.281 151.609C187.998 151.126 190.802 150.863 193.519 150.424C195.972 150.029 198.426 149.371 200.529 147.879C201.362 147.309 202.194 146.739 202.282 145.686ZM195.928 135.637C196.673 134.233 195.972 133.224 195.666 132.215C194.877 129.67 193.606 127.257 193.343 124.668C192.949 121.026 190.364 118.788 188.874 115.892C188.436 115.059 187.691 114.752 186.771 115.322C182.433 117.911 178.271 120.587 177.701 126.379C177.526 127.871 177.351 129.407 177.044 130.899C176.781 132.259 176.387 133.619 175.905 134.935C174.722 138.314 175.204 140.859 178.139 142.877C178.139 142.921 178.139 142.965 178.183 143.009C178.227 143.097 178.271 143.184 178.271 143.316C178.358 144.852 178.534 146.3 179.804 147.485C179.322 146.08 178.84 144.676 178.271 143.316C178.271 143.228 178.271 143.097 178.271 142.965C178.227 142.921 178.183 142.921 178.183 142.877C178.095 142.395 177.92 141.868 177.92 141.386C177.833 140.025 175.773 138.314 177.701 137.436C179.235 136.734 179.541 139.06 180.286 140.069C181.951 142.351 183.616 144.589 186.596 145.378C185.281 143.053 183.791 140.947 182.126 138.928C180.812 137.305 179.76 135.506 178.84 133.619C178.446 132.829 177.789 131.908 177.964 131.074C178.052 130.767 178.227 130.504 178.621 130.24C179.804 129.495 180.462 130.986 181.206 131.776C183.441 134.102 185.062 136.866 186.815 139.543C187.341 140.332 187.384 141.605 188.874 141.649C187.209 137.129 184.449 133.268 182.258 129.1C181.688 128.003 181.075 126.906 180.593 125.765C180.33 125.151 180.242 124.317 180.943 123.878C181.776 123.308 182.565 123.703 183.09 124.449C183.704 125.37 184.273 126.335 184.755 127.345C186.201 130.197 187.516 133.093 189.006 135.945C190.276 138.358 191.81 140.552 194.263 142.044C193.124 137.831 191.328 134.014 189.356 130.24C187.779 127.301 186.201 124.361 184.712 121.377C184.317 120.631 183.967 119.666 184.931 119.183C185.895 118.701 186.464 119.578 186.859 120.28C188.524 123.352 190.101 126.423 191.766 129.451C192.905 131.645 193.957 133.882 195.928 135.637ZM183.879 112.47C183.529 110.846 182.346 109.925 181.031 109.047C176.693 106.108 171.961 106.327 167.448 107.994C159.474 110.978 153.427 116.112 148.739 123.615C139.537 138.446 130.117 153.233 118.506 166.44C117.323 167.8 116.753 169.336 117.147 171.047C117.98 174.689 119.645 177.541 123.457 179.208C127.751 181.139 132.395 182.148 136.514 184.518C138.091 185.395 140.063 184.912 141.465 183.464C142.824 182.06 144.357 180.832 145.978 179.823C151.718 176.225 153.515 171.047 152.156 164.597C151.937 163.588 152.332 162.93 153.033 162.447C154.873 161.174 155.749 159.288 156.363 157.313C157.633 153.32 160.131 150.556 163.724 148.23C167.36 145.861 170.647 142.614 171.874 138.051C173.232 132.829 174.853 127.696 174.809 122.123C174.765 118.481 176.956 115.98 180.199 114.313C181.425 113.742 182.959 113.655 183.879 112.47ZM172.837 151.828C174.59 151.39 173.495 149.591 173.276 148.318C173.188 147.66 172.925 147.002 172.706 146.212C171.216 146.3 170.647 147.177 169.946 147.748C169.551 148.099 169.113 148.625 169.551 149.152C170.515 150.249 171.392 152.179 172.837 151.828ZM169.77 154.637C170.34 154.681 170.822 154.505 170.866 153.803C170.691 153.233 170.34 152.838 169.77 152.794C168.982 152.75 169.026 153.408 169.026 153.891C169.026 154.33 169.288 154.637 169.77 154.637ZM165.915 154.549C167.448 153.671 167.273 152.223 166.966 150.468C165.476 151.346 164.074 151.96 164.293 153.759C164.381 154.461 165.345 154.856 165.915 154.549ZM163.417 157.138C163.461 157.094 163.505 156.918 163.549 156.831C163.461 156.743 163.373 156.611 163.242 156.611C162.585 156.48 161.927 155.997 161.314 156.699C161.007 157.05 160.963 157.664 161.445 157.664C162.103 157.664 162.76 157.357 163.417 157.138ZM15.8012 359.196C16.1517 357.792 16.064 356.782 15.0562 355.554C14.7933 357.046 15.363 357.967 15.8012 359.196ZM13.0845 316.195C13.4788 306.498 15.8012 297.021 17.1157 286.841C11.6825 296.362 9.57923 331.728 13.5227 345.33C12.3396 335.589 12.6463 325.892 13.0845 316.195Z" fill="#020202"/>
<path d="M580.966 260.777C581.447 265.523 581.535 265.699 586 268.028C580.528 275.103 577.639 283.892 570.46 290C569.103 288.55 569.453 287.012 568.884 285.781C567.614 283.013 565.732 281.958 562.931 283.101C561.661 283.628 560.961 283.496 560.041 282.661C557.283 280.157 553.913 278.882 550.411 277.915C547.478 277.08 544.545 276.246 541.612 275.367C532.2 272.554 522.614 271.104 512.808 272.51C499.063 274.444 485.317 276.333 471.572 278.399C467.851 278.926 464.217 279.893 460.584 280.816C454.062 282.486 447.452 283.057 440.754 282.969C427.403 282.837 414.051 283.452 400.743 283.98C386.56 284.507 372.421 284.287 358.5 280.772C352.591 279.278 346.462 278.618 340.509 277.256C331.272 275.147 322.473 271.763 313.456 268.951C310.961 268.16 308.422 267.369 305.883 266.666C301.286 265.391 296.909 263.721 292.706 261.524C284.564 257.262 276.072 253.702 267.448 250.67C256.417 246.759 245.998 241.574 235.842 235.817C233.172 234.279 230.458 232.873 227.7 231.554C221.484 228.566 216.844 223.864 213.036 218.239C210.672 214.768 208.089 211.516 205.331 208.352C197.101 198.992 193.468 187.742 192.417 175.526C191.848 168.978 192.768 162.43 192.023 155.883C191.805 154.125 193.118 153.334 195.832 153.026C197.495 152.851 198.021 153.554 198.196 155.092C198.634 158.959 199.334 162.826 199.772 166.693C200.866 176.229 203.93 185.193 208.045 193.763C211.372 200.662 216.275 206.243 222.447 210.813C228.269 215.119 234.048 219.382 240.701 222.414C244.379 224.128 247.049 227.292 250.376 229.621C254.972 232.873 259.919 235.334 265.084 237.443C266.66 238.058 268.28 238.542 269.681 239.42C281.806 246.891 295.114 251.944 307.853 258.097C315.294 261.656 323.043 264.161 331.185 265.567C340.771 267.237 350.315 269.127 359.814 271.104C370.714 273.345 381.57 273.126 392.558 271.587C403.326 270.049 413.745 266.973 424.382 265.084C438.478 262.579 452.573 260.03 466.231 255.768C478.532 251.901 491.227 250.67 503.79 248.473C511.976 247.023 519.987 244.386 528.304 243.771C535.177 243.287 541.743 241.881 548.353 240.255C555.357 238.498 562.624 238.146 569.891 238.366C572.211 238.454 574.137 238.585 574.794 241.662C575.231 243.683 576.939 245.397 576.063 247.858C575.669 248.912 576.763 249.967 577.77 250.494C579.653 251.461 580.134 253.087 580.309 254.977C580.441 256.91 580.791 258.844 580.966 260.777Z" fill="#FEDD3B"/>
<path d="M560.391 295.337C561.487 301.053 561.005 306.681 559.734 312.31C559.427 313.585 558.814 314.64 558.112 315.696C554.738 320.796 551.32 325.897 547.902 330.998C547.113 332.141 546.062 333.064 544.966 333.944C543.652 334.955 542.293 336.01 541.11 337.154C527.832 350.037 511.925 357.733 493.959 361.426C492.995 361.646 492.031 361.778 491.066 361.954C489.84 362.174 489.27 361.602 489.226 360.371C489.138 358.436 489.226 356.501 488.744 354.567C488.262 352.632 487.254 351.576 485.151 352.368C484.011 352.808 483.135 352.984 482.171 351.928C478.402 347.883 473.45 346.08 468.236 344.893C464.029 343.925 459.778 343.222 455.44 343.09C454.301 343.046 453.205 342.958 452.11 342.782C425.992 338.165 399.525 337.945 373.188 336.23C350.971 334.779 328.71 335.175 306.493 334.032C298.167 333.592 289.841 333.196 281.603 331.613C278.448 331.042 275.38 330.206 272.4 329.063C262.716 325.413 253.382 321.104 244.662 315.564C235.372 309.671 225.599 304.659 216.879 297.843C210.394 292.786 205.223 286.718 200.402 280.21C196.502 274.934 193.829 268.91 190.324 263.369C187.344 258.664 184.583 253.827 181.297 249.298C179.062 246.22 177.879 242.614 177.177 238.877C174.723 225.861 172.62 212.802 173.058 199.434C173.277 186.155 174.198 172.963 176.652 159.816C177.09 157.529 178.054 156.43 180.201 155.946C181.954 155.594 183.663 154.891 185.416 154.451C188.79 153.572 189.053 153.747 189.272 157.089C189.622 162.234 190.104 167.379 189.929 172.567C189.579 182.945 193.523 192.267 197.423 201.501C198.562 204.183 200.709 206.338 202.681 208.492C205.792 211.878 208.597 215.528 211.095 219.397C214.688 225.026 219.421 229.511 225.38 232.501C234.846 237.25 243.566 243.406 253.338 247.451C262.979 251.453 272.795 255.014 282.348 259.192C283.487 259.719 284.714 260.027 285.809 260.643C294.223 265.436 303.382 268.118 312.54 271.064C323.408 274.582 334.232 278.144 345.362 280.606C365.958 285.135 386.685 287.422 407.851 285.751C418.499 284.915 429.279 285.223 439.971 285.223C446.807 285.223 453.6 284.739 460.217 282.981C469.682 280.474 479.322 279.287 488.963 278.012C497.245 276.912 505.396 275.197 513.722 274.45C522.574 273.658 531.206 274.45 539.708 277.044C543.564 278.232 547.464 279.243 551.32 280.386C553.906 281.178 556.316 282.233 558.244 284.124C559.383 285.223 561.224 286.454 558.244 287.729C557.017 288.257 557.411 289.356 558.244 290.06C559.953 291.467 560.041 293.402 560.391 295.337Z" fill="#FEDD3B"/>
<path d="M477.097 350.336C478.585 351.299 479.286 352.132 478.892 354.323C477.535 361.727 477.841 369.306 477.01 376.754C478.673 380.96 475.828 382.888 473.07 385.122C465.147 391.475 457.531 398.135 448.426 402.823C427.94 413.425 407.411 423.853 384.605 428.803C375.938 430.687 367.315 433.009 358.385 433.272C345.779 433.71 333.172 434.236 320.522 433.885C303.669 433.404 286.992 432.045 270.402 428.979C263.705 427.752 256.876 427.27 250.135 426.525C246.677 426.131 243.131 425.868 239.717 426.437C233.326 427.533 227.855 425.912 222.339 422.626C213.585 417.456 203.911 414.214 194.762 409.789C179.573 402.428 165.347 393.666 151.778 383.589C143.111 377.149 135.494 369.657 128.228 361.858C119.867 352.877 113.17 342.537 108.267 331.233C103.102 319.273 101.001 306.742 102.446 293.73C103.277 286.019 103.146 278.133 104.766 270.51C107.173 259.162 110.85 248.297 116.103 237.913C120.436 229.37 124.288 220.608 129.278 212.371C130.504 210.356 131.773 208.384 133.087 206.412C136.063 201.987 138.208 197.168 138.558 191.735C138.646 189.895 139.346 188.975 140.966 187.88C144.861 185.295 148.451 182.228 152.04 179.161C153.747 177.715 154.623 175.569 155.192 173.378C155.717 171.494 156.33 169.61 156.505 167.683C156.855 163.257 159.219 160.979 163.377 160.015C167.011 159.183 170.6 158.263 174.89 158C173.182 168.865 172.088 179.205 171.519 189.632C170.293 207.113 171.519 224.376 175.984 241.331C177.954 248.779 181.587 255.482 185.614 262.01C188.59 266.873 191.48 271.78 194.456 276.643C199.971 285.669 207.719 292.635 215.642 299.382C216.605 300.214 217.743 300.784 218.706 301.573C228.249 309.546 239.192 315.286 250.048 321.244C257.533 325.363 265.543 328.167 273.072 331.978C275.567 333.249 278.281 333.906 281.039 334.213C287.386 334.87 293.733 335.439 300.08 336.14C306.865 336.885 313.693 336.798 320.478 336.885C345.866 337.148 371.254 338.55 396.643 339.777C404.653 340.171 412.707 339.996 420.718 340.785C431.749 341.924 442.779 343.326 453.766 344.903C458.581 345.604 463.484 345.735 468.211 346.918C471.319 347.663 474.339 348.583 477.097 350.336Z" fill="#FEDD3B"/>
<path d="M375 434.407C372.23 436.436 370.076 437.731 367.658 438.249C360.228 439.847 353.81 443.905 346.732 446.41C343.566 447.532 340.533 448.957 337.28 449.648C324.75 452.195 312.485 456.038 299.691 457.377C290.811 458.283 281.886 458.24 273.006 456.988C269.489 456.513 269.313 456.427 269.093 453.016C268.873 449.562 267.95 446.28 266.543 443.128C265.884 441.66 264.873 440.84 263.158 440.494C258.41 439.588 253.706 438.206 249.002 437.04C244.562 435.961 240.957 432.809 237 430.262C242.539 430.262 248.167 429.571 253.574 430.434C263.334 431.989 273.225 432.507 282.985 434.148C303.692 437.602 324.574 437.472 345.501 436.954C355.041 436.738 364.581 436.09 375 434.407Z" fill="#FEDD3B"/>
<path d="M255.54 441.446C261.585 442.761 263.293 445.391 261.059 451.309C259.088 456.482 258.782 461.173 260.709 466.521C262.987 472.79 262.023 473.711 255.584 475.859C243.056 480.068 230.615 484.364 218.087 488.485C213.487 489.975 208.8 491.29 203.894 491.553C200.302 491.773 196.71 492.123 193.118 492.518C176.735 494.228 161.009 491.246 145.634 485.854C133.149 481.47 121.103 475.947 109.889 469.02C100.646 463.277 90.6588 459.025 81.5912 453.063C78.2182 450.827 74.8015 448.679 71.779 446.005C68.6689 443.287 65.3834 440.7 62.1857 438.026C55.0017 432.02 49.4824 424.436 42.7803 417.948C40.7652 416.019 39.2758 413.608 37.9179 411.197C33.187 402.867 28.5437 394.45 24.645 385.683C23.1119 382.219 21.8415 378.712 21.1406 374.986C18.7314 362.58 16.5412 350.129 15.3584 337.504C14.8766 332.638 14.9642 327.771 15.1394 322.905C15.5337 308.395 17.5049 294.103 20.7026 279.943C22.6738 271.088 25.1708 262.364 29.8579 254.517C34.545 246.626 39.5825 238.91 45.6713 232.027C52.1544 224.663 59.9079 218.832 69.2821 215.456C70.9905 214.843 72.655 214.054 74.1444 213.045C81.8102 208.004 90.1332 204.146 97.9304 199.28C104.589 195.159 109.407 189.285 113.963 183.147C114.532 182.358 115.102 181.525 115.452 180.648C116.328 178.5 117.555 178.763 119.351 179.684C124.432 182.227 128.988 185.821 134.464 187.575C136.128 188.101 136.391 189.372 136.216 190.907C135.865 193.975 135.077 196.956 133.368 199.543C126.491 209.757 121.629 220.98 116.022 231.852C110.853 241.935 106.648 252.325 103.713 263.241C101.917 269.86 100.69 276.568 100.252 283.363C99.6388 292.525 98.6751 301.644 99.814 310.85C100.953 320.187 103.713 329.043 107.129 337.723C108.663 341.581 111.291 345 114.051 348.113C116.372 350.699 118.3 353.593 120.271 356.442C124.038 361.966 128.156 367.226 133.456 371.391C133.807 371.654 134.069 371.961 134.376 372.268C149.182 386.559 166.091 397.87 184.051 407.821C203.018 418.343 222.905 426.979 242.092 437.062C246.341 439.297 250.897 440.437 255.54 441.446Z" fill="#FEDD3B"/>
<path d="M202.937 136.05C203.238 139.078 202.377 142.063 202.119 145.047C202.033 146.085 201.215 146.647 200.397 147.21C198.33 148.68 195.919 149.329 193.508 149.718C190.839 150.151 188.084 150.41 185.414 150.886C183.348 151.275 182.272 150.713 182.272 148.464C182.315 147.556 181.583 146.647 182.358 145.393C184.64 147.21 187.395 147.383 190.15 147.815C192.604 148.161 192.647 148.291 192.647 145.826C192.647 145.263 192.346 144.744 192.949 143.922C193.594 144.268 194.025 144.614 194.542 144.917C196.91 145.782 197.77 145.22 197.168 142.798C196.737 141.111 196.479 139.943 198.589 139.511C198.89 139.424 199.363 138.818 199.277 138.602C198.158 135.445 200.44 132.071 198.545 129C201.086 130.471 202.635 132.893 202.937 136.05Z" fill="#FEDD3B"/>
<path d="M195.413 132.132C195.716 133.141 196.409 134.15 195.672 135.553C193.723 133.799 192.683 131.562 191.513 129.413C189.867 126.387 188.307 123.317 186.661 120.247C186.271 119.545 185.708 118.668 184.755 119.151C183.802 119.633 184.148 120.598 184.538 121.344C186.011 124.326 187.571 127.264 189.131 130.203C191.08 133.974 192.856 137.79 193.983 142C191.557 140.509 190.04 138.316 188.784 135.904C187.311 133.053 186.011 130.159 184.582 127.308C184.105 126.299 183.542 125.334 182.935 124.414C182.415 123.668 181.636 123.273 180.812 123.843C180.119 124.282 180.206 125.115 180.466 125.729C180.942 126.869 181.549 127.966 182.112 129.062C184.278 133.229 187.008 137.088 188.654 141.605C187.181 141.561 187.138 140.29 186.618 139.5C184.885 136.825 183.282 134.062 181.072 131.738C180.336 130.948 179.686 129.457 178.516 130.203C178.126 130.422 177.953 130.729 177.866 131.036L177 130.86C177.303 129.369 177.477 127.834 177.65 126.343C178.213 120.554 182.329 117.879 186.618 115.291C187.528 114.721 188.264 115.028 188.697 115.861C190.17 118.756 192.726 120.993 193.116 124.633C193.376 127.176 194.633 129.589 195.413 132.132Z" fill="#FEDD3B"/>
<path d="M186 145C183.081 144.236 181.449 142.073 179.818 139.867C179.088 138.891 178.788 136.642 177.285 137.321C175.396 138.17 177.414 139.824 177.5 141.139C177.5 141.606 177.628 142.115 177.757 142.582C174.881 140.588 174.452 138.17 175.568 134.903C176.04 133.63 176.426 132.358 176.684 131L177.543 131.17C177.371 131.933 178.015 132.867 178.401 133.63C179.303 135.455 180.333 137.194 181.621 138.764C183.252 140.715 184.712 142.752 186 145Z" fill="#FEDD3B"/>
<path d="M181.146 109.263C182.463 110.139 183.649 111.058 184 112.678C183.078 113.86 181.541 113.948 180.312 114.517C177.062 116.18 174.867 118.676 174.911 122.309C174.954 127.869 173.33 132.991 171.969 138.201C170.739 142.754 167.446 145.993 163.801 148.357C160.201 150.678 157.698 153.436 156.424 157.42C155.81 159.39 154.931 161.272 153.087 162.542C152.385 163.023 151.989 163.68 152.209 164.687C153.57 171.122 151.77 176.288 146.018 179.878C144.393 180.885 142.856 182.11 141.495 183.511C140.09 184.956 138.114 185.438 136.533 184.562C132.405 182.198 127.751 181.191 123.448 179.265C119.627 177.601 117.959 174.756 117.124 171.122C116.729 169.415 117.3 167.883 118.486 166.525C130.122 153.348 139.563 138.595 148.784 123.798C153.482 116.312 159.542 111.19 167.534 108.213C172.056 106.549 176.799 106.33 181.146 109.263Z" fill="#FEDD3B"/>
<path d="M178.131 143.438C178.088 143.351 178.044 143.263 178.044 143.131C178.044 143.088 178.044 143.044 178 143C178.044 143.044 178.088 143.044 178.088 143.088C178.131 143.219 178.131 143.351 178.131 143.438Z" fill="#FEDD3B"/>
<path d="M173.276 148.318C173.495 149.591 174.59 151.39 172.837 151.829C171.392 152.18 170.515 150.249 169.551 149.152C169.113 148.625 169.551 148.099 169.946 147.748C170.647 147.177 171.216 146.3 172.706 146.212C172.925 147.002 173.188 147.66 173.276 148.318Z" fill="#FEDD3B"/>
<path d="M170.866 153.803C170.822 154.505 170.34 154.681 169.771 154.637C169.289 154.637 169.026 154.33 169.026 153.891C169.026 153.408 168.982 152.75 169.771 152.794C170.34 152.838 170.691 153.233 170.866 153.803Z" fill="#FEDD3B"/>
<path d="M166.966 150.468C167.273 152.223 167.448 153.671 165.915 154.549C165.345 154.856 164.381 154.461 164.293 153.759C164.074 151.96 165.477 151.346 166.966 150.468Z" fill="#FEDD3B"/>
<path d="M163.548 156.831C163.505 156.919 163.461 157.094 163.417 157.138C162.76 157.357 162.102 157.664 161.445 157.664C160.963 157.664 161.007 157.05 161.314 156.699C161.927 155.997 162.584 156.48 163.242 156.611C163.373 156.611 163.461 156.743 163.548 156.831Z" fill="#FEDD3B"/>
</svg>
