<svg width="600" height="600" viewBox="0 0 600 600" fill="none" xmlns="http://www.w3.org/2000/svg">
<path d="M390.718 249.153C392.658 249.839 393 251.726 393 253.613C393 256.415 391.231 258.188 389.463 260.017C384.385 265.392 383.644 265.392 379.023 259.617C378.452 258.931 377.939 258.188 377.596 257.387C376.398 254.7 376.912 253.442 379.993 252.984C382.16 252.641 383.473 252.184 382.959 249.668C382.845 249.096 382.959 248.467 383.473 248.295C385.926 247.552 388.436 248.352 390.718 249.153Z" fill="#13751E"/>
<path d="M144.164 344.96C149.124 353.253 152.24 362.013 151.986 372C148.997 371.241 148.106 369.489 148.297 367.62C148.997 359.56 145.245 352.961 140.475 346.712C139.776 345.777 137.932 344.726 139.839 343.558C141.684 342.449 143.019 343.033 144.164 344.96Z" fill="#13751E"/>
<path d="M147.407 430.681C149.453 432.776 150.533 435.23 149.737 439C146.327 437.564 144.338 435.05 143.144 431.998C141.496 427.809 139.564 423.799 136.892 420.149C134.505 416.977 134.732 413.207 135.642 408C138.881 412.309 141.382 415.421 142.064 419.79C142.69 423.919 144.452 427.629 147.407 430.681Z" fill="#13751E"/>
<path d="M86.7209 395.529C90.1192 398.118 89.5827 402 90 406C84.5746 401.647 76.8836 380.941 78.1356 374C81.1762 378.235 84.0976 381.882 83.3822 387.176C82.9648 390.529 83.8591 393.353 86.7209 395.529Z" fill="#13751E"/>
<path d="M185.372 334.326C187.486 338.868 188.72 343.469 187.545 348.424C187.134 350.075 186.547 351.668 185.901 353.202C181.614 363.76 179.558 374.732 179.558 386.117C179.558 391.013 179.5 395.85 179.558 400.745C179.617 408.591 181.496 415.964 186.018 422.453C186.547 423.219 187.134 423.927 187.017 425.166C184.433 427.172 181.32 428.41 178.149 429.295C171.689 431.124 165.347 433.424 159.298 436.256C155.422 438.084 155.364 437.966 153.954 434.073C153.191 431.95 152.251 429.944 150.548 428.351C147.671 425.697 146.32 422.217 145.615 418.501C145.204 416.436 144.617 414.548 143.384 412.838C140.154 408.414 137.276 403.872 136.865 398.209C136.748 396.911 136.337 395.378 134.575 395.673C133.342 395.849 132.813 397.088 132.872 398.209C133.048 403.459 131.873 408.65 131.697 413.841C131.58 417.557 132.872 420.801 135.28 423.632C136.865 425.52 138.333 427.408 139.155 429.767C140.565 433.719 142.503 437.317 145.85 439.972C147.612 441.388 147.553 442.626 145.733 443.983C137.041 450.177 128.174 456.075 118.367 460.263C115.9 461.325 113.845 461.266 111.496 459.909C98.1064 452.3 86.8312 442.508 79.1381 428.882C73.1482 418.383 67.9803 407.706 66.5122 395.496C66.0424 391.779 65.9249 388.004 66.0424 384.288C66.2185 380.454 68.1565 377.622 71.3863 375.735C72.9719 374.791 74.3813 374.909 74.6162 377.092C75.5558 385.645 80.2539 392.959 82.3093 401.099C82.6617 402.515 83.1902 404.049 84.1298 405.169C86.5963 408.237 88.7104 411.54 90.3547 415.138C91.1768 416.967 92.4688 418.383 94.7003 417.498C96.697 416.731 98.0477 414.784 97.1668 413.015C94.4654 407.588 95.0527 400.804 91.8228 396.144C88.5929 391.484 87.3597 387.237 87.1835 381.87C87.066 378.743 84.4234 376.207 82.9553 373.434C81.8395 371.37 81.8982 369.954 84.1885 369.01C85.363 368.479 86.5375 367.831 87.712 367.3C102.1 360.634 116.487 353.969 130.875 347.303C134.751 345.474 134.516 345.769 137.57 348.955C142.503 354.087 145.087 359.926 144.793 367.123C144.676 370.19 145.674 373.021 148.199 375.086C149.902 376.443 150.489 378.448 150.9 380.513C151.194 381.988 151.605 383.462 152.486 384.701C153.426 385.999 154.718 386.824 156.303 385.999C157.771 385.291 157.771 383.875 157.36 382.577C154.424 373.08 155.364 362.876 151.664 353.438C150.666 350.842 149.667 348.306 148.199 345.887C146.261 342.643 146.731 341.522 150.196 339.93C157.478 336.567 164.172 332.084 171.631 329.017C173.627 328.191 175.33 327.188 177.151 329.076C177.386 329.312 177.738 329.666 178.09 329.666C181.379 329.666 183.787 330.964 185.372 334.326Z" fill="#B1C092"/>
<path d="M533.972 316.657C534.149 321.976 533.501 327.177 531.793 332.141C527.848 343.369 527.318 354.833 529.026 366.534C529.85 372.267 530.262 378.117 529.791 383.908C529.615 386.331 529.379 388.754 527.141 391C525.905 388.873 526.435 386.863 526.376 384.972C526.199 373.271 523.491 362.339 516.66 352.706C512.067 346.146 505.708 342.069 497.935 340.119C485.746 337.105 473.91 333.086 462.016 329.068C457.776 327.649 453.596 326.054 449.65 323.808C443.409 320.262 439.581 315.062 438.345 307.911C437.52 303.184 437.932 299.461 442.29 296.151C448.06 291.719 451.358 285.278 453.301 278.245C454.538 273.695 455.774 269.026 455.48 264.417C455.068 257.798 457.953 251.652 457.835 245.152C457.776 242.906 459.484 241.901 461.368 241.31C466.55 239.656 471.614 237.528 477.031 236.996C486.629 236.051 495.462 233.805 501.409 225C501.88 225.236 502.351 225.532 502.822 225.827C502.822 229.728 502.881 233.628 502.822 237.528C502.646 246.038 505.237 253.307 511.714 259.098C517.131 263.885 520.723 270.031 523.608 276.65C529.085 289.473 533.56 302.534 533.972 316.657Z" fill="#429C4D"/>
<path d="M523.924 392.993C524.278 396.313 523.394 399.278 521.152 401.887C517.966 405.564 514.898 409.418 511.653 413.035C501.447 424.124 493.365 436.279 490.297 451.459C487.819 463.615 479.972 471.027 468.232 475C467.229 473.28 467.524 471.917 467.524 470.671C467.76 465.987 466.462 461.955 463.748 458.041C458.852 450.807 455.371 442.802 455.489 433.848C455.607 422.819 450.474 414.873 441.802 408.766C434.604 403.666 427.82 398.033 419.206 395.187C419.442 392.637 421.271 391.095 422.451 389.316C427.761 381.311 429.177 372.773 426.345 363.522C422.746 351.841 420.858 339.745 415.903 328.419C413.071 321.896 413.956 314.781 415.018 307.784C415.313 306.005 416.139 305.115 417.85 304.937C422.687 304.404 427.525 304.226 432.304 303.099C433.837 302.744 434.84 303.336 435.135 304.997C435.194 305.353 435.253 305.708 435.312 306.123C436.197 319.109 443.985 326.403 455.43 330.613C467.524 335.119 479.736 339.389 492.185 342.828C495.96 343.895 499.854 344.725 503.394 346.504C511.594 350.596 516.432 357.533 519.323 366.013C522.45 374.611 522.922 383.861 523.924 392.993Z" fill="#13751E"/>
<path d="M462.864 466.802C463.513 473.273 461.978 477.845 455.249 480.576C446.808 484.02 440.964 490.61 437.363 499.219C433.939 507.531 428.39 514.419 421.779 520.415C418.296 523.562 414.813 526.709 411.39 529.915C407.316 533.774 402.653 535.674 398.403 534.783C386.774 533.655 376.562 532.468 366.231 532.112C362.395 531.993 360.092 529.915 358.321 526.709C354.307 519.228 350.234 511.806 346.043 504.444C340.612 494.885 334.355 486.039 324.969 479.804C321.428 477.489 320.011 473.748 319.184 469.77C318.476 466.267 318.063 462.705 317.473 459.202C316.469 453.443 315.288 447.684 312.16 442.637C310.153 439.372 310.92 436.581 313.163 433.85C317.591 428.566 323.08 424.707 329.987 424.825C343.446 425.182 355.901 422.213 368.002 416.395C373.61 413.663 379.985 413.366 386.125 412.773C396.219 411.763 404.896 408.082 411.803 400.364C415.108 396.742 419.772 397.93 423.018 399.652C431.342 403.986 439.016 409.389 445.568 416.276C449.405 420.313 450.704 425.419 450.822 430.822C450.94 438.719 452.888 446.081 456.489 453.027C457.787 455.521 459.204 457.955 460.798 460.33C462.155 462.468 462.628 464.546 462.864 466.802Z" fill="#13751E"/>
<path d="M331.15 393.413C329.968 392.704 328.668 393.354 327.486 393.354C326.363 393.354 325.122 393.59 324.59 392.231C324.118 391.049 324.827 390.045 325.536 389.159C328.314 385.732 331.919 384.077 336.292 383.959C337.769 383.9 339.306 384.195 340.429 382.777C344.034 378.169 348.466 374.033 350.889 368.951C353.135 364.225 355.322 362.57 360.345 363.87C364.009 364.815 368.087 362.688 371.811 365.052C372.933 365.761 374.352 364.579 375.061 363.456C375.77 362.334 376.066 361.034 376.716 359.911C378.016 357.666 378.784 357.607 380.439 359.557C382.921 362.511 384.103 366.056 385.403 369.601C386.113 371.551 386.113 374.092 388.654 374.978C388.949 374.446 389.304 374.092 389.245 373.856C387.767 368.242 386.408 362.511 382.508 357.962C380.144 355.244 379.789 352.526 380.853 349.158C382.212 344.845 383.039 340.413 383.039 335.864C383.039 333.796 383.985 330.605 381.089 330.191C378.193 329.778 378.193 333.146 377.661 335.155C376.243 340.59 375.357 346.144 376.066 351.817C376.479 355.244 375.652 359.084 372.461 359.911C366.551 361.507 360.168 362.275 354.258 359.734C350.062 357.962 348.644 354.121 350.535 350.34C351.48 348.449 351.54 347.208 349.471 346.322C347.048 345.317 345.452 345.967 344.861 348.449C344.566 349.749 344.448 350.93 343.561 352.053C338.656 358.139 338.951 359.261 345.866 362.452C346.221 362.629 346.575 362.688 346.93 362.866C349.944 364.343 350.417 365.347 348.585 368.065C346.102 371.61 343.148 374.742 340.606 378.228C338.951 380.473 337.001 381.832 334.164 382.128C330.323 382.541 327.013 384.373 324.472 387.327C322.876 389.159 321.044 391.227 322.522 393.826C323.999 396.485 326.777 395.658 329.141 395.303C329.85 395.008 330.914 394.89 331.15 393.413ZM423.286 367.356C424.941 372.91 423.582 378.523 420.627 383.605C416.726 390.281 411.939 396.249 406.325 401.567C400.592 407.062 393.382 409.13 385.817 409.839C375.948 410.725 366.728 413.384 357.804 417.638C351.953 420.474 345.807 421.774 339.306 421.656C336.292 421.597 333.337 421.892 330.323 422.128C323.467 422.66 317.735 425.555 313.007 430.459C312.12 431.346 311.47 432.645 309.638 433C308.279 431.523 308.22 429.396 307.924 427.505C306.27 417.047 302.074 407.889 295.218 399.794C290.49 394.24 286.294 388.213 281.743 382.482C274.77 373.737 270.219 363.634 265.846 353.471C264.25 349.808 264.782 348.035 268.564 346.204C283.044 339.172 297.168 331.196 313.598 329.423C320.631 328.714 325.122 324.578 328.018 318.315C331.682 310.339 332.805 301.83 333.633 293.204C333.81 291.254 333.514 289.186 334.46 287C336.41 287.709 336.765 288.832 337.06 289.895C337.651 292.022 338.656 293.204 341.079 292.318C341.67 292.081 342.616 292.318 343.266 292.672C349.412 295.567 356.031 295.449 362.591 295.567C374.056 295.804 385.344 297.399 396.396 300.826C400.474 302.126 404.729 302.953 409.102 304.076C409.516 309.216 410.166 314.475 410.166 319.792C410.225 324.342 411.584 328.714 413.476 332.791C418.499 343.84 419.858 355.835 423.286 367.356Z" fill="#13751E"/>
<path d="M305.801 433.236C306.096 435.19 306.449 436.906 303.741 437.498C300.738 438.149 300.561 440.635 301.68 442.826C303.564 446.614 302.387 449.751 300.326 452.829C294.85 461.294 287.844 468.279 279.365 473.724C275.597 476.151 271.476 477.158 267.06 476.98C256.992 476.507 246.924 475.855 236.856 475.382C230.968 475.086 226.611 472.304 223.255 467.568C219.84 462.655 216.484 457.624 212.951 452.829C210.419 449.337 207.711 445.963 204.826 442.766C200.999 438.623 197.113 434.598 195.994 428.738C195.818 427.909 195.111 427.08 194.464 426.488C186.044 419.148 183.277 409.441 183.041 398.727C182.982 396.3 183.041 393.813 183.041 390.972C182.688 377.89 184.572 364.75 189.812 352.26C192.579 345.689 191.814 339.356 188.458 333.318C186.927 330.595 186.044 327.458 183.571 325.208C182.453 324.202 183.395 323.137 184.749 323.018C185.926 322.9 186.986 323.373 187.869 324.025C191.108 326.274 194.758 326.629 198.585 326.451C205.12 326.215 211.656 326.925 218.191 327.517C221.724 327.813 225.198 328.642 228.495 330.003C233.323 331.956 238.21 333.969 242.979 336.1C252.282 340.244 259.347 347.228 263.115 356.403C270.122 373.392 280.72 387.835 292.377 401.568C300.208 410.861 303.976 421.575 305.801 433.236Z" fill="#145A1C"/>
<path d="M338.329 252.173C339.869 260.466 338.803 268.344 334.656 275.63C331.753 280.724 330.449 285.996 330.39 291.742C330.271 299.324 329.027 306.669 326.716 313.895C324.11 322.01 319.251 327.045 310.186 327.638C303.788 328.052 297.685 330.185 291.76 332.732C282.281 336.878 272.742 340.906 263.914 346.356C261.899 347.6 260.892 346.889 259.707 345.527C248.746 332.85 233.816 327.875 218.234 324.676C212.19 323.432 205.91 323.669 199.689 323.432C194.238 323.195 188.728 323.373 185.884 317.272C185.41 316.206 184.285 316.679 183.396 317.094C182.033 317.686 181.145 319.108 179.071 319.226C178.301 316.976 179.249 315.436 180.019 313.659C182.033 309.038 183.929 304.359 184.048 299.087C184.107 294.17 182.567 290.261 178.478 287.418C178.004 287.122 177.59 286.707 177.116 286.411C167.399 280.547 165.503 271.839 167.991 261.473C168.465 259.459 168.999 257.445 169.828 255.55C170.835 253.18 171.309 250.811 170.184 248.442C169.058 246.25 169.828 244.473 170.895 242.637C175.16 235.41 181.085 230.672 189.854 230.316C192.283 230.257 194.712 229.783 197.141 229.665C203.955 229.309 209.998 227.058 215.508 223.09C219.182 220.483 222.796 217.758 226.114 214.738C232.098 209.406 238.674 205.26 246.199 202.535C254.375 199.574 261.84 195.131 269.187 190.629C272.445 188.615 275.171 186.187 276.83 182.573C278.37 179.316 280.74 179.079 282.281 182.277C283.584 185.002 285.184 185.298 287.613 185.061C293.893 184.528 298.929 187.016 303.195 191.518C306.572 195.072 309.712 198.863 312.319 203.009C318.422 212.724 324.524 222.438 330.508 232.212C334.182 238.49 337.026 245.006 338.329 252.173ZM262.433 257.919C262.847 255.254 261.248 253.358 260.951 251.167C260.655 248.916 260.655 246.665 260.418 244.473C260.3 243.525 259.707 242.696 258.581 242.755C257.752 242.815 257.219 243.466 257.1 244.236C256.923 245.184 256.863 246.072 256.863 247.02C256.804 251.522 254.256 254.306 250.524 256.201C248.095 257.386 245.488 257.505 242.822 257.208C241.34 257.031 239.563 256.498 238.793 258.215C237.845 260.229 239.681 261.296 240.807 262.362C243.296 264.613 246.021 266.686 248.509 268.937C249.991 270.299 252.301 271.543 251.887 273.794C251.353 276.459 248.569 276.46 246.436 276.933C242.94 277.703 239.385 278.059 235.949 278.947C233.046 279.717 232.749 281.257 234.942 283.331C237.074 285.285 240.392 286.707 237.311 290.379C237.074 290.676 237.252 291.446 237.43 291.979C238.556 295.474 246.436 300.39 250.82 300.272C250.405 298.495 248.628 298.376 247.443 297.665C245.488 296.54 243.533 295.414 241.933 293.815C240.748 292.69 239.918 291.564 241.222 289.965C242.94 287.892 241.933 286.174 240.392 284.515C239.681 283.745 238.556 283.094 238.733 281.672C239.622 280.606 240.985 280.665 242.229 280.428C244.421 280.013 246.673 279.717 248.865 279.066C255.915 277.052 256.923 273.439 251.768 268.344C250.05 266.627 248.095 265.146 246.317 263.487C245.488 262.658 243.888 262.125 244.777 260.17C250.109 260.17 254.553 257.564 258.167 254.01C259.944 255.076 259.648 257.564 262.433 257.919Z" fill="#13751E"/>
<path d="M454.169 233.832C455.233 235.908 455.528 237.687 453.519 239.348C453.105 239.703 452.573 240.474 452.75 240.771C455.055 245.456 451.155 249.548 451.568 254.174C452.337 262.062 451.391 269.95 449.322 277.66C447.786 283.413 444.949 288.454 440.871 292.783C437.089 296.757 432.538 299.129 427.219 299.96C417.29 301.502 407.42 301.62 397.727 298.299C384.548 293.851 370.895 292.784 357.184 292.724C350.505 292.665 344.773 290.589 339.513 286.616C335.021 283.176 334.548 282.227 337.208 277.423C343.059 266.866 343.472 255.954 339.867 244.685C338.212 239.466 335.848 234.544 332.952 229.858C327.042 220.251 321.132 210.643 315.163 201.094C312.444 196.765 309.253 192.85 305.825 189.114C302.338 185.318 297.905 182.946 293 180.752C294.537 178.795 295.896 179.091 297.137 179.091C305.529 179.091 312.976 176.422 319.477 171.085C327.397 164.561 337.385 162.663 346.427 158.63C347.728 158.037 348.437 158.63 349.205 159.638C354.465 166.577 358.543 167.882 366.522 164.798C370.895 163.137 375.269 161.24 379.347 158.986C384.37 156.139 388.744 156.199 393.176 160.172C398.082 164.561 403.637 165.51 409.843 162.485C413.744 160.587 414.157 160.884 416.758 164.561C418.649 167.289 421.013 169.305 424.086 170.492C428.105 172.034 431.119 174.762 433.424 178.32C435.138 181.048 437.62 183.124 439.689 185.496C445.244 192.139 449.559 199.137 450.8 208.33C451.746 215.387 452.573 222.326 452.869 229.443C452.928 230.985 453.46 232.527 454.169 233.832ZM394.477 259.216C399.441 253.759 396.663 246.583 389.512 245.278C388.212 245.041 386.912 244.922 385.611 244.863C382.184 244.626 379.583 243.262 377.869 240.059C377.042 238.399 375.86 236.857 374.678 235.433C373.614 234.128 372.136 232.764 370.363 234.01C368.709 235.196 369.24 237.034 369.95 238.636C370.895 240.949 372.668 242.669 374.678 244.092C376.333 245.278 378.401 245.99 379.229 248.718C373.555 252.632 373.318 253.285 375.978 259.334C376.569 260.758 377.278 262.003 376.805 263.604C376.096 266.392 377.692 267.637 379.938 268.764C383.011 270.247 383.011 270.425 380.174 273.034C379.583 273.568 378.992 273.924 379.347 274.754C379.76 275.703 380.647 276.118 381.652 275.94C382.893 275.762 383.543 274.813 384.075 273.805C386.793 268.408 390.399 263.664 394.477 259.216Z" fill="#13751E"/>
<path d="M500.608 210.849C501.317 215.112 501.258 218.783 498.776 222.572C496.117 226.599 493.34 230.21 488.672 231.987C486.191 232.934 483.709 233.822 481.05 233.704C475.495 233.467 470.296 234.888 465.037 236.368C460.841 237.553 460.605 237.316 458.419 233.526C456.292 229.855 456.823 225.888 456.823 221.27C456.882 218.25 457.178 214.461 454.932 211.086C454.578 210.494 454.519 209.665 454.519 208.895C454.401 197.527 448.374 189.178 440.692 181.599C439.924 180.829 439.038 180.06 438.447 179.112C435.02 173.547 430.588 169.106 424.265 166.856C422.079 166.086 420.838 164.073 419.538 162.238C416.466 157.974 414.397 157.027 410.084 159.336C404.234 162.415 399.33 161.527 394.662 157.323C389.994 153.178 385.03 152.941 379.653 155.961C375.872 158.034 371.913 159.751 368.013 161.586C365.649 162.711 363.167 163.599 360.508 163.777C357.731 163.955 355.19 163.362 353.89 160.58C352.591 157.856 352.591 155.369 354.718 152.764C363.167 142.698 366.831 130.915 366.772 117.889C366.772 114.277 366.358 110.784 365.236 107.35C364.822 106.106 364.408 104.863 364.231 103.56C363.463 98.2906 364.94 96.692 370.199 97.0472C376.935 97.5209 383.671 98.1722 390.348 98.7643C393.007 99.0011 395.489 99.9486 397.793 101.251C404.234 104.804 411.029 107.468 417.943 109.896C424.856 112.383 431.415 115.58 437.678 119.429C444.533 123.633 451.446 127.777 458.301 132.04C475.141 142.402 486.781 156.672 492.099 175.974C495.231 187.461 498.717 198.888 500.608 210.849Z" fill="#429C4D"/>
<path d="M349.697 75.1742C359.872 77.7231 364.723 86.3182 361.351 96.3359C359.99 100.307 360.168 103.923 361.233 107.895C365.492 123.959 361.943 138.363 351.768 151.285C349.52 154.13 346.502 156.086 343.131 157.45C339.818 158.754 336.505 160.058 333.133 161.244C327.454 163.318 322.07 165.986 317.397 169.839C311.008 175.114 303.672 177.367 295.45 176.952C291.131 176.715 286.813 176.952 282.553 176.24C280.069 175.826 278.412 174.936 278.531 171.913C278.826 163.2 274.685 156.442 268.592 150.633C264.628 146.839 260.369 143.461 255.992 140.26C252.915 138.066 249.898 135.814 246.881 133.621C241.616 129.827 239.132 124.611 239.013 118.15C238.954 114.356 239.072 110.621 239.782 106.946C241.261 99.3589 242.326 91.7123 240.611 84.0063C240.433 83.1172 240.137 81.9909 240.847 81.2796C242.622 79.5606 240.906 78.2565 240.256 76.4189C244.929 77.2488 248.715 78.4344 252.205 80.2127C264.51 86.496 277.229 86.0811 290.066 82.4059C301.839 79.0272 313.67 76.2412 325.797 74.7C332.364 73.8701 338.93 73.8701 345.497 74.2257C346.739 74.5221 348.218 74.8186 349.697 75.1742Z" fill="#13751E"/>
<path d="M269.838 156.755C275.795 163.953 275.913 172.154 273.613 180.65C272.728 183.896 270.133 185.902 267.361 187.613C260.166 192.038 252.971 196.404 245.069 199.354C237.225 202.304 230.325 206.552 224.191 212.216C221.714 214.517 219.001 216.523 216.406 218.648C209.919 223.84 202.547 226.731 194.172 226.79C193.406 226.79 192.698 226.908 191.931 226.908C181.787 227.262 174.12 231.687 168.99 240.655C166.748 244.608 166.513 244.549 162.384 243.074C159.023 241.894 155.779 240.773 153.951 237.115C152.771 234.755 149.999 233.693 147.758 232.454C141.507 228.914 138.617 223.958 140.15 216.641C140.917 212.983 141.153 209.207 141.33 205.49C141.625 199 138.617 194.339 132.66 191.743C129.947 190.563 127.058 189.619 124.286 188.498C118.447 186.197 116.737 183.66 117.032 177.405C117.091 175.753 117.386 174.042 117.68 172.39C118.801 165.133 120.924 158.171 123.46 151.327C125.465 145.84 129.122 142.181 134.725 140.529C136.14 140.116 137.555 139.644 138.971 139.113C146.52 136.576 150.589 131.266 151.415 123.419C151.828 119.525 152.181 115.572 152.594 111.678C152.948 108.492 153.538 105.306 154.835 102.414C160.261 90.3781 168.459 80.5839 178.839 72.5007C181.375 70.4946 184.5 69.5505 187.567 68.8425C193.936 67.3674 200.424 66.3054 208.15 66.0694C212.986 65.6564 218.47 67.0725 223.365 70.6716C225.017 71.9106 226.845 73.2086 228.732 73.5626C233.155 74.4476 235.043 76.6898 236.104 81.1739C237.638 87.7231 238.168 94.0362 236.989 100.585C236.045 105.955 235.161 111.265 235.22 116.752C235.279 125.012 238.345 131.62 245.128 136.458C249.138 139.29 253.03 142.122 256.982 145.014C261.7 148.495 266.064 152.271 269.838 156.755Z" fill="#13751E"/>
<path d="M537.629 314.549C538.279 319.99 538.22 325.549 536.269 330.694C531.187 344.356 531.187 358.254 533.314 372.329C533.669 374.577 533.669 376.824 533.787 379.072C534.26 386.346 532.133 392.674 527.582 398.41C522.677 404.561 517.89 410.83 512.512 416.626C503.47 426.443 496.437 437.384 493.718 450.691C491.177 463.288 483.553 471.627 471.97 476.831C466.356 479.315 460.859 482.331 455.422 485.17C449.217 488.363 444.548 493.154 441.83 499.659C435.506 515.036 423.155 525.267 410.862 535.499C407.08 538.692 402.411 539.402 397.565 538.81C387.341 537.509 377.058 536.622 366.715 536.149C361.042 535.853 357.319 533.251 354.718 528.343C350.345 520.063 345.735 511.842 341.007 503.74C336.339 495.697 330.724 488.482 322.864 483.277C318.314 480.261 316.363 475.648 315.418 470.503C314.531 465.713 313.881 460.863 312.936 456.073C312.226 452.583 312.049 452.583 307.617 453.234C307.144 449.804 308.976 446.137 306.317 442.884C307.38 447.083 305.844 450.691 303.716 454.062C297.865 463.229 290.301 470.68 281.141 476.476C277.535 478.724 273.635 480.025 269.439 479.847C258.21 479.374 246.981 478.901 235.753 478.191C230.02 477.836 225.41 475.116 221.983 470.444C220.446 468.315 218.851 466.245 217.373 463.997C210.754 453.944 202.776 445.013 194.856 435.965C190.01 430.406 186.228 430.11 179.668 432.18C166.134 436.497 153.369 442.056 141.845 450.454C134.517 455.777 126.538 459.858 118.383 463.702C115.842 464.885 113.832 464.885 111.527 463.583C100.712 457.669 90.961 450.395 83.3373 440.637C75.5362 430.642 69.6855 419.524 65.785 407.459C63.5983 400.599 62.771 393.561 62.8301 386.346C62.8301 384.512 63.0664 382.62 62.4163 380.787C61.1753 377.356 62.771 374.34 66.376 373.69C68.0898 373.394 69.6264 372.921 71.1039 372.152C91.0201 361.684 111.586 352.458 131.975 342.996C136.703 340.807 141.549 338.797 146.573 337.318C149.41 336.49 152.187 335.071 154.728 333.592C159.102 331.049 163.416 328.447 168.144 326.555C173.995 324.189 176.713 319.576 176.418 313.307C176.359 311.474 176.831 310.054 178.013 308.694C180.909 305.56 181.146 301.597 181.205 297.635C181.205 294.619 179.964 292.194 177.718 290.301C177.009 289.71 176.24 289.119 175.472 288.586C164.834 280.661 162.057 273.032 165.13 260.199C167.73 249.553 167.73 249.553 157.27 245C155.024 244.053 152.778 242.989 151.478 240.741C150.414 238.849 148.641 237.784 146.927 236.661C144.918 235.3 142.85 233.94 140.958 232.403C136.822 229.091 135.049 224.773 135.758 219.451C136.172 216.316 136.585 213.123 136.94 209.929C138.122 200.289 136.172 196.977 127.189 193.665C125.416 193.015 123.643 192.364 121.87 191.773C115.782 189.644 112.591 185.208 112.887 178.939C113.359 167.17 116.433 155.993 121.751 145.466C123.938 141.089 127.957 138.191 132.685 137.186C143.5 134.88 147.696 128.197 147.873 117.433C148.228 96.6154 160.106 81.5938 175.649 70.0614C187.646 61.1903 202.658 60.8946 217.314 63.2602C219.914 63.6742 222.219 65.1526 224.347 66.7494C227.893 69.4108 231.911 70.7119 236.285 71.3624C242.254 72.2495 248.163 73.6689 253.541 76.3894C265.007 82.1852 276.767 81.6529 288.587 78.4001C297.806 75.8571 307.026 73.314 316.481 71.7764C326.115 70.2387 335.807 69.1742 345.617 70.0614C349.045 70.3571 352.295 71.1259 355.368 72.5452C359.446 74.4377 362.874 77.2764 363.997 81.6528C365.001 85.5561 367.602 88.3358 369.552 91.5885C370.439 93.0079 371.739 92.8305 372.98 92.9488C378.18 93.5402 383.44 94.0724 388.641 94.5456C392.66 94.9004 396.383 96.0241 399.87 97.9757C405.129 100.874 410.685 103.18 416.358 105.132C425.637 108.325 434.324 112.702 442.598 117.906C448.449 121.632 454.477 125.121 460.387 128.788C477.821 139.611 489.759 154.573 495.491 174.563C500.396 191.714 504.888 208.924 506.188 226.843C506.543 231.693 506.602 236.602 506.661 241.451C506.72 246.596 508.611 250.914 512.216 254.521C528.941 271.14 535.087 292.135 537.629 314.549ZM531.66 332.587C533.433 327.56 534.024 322.415 533.846 317.092C533.433 302.957 528.941 289.828 523.386 277.054C520.49 270.43 516.826 264.339 511.448 259.489C504.947 253.693 502.347 246.419 502.524 237.903C502.583 233.999 502.524 230.096 502.524 226.193C502.051 225.956 501.578 225.66 501.106 225.365C495.137 234.177 486.272 236.365 476.639 237.37C471.202 237.903 466.119 240.091 460.919 241.688C459.087 242.279 457.373 243.284 457.373 245.532C457.491 252.037 454.654 258.188 455.009 264.812C455.304 269.425 454.063 274.156 452.822 278.651C450.872 285.688 447.562 292.194 441.771 296.57C437.397 299.882 436.984 303.608 437.811 308.339C439.111 315.495 442.893 320.7 449.158 324.248C453.118 326.436 457.314 328.033 461.569 329.512C473.447 333.533 485.385 337.614 497.619 340.571C505.42 342.463 511.743 346.603 516.412 353.168C523.209 362.808 525.986 373.808 526.164 385.459C526.223 387.351 525.691 389.362 526.932 391.491C529.178 389.244 529.414 386.819 529.591 384.394C530.064 378.539 529.65 372.743 528.823 367.007C527.168 355.297 527.7 343.824 531.66 332.587ZM520.608 401.19C522.854 398.647 523.74 395.631 523.386 392.319C522.381 383.211 521.908 374.044 518.894 365.232C515.999 356.775 511.152 349.856 502.938 345.775C499.392 344.001 495.55 343.173 491.709 342.109C479.239 338.678 467.006 334.479 454.891 329.926C443.425 325.667 435.683 318.452 434.738 305.5C434.738 305.146 434.62 304.732 434.561 304.377C434.265 302.78 433.26 302.129 431.724 302.484C426.937 303.608 422.091 303.726 417.245 304.318C415.531 304.495 414.644 305.382 414.408 307.156C413.285 314.076 412.458 321.173 415.294 327.737C420.2 339.033 422.15 351.098 425.755 362.749C428.592 372.034 427.232 380.491 421.854 388.475C420.672 390.249 418.84 391.846 418.604 394.33C427.232 397.228 434.029 402.846 441.239 407.873C449.926 413.964 455.009 421.949 454.95 432.89C454.831 441.82 458.318 449.804 463.223 457.019C465.942 460.981 467.242 464.944 467.006 469.616C466.947 470.917 466.71 472.218 467.715 473.933C479.476 469.971 487.336 462.578 489.818 450.454C492.891 435.373 500.987 423.19 511.212 412.131C514.403 408.701 517.417 404.857 520.608 401.19ZM498.564 222.408C501.047 218.682 501.047 215.015 500.397 210.698C498.505 198.811 494.959 187.337 491.827 175.746C486.567 156.407 474.866 142.154 458.023 131.863C451.167 127.664 444.253 123.465 437.397 119.266C431.133 115.422 424.573 112.229 417.658 109.745C410.744 107.261 403.947 104.659 397.506 101.11C395.201 99.8683 392.719 98.8629 390.059 98.6263C383.322 98.0349 376.644 97.3252 369.907 96.9112C364.588 96.5563 363.169 98.2123 363.938 103.417C364.115 104.718 364.529 105.96 364.942 107.202C366.065 110.632 366.479 114.121 366.479 117.729C366.538 130.799 362.874 142.568 354.423 152.563C352.295 155.106 352.236 157.649 353.595 160.369C354.955 163.09 357.437 163.681 360.214 163.563C362.874 163.385 365.356 162.498 367.72 161.375C371.621 159.541 375.58 157.826 379.362 155.756C384.8 152.74 389.705 152.977 394.374 157.116C399.042 161.315 403.947 162.202 409.798 159.127C414.172 156.821 416.181 157.767 419.254 162.025C420.613 163.859 421.795 165.869 423.982 166.638C430.305 168.945 434.738 173.321 438.166 178.88C438.757 179.826 439.643 180.595 440.411 181.364C448.094 188.875 454.122 197.214 454.24 208.628C454.24 209.338 454.3 210.225 454.654 210.816C456.9 214.187 456.604 217.972 456.545 220.988C456.604 225.661 456.013 229.564 458.141 233.23C460.328 237.016 460.564 237.252 464.76 236.069C470.02 234.591 475.22 233.231 480.776 233.408C483.435 233.526 485.976 232.639 488.399 231.693C493.068 230.037 495.905 226.429 498.564 222.408ZM455.482 480.675C462.219 477.955 463.755 473.401 463.105 466.954C462.869 464.648 462.455 462.578 461.096 460.626C459.5 458.32 458.082 455.836 456.782 453.352C453.118 446.433 451.226 439.04 451.108 431.234C450.99 425.852 449.749 420.766 445.848 416.744C439.288 409.884 431.547 404.502 423.273 400.185C420.022 398.47 415.354 397.287 412.044 400.894C405.07 408.524 396.442 412.249 386.336 413.255C380.19 413.846 373.866 414.201 368.193 416.862C356.137 422.658 343.608 425.615 330.133 425.26C323.219 425.083 317.723 428.986 313.29 434.25C311.044 436.97 310.217 439.75 312.285 443.003C315.418 448.029 316.6 453.766 317.604 459.503C318.195 462.992 318.609 466.541 319.318 470.03C320.146 473.992 321.564 477.659 325.11 480.025C334.447 486.234 340.771 495.046 346.208 504.568C350.404 511.901 354.482 519.294 358.501 526.746C360.214 529.939 362.578 532.009 366.42 532.128C376.703 532.483 386.986 533.665 398.629 534.789C402.884 535.617 407.552 533.783 411.63 529.939C415.058 526.746 418.545 523.611 422.032 520.477C428.651 514.444 434.147 507.643 437.634 499.364C441.18 490.729 446.971 484.165 455.482 480.675ZM453.59 239.44C455.541 237.784 455.304 236.01 454.24 233.94C453.59 232.639 452.999 231.101 452.94 229.682C452.704 222.585 451.876 215.666 450.872 208.628C449.631 199.461 445.257 192.483 439.761 185.859C437.752 183.434 435.27 181.364 433.497 178.703C431.192 175.095 428.178 172.434 424.159 170.896C421.086 169.713 418.722 167.703 416.831 164.982C414.29 161.315 413.817 161.02 409.916 162.912C403.711 165.928 398.156 164.982 393.251 160.606C388.759 156.643 384.445 156.584 379.422 159.423C375.344 161.729 370.97 163.563 366.597 165.219C358.56 168.294 354.482 166.993 349.281 160.073C348.513 159.009 347.804 158.477 346.504 159.068C337.462 163.09 327.474 164.982 319.555 171.488C313.054 176.81 305.666 179.472 297.215 179.472C295.974 179.472 294.556 179.176 293.078 181.128C297.984 183.316 302.416 185.622 305.903 189.466C309.331 193.192 312.581 197.095 315.24 201.413C321.209 210.934 327.178 220.515 333.029 230.096C335.866 234.768 338.23 239.677 339.944 244.881C343.549 256.118 343.135 267.059 337.284 277.527C334.566 282.377 335.098 283.323 339.589 286.694C344.849 290.656 350.522 292.726 357.26 292.785C370.97 292.844 384.622 293.909 397.801 298.344C407.493 301.597 417.304 301.538 427.291 300C432.669 299.172 437.22 296.807 440.943 292.844C445.021 288.527 447.858 283.5 449.394 277.763C451.463 270.075 452.408 262.209 451.64 254.344C451.226 249.672 455.068 245.65 452.822 240.978C452.645 240.564 453.177 239.736 453.59 239.44ZM420.495 383.98C423.45 378.894 424.809 373.276 423.155 367.717C419.786 356.243 418.368 344.178 413.285 333.178C411.394 329.098 410.035 324.721 409.976 320.167C409.916 314.845 409.266 309.581 408.912 304.436C404.538 303.312 400.283 302.484 396.206 301.183C385.213 297.753 373.925 296.215 362.401 295.92C355.841 295.801 349.281 295.92 343.076 293.022C342.426 292.726 341.539 292.489 340.889 292.667C338.466 293.554 337.461 292.43 336.871 290.242C336.575 289.178 336.22 288.054 334.27 287.344C333.325 289.473 333.62 291.543 333.443 293.554C332.675 302.189 331.493 310.705 327.828 318.689C324.992 324.899 320.441 329.038 313.408 329.807C296.979 331.522 282.795 339.565 268.375 346.603C264.593 348.437 264.061 350.211 265.657 353.878C270.03 364.05 274.64 374.104 281.554 382.916C286.105 388.652 290.301 394.685 295.029 400.244C301.884 408.346 306.139 417.513 307.735 427.981C308.03 429.873 308.089 432.002 309.449 433.481C311.281 433.126 311.931 431.825 312.817 430.938C317.604 426.029 323.337 423.131 330.133 422.599C333.088 422.362 336.102 422.126 339.116 422.126C345.617 422.244 351.822 420.884 357.614 418.104C366.479 413.787 375.757 411.185 385.627 410.298C393.192 409.588 400.402 407.518 406.134 402.018C411.808 396.636 416.654 390.663 420.495 383.98ZM361.278 95.7876C364.647 85.7928 359.86 77.2174 349.636 74.6744C348.217 74.3195 346.681 73.9646 345.203 73.9055C338.643 73.5507 332.084 73.5507 325.524 74.3787C313.408 75.9163 301.589 78.6959 289.828 82.0669C277.063 85.7337 264.356 86.1475 252.005 79.8786C248.518 78.1044 244.736 76.8625 240.067 76.0937C240.717 77.927 242.431 79.169 240.658 80.9432C239.949 81.6529 240.244 82.7175 240.422 83.6637C242.194 91.352 241.131 98.9811 239.594 106.551C238.885 110.277 238.708 114.003 238.826 117.729C238.944 124.175 241.426 129.32 246.686 133.164C249.7 135.353 252.714 137.6 255.787 139.788C260.22 142.982 264.475 146.353 268.375 150.138C274.462 155.934 278.599 162.676 278.304 171.369C278.186 174.386 279.84 175.273 282.322 175.687C286.578 176.396 290.951 176.16 295.206 176.396C303.421 176.81 310.749 174.563 317.132 169.299C321.8 165.455 327.178 162.794 332.852 160.724C336.22 159.541 339.53 158.24 342.839 156.939C346.208 155.579 349.222 153.627 351.468 150.788C361.633 137.896 365.179 123.465 360.924 107.497C360.096 103.417 359.919 99.75 361.278 95.7876ZM334.447 275.28C338.584 268.005 339.648 260.14 338.112 251.86C336.752 244.704 333.916 238.198 330.192 232.107C324.283 222.29 318.195 212.59 312.049 202.95C309.449 198.811 306.316 195.085 302.948 191.477C298.693 186.983 293.669 184.499 287.405 185.031C285.041 185.267 283.386 184.972 282.086 182.251C280.55 179.058 278.186 179.294 276.649 182.547C274.935 186.095 272.276 188.579 269.025 190.59C261.638 195.085 254.251 199.52 246.095 202.477C238.589 205.198 231.97 209.338 226.061 214.66C222.692 217.677 219.087 220.397 215.482 222.999C210.045 226.902 203.958 229.209 197.161 229.564C194.738 229.682 192.315 230.096 189.892 230.214C181.146 230.51 175.236 235.241 170.981 242.516C169.917 244.349 169.148 246.064 170.271 248.311C171.394 250.618 170.921 253.043 169.917 255.408C169.089 257.301 168.558 259.312 168.085 261.322C165.603 271.613 167.494 280.366 177.186 286.221C177.659 286.516 178.072 286.871 178.545 287.226C182.623 290.065 184.16 293.968 184.1 298.877C184.041 304.14 182.091 308.753 180.082 313.425C179.314 315.2 178.368 316.737 179.136 318.985C181.205 318.925 182.091 317.506 183.45 316.856C184.337 316.442 185.46 316.027 185.933 317.033C188.769 323.124 194.265 322.947 199.703 323.184C205.908 323.42 212.231 323.183 218.2 324.425C233.743 327.619 248.636 332.587 259.57 345.243C260.751 346.662 261.756 347.372 263.765 346.071C272.571 340.63 282.086 336.608 291.542 332.469C297.393 329.926 303.539 327.796 309.922 327.382C318.905 326.791 323.81 321.764 326.41 313.662C328.715 306.447 329.956 299.054 330.074 291.543C330.251 285.57 331.552 280.307 334.447 275.28ZM304.13 437.325C306.907 436.734 306.553 435.019 306.198 433.067C304.366 421.416 300.584 410.712 292.724 401.427C281.081 387.647 270.384 373.217 263.352 356.302C259.569 347.076 252.478 340.157 243.14 336.017C238.353 333.888 233.507 331.877 228.602 329.926C225.292 328.565 221.805 327.797 218.26 327.442C211.7 326.85 205.199 326.141 198.58 326.377C194.738 326.555 191.074 326.2 187.824 323.952C186.878 323.302 185.873 322.77 184.691 322.947C183.273 323.124 182.387 324.13 183.509 325.135C185.992 327.383 186.937 330.458 188.415 333.237C191.783 339.27 192.552 345.598 189.774 352.163C184.514 364.641 182.623 377.77 182.978 390.84C182.978 393.679 182.918 396.104 182.978 398.588C183.214 409.292 185.992 418.991 194.443 426.325C195.152 426.916 195.861 427.744 195.979 428.572C197.102 434.427 201.003 438.449 204.844 442.589C207.799 445.723 210.458 449.153 213 452.642C216.546 457.492 219.914 462.46 223.342 467.369C226.652 472.1 231.025 474.879 236.994 475.175C247.1 475.648 257.206 476.299 267.311 476.772C271.744 477.008 275.881 475.944 279.663 473.519C288.173 468.078 295.206 461.159 300.702 452.642C302.712 449.508 303.953 446.433 302.061 442.648C300.879 440.46 301.057 437.976 304.13 437.325ZM273.635 180.714C275.94 172.197 275.822 163.977 269.853 156.762C266.129 152.267 261.697 148.482 257.028 144.993C253.128 142.095 249.168 139.256 245.149 136.417C238.294 131.627 235.221 125.003 235.221 116.664C235.221 111.164 236.048 105.841 236.994 100.46C238.176 93.895 237.644 87.5079 236.107 81.0024C235.044 76.5077 233.152 74.2011 228.72 73.3732C226.829 73.0183 224.938 71.6581 223.342 70.4753C218.437 66.8086 212.941 65.4483 208.095 65.8623C200.353 66.0989 193.852 67.1634 187.469 68.6419C184.337 69.3516 181.264 70.3571 178.723 72.3087C168.38 80.411 160.106 90.2283 154.669 102.293C153.369 105.191 152.778 108.385 152.424 111.578C152.01 115.481 151.655 119.444 151.242 123.347C150.355 131.213 146.336 136.535 138.772 139.079C137.353 139.552 135.935 140.025 134.517 140.498C128.902 142.154 125.179 145.88 123.229 151.321C120.688 158.181 118.619 165.219 117.437 172.434C117.142 174.09 116.846 175.746 116.787 177.461C116.551 183.73 118.205 186.273 124.056 188.579C126.834 189.703 129.671 190.649 132.448 191.832C138.417 194.434 141.431 199.106 141.136 205.612C140.958 209.338 140.722 213.123 139.954 216.789C138.476 224.123 141.313 229.091 147.578 232.639C149.823 233.94 152.601 234.946 153.783 237.311C155.615 240.978 158.865 242.102 162.234 243.284C166.371 244.763 166.548 244.822 168.853 240.86C173.936 231.87 181.618 227.435 191.842 227.08C192.611 227.021 193.32 226.962 194.088 226.962C202.48 226.903 209.867 224.005 216.368 218.8C219.028 216.671 221.687 214.66 224.169 212.354C230.316 206.676 237.23 202.418 245.09 199.461C253.01 196.504 260.279 192.128 267.43 187.692C270.148 185.977 272.748 183.966 273.635 180.714ZM188.119 348.082C189.36 343.114 188.06 338.501 185.933 333.947C184.396 330.576 181.914 329.334 178.486 329.275C178.191 329.275 177.836 328.92 177.541 328.684C175.649 326.791 173.995 327.797 171.985 328.624C164.48 331.7 157.742 336.194 150.414 339.566C146.927 341.162 146.455 342.286 148.405 345.539C149.882 347.964 150.828 350.506 151.892 353.109C155.556 362.512 154.669 372.803 157.624 382.324C158.038 383.625 158.038 385.045 156.561 385.754C154.906 386.523 153.665 385.695 152.719 384.453C151.774 383.211 151.419 381.792 151.123 380.254C150.769 378.184 150.119 376.174 148.405 374.813C145.805 372.743 144.859 369.964 144.977 366.829C145.273 359.614 142.672 353.759 137.708 348.614C134.694 345.42 134.93 345.184 130.971 346.958C116.492 353.641 102.012 360.324 87.5333 367.007C86.3513 367.539 85.1693 368.19 83.9873 368.722C81.6825 369.727 81.6234 371.088 82.7463 373.157C84.2828 375.937 86.9423 378.421 87.0014 381.615C87.1787 386.937 88.3606 391.254 91.6702 395.927C94.9206 400.54 94.3888 407.4 97.0482 412.841C97.8756 414.556 96.5163 416.508 94.566 417.336C92.2612 418.223 91.0201 416.803 90.1927 414.97C88.5379 411.362 86.4695 408.05 83.9282 404.975C83.0418 403.852 82.5099 402.314 82.0962 400.894C80.0278 392.733 75.2999 385.4 74.3543 376.824C74.1179 374.636 72.6404 374.518 71.1039 375.464C67.8534 377.415 65.9032 380.254 65.7259 384.039C65.5486 387.765 65.7259 391.55 66.1987 395.276C67.6761 407.459 72.8768 418.223 78.9049 428.75C86.7059 442.411 98.0528 452.169 111.468 459.858C113.832 461.218 115.96 461.218 118.383 460.213C128.311 456.014 137.176 450.099 145.923 443.89C147.814 442.589 147.814 441.288 146.041 439.868C142.672 437.207 140.722 433.599 139.304 429.637C138.476 427.33 136.999 425.379 135.403 423.486C132.98 420.647 131.68 417.395 131.798 413.669C131.975 408.405 133.157 403.26 132.98 397.997C132.921 396.814 133.453 395.631 134.694 395.453C136.467 395.217 136.881 396.695 136.999 397.997C137.413 403.733 140.308 408.287 143.559 412.663C144.859 414.379 145.45 416.271 145.805 418.341C146.514 422.126 147.873 425.556 150.769 428.217C152.483 429.814 153.428 431.766 154.197 433.954C155.556 437.917 155.674 437.976 159.575 436.142C165.721 433.244 172.044 430.938 178.545 429.164C181.796 428.277 184.928 427.035 187.469 425.024C187.587 423.782 186.996 423.013 186.464 422.303C181.914 415.739 180.023 408.405 179.964 400.54C179.964 395.69 179.964 390.781 179.964 385.873C179.964 374.459 181.973 363.458 186.346 352.872C187.115 351.335 187.706 349.738 188.119 348.082ZM151.419 372.389C151.655 362.276 148.7 353.404 144.15 345.006C143.086 343.114 141.845 342.463 140.131 343.587C138.299 344.77 140.072 345.834 140.722 346.781C145.154 353.168 148.641 359.792 147.991 367.953C147.814 369.846 148.7 371.561 151.419 372.389ZM150.651 438.981C151.478 435.255 150.355 432.83 148.228 430.76C145.154 427.744 143.322 424.078 142.613 419.997C141.904 415.68 139.304 412.663 135.935 408.346C134.989 413.432 134.812 417.158 137.235 420.352C140.072 423.959 142.022 427.862 143.736 432.061C145.095 435.078 147.105 437.562 150.651 438.981ZM90.0154 405.921C89.6017 401.959 90.1336 398.056 86.765 395.394C83.9283 393.206 82.9827 390.308 83.4555 386.996C84.1647 381.674 81.2097 378.007 78.2548 373.749C77.0137 380.787 84.6375 401.545 90.0154 405.921Z" fill="black"/>
<path d="M389.436 245.639C396.671 246.929 399.481 254.026 394.458 259.421C390.333 263.879 386.685 268.512 383.934 273.849C383.396 274.846 382.739 275.784 381.483 275.96C380.466 276.136 379.569 275.726 379.151 274.787C378.792 273.966 379.39 273.614 379.988 273.086C382.858 270.506 382.858 270.33 379.749 268.864C377.477 267.749 375.802 266.518 376.58 263.761C376.998 262.178 376.34 260.887 375.743 259.539C373.112 253.556 373.291 252.97 379.031 249.04C378.254 246.343 376.101 245.639 374.427 244.466C372.394 243.058 370.6 241.357 369.643 239.07C368.986 237.487 368.448 235.669 370.062 234.496C371.856 233.264 373.291 234.554 374.427 235.903C375.623 237.311 376.819 238.836 377.656 240.478C379.33 243.645 381.961 244.994 385.489 245.228C386.805 245.287 388.12 245.404 389.436 245.639ZM393.86 253.732C393.86 251.797 393.502 249.862 391.469 249.158C389.017 248.278 386.446 247.516 383.815 248.278C383.277 248.454 383.157 249.099 383.277 249.686C383.815 252.207 382.44 252.735 380.167 253.087C376.998 253.556 376.4 254.847 377.656 257.603C378.015 258.424 378.613 259.187 379.151 259.891C383.994 265.814 384.772 265.814 390.093 260.301C392.007 258.424 393.86 256.548 393.86 253.732Z" fill="black"/>
<path d="M388.994 374.176C389.052 374.414 388.7 374.771 388.406 375.306C385.821 374.414 385.821 371.856 385.174 369.893C383.941 366.323 382.707 362.754 380.239 359.78C378.594 357.757 377.771 357.876 376.537 360.136C375.891 361.267 375.538 362.635 374.892 363.706C374.187 364.836 372.777 366.085 371.661 365.312C367.959 362.933 363.905 365.074 360.262 364.122C355.268 362.814 353.094 364.479 350.861 369.238C348.452 374.414 343.986 378.578 340.461 383.159C339.345 384.587 337.817 384.289 336.348 384.349C332 384.468 328.357 386.074 325.655 389.583C324.949 390.476 324.244 391.487 324.714 392.677C325.243 394.045 326.477 393.807 327.593 393.807C328.827 393.807 330.061 393.153 331.236 393.867C331.06 395.354 329.944 395.473 329.121 395.592C326.771 395.949 324.068 396.782 322.54 394.105C321.072 391.487 322.893 389.405 324.479 387.561C327.006 384.586 330.296 382.742 334.115 382.326C336.994 382.028 338.875 380.66 340.52 378.4C343.046 374.89 346.043 371.737 348.452 368.167C350.332 365.49 349.803 364.479 346.807 362.933C346.454 362.754 346.102 362.635 345.749 362.516C338.816 359.363 338.522 358.233 343.458 352.046C344.339 350.916 344.456 349.726 344.75 348.417C345.338 345.978 346.983 345.264 349.333 346.276C351.39 347.168 351.331 348.417 350.391 350.321C348.511 354.128 349.921 357.995 354.092 359.78C360.027 362.338 366.314 361.564 372.189 359.958C375.421 359.066 376.185 355.199 375.773 351.808C375.068 346.097 375.95 340.505 377.36 335.032C377.889 333.009 377.889 329.619 380.768 330.035C383.647 330.451 382.707 333.664 382.707 335.746C382.707 340.327 381.884 344.788 380.533 349.131C379.475 352.522 379.828 355.258 382.178 357.995C386.114 362.695 387.466 368.465 388.994 374.176ZM348.217 359.958C348.511 358.233 347.277 357.221 346.689 355.972C346.102 354.782 345.103 354.545 344.045 355.437C342.929 356.389 342.459 357.519 343.81 358.649C345.103 359.601 346.513 360.374 348.217 359.958Z" fill="black"/>
<path d="M261.457 250.544C261.752 252.694 263.345 254.665 262.932 257.353C260.159 256.994 260.513 254.546 258.565 253.351C254.965 256.994 250.599 259.563 245.229 259.563C244.343 261.534 245.878 262.071 246.763 262.907C248.533 264.58 250.481 266.073 252.192 267.805C257.326 272.942 256.323 276.585 249.3 278.616C247.117 279.213 244.934 279.571 242.691 279.989C241.452 280.228 240.095 280.228 239.209 281.244C239.032 282.737 240.154 283.334 240.862 284.11C242.396 285.783 243.34 287.515 241.688 289.605C240.39 291.218 241.275 292.412 242.396 293.488C244.048 295.04 245.937 296.235 247.884 297.37C249.064 298.087 250.835 298.206 251.248 299.998C246.881 300.117 239.032 295.16 237.911 291.636C237.734 291.099 237.557 290.322 237.793 290.024C240.862 286.32 237.557 284.887 235.433 282.916C233.249 280.825 233.544 279.273 236.436 278.496C239.859 277.6 243.399 277.242 246.881 276.465C249.005 275.988 251.779 275.988 252.31 273.3C252.782 271.03 250.422 269.776 248.946 268.402C246.468 266.133 243.753 264.042 241.275 261.773C240.095 260.698 238.265 259.563 239.268 257.592C240.095 255.86 241.865 256.397 243.281 256.576C245.937 256.875 248.592 256.756 250.953 255.561C254.67 253.709 257.267 250.843 257.267 246.303C257.267 245.348 257.326 244.392 257.503 243.496C257.621 242.72 258.152 242.063 258.978 242.003C260.1 241.943 260.69 242.78 260.808 243.735C261.162 246.005 261.162 248.274 261.457 250.544Z" fill="black"/>
</svg>
