<svg width="600" height="600" viewBox="0 0 600 600" fill="none" xmlns="http://www.w3.org/2000/svg">
<path d="M527.351 220.957C535.181 238.565 539.516 256.821 535.44 276.047C530.263 300.452 517.514 320.132 497.583 335.344C485.288 344.731 471.634 350.946 456.88 355.089C451.574 356.578 451.638 356.707 451.509 362.08C451.444 365.576 451.25 369.071 451.315 372.567C451.315 379.364 450.344 385.708 448.079 392.376C443.743 404.999 435.008 413.156 424.718 420.406C413.264 428.433 401.228 435.554 388.415 441.186C378.126 445.783 367.319 449.343 355.93 449.926C340.788 450.702 327.263 445.329 314.903 437.173C300.731 427.786 286.689 418.076 273.682 407.006C267.017 401.374 261.128 395.224 256.016 388.233C253.751 385.126 252.521 385.061 250.321 387.909C245.209 394.577 238.544 399.367 231.749 403.899C216.736 413.868 200.817 421.636 182.827 424.614C176.356 425.715 170.144 424.873 163.867 424.226C151.636 422.996 139.341 422.348 127.305 419.241C125.105 418.658 122.904 418.335 120.704 417.752C110.221 415.033 101.42 409.725 95.4667 400.403C92.1664 395.16 88.2836 390.434 83.5597 386.356C80.7771 383.96 78.3828 380.983 76.765 377.681C71.7175 366.935 66.4759 356.189 64.0169 344.407C62.9815 339.487 62.7228 334.568 63.3052 329.712C65.0524 315.212 67.5114 300.905 73.4648 287.376C75.0826 283.621 77.024 279.996 79.8066 276.889C81.2949 275.27 82.7832 273.587 83.2362 271.192V271.127C84.3363 270.221 85.5658 269.379 86.4717 268.344C92.9429 260.381 99.867 252.872 107.697 246.139C120.381 235.264 134.423 227.237 151.054 224.453C155.519 223.741 160.049 223.741 164.514 223.094C179.139 221.087 193.893 220.051 208.647 219.21C215.636 218.821 221.913 221.152 227.996 224.388C235.761 228.467 241.65 235.523 250.127 238.565C250.839 238.824 251.551 239.472 252.004 240.119C255.886 245.104 260.74 249.311 263.328 255.267C263.846 256.497 264.105 258.115 266.24 258.31C267.664 256.756 269.023 254.943 270.705 253.454C277.694 247.175 284.23 240.249 294.26 238.76C297.431 238.306 300.472 236.623 303.579 235.588C305.067 235.07 305.973 234.228 306.555 232.804C310.956 221.799 317.492 212.153 326.098 203.932C328.039 202.055 328.234 200.501 325.839 199.077C323.51 197.653 321.698 195.711 319.886 193.769C310.956 184.123 299.566 177.714 288.113 171.888C278.471 166.968 268.181 163.278 258.216 158.941C252.392 156.417 246.309 154.021 239.838 154.474C229.549 155.186 219.324 154.733 209.1 154.539C196.546 154.28 184.186 156.481 172.085 159.912C161.084 163.02 150.73 166.968 142.059 174.737C138.112 178.232 133.646 181.34 129.117 184.123C111.192 195.128 100.061 211.571 92.3605 230.603C86.6659 243.421 85.3717 257.468 83.1068 271.192C80.7124 270.674 80.3889 268.926 80.7125 266.919C83.6892 246.075 87.1837 225.424 99.8671 207.751C107.762 196.682 116.239 186.13 128.599 179.527C132.352 177.52 135.847 174.801 139.018 171.953C148.271 163.537 159.402 159.265 171.179 155.899C187.551 151.238 204.117 149.296 221.136 150.849C224.76 151.173 228.578 150.914 232.202 150.396C242.168 149.037 251.421 151.303 260.351 155.251C269.735 159.394 279.377 163.019 288.63 167.421C300.861 173.312 312.379 180.433 322.086 190.144C322.345 190.402 322.668 190.726 322.927 191.05C330.175 198.365 330.369 198.559 336.97 191.05C343.7 183.476 352.112 178.491 361.236 174.672C366.349 172.536 371.655 170.852 376.702 168.587C397.734 159.265 419.541 158.877 441.932 162.049C452.609 163.537 462.898 165.803 472.605 170.594C481.017 174.801 489.365 179.203 497.778 183.541C501.337 185.353 503.925 188.266 506.061 191.632C512.079 201.149 518.679 210.276 526.056 218.886C526.574 219.468 526.962 220.245 527.351 220.957ZM531.298 276.176C533.757 262.841 533.369 249.57 528.839 236.688C527.221 232.157 525.15 227.884 522.368 223.676C519.456 219.339 517.191 214.419 514.085 210.082C510.849 205.55 506.967 201.537 504.378 196.617C501.142 190.467 496.03 186.583 489.883 183.864C485.029 181.728 480.241 179.268 475.581 176.679C468.399 172.73 460.892 169.105 452.738 167.745C438.761 165.415 424.718 163.667 410.482 164.508C402.652 164.961 394.951 165.868 387.574 168.651C379.55 171.759 371.331 174.413 363.372 177.779C351.142 182.893 339.882 189.431 333.669 201.99C333.41 202.508 332.958 202.961 332.44 203.285C322.668 209.888 316.197 219.274 311.085 229.632C310.503 230.732 309.726 231.833 310.632 233.322C312.638 234.228 314.644 233.257 316.391 232.48C327.004 227.69 337.811 227.755 348.941 230.279C362.142 233.322 375.344 236.429 387.315 243.032C398.704 249.311 408.735 257.403 417.535 267.049C424.395 274.558 430.284 282.585 433.519 292.36C435.072 297.021 437.013 301.553 439.472 305.89C443.743 313.464 446.267 321.685 448.079 330.166C449.373 336.186 450.538 342.206 450.991 348.356C451.315 352.434 451.768 352.564 455.586 351.658C475.258 346.932 492.536 337.286 506.255 322.721C518.55 309.709 527.998 294.432 531.298 276.176ZM446.397 364.669C446.85 353.535 446.203 342.53 444.196 331.59C441.09 314.564 431.448 300.128 425.495 284.204C425.365 283.815 425.042 283.492 424.848 283.168C419.024 273.846 411.582 265.884 403.299 258.828C395.792 252.419 387.639 246.657 378.45 243.097C366.413 238.436 354.053 234.681 341.111 232.998C336.387 232.416 331.534 231.703 327.069 233.322C317.039 236.947 306.232 237.789 296.266 241.802C293.031 243.097 289.342 242.773 286.236 244.65C274.782 251.642 265.852 261.482 259.704 273.004C252.91 285.822 248.509 299.869 246.244 314.37C245.985 315.988 246.309 317.607 246.438 319.225C247.474 331.395 253.363 341.883 257.892 352.823C262.552 364.281 269.411 374.38 278.341 383.248C288.048 392.959 296.59 403.769 307.526 412.314C312.638 416.328 317.944 419.629 324.286 420.924C328.945 421.895 333.346 423.514 337.682 425.456C350.106 431.088 363.178 432.641 376.702 431.864C382.591 431.541 387.833 428.757 393.398 428.239C401.034 427.462 406.923 421.831 414.623 421.96C421.677 416.716 430.154 413.285 435.202 405.582C437.143 402.669 438.696 399.497 440.637 396.649C444.52 390.887 446.591 384.608 446.397 377.616C446.332 373.279 446.397 369.007 446.397 364.669ZM395.922 432.835C391.392 432.059 388.156 434.713 384.274 435.231C367.708 437.237 351.53 436.266 336.064 429.146C333.475 427.98 330.822 426.621 328.039 426.103C317.88 424.161 309.338 419.5 301.637 412.573C287.918 400.338 276.141 386.485 264.558 372.373C262.357 369.719 260.869 366.417 259.251 363.375C255.369 356.319 252.327 348.939 249.48 341.429C248.639 339.228 247.668 337.028 246.762 334.891C246.05 342.012 245.791 348.939 246.115 355.865C246.309 359.749 247.409 363.569 247.862 367.388C248.509 373.02 252.651 376.775 255.239 381.436C259.963 390.046 266.564 396.908 274.005 403.187C287.207 414.321 301.443 424.031 315.938 433.353C322.151 437.367 328.687 440.992 335.675 443.258C352.306 448.631 368.419 445.718 384.08 439.05C388.092 437.237 391.91 434.907 395.922 432.835ZM260.675 264.848C261.84 263.359 261.775 261.741 261.451 260.187C260.74 257.144 259.316 253.843 256.857 252.354C253.427 250.282 251.098 247.24 248.121 244.78C244.044 241.478 239.644 239.342 234.531 237.918C221.33 234.099 207.87 233.84 194.216 233.969C178.362 234.099 163.349 238.112 148.336 242.45C145.618 243.226 143.03 244.65 140.571 246.075C122.128 257.08 106.662 271.257 95.4667 289.771C87.1189 303.559 81.7478 318.707 76.1179 333.661C74.1118 338.969 74.1119 344.537 75.212 350.104C76.1827 354.959 76.9592 359.814 76.765 364.799C76.6356 368.036 77.9946 370.625 79.4182 373.409C83.8186 381.889 90.678 388.492 95.9197 396.325C103.297 407.33 113.521 412.962 126.205 415.551C138.888 418.205 151.766 419.306 164.643 420.6C170.532 421.183 176.356 421.895 182.374 420.859C204.7 416.911 223.466 405.97 240.873 392.117C243.138 390.304 245.08 388.168 246.762 385.838C247.797 384.414 248.121 383.119 247.344 381.306C243.268 371.726 242.75 361.368 241.844 351.204C241.585 348.356 241.909 345.572 238.932 343.695C237.832 342.983 236.343 341.559 237.12 339.617C239.32 338.905 239.514 342.271 241.585 341.947C241.844 338.063 241.585 334.373 241.456 330.684C241.326 327.253 242.168 323.757 241.262 319.743C235.567 328.159 232.202 336.768 227.607 344.796C226.637 346.479 227.349 347.32 228.06 348.55C228.966 350.104 230.972 351.463 230.002 353.664C229.484 353.729 229.225 353.859 229.031 353.794C228.513 353.535 227.931 353.276 227.478 352.888C223.272 349.068 223.272 349.133 217.901 351.528C216.801 352.046 215.506 352.24 214.6 353.6C215.442 357.484 218.936 360.656 219.454 364.864C217.383 365.77 216.801 364.475 216.218 363.504C214.989 361.368 213.694 359.232 212.853 356.966C211.753 353.988 209.941 353.859 207.612 355.283C202.694 358.39 198.034 361.821 194.087 366.094C194.087 366.029 194.087 366.029 194.087 365.964L193.957 366.029C189.428 368.683 186.386 371.984 188.781 377.746C189.039 378.264 188.522 378.911 187.422 379.041C186.58 378.717 186.386 377.746 185.933 376.84C185.416 375.804 185.61 374.315 183.668 373.926C182.439 374.444 180.95 375.156 179.397 375.61C174.091 377.034 174.091 377.163 174.026 383.443C174.026 386.032 174.738 388.816 173.573 392.441C171.244 388.362 171.956 385.061 171.761 381.889C171.567 379.364 170.402 378.264 167.879 378.199C165.549 378.134 164.578 379.17 164.19 381.371C163.931 383.248 163.931 385.32 162.443 386.873C159.79 385.838 161.666 383.184 159.596 381.889C157.719 384.155 155.842 386.485 153.836 388.751C152.866 389.851 151.442 390.499 149.954 389.981C148.336 389.398 148.077 387.844 148.207 386.42C148.53 383.378 148.918 380.335 149.371 377.293C149.501 376.257 149.824 375.092 151.054 375.156C152.736 375.221 152.672 376.581 152.607 377.875C152.413 380.271 150.73 382.73 152.348 385.514C155.066 383.054 156.425 380.271 158.237 377.746C159.337 376.192 158.754 375.092 157.331 374.185C153.642 371.92 149.824 372.826 146.006 373.409C142.771 373.927 142.835 376.775 141.735 378.846C140.571 380.983 140.894 384.025 137.788 385.514C136.947 382.018 138.759 379.558 139.535 376.904C140.053 375.092 140.571 373.473 138.435 372.114C135.394 370.172 134.617 370.237 132.417 373.085C130.475 375.61 130.023 379.105 127.369 381.112C125.558 379.882 126.14 378.717 126.722 377.681C127.564 376.063 128.664 374.509 129.634 372.955C132.805 367.712 133.129 368.748 129.181 364.152C128.922 363.828 128.664 363.504 128.405 363.18C127.046 361.174 126.01 358.779 124.199 357.225C122.192 355.542 119.798 358.973 117.21 357.613C117.857 354.182 121.934 355.477 123.163 353.147C121.934 345.961 115.592 351.14 111.968 348.68C113.456 346.673 115.333 346.738 117.08 346.544C123.746 345.702 123.746 345.702 125.04 338.969C125.04 338.969 125.04 338.905 125.105 338.905C128.793 332.82 129.311 325.44 132.611 319.161C133.517 317.413 131.964 316.701 130.799 315.859C129.246 314.694 126.852 314.888 125.622 312.622C128.275 311.133 130.217 312.622 132.029 313.529C134.229 314.694 135.782 314.305 137.335 312.428C139.276 310.098 141.412 307.961 143.483 305.76C149.112 301.747 149.112 301.812 144.712 296.309C143.288 294.561 142.059 292.684 140.959 290.677C140.312 289.577 139.147 288.347 140.635 286.923C142.512 287.505 142.641 289.447 143.677 290.677C145.359 292.749 146.912 294.885 148.659 296.956C150.213 298.834 151.895 299.028 153.901 297.345C157.978 293.979 158.043 293.396 155.066 289.059C153.448 286.728 151.054 284.786 151.054 281.614C151.054 280.449 151.636 279.607 152.801 279.543C153.707 279.478 154.354 280.125 154.354 281.096C154.354 284.463 156.295 286.858 158.301 289.188C159.143 290.159 160.113 290.936 161.537 290.353C170.079 286.987 179.074 284.786 186.127 278.118C189.492 274.946 192.275 272.422 191.045 267.437C190.851 266.725 191.304 265.819 192.404 265.754C193.958 267.114 193.504 269.12 193.893 270.868C194.152 272.163 194.54 273.328 196.028 273.393C198.875 273.522 201.982 274.364 204.505 273.004C206.706 271.839 205.864 268.926 206.188 266.79C206.317 266.078 206.253 265.107 207.741 265.171C209.359 266.984 208.582 269.315 208.518 271.451C208.388 275.141 211.3 275.076 213.565 275.594C216.348 276.306 216.283 273.846 216.736 272.163C217.059 270.998 217.189 269.768 217.383 268.538C217.577 266.984 218.418 265.948 219.842 265.236C221.266 264.524 222.625 263.877 223.336 265.884C223.789 267.114 224.242 268.473 221.978 269.185C219.389 270.027 218.224 275.659 219.842 277.665C221.46 279.672 223.789 279.543 225.148 277.212C226.831 274.299 228.384 271.321 230.325 267.826C231.749 270.674 230.843 272.551 230.066 274.364C229.16 276.435 228.125 278.442 227.09 280.449C226.184 282.326 227.543 283.038 228.772 283.88C230.261 284.851 230.908 283.815 231.619 282.715C232.461 281.42 232.331 279.413 234.337 278.572C235.308 280.579 234.402 282.262 233.626 283.815C231.943 287.44 233.431 289.641 236.602 291.195C238.802 289.706 237.897 285.822 241.197 285.175C242.362 287.376 241.003 288.994 240.614 290.677C239.256 296.115 239.514 296.697 244.95 299.675C245.209 299.416 245.597 299.157 245.662 298.834C246.05 297.668 246.438 296.503 246.762 295.338C249.933 284.527 253.492 273.846 260.675 264.848ZM238.867 314.305C241.65 307.767 239.255 301.941 235.373 296.956C231.749 292.296 227.09 288.606 222.495 284.786C221.46 283.945 220.424 283.233 219.324 282.585C216.93 281.161 214.406 280.19 211.688 279.219C210.459 278.766 208.906 277.989 208.129 280.061C207.223 282.52 207.741 285.239 209.618 285.628C214.083 286.534 217.642 289.059 221.978 292.943C220.683 289.382 219.001 288.217 217.448 286.858C216.801 286.275 216.412 285.434 217.059 284.722C217.512 284.204 218.095 283.945 218.677 283.945C219.065 283.945 219.454 284.074 219.777 284.333C220.813 285.304 221.46 286.599 222.366 287.699C224.048 289.771 224.954 292.36 227.349 293.914C231.62 296.762 234.208 300.776 235.179 305.825C235.89 309.45 236.473 313.011 237.12 316.636C237.12 316.636 237.12 316.636 237.055 316.636V316.701C233.108 317.477 231.102 320.002 230.196 323.822C229.743 325.764 229.031 328.094 227.154 329C223.595 330.683 223.272 333.92 222.236 337.027C221.136 340.458 220.23 344.213 215.571 344.86C214.018 345.055 213.306 346.479 214.277 348.227C219.518 346.867 223.401 344.084 225.86 339.099C228.837 333.079 232.267 327.253 235.502 321.297C236.214 319.808 236.991 318.384 237.055 316.701H237.12C237.12 316.636 237.12 316.636 237.12 316.636C238.091 316.118 238.479 315.212 238.867 314.305ZM230.066 232.545C230.584 232.674 231.167 232.416 232.331 232.286C224.501 226.525 216.736 222.317 207.159 223.029C203.664 223.288 200.234 223.611 196.74 223.741C182.374 224.453 168.202 226.525 153.901 228.014C147.171 228.726 140.376 229.632 134.488 233.192C130.993 235.329 127.369 237.271 123.681 239.083C120.575 240.637 117.404 242.255 114.815 244.586C103.038 255.138 91.7781 266.207 82.7832 279.349C80.13 283.233 77.2181 286.987 75.6003 291.519C70.747 305.307 67.0584 319.355 66.2172 333.985C66.1525 335.215 66.1525 336.445 66.2172 337.675C66.7996 345.119 68.8056 352.046 72.0412 358.714C73.5943 356.318 72.8824 354.117 72.4294 351.916C70.8763 344.537 71.3294 337.351 73.4648 330.036C75.9886 321.297 80.3242 313.399 83.6245 304.984C89.2544 290.742 97.408 278.054 107.891 266.79C118.439 255.591 130.281 246.139 144.194 239.731C154.095 235.199 164.902 232.933 175.644 231.445C193.763 228.985 212.012 228.143 230.066 232.545ZM225.278 324.275C231.037 316.247 231.231 308.544 228.643 300.387C227.866 297.992 226.96 296.439 223.466 296.115C229.225 305.113 223.919 314.305 225.278 324.275ZM216.93 339.034C219.971 334.632 220.942 330.424 220.23 323.627C217.771 326.022 215.636 328.094 213.63 330.166C213.565 330.166 213.5 330.166 213.5 330.101C213.5 330.166 213.5 330.23 213.436 330.295C207.87 335.798 201.27 340.394 196.158 346.479C193.31 349.91 193.31 353.211 195.187 357.031C198.164 355.477 198.617 352.693 199.781 350.363C201.14 347.644 202.305 344.796 203.599 342.012C203.923 341.3 204.57 340.588 205.476 340.717C206.641 340.782 207.094 341.688 207.417 342.724C207.87 344.343 207.094 346.349 208.712 347.709C211.041 345.767 211.494 343.307 211.947 340.976C212.659 337.481 212.918 333.855 213.371 330.295C213.436 330.23 213.5 330.166 213.5 330.166C213.5 330.166 213.5 330.166 213.565 330.101C219.26 331.266 215.118 336.251 216.93 339.034ZM217.512 320.52C223.336 313.399 224.178 304.271 219.713 297.086C214.212 288.152 205.023 287.052 197.646 294.496C196.352 295.791 195.122 297.215 193.828 298.51C192.21 300.128 190.398 301.617 188.133 301.941C177.327 303.43 169.108 310.162 160.049 315.277C155.778 317.672 152.736 321.491 151.313 326.022C149.371 332.302 145.942 337.934 143.806 344.084C142.253 348.421 142.965 351.01 146.912 353.276C149.048 354.571 151.507 354.894 154.031 355.089C163.543 353.535 172.991 351.917 182.504 350.428C186.775 349.78 190.14 347.774 192.857 344.407C196.481 339.941 200.623 336.056 205.153 332.431C209.618 328.806 213.889 324.922 217.512 320.52ZM197.064 286.664C199.717 283.556 202.305 281.291 203.794 277.601C199.781 277.471 196.158 276.953 192.663 278.248C192.599 278.248 192.534 278.248 192.469 278.248C192.469 278.313 192.469 278.313 192.404 278.378C183.345 283.297 183.41 284.722 184.445 292.425C188.198 288.023 190.787 283.492 192.404 278.378C192.404 278.378 192.469 278.313 192.534 278.313C192.599 278.313 192.599 278.313 192.663 278.248C197.258 278.96 195.252 283.621 197.064 286.664ZM192.404 294.626C194.281 292.425 194.216 292.425 191.563 288.865C190.075 290.807 188.716 292.813 187.163 294.691C186.127 295.985 184.704 297.539 183.151 296.956C179.268 295.273 178.362 298.251 175.968 301.553C180.044 300.193 182.892 299.157 185.869 298.769C188.651 298.381 190.657 296.633 192.404 294.626ZM185.998 365.835C193.181 361.368 193.181 361.368 190.01 357.872C188.586 360.591 187.292 363.18 185.998 365.835ZM182.18 364.864C184.574 361.691 186.321 358.325 187.616 353.664C180.821 354.7 174.932 355.606 169.108 356.513C168.008 356.707 167.038 357.29 167.296 358.52C167.491 359.426 168.138 360.397 168.849 361.109C169.561 361.756 170.402 361.303 170.92 360.591C172.344 358.649 173.509 355.736 176.097 359.555C176.421 360.008 177.132 359.361 177.585 358.973C180.433 356.642 180.951 358.39 181.08 360.979C181.145 362.209 180.045 363.828 182.18 364.864ZM174.156 297.021C176.162 294.691 178.427 292.555 178.686 289.253C172.797 289.512 171.826 291.13 174.156 297.021ZM180.303 370.69C178.491 368.359 177.132 366.547 174.673 369.201C173.832 370.172 171.891 370.431 171.567 369.071C170.597 364.993 165.549 364.928 164.514 360.721C161.213 362.145 159.596 366.158 156.425 364.475C153.448 362.857 151.571 363.439 149.436 365.446C148.918 365.899 147.753 366.223 147.171 365.964C143.677 364.41 142.706 366.935 140.959 368.942C143.288 370.495 145.359 369.848 147.3 369.654C152.283 369.071 156.878 369.524 161.408 372.308C167.879 376.322 174.026 373.538 180.303 370.69ZM173.25 303.43C171.05 301.747 169.561 300.323 167.943 303.041C166.714 305.113 165.161 306.926 162.637 307.832C162.961 308.156 163.284 308.544 163.608 308.868C166.714 307.12 169.82 305.372 173.25 303.43ZM167.167 297.151C167.879 295.532 169.044 294.043 168.396 291.713C162.702 292.166 159.596 296.374 156.101 299.87C155.778 300.193 155.778 301.294 156.037 301.488C158.172 303.236 156.49 306.084 158.107 308.609C160.566 305.501 160.89 302.265 161.796 299.222C162.378 297.28 162.702 293.979 165.808 297.41C166.52 298.186 166.908 297.604 167.167 297.151ZM159.402 359.814C159.596 358.973 159.078 358.714 158.431 358.714C157.525 358.714 156.36 358.39 155.972 359.62C155.907 359.879 156.554 360.656 157.007 360.85C158.107 361.303 158.949 360.785 159.402 359.814ZM152.024 309.968C153.125 308.156 153.707 306.214 152.607 302.847C149.63 305.243 147.042 307.185 144.583 309.256C138.047 314.823 137.658 317.024 141.347 326.735C143.288 323.109 143.677 319.42 144.971 316.118C145.812 313.917 145.683 310.357 149.954 311.846C151.054 312.234 151.507 310.81 152.024 309.968ZM149.889 320.585C150.342 319.42 150.924 318.19 149.242 317.542C147.559 316.96 147.171 318.384 146.783 319.484C145.683 322.592 144.712 325.699 143.612 328.806C143.159 329.971 142.447 331.072 140.959 331.007C139.471 330.942 138.953 329.777 138.564 328.612C137.788 326.217 137.335 323.692 135.135 321.491C134.423 322.85 133.776 323.692 133.517 324.663C131.705 330.489 130.023 336.38 127.887 343.566C131.64 339.423 132.287 335.021 135.717 330.748C136.17 336.833 131.77 340.264 131.705 345.637C133.97 343.695 134.617 341.688 135.652 340.005C136.3 338.97 136.688 337.675 138.241 337.675C140.247 337.74 138.629 340.135 139.923 340.782C145.812 335.28 147.106 327.576 149.889 320.585ZM148.53 360.656C149.307 361.756 150.536 360.397 151.313 358.973C147.754 358.52 144.841 356.772 141.865 355.283C140.053 359.75 140.118 359.75 141.218 363.375C141.8 362.663 142.382 362.08 142.771 361.433C144.388 358.843 145.877 357.031 148.53 360.656ZM138.888 351.658C139.406 350.557 138.888 349.198 137.723 348.615C136.3 347.903 135.394 348.939 135.07 350.169C134.488 352.823 133.258 355.477 134.488 359.555C136.429 356.124 137.853 353.988 138.888 351.658ZM135.976 365.964C137.27 366.158 137.011 365.122 137.011 364.41C137.011 363.634 136.688 362.792 135.717 362.986C134.941 363.116 134.229 363.504 134.294 364.475C134.617 365.252 135.135 365.899 135.976 365.964ZM131.511 352.176C131.705 349.651 129.505 349.845 128.081 349.78C126.334 349.716 126.464 351.269 126.722 352.499C127.24 355.089 128.146 357.484 130.605 360.008C130.993 356.642 131.382 354.441 131.511 352.176Z" fill="black"/>
<path d="M529.032 236.463C533.57 249.358 533.959 262.641 531.496 275.989C528.189 294.262 518.724 309.554 506.405 322.578C492.661 337.157 475.35 346.812 455.641 351.542C451.816 352.449 451.362 352.32 451.038 348.237C450.584 342.082 449.417 336.056 448.121 330.03C446.305 321.541 443.777 313.312 439.498 305.731C437.034 301.389 435.089 296.854 433.533 292.188C430.291 282.404 424.392 274.369 417.519 266.853C408.702 257.198 398.653 249.099 387.242 242.813C375.248 236.204 362.022 233.094 348.797 230.048C337.645 227.521 326.818 227.456 316.186 232.251C314.435 233.029 312.425 234.001 310.415 233.094C309.508 231.603 310.286 230.502 310.869 229.4C315.991 219.033 322.474 209.637 332.264 203.028C332.783 202.704 333.237 202.251 333.496 201.732C339.72 189.162 351.001 182.617 363.254 177.498C371.229 174.129 379.462 171.472 387.502 168.362C394.893 165.576 402.608 164.668 410.453 164.215C424.716 163.373 438.785 165.122 452.788 167.455C460.957 168.815 468.478 172.444 475.675 176.397C480.342 178.989 485.14 181.451 490.003 183.589C496.162 186.311 501.284 190.198 504.525 196.354C507.118 201.279 511.008 205.296 514.25 209.832C517.362 214.173 519.631 219.098 522.549 223.439C525.337 227.651 527.411 231.927 529.032 236.463Z" fill="#8D780E"/>
<path d="M443.667 331.399C445.669 342.355 446.315 353.375 445.863 364.525C445.863 368.868 445.798 373.146 445.863 377.49C446.056 384.491 443.989 390.779 440.114 396.548C438.177 399.401 436.627 402.577 434.689 405.494C429.651 413.208 421.191 416.644 414.151 421.895C406.465 421.765 400.588 427.405 392.966 428.183C387.412 428.701 382.18 431.489 376.303 431.813C362.805 432.591 349.758 431.035 337.358 425.395C333.03 423.451 328.638 421.83 323.988 420.858C317.659 419.561 312.363 416.255 307.26 412.236C296.345 403.679 287.82 392.853 278.132 383.13C269.219 374.248 262.373 364.136 257.723 352.662C253.202 341.706 247.325 331.205 246.291 319.018C246.162 317.397 245.839 315.776 246.097 314.156C248.358 299.635 252.75 285.568 259.531 272.733C265.667 261.194 274.58 251.34 286.012 244.339C289.112 242.459 292.793 242.783 296.023 241.487C305.969 237.468 316.755 236.625 326.766 232.995C331.222 231.374 336.066 232.087 340.781 232.671C353.698 234.356 366.034 238.116 378.047 242.783C387.218 246.349 395.356 252.118 402.848 258.536C411.115 265.602 418.543 273.575 424.355 282.91C424.549 283.234 424.872 283.558 425.001 283.947C430.943 299.894 440.566 314.35 443.667 331.399ZM411.567 374.832C412.471 373.73 411.632 372.952 410.857 372.239C410.405 371.785 409.953 371.396 409.436 371.072C403.688 367.507 403.752 361.348 401.815 355.125C404.592 356.033 406.336 356.681 408.08 357.135C408.855 357.329 409.694 357.199 409.953 356.162C410.082 355.449 409.63 354.995 409.113 354.671C406.982 353.504 404.85 352.208 402.59 351.236C398.004 349.291 396.971 345.466 396.648 341.123C400.071 340.539 402.719 343.327 406.4 341.836C403.817 338.984 400.588 338.919 397.81 337.882C394.71 336.715 393.612 334.64 393.418 330.686C393.289 327.38 395.744 327.963 397.487 327.315C398.198 327.056 398.908 326.537 398.585 325.565C397.294 323.555 393.871 325.889 393.354 323.231C392.45 318.693 390.706 314.026 393.871 309.553C395.098 307.803 397.035 306.247 396.325 303.654C393.031 303.589 393.096 307.414 390.318 308.062C387.735 305.08 385.474 302.098 389.027 298.079C389.866 297.107 390.447 295.551 388.897 294.319C387.024 294.449 386.96 296.264 386.185 297.366C384.506 299.829 383.02 299.246 381.212 297.561C379.532 296.005 379.597 294.514 380.566 292.634C381.341 291.208 382.891 289.717 381.406 287.837C379.21 288.355 378.951 290.235 378.047 291.532C376.432 293.801 374.688 293.088 372.622 292.31C370.555 291.532 369.715 290.3 370.232 288.096C370.684 286.086 371.847 284.012 370.426 282.003C368.617 282.392 368.811 283.623 368.359 284.466C367.197 286.67 368.295 290.884 363.515 289.911C360.48 289.263 360.35 288.939 360.996 283.105C361.19 281.419 361.965 279.604 360.286 277.465C358.025 280.058 358.284 283.04 357.638 285.698C357.315 286.929 357.121 288.161 355.442 288.031C353.892 287.902 352.535 287.318 352.342 285.633C352.083 283.623 352.277 281.549 352.213 279.474C352.148 277.141 353.052 274.742 352.019 272.019C348.854 273.77 350.21 277.4 348.596 279.28C343.041 275.779 341.685 270.788 342.589 264.889C342.718 263.722 342.783 262.361 340.974 261.777C338.714 263.787 339.424 266.574 339.36 269.102C339.231 271.89 338.908 273.835 335.485 274.159C331.997 274.483 331.351 272.214 330.77 269.751C330.189 267.352 329.866 264.889 329.349 262.49C329.22 261.712 328.897 260.87 327.799 260.999C326.701 261.194 326.572 262.101 326.701 262.879C327.089 265.731 327.476 268.584 328.186 271.371C328.768 273.77 327.863 274.742 325.668 275.261C323.084 275.844 320.178 276.103 318.046 277.465C313.848 280.123 310.813 279.474 308.035 275.715C307.519 275.066 306.744 274.612 305.969 275.131C305.194 275.714 305.258 276.881 305.84 277.335C309.456 280.187 311.717 283.688 311.523 288.55C311.523 289.004 312.298 289.457 312.621 289.976C313.784 291.791 313.655 299.959 312.234 301.645C310.102 304.173 307.648 301.839 305.388 301.774C304.806 301.774 304.16 301.45 303.579 301.385C302.675 301.191 301.9 301.385 301.642 302.358C301.383 303.33 302.094 303.978 302.869 304.173C305.065 304.756 307.26 305.21 309.456 305.793C310.425 306.053 311.394 306.571 311.136 307.868C310.813 309.164 309.65 309.229 308.681 308.97C305.323 308.127 301.964 307.219 298.606 306.312C297.766 306.117 296.927 305.988 296.539 306.831C296.087 307.673 296.733 308.451 297.443 308.84C299.769 310.266 302.481 310.396 305.065 311.044C311.071 312.665 311.071 312.665 311.2 319.666C307.131 321.481 302.158 318.369 297.96 321.222C299.446 323.361 301.189 322.777 302.739 322.907C304.806 323.166 306.808 323.166 308.875 323.361C310.102 323.491 311.459 323.815 311.717 325.241C312.169 327.834 312.169 330.621 311.329 333.149C310.49 335.742 307.842 334.576 305.969 335.029C302.998 335.807 299.51 335.224 296.604 338.206C300.027 339.697 302.675 338.011 305.388 338.011C307.454 338.076 310.942 335.937 311.2 338.595C311.523 342.031 307.842 339.826 305.969 340.151C302.933 340.669 299.575 340.086 296.798 342.614C298.8 344.494 300.673 343.457 302.352 343.392C304.806 343.327 307.261 343.132 309.715 342.938C311.265 342.808 311.911 343.586 312.169 345.012C312.427 346.439 311.975 347.476 310.619 347.93C308.294 348.707 305.904 349.356 303.644 350.263C302.481 350.717 300.673 350.782 300.996 353.245C305.323 354.153 309.133 350.134 314.042 351.171C311.459 356.162 307.971 360.311 307.842 365.821C311.652 363.552 311.523 358.366 315.075 355.968C318.951 360.181 320.049 364.201 315.85 368.544C314.946 369.451 313.848 370.748 315.011 372.433C317.465 372.239 317.982 369.97 319.274 368.673C320.436 367.377 321.276 366.08 323.278 367.507C325.151 368.868 326.313 370.1 324.634 372.498C323.536 374.184 321.792 375.934 322.697 378.592C325.538 377.943 326.636 375.934 327.541 373.924C328.961 370.683 331.222 371.656 333.676 372.304C336.906 373.211 335.743 375.221 335.291 377.166C335.033 378.268 334.193 379.499 335.678 380.342C336.453 380.536 336.906 380.083 337.228 379.564C340.458 374.248 340.329 374.443 345.754 377.036C349.048 378.527 349.823 380.472 348.789 383.778C348.208 385.722 348.014 387.797 347.885 389.871C347.756 391.686 347.821 393.566 347.95 395.381C348.014 396.224 348.725 396.937 349.564 396.937C350.404 397.002 351.115 396.354 351.179 395.446C351.308 394.02 351.373 392.594 351.502 391.168C351.76 388.445 351.502 385.528 353.31 383C357.121 384.426 357.379 387.343 357.444 390.584C357.444 393.242 356.604 396.159 358.994 399.012C360.738 396.483 360.157 394.215 360.221 392.075C360.35 389.936 361.255 389.288 363.321 389.417C365.646 389.547 367.261 390.001 367.519 392.724C367.713 394.474 368.036 396.354 369.651 397.261C371.007 396.743 371.072 395.965 370.943 395.122C370.749 393.696 370.426 392.27 370.232 390.844C369.845 387.862 372.04 386.824 374.236 386.306C376.755 385.722 376.368 388.186 376.884 389.547C377.53 391.362 377.53 393.631 380.76 394.15C380.308 391.297 379.92 388.704 379.468 386.176C379.145 384.296 379.533 382.935 381.599 382.481C383.537 382.027 384.053 383.259 384.441 384.815C384.893 386.5 385.281 388.445 387.67 388.51C389.091 386.954 386.637 385.333 388.252 383.518C393.806 385.593 398.65 379.24 404.915 382.092C402.848 378.462 402.202 375.286 405.173 372.304C406.917 372.498 407.821 374.119 409.307 374.767C410.082 375.091 410.921 375.545 411.567 374.832ZM395.808 331.983C397.681 334.705 399.877 334.511 403.429 333.927C400.652 331.269 398.65 331.01 395.808 331.983ZM395.744 317.656C397.875 316.295 399.037 314.48 401.169 311.692C395.937 313.248 395.937 313.248 395.744 317.656ZM341.039 389.093C343.17 385.593 343.558 381.898 342.589 377.943C339.812 381.314 339.941 385.139 341.039 389.093ZM319.209 274.418C320.436 270.14 318.886 267.093 318.951 264.046C318.951 263.139 318.369 262.361 317.53 262.361C316.367 262.361 315.786 263.398 315.915 264.435C316.303 267.547 316.173 270.918 319.209 274.418ZM309.392 294.838C307.519 291.467 305 288.874 300.156 288.485C304.031 293.088 304.419 293.347 309.392 294.838ZM297.379 324.982C301.383 327.769 302.546 328.093 308.552 327.704C304.612 324.982 301.577 323.815 297.379 324.982Z" fill="#4CAA56"/>
<path d="M411.893 372.232C412.671 372.945 413.514 373.723 412.607 374.825C411.958 375.538 411.116 375.084 410.338 374.76C408.847 374.112 407.939 372.492 406.189 372.297C403.207 375.279 403.855 378.454 405.929 382.084C399.641 379.232 394.779 385.584 389.204 383.51C387.583 385.324 390.047 386.945 388.621 388.5C386.222 388.436 385.833 386.491 385.379 384.806C384.991 383.25 384.472 382.019 382.527 382.473C380.453 382.926 380.064 384.287 380.388 386.167C380.842 388.695 381.231 391.287 381.684 394.139C378.443 393.621 378.443 391.352 377.795 389.537C377.276 388.176 377.665 385.713 375.137 386.297C372.933 386.815 370.729 387.852 371.118 390.834C371.312 392.259 371.636 393.685 371.831 395.111C371.96 395.954 371.896 396.732 370.534 397.25C368.914 396.343 368.589 394.463 368.395 392.713C368.136 389.991 366.515 389.537 364.181 389.408C362.107 389.278 361.199 389.926 361.07 392.065C361.005 394.204 361.588 396.472 359.838 399C357.439 396.148 358.282 393.232 358.282 390.574C358.217 387.334 357.958 384.417 354.133 382.991C352.318 385.519 352.577 388.435 352.318 391.158C352.188 392.583 352.124 394.009 351.994 395.435C351.929 396.343 351.216 396.991 350.373 396.926C349.531 396.926 348.817 396.213 348.753 395.37C348.623 393.556 348.558 391.676 348.688 389.861C348.817 387.787 349.012 385.713 349.595 383.769C350.633 380.464 349.855 378.519 346.549 377.028C341.103 374.436 341.233 374.241 337.991 379.556C337.667 380.075 337.214 380.528 336.436 380.334C334.945 379.491 335.787 378.26 336.047 377.158C336.5 375.214 337.667 373.205 334.426 372.297C331.963 371.649 329.694 370.677 328.267 373.917C327.36 375.927 326.258 377.936 323.405 378.584C322.498 375.927 324.248 374.177 325.35 372.491C327.036 370.093 325.869 368.862 323.989 367.501C321.979 366.075 321.137 367.371 319.97 368.668C318.673 369.964 318.155 372.232 315.691 372.427C314.524 370.742 315.626 369.445 316.534 368.538C320.748 364.195 319.646 360.177 315.756 355.964C312.191 358.362 312.32 363.547 308.495 365.816C308.625 360.307 312.126 356.159 314.719 351.168C309.792 350.131 305.967 354.149 301.624 353.242C301.3 350.779 303.115 350.714 304.282 350.261C306.551 349.353 308.949 348.705 311.283 347.927C312.644 347.474 313.098 346.437 312.839 345.011C312.58 343.585 311.931 342.807 310.375 342.937C307.912 343.131 305.449 343.326 302.985 343.391C301.3 343.455 299.42 344.492 297.41 342.613C300.198 340.085 303.569 340.668 306.616 340.15C308.495 339.826 312.191 342.03 311.867 338.594C311.607 335.937 308.107 338.076 306.032 338.011C303.309 338.011 300.652 339.696 297.216 338.205C300.133 335.224 303.634 335.807 306.616 335.03C308.495 334.576 311.153 335.743 311.996 333.15C312.839 330.622 312.839 327.835 312.385 325.243C312.126 323.817 310.764 323.493 309.533 323.363C307.458 323.169 305.449 323.169 303.374 322.91C301.818 322.78 300.068 323.363 298.577 321.225C302.791 318.373 307.782 321.484 311.867 319.669C311.737 312.669 311.737 312.669 305.708 311.049C303.115 310.401 300.392 310.271 298.058 308.845C297.345 308.456 296.697 307.679 297.151 306.836C297.54 305.994 298.383 306.123 299.225 306.318C302.596 307.225 305.967 308.132 309.338 308.975C310.311 309.234 311.477 309.169 311.802 307.873C312.061 306.577 311.088 306.058 310.116 305.799C307.912 305.216 305.708 304.762 303.504 304.179C302.726 303.984 302.013 303.336 302.272 302.364C302.532 301.392 303.309 301.197 304.217 301.392C304.8 301.457 305.449 301.781 306.032 301.781C308.301 301.845 310.764 304.179 312.904 301.651C314.33 299.966 314.46 291.8 313.293 289.985C312.969 289.466 312.191 289.012 312.191 288.559C312.385 283.698 310.116 280.198 306.486 277.346C305.902 276.893 305.838 275.726 306.616 275.143C307.393 274.624 308.171 275.078 308.69 275.726C311.477 279.485 314.524 280.133 318.738 277.476C320.877 276.115 323.794 275.855 326.388 275.272C328.592 274.754 329.499 273.781 328.916 271.383C328.203 268.596 327.814 265.745 327.425 262.893C327.295 262.115 327.425 261.208 328.527 261.013C329.629 260.884 329.953 261.726 330.083 262.504C330.601 264.902 330.925 267.365 331.509 269.763C332.092 272.226 332.74 274.494 336.241 274.17C339.677 273.846 340.001 271.902 340.131 269.115C340.196 266.587 339.482 263.8 341.751 261.791C343.566 262.374 343.502 263.735 343.372 264.902C342.464 270.8 343.826 275.791 349.401 279.291C351.022 277.411 349.66 273.781 352.837 272.031C353.874 274.754 352.966 277.152 353.031 279.485C353.096 281.559 352.902 283.633 353.161 285.642C353.355 287.327 354.717 287.911 356.273 288.04C357.958 288.17 358.152 286.938 358.477 285.707C359.125 283.05 358.866 280.068 361.134 277.476C362.82 279.615 362.042 281.429 361.847 283.115C361.199 288.948 361.329 289.272 364.376 289.92C369.173 290.892 368.071 286.679 369.238 284.476C369.692 283.633 369.497 282.402 371.312 282.013C372.738 284.022 371.571 286.096 371.118 288.105C370.599 290.309 371.442 291.54 373.516 292.318C375.591 293.096 377.341 293.809 378.962 291.54C379.869 290.244 380.129 288.364 382.333 287.846C383.824 289.725 382.268 291.216 381.49 292.642C380.517 294.522 380.453 296.012 382.138 297.568C383.953 299.253 385.444 299.836 387.13 297.373C387.908 296.272 387.972 294.457 389.852 294.327C391.408 295.559 390.825 297.114 389.982 298.086C386.417 302.105 388.686 305.086 391.279 308.067C394.066 307.419 394.001 303.595 397.307 303.66C398.021 306.253 396.076 307.808 394.844 309.558C391.668 314.03 393.418 318.697 394.326 323.234C394.844 325.891 398.28 323.558 399.576 325.567C399.9 326.539 399.187 327.058 398.474 327.317C396.724 327.965 394.261 327.382 394.39 330.687C394.585 334.641 395.687 336.715 398.798 337.881C401.586 338.918 404.827 338.983 407.42 341.835C403.725 343.326 401.067 340.539 397.632 341.122C397.956 345.465 398.993 349.289 403.596 351.233C405.865 352.205 408.004 353.501 410.143 354.668C410.662 354.992 411.116 355.446 410.986 356.159C410.727 357.196 409.884 357.325 409.106 357.131C407.356 356.677 405.605 356.029 402.818 355.122C404.762 361.344 404.698 367.501 410.467 371.066C410.986 371.39 411.44 371.779 411.893 372.232ZM390.63 379.038C398.799 379.491 403.725 371.454 400.614 363.288C398.41 357.52 396.205 351.751 394.131 345.983C393.029 343.002 392.575 339.761 390.177 337.168C389.528 339.696 385.898 342.807 391.473 344.104C393.029 344.492 393.288 346.242 393.288 347.733C393.288 349.807 393.223 351.816 393.094 353.89C392.834 356.807 392.381 359.529 396.011 361.02C397.502 361.603 397.826 363.677 397.891 365.362C398.15 369.51 396.724 372.945 393.483 375.667C392.381 376.575 390.371 376.899 390.63 379.038ZM392.64 370.547C394.261 369.64 394.39 367.89 394.326 366.205C394.196 364.39 392.835 364.649 391.603 364.649C389.01 364.584 389.399 362.251 388.491 360.436C386.611 364.39 384.213 367.63 380.971 370.223C379.999 371.001 378.962 371.843 379.999 373.204C380.971 374.436 382.073 376.056 384.018 375.149C386.935 373.723 389.852 372.167 392.64 370.547ZM389.01 354.992C390.177 352.529 390.501 350.65 389.528 348.446C385.704 350.52 387.454 352.464 389.01 354.992ZM384.342 328.937C389.204 326.604 389.917 323.169 389.399 318.632C388.426 311.891 385.768 306.382 380.907 301.781C380.907 301.716 380.906 301.651 380.842 301.586C380.777 301.586 380.647 301.521 380.582 301.521C377.536 298.994 374.618 296.142 369.432 296.077C373.451 298.605 373.451 298.605 375.137 303.207C377.017 302.947 378.508 301.262 380.582 301.521C380.647 301.586 380.647 301.586 380.712 301.651C380.777 301.716 380.842 301.781 380.907 301.781C381.555 305.345 380.518 308.845 380.258 312.475C385.768 310.854 386.546 311.503 386.222 316.364C385.898 320.512 384.213 324.465 384.342 328.937ZM383.564 346.048C384.731 341.77 385.768 338.141 386.871 334.187C380.388 336.52 379.545 335.937 380.388 329.845C380.842 326.021 381.684 322.197 382.527 317.336C379.675 319.086 376.887 319.28 377.082 322.715C377.341 327.771 377.082 332.956 378.184 337.946C378.897 341.057 379.869 344.039 383.564 346.048ZM384.407 357.196C384.537 354.538 382.981 352.4 380.971 350.52C374.748 344.622 372.09 337.428 372.738 328.937C372.868 327.317 372.674 325.632 372.609 324.012C371.896 313.188 366.256 305.669 356.726 301.003C351.54 298.475 346.354 296.142 341.557 292.901C340.26 291.994 338.705 291.281 337.149 290.892C333.518 289.985 332.157 291.022 332.546 294.91C333.065 300.355 332.481 305.475 330.796 310.66C328.786 316.688 328.786 322.65 332.222 328.419C333.648 330.817 334.685 333.669 335.139 336.456C336.306 344.233 340.714 349.483 347.262 353.307C349.919 354.862 352.577 356.353 355.43 357.584C359.384 359.334 362.95 361.473 365.802 365.038C368.654 368.667 373.062 369.51 376.887 368.019C380.388 366.464 384.342 361.084 384.407 357.196ZM378.054 379.751C379.091 379.167 379.61 378.389 378.767 377.352C377.924 376.315 376.693 375.667 375.656 376.899C374.359 378.325 373.322 380.139 372.155 381.76C372.349 382.019 372.479 382.278 372.673 382.537C374.489 381.63 376.304 380.658 378.054 379.751ZM375.266 313.382C376.822 313.123 376.563 311.567 376.758 310.466C376.758 309.753 376.563 309.04 375.785 309.234C374.553 309.558 373.451 310.206 373.711 311.762C373.84 312.604 374.489 313.512 375.266 313.382ZM369.756 377.871C371.507 376.445 373.062 375.278 372.09 373.204C371.701 372.427 370.08 371.973 369.367 372.556C367.682 374.047 368.395 375.797 369.756 377.871ZM370.469 304.049C370.599 303.466 370.405 302.818 369.497 303.142C368.914 303.466 368.525 304.049 368.784 304.568C368.978 305.021 369.627 305.281 370.016 305.669C370.21 305.151 370.469 304.568 370.469 304.049ZM367.293 384.352C368.395 383.121 367.163 382.149 366.645 381.112C366.126 380.204 365.543 379.167 364.959 378.13C359.579 381.436 359.579 381.436 356.791 375.602C356.726 375.408 356.726 375.214 356.597 375.019C356.208 374.241 355.624 373.788 354.717 374.306C353.939 374.76 353.42 375.732 354.068 376.315C357.18 379.167 359.773 382.732 363.403 384.936C364.635 385.713 366.256 385.584 367.293 384.352ZM360.81 374.695C363.922 369.316 363.922 369.316 360.032 365.621C359.514 368.797 359.319 371.584 360.81 374.695ZM351.67 371.455C354.457 368.927 354.457 365.168 357.05 362.834C354.781 361.409 352.901 359.983 350.049 360.371C350.049 364.066 349.271 367.695 351.67 371.455ZM346.743 372.167C347.067 370.353 347.132 368.992 345.835 367.76C344.28 368.408 342.659 369.056 341.038 369.64C340.974 369.64 340.973 369.64 340.909 369.64C339.353 366.918 339.936 363.807 339.288 360.89C333.194 362.316 333.129 362.186 332.352 353.696C329.694 356.353 328.462 360.631 323.859 359.788C323.859 359.723 323.859 359.659 323.859 359.659C323.795 359.659 323.794 359.659 323.73 359.659C324.248 353.825 321.85 348.122 322.757 342.289C322.887 341.446 322.693 340.604 321.915 340.15C318.933 338.335 319.97 335.483 320.164 332.891C320.423 330.169 321.915 327.382 318.479 325.308C317.053 324.465 317.571 322.261 317.701 320.641C317.831 319.215 318.673 317.206 318.09 316.493C314.395 312.086 317.182 308.003 318.284 303.79C318.673 302.429 319.646 300.938 317.441 298.735C316.08 305.669 314.46 311.697 315.562 317.919C316.275 322.002 316.275 326.021 315.821 330.169C314.848 338.918 316.275 347.344 320.035 355.316C320.877 357.066 321.266 359.335 323.73 359.659C323.73 359.723 323.73 359.723 323.73 359.788C323.794 359.788 323.859 359.788 323.859 359.788C324.054 362.446 325.48 364.131 327.814 365.362C331.963 367.501 336.111 369.51 340.909 369.64C340.909 369.64 340.909 369.705 340.973 369.705C341.038 369.705 341.038 369.705 341.038 369.64C342.659 371.13 344.474 372.103 346.743 372.167ZM345.641 290.503C346.289 290.762 346.808 290.374 346.743 289.661C346.678 288.429 346.678 287.198 345.382 286.679C344.539 286.809 343.826 287.327 343.631 288.105C343.242 289.661 344.604 290.049 345.641 290.503ZM344.085 360.631C344.798 359.464 347.262 359.14 345.706 357.001C345.317 356.483 344.604 356.159 344.085 356.548C342.853 357.585 343.048 358.946 344.085 360.631ZM341.492 285.059C342.918 283.957 344.993 283.179 344.28 280.587C343.761 278.707 342.076 278.318 340.325 278.254C334.361 277.994 328.462 278.707 322.692 280.198C321.915 280.392 320.618 280.587 321.007 282.142C321.461 284.216 320.099 287.198 323.47 288.364C323.794 288.105 324.248 287.911 324.378 287.587C326.582 281.689 332.287 281.429 337.084 279.809C338.186 279.42 338.964 280.004 339.612 281.041C340.325 282.207 339.547 284.022 341.492 285.059ZM339.094 352.724C338.964 352.011 338.64 351.427 337.927 351.492C336.954 351.557 336.76 352.464 336.63 353.242C336.565 353.825 336.501 354.668 337.149 354.668C338.316 354.733 338.705 353.696 339.094 352.724ZM334.62 286.485C335.593 286.42 337.084 286.55 336.76 285.059C336.436 283.633 335.204 284.346 334.296 284.67C333.389 285.059 332.481 285.513 330.472 286.485C332.676 286.485 333.648 286.55 334.62 286.485ZM328.981 350.066C334.167 345.594 334.296 345.205 331.25 340.928C330.407 344.103 328.527 346.631 328.981 350.066ZM321.915 318.567C327.814 311.049 329.694 306.123 328.916 300.938C325.026 306.253 322.952 312.086 321.915 318.567ZM325.545 295.623C328.462 293.485 328.462 293.485 328.721 290.698C326.452 292.901 326.452 292.901 325.545 295.623ZM324.508 330.752C326.647 329.132 327.619 327.965 327.295 326.15C327.165 325.502 326.777 325.048 325.934 325.243C324.832 326.474 324.637 328.03 324.508 330.752Z" fill="black"/>
<path d="M404 334.616C400.271 335.236 397.966 335.442 396 332.551C398.983 331.518 401.085 331.794 404 334.616Z" fill="#13751E"/>
<path d="M400.068 363.19C403.147 371.378 398.272 379.437 390.19 378.982C389.934 376.837 391.922 376.512 393.012 375.602C396.22 372.873 397.631 369.428 397.374 365.269C397.31 363.58 396.989 361.5 395.514 360.915C391.922 359.421 392.371 356.691 392.628 353.767C392.756 351.687 392.82 349.672 392.82 347.593C392.82 346.098 392.563 344.344 391.024 343.954C385.508 342.654 389.1 339.534 389.741 337C392.114 339.599 392.563 342.849 393.654 345.838C395.707 351.622 397.887 357.406 400.068 363.19Z" fill="white"/>
<path d="M401 312C399.036 314.804 397.964 316.63 396 318C396.179 313.565 396.179 313.565 401 312Z" fill="#13751E"/>
<path d="M384.348 435.196C388.232 434.679 391.469 432.028 396 432.804C391.986 434.872 388.167 437.2 384.153 439.01C368.487 445.668 352.368 448.577 335.731 443.211C328.74 440.949 322.202 437.329 315.987 433.321C301.486 424.013 287.245 414.316 274.039 403.198C266.594 396.927 259.991 390.075 255.265 381.478C252.676 376.824 248.533 373.074 247.886 367.45C247.432 363.637 246.332 359.823 246.138 355.944C245.814 349.027 246.073 342.111 246.785 335C247.691 337.133 248.662 339.331 249.504 341.529C252.352 349.027 255.395 356.397 259.279 363.443C260.897 366.481 262.386 369.778 264.587 372.428C276.175 386.52 287.957 400.353 301.681 412.571C309.384 419.488 317.929 424.142 328.093 426.081C330.876 426.598 333.53 427.956 336.12 429.119C351.592 436.23 367.775 437.2 384.348 435.196Z" fill="#8D780E"/>
<path d="M393.987 366.777C394.053 368.465 393.921 370.217 392.275 371.126C389.445 372.749 386.482 374.307 383.52 375.735C381.545 376.644 380.425 375.021 379.438 373.788C378.385 372.425 379.438 371.581 380.425 370.802C383.717 368.205 386.153 364.96 388.062 361C388.984 362.818 388.589 365.154 391.222 365.219C392.473 365.219 393.855 364.96 393.987 366.777Z" fill="white"/>
<path d="M389.402 349C390.416 351.356 390.078 353.366 388.861 356C387.238 353.297 385.412 351.218 389.402 349Z" fill="white"/>
<path d="M388.861 318.754C389.364 323.265 388.672 326.68 383.959 329C383.833 324.554 385.467 320.623 385.782 316.499C386.096 311.666 385.342 311.022 380 312.632C380.251 309.024 381.194 305.544 380.628 302C385.342 306.575 387.918 312.053 388.861 318.754Z" fill="white"/>
<path d="M387 335.02C385.875 339.014 384.817 342.679 383.626 347C379.855 344.971 378.862 341.959 378.134 338.817C377.01 333.777 377.274 328.54 377.01 323.433C376.811 319.964 379.656 319.767 382.567 318C381.707 322.91 380.847 326.772 380.384 330.634C379.524 336.788 380.384 337.377 387 335.02Z" fill="white"/>
<path d="M380.556 350.832C382.566 352.708 384.122 354.843 383.992 357.496C383.928 361.378 379.972 366.748 376.47 368.301C372.644 369.789 368.235 368.948 365.382 365.325C362.528 361.766 358.962 359.631 355.006 357.884C352.153 356.655 349.494 355.167 346.836 353.614C340.286 349.796 335.877 344.556 334.709 336.792C334.256 334.009 333.218 331.162 331.791 328.768C328.355 323.01 328.355 317.058 330.365 311.04C332.051 305.864 332.634 300.753 332.116 295.318C331.727 291.436 333.088 290.401 336.72 291.306C338.276 291.695 339.832 292.406 341.129 293.312C345.928 296.547 351.116 298.877 356.303 301.4C365.836 306.058 371.477 313.564 372.19 324.369C372.255 325.986 372.45 327.669 372.32 329.286C371.672 337.762 374.33 344.944 380.556 350.832Z" fill="#13751E"/>
<path d="M380.324 302.259C380.259 302.194 380.194 302.13 380.129 302.13C380.065 302.065 380.065 302.065 380 302C380.065 302 380.194 302 380.259 302.065C380.324 302.13 380.324 302.194 380.324 302.259Z" fill="#13751E"/>
<path d="M380.068 301.746C377.997 301.487 376.508 303.171 374.632 303.43C372.949 298.833 372.949 298.833 368.937 296.309C374.114 296.373 377.026 299.222 380.068 301.746Z" fill="white"/>
<path d="M378.256 377.487C379.097 378.523 378.579 379.3 377.544 379.882C375.797 380.789 373.985 381.76 372.173 382.666C371.979 382.407 371.849 382.148 371.655 381.889C372.82 380.271 373.855 378.458 375.15 377.034C376.185 375.804 377.415 376.451 378.256 377.487Z" fill="white"/>
<path d="M376.25 310.68C376.056 311.78 376.314 313.334 374.761 313.593C373.985 313.722 373.338 312.816 373.208 311.975C372.949 310.421 374.049 309.774 375.279 309.45C376.056 309.256 376.25 309.968 376.25 310.68Z" fill="white"/>
<path d="M371.591 373.344C372.561 375.416 371.008 376.581 369.261 378.005C367.902 375.933 367.19 374.186 368.873 372.697C369.585 372.114 371.202 372.567 371.591 373.344Z" fill="white"/>
<path d="M369.002 303.365C369.909 303.041 370.103 303.689 369.973 304.272C369.973 304.79 369.715 305.372 369.52 305.89C369.132 305.502 368.484 305.243 368.29 304.79C368.031 304.272 368.42 303.689 369.002 303.365Z" fill="white"/>
<path d="M366.155 381.242C366.672 382.278 367.902 383.249 366.802 384.479C365.766 385.708 364.149 385.838 362.919 385.061C359.295 382.86 356.707 379.3 353.6 376.451C352.953 375.869 353.471 374.898 354.248 374.445C355.154 373.927 355.736 374.38 356.124 375.157C356.254 375.351 356.254 375.545 356.318 375.739C359.101 381.565 359.101 381.566 364.472 378.264C365.054 379.3 365.637 380.335 366.155 381.242Z" fill="white"/>
<path d="M359.554 365.77C363.437 369.46 363.437 369.46 360.331 374.833C358.842 371.726 359.036 368.942 359.554 365.77Z" fill="white"/>
<path d="M356.577 362.986C353.989 365.317 353.989 369.071 351.206 371.596C348.812 367.841 349.588 364.216 349.588 360.526C352.436 360.138 354.312 361.562 356.577 362.986Z" fill="white"/>
<path d="M345.382 367.906C346.677 369.136 346.612 370.496 346.288 372.308C344.023 372.244 342.212 371.273 340.594 369.784C342.212 369.136 343.765 368.554 345.382 367.906Z" fill="white"/>
<path d="M346.288 289.9C346.353 290.612 345.835 291.001 345.188 290.742C344.153 290.289 342.794 289.9 343.182 288.347C343.376 287.57 344.088 287.052 344.929 286.922C346.224 287.44 346.223 288.67 346.288 289.9Z" fill="white"/>
<path d="M345.253 357.16C346.806 359.297 344.347 359.62 343.635 360.786C342.6 359.102 342.406 357.743 343.635 356.707C344.153 356.319 344.865 356.642 345.253 357.16Z" fill="white"/>
<path d="M343.829 280.837C344.541 283.427 342.47 284.203 341.047 285.304C339.105 284.268 339.882 282.456 339.17 281.29C338.523 280.255 337.746 279.672 336.646 280.06C331.857 281.679 326.163 281.938 323.963 287.829C323.833 288.152 323.38 288.347 323.057 288.605C319.692 287.44 321.051 284.462 320.598 282.391C320.209 280.837 321.504 280.643 322.28 280.449C328.04 278.96 333.928 278.248 339.882 278.507C341.629 278.571 343.311 278.96 343.829 280.837Z" fill="white"/>
<path d="M342.923 378.07C343.894 382.019 343.506 385.708 341.37 389.204C340.27 385.255 340.141 381.436 342.923 378.07Z" fill="#13751E"/>
<path d="M340.594 369.783C340.594 369.783 340.529 369.783 340.529 369.848C340.529 369.848 340.529 369.783 340.464 369.783C340.529 369.783 340.529 369.783 340.594 369.783Z" fill="#13751E"/>
<path d="M338.846 361.044C339.493 363.958 338.911 367.065 340.464 369.784C335.675 369.654 331.469 367.647 327.392 365.511C325.127 364.281 323.639 362.598 323.445 359.944C328.04 360.721 329.269 356.448 331.922 353.859C332.699 362.339 332.763 362.469 338.846 361.044Z" fill="white"/>
<path d="M337.488 351.658C338.199 351.593 338.523 352.176 338.652 352.888C338.264 353.859 337.876 354.894 336.711 354.83C336.064 354.83 336.129 353.988 336.193 353.406C336.323 352.629 336.517 351.722 337.488 351.658Z" fill="white"/>
<path d="M336.323 285.304C336.646 286.793 335.158 286.664 334.187 286.729C333.216 286.793 332.246 286.729 330.046 286.729C332.052 285.758 332.958 285.304 333.864 284.916C334.77 284.592 335.999 283.88 336.323 285.304Z" fill="white"/>
<path d="M330.822 341.106C333.864 345.378 333.734 345.767 328.557 350.234C328.104 346.803 329.981 344.278 330.822 341.106Z" fill="white"/>
<path d="M328.493 301.164C329.269 306.343 327.393 311.263 321.504 318.772C322.539 312.298 324.61 306.472 328.493 301.164Z" fill="white"/>
<path d="M328.298 290.936C328.04 293.72 328.039 293.72 325.127 295.856C326.033 293.137 326.033 293.137 328.298 290.936Z" fill="white"/>
<path d="M326.875 326.346C327.198 328.159 326.228 329.324 324.092 330.942C324.222 328.224 324.416 326.67 325.516 325.44C326.357 325.246 326.745 325.699 326.875 326.346Z" fill="white"/>
<path d="M325.84 199.077C328.234 200.501 328.04 202.055 326.098 203.932C317.492 212.153 310.956 221.799 306.555 232.804C305.973 234.228 305.067 235.07 303.579 235.587C300.473 236.623 297.431 238.306 294.26 238.76C284.23 240.248 277.694 247.175 270.705 253.454C269.023 254.943 267.664 256.756 266.24 258.309C264.105 258.115 263.846 256.497 263.328 255.267C260.74 249.311 255.886 245.103 252.004 240.119C251.551 239.472 250.839 238.824 250.127 238.565C241.65 235.523 235.761 228.467 227.996 224.388C221.913 221.151 215.636 218.821 208.647 219.209C193.893 220.051 179.139 221.087 164.514 223.093C160.049 223.741 155.519 223.741 151.054 224.453C134.423 227.237 120.381 235.264 107.697 246.139C99.8672 252.872 92.943 260.381 86.4719 268.343C85.5659 269.379 84.3364 270.221 83.2363 271.127V271.192H83.1069C85.3718 257.468 86.6661 243.42 92.3607 230.603C100.061 211.571 111.192 195.128 129.117 184.123C133.647 181.339 138.112 178.232 142.059 174.736C150.73 166.968 161.084 163.019 172.085 159.912C184.186 156.481 196.546 154.28 209.1 154.539C219.324 154.733 229.549 155.186 239.838 154.474C246.309 154.021 252.392 156.416 258.216 158.941C268.182 163.278 278.471 166.968 288.113 171.888C299.567 177.714 310.956 184.123 319.886 193.769C321.698 195.711 323.51 197.653 325.84 199.077Z" fill="#8D780E"/>
<path d="M323.445 359.815C323.445 359.879 323.445 359.944 323.445 359.944C323.38 359.944 323.38 359.944 323.315 359.944C323.315 359.879 323.315 359.815 323.315 359.815C323.38 359.815 323.38 359.815 323.445 359.815Z" fill="#13751E"/>
<path d="M322.345 342.465C321.439 348.292 323.833 353.988 323.316 359.814C320.857 359.491 320.468 357.225 319.627 355.477C315.874 347.515 314.45 339.099 315.421 330.36C315.874 326.217 315.874 322.203 315.162 318.125C314.062 311.91 315.68 305.89 317.039 298.963C319.239 301.164 318.268 302.653 317.88 304.013C316.78 308.22 313.997 312.299 317.686 316.701C318.268 317.413 317.427 319.42 317.298 320.844C317.168 322.462 316.65 324.663 318.074 325.505C321.504 327.576 320.015 330.36 319.756 333.079C319.562 335.668 318.527 338.517 321.504 340.329C322.28 340.782 322.474 341.624 322.345 342.465Z" fill="white"/>
<path d="M319.239 264.33C319.174 267.372 320.727 270.415 319.498 274.687C316.456 271.192 316.586 267.825 316.197 264.718C316.068 263.682 316.65 262.646 317.815 262.646C318.656 262.646 319.239 263.423 319.239 264.33Z" fill="#13751E"/>
<path d="M300.408 288.735C305.261 289.124 307.785 291.713 309.661 295.079C304.679 293.59 304.29 293.331 300.408 288.735Z" fill="#13751E"/>
<path d="M308.82 327.9C302.802 328.288 301.637 327.965 297.625 325.181C301.831 324.016 304.873 325.181 308.82 327.9Z" fill="#13751E"/>
<path d="M143.418 305.76C141.347 307.961 139.212 310.098 137.27 312.428C135.717 314.305 134.164 314.694 131.964 313.529C130.152 312.622 128.211 311.133 125.558 312.622C126.787 314.888 129.181 314.694 130.734 315.859C131.899 316.701 133.452 317.413 132.546 319.161C129.181 325.44 128.728 332.82 125.04 338.905C124.975 338.905 124.91 338.905 124.846 338.905C121.739 335.215 119.539 335.085 115.527 338.905C119.022 338.905 121.934 338.905 124.846 338.905C124.91 338.969 124.91 338.969 124.975 339.034C124.975 338.969 125.04 338.969 125.105 338.905C125.105 338.969 125.04 338.969 125.04 338.969C125.04 338.969 125.04 338.969 125.04 338.905V338.969C125.04 338.969 125.04 338.969 125.04 338.905C123.746 345.637 123.746 345.637 117.08 346.479C115.333 346.673 113.456 346.608 111.968 348.615C115.592 351.075 121.934 345.896 123.163 353.082C121.934 355.412 117.857 354.118 117.21 357.549C119.798 358.908 122.192 355.477 124.199 357.16C126.01 358.714 127.046 361.109 128.405 363.116C128.664 363.439 128.922 363.763 129.181 364.087C133.129 368.683 132.805 367.647 129.634 372.891C128.664 374.444 127.564 375.998 126.722 377.616C126.14 378.652 125.558 379.817 127.369 381.047C130.023 379.04 130.475 375.545 132.417 373.02C134.617 370.172 135.394 370.107 138.435 372.049C140.571 373.409 140.053 375.027 139.535 376.839C138.759 379.494 136.947 381.954 137.788 385.449C140.894 383.96 140.571 380.918 141.735 378.781C142.835 376.71 142.771 373.862 146.006 373.344C149.824 372.761 153.642 371.855 157.331 374.121C158.754 375.027 159.337 376.127 158.237 377.681C156.425 380.206 155.066 382.989 152.348 385.449C150.73 382.666 152.413 380.206 152.607 377.81C152.672 376.516 152.736 375.156 151.054 375.092C149.824 375.027 149.501 376.192 149.371 377.228C148.918 380.27 148.53 383.313 148.207 386.356C148.077 387.78 148.336 389.333 149.954 389.916C151.442 390.434 152.866 389.786 153.836 388.686C155.842 386.42 157.719 384.09 159.596 381.824C161.666 383.119 159.79 385.773 162.443 386.809C163.931 385.255 163.931 383.184 164.19 381.306C164.578 379.105 165.549 378.069 167.879 378.134C170.402 378.199 171.567 379.299 171.761 381.824C171.956 384.996 171.244 388.298 173.573 392.376C174.738 388.751 174.026 385.967 174.026 383.378C174.091 377.098 174.091 376.969 179.397 375.545C180.95 375.092 182.439 374.38 183.668 373.862C185.61 374.25 185.416 375.739 185.933 376.775C186.386 377.681 186.58 378.652 187.422 378.976C188.522 378.846 189.039 378.199 188.781 377.681C186.386 371.92 189.428 368.618 193.957 365.964H194.022L193.828 366.352C193.893 366.223 194.022 366.158 194.087 366.029C194.54 369.33 195.122 372.567 198.617 374.38C198.228 371.013 198.293 367.388 194.152 366.029C198.099 361.756 202.758 358.325 207.676 355.218C210.006 353.794 211.818 353.923 212.918 356.901C213.759 359.167 215.053 361.303 216.283 363.439C216.865 364.41 217.448 365.705 219.518 364.799C219.001 360.591 215.506 357.419 214.665 353.535C215.571 352.175 216.865 351.981 217.965 351.463C223.337 349.068 223.336 349.003 227.543 352.823C227.996 353.211 228.578 353.47 229.096 353.729C229.29 353.794 229.549 353.664 230.066 353.6C231.037 351.399 229.031 350.039 228.125 348.486C227.413 347.256 226.702 346.414 227.672 344.731C232.267 336.704 235.632 328.094 241.326 319.678C242.232 323.692 241.391 327.188 241.52 330.619C241.65 334.309 241.909 337.998 241.65 341.882C239.579 342.206 239.385 338.84 237.185 339.552C236.408 341.494 237.897 342.918 238.997 343.63C241.973 345.508 241.65 348.291 241.909 351.14C242.815 361.303 243.332 371.661 247.409 381.241C248.186 383.054 247.862 384.349 246.827 385.773C245.144 388.103 243.203 390.24 240.938 392.052C223.531 405.906 204.764 416.846 182.439 420.795C176.421 421.83 170.597 421.118 164.708 420.536C151.83 419.241 138.953 418.141 126.269 415.486C113.586 412.897 103.362 407.265 95.9844 396.26C90.7428 388.427 83.8834 381.824 79.483 373.344C78.0594 370.56 76.7004 367.971 76.8298 364.734C77.0239 359.749 76.2475 354.894 75.2768 350.039C74.1767 344.472 74.1766 338.905 76.1827 333.597C81.8126 318.643 87.1836 303.495 95.5313 289.706C106.726 271.192 122.193 257.015 140.635 246.01C143.094 244.586 145.683 243.161 148.401 242.385C163.414 238.047 178.427 234.034 194.281 233.904C207.935 233.775 221.395 234.034 234.596 237.853C239.708 239.277 244.109 241.414 248.186 244.715C251.162 247.175 253.492 250.218 256.922 252.289C259.381 253.778 260.804 257.08 261.516 260.122C261.84 261.676 261.904 263.294 260.74 264.783C253.557 273.781 249.998 284.462 246.762 295.273C246.438 296.438 246.05 297.604 245.662 298.769C245.597 299.093 245.209 299.352 244.95 299.611C239.514 296.633 239.256 296.05 240.614 290.612C241.003 288.929 242.362 287.311 241.197 285.11C237.897 285.757 238.802 289.641 236.602 291.13C233.431 289.577 231.943 287.376 233.626 283.75C234.402 282.197 235.308 280.514 234.337 278.507C232.331 279.348 232.461 281.355 231.619 282.65C230.908 283.75 230.261 284.786 228.772 283.815C227.543 282.974 226.184 282.261 227.09 280.384C228.125 278.377 229.161 276.371 230.066 274.299C230.843 272.487 231.749 270.609 230.325 267.761C228.384 271.256 226.831 274.234 225.148 277.147C223.789 279.478 221.46 279.607 219.842 277.601C218.224 275.594 219.389 269.962 221.978 269.12C224.242 268.408 223.789 267.049 223.336 265.819C222.625 263.812 221.266 264.459 219.842 265.171C218.418 265.883 217.577 266.919 217.383 268.473C217.189 269.703 217.059 270.933 216.736 272.098C216.283 273.781 216.348 276.241 213.565 275.529C211.3 275.011 208.388 275.076 208.518 271.386C208.582 269.25 209.359 266.919 207.741 265.107C206.253 265.042 206.317 266.013 206.188 266.725C205.864 268.861 206.706 271.774 204.505 272.94C201.982 274.299 198.876 273.458 196.028 273.328C194.54 273.263 194.152 272.098 193.893 270.803C193.504 269.056 193.958 267.049 192.404 265.689C191.304 265.754 190.851 266.66 191.045 267.372C192.275 272.357 189.492 274.882 186.127 278.054C179.074 284.721 170.079 286.922 161.537 290.289C160.113 290.871 159.143 290.094 158.301 289.123C156.295 286.793 154.354 284.398 154.354 281.031C154.354 280.06 153.707 279.413 152.801 279.478C151.636 279.543 151.054 280.384 151.054 281.549C151.054 284.721 153.448 286.663 155.066 288.994C158.043 293.331 157.978 293.914 153.901 297.28C151.895 298.963 150.213 298.769 148.659 296.892C146.912 294.82 145.359 292.684 143.677 290.612C142.641 289.382 142.512 287.44 140.635 286.858C139.147 288.282 140.312 289.512 140.959 290.612C142.059 292.619 143.288 294.496 144.712 296.244C149.048 301.811 149.048 301.747 143.418 305.76ZM208.97 368.1C208.323 361.303 208.323 361.303 204.247 360.85C205.67 363.18 205.929 365.834 208.97 368.1ZM178.75 279.413C179.656 276.306 179.203 273.393 178.362 270.544C178.233 269.962 177.715 269.509 177.003 269.638C176.291 269.703 175.903 270.221 175.903 270.868C176.032 273.911 176.227 276.953 178.75 279.413ZM168.202 284.592C167.037 280.449 166.067 276.824 165.031 273.263C162.831 278.183 163.931 281.679 168.202 284.592ZM143.483 305.631H143.418C142.382 300.711 137.594 299.157 134.876 295.791C134.488 295.338 133.582 295.532 133.323 296.18C133.129 296.697 133.194 297.539 133.517 297.863C136.429 300.97 139.147 304.271 143.418 305.696V305.76C143.418 305.631 143.483 305.631 143.483 305.631ZM117.922 329.583C120.381 331.072 122.84 331.525 126.593 331.46C122.645 327.835 121.998 327.705 117.922 329.583ZM118.18 320.585C121.286 321.556 124.134 323.433 127.693 322.592C124.975 320.132 122.063 318.384 118.18 320.585ZM121.545 367.971C122.904 365.964 123.422 364.475 121.998 362.663C121.287 364.281 120.445 365.835 121.545 367.971Z" fill="#4CAA56"/>
<path d="M235.373 296.956C239.256 301.941 241.65 307.767 238.867 314.305C238.479 315.212 238.091 316.118 237.12 316.636C236.473 313.011 235.89 309.45 235.179 305.825C234.208 300.776 231.62 296.762 227.349 293.914C224.954 292.36 224.048 289.771 222.366 287.699C221.46 286.599 220.813 285.304 219.777 284.333C219.454 284.074 219.066 283.944 218.677 283.944L219.26 282.585C220.36 283.232 221.395 283.945 222.431 284.786C227.09 288.605 231.749 292.295 235.373 296.956Z" fill="white"/>
<path d="M237.12 316.571V316.636H237.055C237.055 316.701 237.055 316.636 237.12 316.571C237.055 316.636 237.055 316.636 237.12 316.571Z" fill="#13751E"/>
<path d="M237.055 316.701C236.991 318.384 236.214 319.808 235.502 321.297C232.267 327.252 228.837 333.079 225.86 339.099C223.401 344.084 219.518 346.867 214.277 348.226C213.306 346.479 214.018 345.054 215.571 344.86C220.23 344.213 221.136 340.458 222.236 337.027C223.272 333.92 223.595 330.683 227.154 329C229.031 328.094 229.743 325.763 230.196 323.821C231.102 320.002 233.043 317.477 237.055 316.701Z" fill="white"/>
<path d="M232.331 232.286C231.167 232.416 230.584 232.674 230.067 232.545C212.012 228.143 193.763 228.985 175.644 231.444C164.902 232.933 154.095 235.199 144.194 239.731C130.282 246.139 118.439 255.591 107.891 266.79C97.4081 278.054 89.2544 290.742 83.6245 304.983C80.3243 313.399 75.9886 321.297 73.4649 330.036C71.3294 337.351 70.8764 344.537 72.4294 351.916C72.8824 354.117 73.5943 356.318 72.0413 358.714C68.8057 352.046 66.7996 345.119 66.2172 337.675C66.1525 336.445 66.1525 335.215 66.2172 333.985C67.0585 319.355 70.747 305.307 75.6004 291.519C77.2182 286.987 80.1301 283.233 82.7833 279.348C91.7781 266.207 103.038 255.138 114.815 244.586C117.404 242.255 120.575 240.637 123.681 239.083C127.369 237.271 130.993 235.329 134.488 233.192C140.377 229.632 147.171 228.726 153.901 228.013C168.202 226.525 182.374 224.453 196.74 223.741C200.235 223.611 203.664 223.288 207.159 223.029C216.736 222.317 224.501 226.525 232.331 232.286Z" fill="#8D780E"/>
<path d="M228.643 300.387C231.231 308.544 231.037 316.247 225.278 324.275C223.919 314.305 229.225 305.113 223.466 296.115C226.96 296.439 227.866 297.992 228.643 300.387Z" fill="white"/>
<path d="M220.231 323.628C220.942 330.425 219.972 334.633 216.93 339.034C215.118 336.251 219.26 331.331 213.63 330.101C215.636 328.029 217.772 326.023 220.231 323.628Z" fill="white"/>
<path d="M219.713 297.086C224.178 304.272 223.336 313.399 217.512 320.52C213.888 324.922 209.618 328.806 205.153 332.431C200.623 336.057 196.481 339.941 192.857 344.407C190.139 347.774 186.775 349.78 182.504 350.428C172.991 351.917 163.543 353.535 154.031 355.089C151.507 354.894 149.048 354.571 146.912 353.276C142.965 351.01 142.253 348.421 143.806 344.084C145.942 337.934 149.371 332.302 151.313 326.023C152.736 321.491 155.778 317.672 160.049 315.277C169.108 310.163 177.327 303.43 188.133 301.941C190.398 301.617 192.21 300.128 193.828 298.51C195.122 297.215 196.352 295.791 197.646 294.497C205.023 287.052 214.212 288.153 219.713 297.086Z" fill="#13751E"/>
<path d="M217.448 286.858C219.001 288.217 220.683 289.382 221.978 292.943C217.642 289.059 214.083 286.534 209.618 285.628C207.741 285.239 207.223 282.52 208.129 280.06C208.906 277.989 210.459 278.766 211.688 279.219C214.342 280.125 216.93 281.161 219.324 282.585L218.742 283.944C218.16 283.944 217.513 284.268 217.124 284.721C216.412 285.434 216.801 286.275 217.448 286.858Z" fill="white"/>
<path d="M213.565 330.101C213.565 330.101 213.565 330.166 213.565 330.101C213.5 330.166 213.436 330.23 213.371 330.295C213.371 330.23 213.371 330.166 213.436 330.101C213.5 330.101 213.565 330.101 213.565 330.101Z" fill="#13751E"/>
<path d="M213.371 330.295C212.853 333.855 212.595 337.48 211.947 340.976C211.494 343.306 211.041 345.766 208.712 347.708C207.094 346.349 207.871 344.342 207.418 342.724C207.094 341.688 206.641 340.782 205.476 340.717C204.57 340.588 203.923 341.3 203.6 342.012C202.305 344.795 201.141 347.644 199.782 350.363C198.617 352.693 198.164 355.477 195.187 357.03C193.31 353.211 193.31 349.909 196.158 346.478C201.205 340.393 207.806 335.797 213.371 330.295Z" fill="white"/>
<path d="M204.247 360.85C208.323 361.303 208.323 361.303 208.971 368.1C205.929 365.835 205.67 363.181 204.247 360.85Z" fill="#13751E"/>
<path d="M203.794 277.601C202.305 281.29 199.717 283.556 197.064 286.663C195.252 283.686 197.258 278.96 192.663 278.248C196.158 276.953 199.782 277.471 203.794 277.601Z" fill="white"/>
<path d="M194.087 366.094C198.229 367.518 198.164 371.078 198.552 374.444C195.058 372.632 194.475 369.395 194.087 366.094C194.022 366.094 194.022 366.094 194.087 366.094Z" fill="#13751E"/>
<path d="M194.022 366.093C193.958 366.223 193.828 366.352 193.763 366.417L193.958 366.029C193.958 366.029 194.022 366.029 194.022 366.093Z" fill="#13751E"/>
<path d="M194.022 365.964C194.022 366.029 194.022 366.029 194.022 366.094H193.958L194.022 365.964Z" fill="#13751E"/>
<path d="M194.022 365.964L193.958 366.029H193.893C193.958 365.964 193.958 365.964 194.022 365.964Z" fill="#13751E"/>
<path d="M194.022 365.964C193.958 365.964 193.958 366.029 193.893 366.029L194.022 365.964Z" fill="#13751E"/>
<path d="M191.563 288.864C194.216 292.425 194.281 292.425 192.405 294.626C190.657 296.632 188.651 298.38 185.869 298.769C182.892 299.157 180.045 300.193 175.968 301.552C178.362 298.251 179.268 295.273 183.151 296.956C184.704 297.539 186.127 295.985 187.163 294.69C188.716 292.813 190.075 290.806 191.563 288.864Z" fill="white"/>
<path d="M192.663 278.248C192.599 278.248 192.599 278.248 192.534 278.313C192.469 278.313 192.469 278.378 192.405 278.378C192.405 278.313 192.404 278.313 192.469 278.248C192.534 278.248 192.599 278.248 192.663 278.248Z" fill="#13751E"/>
<path d="M190.01 357.872C193.181 361.368 193.181 361.368 185.998 365.835C187.292 363.18 188.586 360.591 190.01 357.872Z" fill="white"/>
<path d="M192.405 278.377C190.787 283.491 188.134 288.088 184.445 292.425C183.41 284.657 183.345 283.297 192.405 278.377Z" fill="white"/>
<path d="M187.616 353.664C186.322 358.325 184.575 361.691 182.18 364.863C180.045 363.828 181.145 362.209 181.08 360.979C180.951 358.39 180.433 356.642 177.586 358.973C177.133 359.361 176.421 360.008 176.097 359.555C173.509 355.736 172.344 358.649 170.92 360.591C170.403 361.303 169.561 361.756 168.85 361.109C168.138 360.397 167.491 359.426 167.297 358.52C167.038 357.29 168.009 356.707 169.109 356.513C174.933 355.606 180.821 354.7 187.616 353.664Z" fill="white"/>
<path d="M178.362 270.544C179.203 273.393 179.656 276.306 178.75 279.413C176.227 276.953 176.032 273.911 175.903 270.868C175.903 270.221 176.291 269.703 177.003 269.638C177.715 269.509 178.233 269.962 178.362 270.544Z" fill="#13751E"/>
<path d="M178.685 289.253C178.427 292.555 176.162 294.691 174.156 297.022C171.826 291.131 172.797 289.512 178.685 289.253Z" fill="white"/>
<path d="M174.674 369.201C177.133 366.546 178.491 368.359 180.303 370.689C174.026 373.538 167.879 376.321 161.408 372.308C156.878 369.524 152.283 369.071 147.301 369.654C145.359 369.848 143.289 370.495 140.959 368.942C142.706 366.935 143.677 364.41 147.171 365.964C147.754 366.223 148.918 365.899 149.436 365.446C151.572 363.439 153.448 362.857 156.425 364.475C159.596 366.158 161.214 362.144 164.514 360.72C165.549 364.928 170.597 364.993 171.567 369.071C171.891 370.43 173.832 370.172 174.674 369.201Z" fill="white"/>
<path d="M167.944 303.041C169.561 300.322 171.05 301.747 173.25 303.43C169.82 305.372 166.714 307.12 163.608 308.867C163.284 308.544 162.961 308.155 162.637 307.832C165.161 306.925 166.714 305.113 167.944 303.041Z" fill="white"/>
<path d="M168.396 291.713C169.044 294.044 167.879 295.533 167.167 297.151C166.908 297.604 166.52 298.187 165.808 297.41C162.702 293.979 162.378 297.28 161.796 299.223C160.89 302.265 160.566 305.502 158.107 308.609C156.49 306.084 158.172 303.236 156.037 301.488C155.778 301.294 155.778 300.194 156.101 299.87C159.596 296.374 162.702 292.166 168.396 291.713Z" fill="white"/>
<path d="M165.032 273.263C166.067 276.824 167.038 280.449 168.203 284.592C163.932 281.679 162.832 278.183 165.032 273.263Z" fill="#13751E"/>
<path d="M158.431 358.714C159.078 358.714 159.596 358.973 159.402 359.814C158.949 360.786 158.107 361.303 157.007 360.85C156.554 360.656 155.907 359.879 155.972 359.62C156.36 358.39 157.525 358.714 158.431 358.714Z" fill="white"/>
<path d="M152.607 302.848C153.707 306.214 153.125 308.156 152.024 309.968C151.507 310.81 151.054 312.234 149.954 311.846C145.683 310.357 145.812 313.917 144.971 316.118C143.677 319.42 143.288 323.11 141.347 326.735C137.658 317.024 138.047 314.823 144.583 309.256C147.042 307.185 149.63 305.243 152.607 302.848Z" fill="white"/>
<path d="M149.242 317.542C150.924 318.189 150.342 319.419 149.889 320.585C147.106 327.576 145.812 335.279 139.923 340.782C138.629 340.135 140.247 337.739 138.241 337.675C136.688 337.675 136.299 338.969 135.652 340.005C134.617 341.688 133.97 343.695 131.705 345.637C131.77 340.264 136.17 336.833 135.717 330.748C132.287 335.021 131.64 339.423 127.887 343.566C130.022 336.38 131.705 330.489 133.517 324.663C133.776 323.692 134.423 322.85 135.135 321.491C137.335 323.692 137.788 326.217 138.564 328.612C138.953 329.777 139.47 330.942 140.959 331.007C142.447 331.072 143.159 329.971 143.612 328.806C144.712 325.699 145.683 322.591 146.783 319.484C147.171 318.384 147.559 316.96 149.242 317.542Z" fill="white"/>
<path d="M151.313 358.973C150.536 360.397 149.307 361.756 148.53 360.656C145.877 357.031 144.389 358.843 142.771 361.433C142.382 362.08 141.8 362.663 141.218 363.375C140.118 359.75 140.053 359.75 141.865 355.283C144.842 356.772 147.754 358.52 151.313 358.973Z" fill="white"/>
<path d="M143.418 305.566H143.483C143.483 305.566 143.418 305.566 143.418 305.631C143.418 305.631 143.418 305.631 143.418 305.566Z" fill="#13751E"/>
<path d="M143.418 305.631C143.418 305.631 143.418 305.696 143.418 305.631C143.353 305.696 143.418 305.696 143.418 305.631Z" fill="#13751E"/>
<path d="M134.876 295.727C137.594 299.158 142.382 300.711 143.418 305.566C139.211 304.207 136.429 300.841 133.517 297.733C133.193 297.41 133.129 296.568 133.323 296.05C133.582 295.468 134.488 295.273 134.876 295.727Z" fill="#13751E"/>
<path d="M137.723 348.615C138.888 349.197 139.406 350.557 138.888 351.657C137.853 353.988 136.429 356.124 134.488 359.555C133.258 355.477 134.488 352.823 135.07 350.168C135.394 348.938 136.3 347.903 137.723 348.615Z" fill="white"/>
<path d="M137.011 364.41C137.011 365.123 137.27 366.158 135.976 365.964C135.135 365.899 134.617 365.252 134.294 364.475C134.229 363.504 134.941 363.116 135.717 362.986C136.688 362.792 137.011 363.634 137.011 364.41Z" fill="white"/>
<path d="M128.081 349.781C129.505 349.846 131.705 349.651 131.511 352.176C131.381 354.442 130.993 356.643 130.605 360.009C128.146 357.484 127.24 355.089 126.722 352.5C126.463 351.27 126.334 349.716 128.081 349.781Z" fill="white"/>
<path d="M126.593 331.46C122.84 331.525 120.381 331.071 117.922 329.583C121.998 327.705 122.646 327.835 126.593 331.46Z" fill="#13751E"/>
<path d="M127.693 322.592C124.134 323.433 121.287 321.556 118.18 320.585C122.063 318.384 124.975 320.132 127.693 322.592Z" fill="#13751E"/>
<path d="M125.04 338.905C124.975 338.969 124.91 338.969 124.91 339.034C124.846 338.969 124.846 338.969 124.781 338.905C124.846 338.905 124.91 338.905 125.04 338.905Z" fill="#13751E"/>
<path d="M124.781 338.905C121.869 338.905 118.957 338.905 115.462 338.905C119.475 335.021 121.675 335.215 124.781 338.905Z" fill="#13751E"/>
<path d="M121.999 362.663C123.423 364.475 122.905 365.964 121.546 367.971C120.445 365.835 121.287 364.281 121.999 362.663Z" fill="#13751E"/>
</svg>
