<svg width="600" height="600" viewBox="0 0 600 600" fill="none" xmlns="http://www.w3.org/2000/svg">
<path d="M549.949 253.869C550.097 257.464 549.949 261.01 549.162 264.556C548.129 269.58 547.982 274.751 548.228 279.873C548.67 289.131 547.195 297.996 544.686 306.959C541.735 317.4 537.701 327.545 535.242 338.134C532.733 348.919 526.88 357.538 518.616 364.974C508.237 374.233 497.514 382.802 485.512 389.746C484.578 390.288 483.643 390.879 482.758 391.519C479.708 393.736 477.593 396.395 476.806 400.433C474.887 410.185 471.838 419.64 468.05 428.85C465.788 434.267 462.689 439.143 459.688 444.068C456.835 448.845 453.441 453.376 450.096 457.808C445.768 463.472 441.341 469.086 437.898 475.39C436.865 477.311 435.143 478.739 433.569 480.216C430.913 482.777 427.765 484.993 427.371 489.13C427.371 489.278 427.273 489.426 427.175 489.524C421.813 493.76 419.747 500.852 413.402 504.397C399.875 511.982 387.529 521.536 373.067 527.495C368.591 529.367 364.066 530.302 359.294 531.139C342.619 534.094 325.846 532.568 309.122 532.863C298.055 533.06 287.528 530.056 277.986 524.54C270.165 520.009 263.967 513.311 258.409 506.17C256.343 503.462 254.474 500.556 252.703 497.65C249.604 492.578 245.866 488.096 241.881 483.664C235.192 476.178 230.519 467.412 226.436 458.301C224.813 454.656 222.354 451.406 221.173 447.072C215.861 450.864 210.056 450.519 204.449 449.633C196.48 448.402 188.61 449.239 180.789 450.125C173.46 451.012 166.229 451.209 158.999 450.47C152.998 449.879 146.898 450.175 140.996 448.451C131.06 445.545 122.304 440.226 113.942 434.267C110.351 431.756 106.761 429.392 102.727 427.766C96.3818 425.206 91.3645 420.773 86.9375 415.701C85.1667 413.681 83.3467 411.908 81.1332 410.48C74.8863 406.442 70.0167 401.123 66.4259 394.573C60.2282 383.246 54.178 371.82 52.3088 358.818C50.5872 346.9 50.7348 334.982 51.7677 323.014C52.8499 310.21 56.2931 298.045 60.6217 285.98C63.8189 277.065 66.8195 268.053 71.9842 260.025C73.0664 258.351 74.0501 256.529 75.2306 254.904C84.4289 242.247 91.6104 228.556 96.2833 213.584C97.3655 210.137 99.0379 206.984 101.202 204.128C101.94 203.143 102.727 202.158 103.367 201.075C109.663 189.6 119.353 181.425 129.781 173.939C134.503 170.541 139.422 167.98 144.98 166.108C156.982 162.07 154.621 163.695 152.358 152.762C151.424 148.182 149.259 143.946 147.095 139.859C143.455 132.816 139.668 125.872 135.88 118.928C135.142 117.549 134.208 116.318 133.273 115.037C132.584 114.003 131.945 113.018 130.273 113.708C128.846 114.299 128.108 113.166 128.403 111.984C128.994 109.423 127.616 107.896 126.092 106.271C124.026 104.005 124.026 101.543 125.649 99.0314C128.305 94.993 131.502 91.3486 135.536 88.6399C139.668 85.8819 142.521 87.0147 143.947 91.7426C144.095 92.1858 144.193 92.629 144.291 93.0723C145.423 98.1941 145.472 98.2435 150.292 96.8645C158.261 94.6483 166.229 92.6783 174.591 93.3185C176.411 93.4662 177.543 92.7768 178.182 91.1023C180.199 86.1282 184.232 83.4196 188.905 81.3019C193.578 79.1842 198.153 76.9188 202.776 74.7026C204.892 73.7176 207.105 72.9295 209.466 72.8803C219.107 72.6833 228.551 70.9596 237.897 68.6942C242.865 67.5122 247.735 67.8077 252.457 69.8269C259.196 72.7326 266.131 74.6533 273.313 76.1308C287.971 79.1349 300.121 86.867 309.516 98.342C315.418 105.582 321.37 112.673 327.912 119.322C331.109 122.572 333.569 126.315 335.487 130.403C336.274 132.077 337.061 133.801 338.143 135.328C343.948 143.257 348.473 151.875 352.703 160.74C354.917 165.32 356.343 169.9 356.835 174.924C357.425 180.587 358.311 186.202 359.048 191.767C360.672 192.111 361.705 191.225 362.787 190.683C365.246 189.403 367.755 188.073 370.116 186.596C379.904 180.538 390.529 177.041 401.892 175.318C413.992 173.446 426.043 171.181 438.242 169.999C444.882 169.359 451.523 168.768 458.213 169.112C463.869 169.359 469.378 168.571 474.543 166.207C481.43 163.055 488.857 162.217 496.235 161.528C501.744 161.035 505.237 159.607 507.253 153.501C509.91 145.424 514.189 137.889 518.026 130.255C520.043 126.217 523.24 123.015 527.273 120.799C529.142 119.765 530.47 117.894 532.635 117.155C533.865 116.712 535.045 116.318 536.176 117.155C537.455 118.14 537.603 119.47 537.16 120.947C536.963 121.686 536.717 122.474 536.422 123.163C534.602 127.349 531.7 131.092 531.503 136.017C531.454 137.495 529.88 138.972 528.896 140.351C526.781 143.207 524.568 146.015 522.354 148.822C520.436 151.334 518.96 154.042 518.37 157.145C518.026 158.869 517.731 160.642 516.501 161.873C514.779 163.646 514.976 165.172 516.058 167.192C517.927 170.639 520.043 173.84 522.945 176.5C527.814 181.129 530.716 187.039 532.487 193.343C533.373 196.495 533.274 199.942 534.455 203.143C536.275 208.117 538.292 212.944 541.144 217.475C542.473 219.543 543.653 221.858 544.292 224.222C546.998 233.924 549.506 243.724 549.949 253.869ZM546.752 262.389C547.441 259.04 547.391 255.593 547.195 252.146C546.801 244.512 544.588 237.174 543.309 229.688C542.62 225.65 541.144 221.907 538.98 218.459C536.029 213.83 533.914 208.856 532.29 203.636C530.864 199.203 529.536 194.722 528.011 190.338C526.634 186.349 524.814 182.508 521.715 179.553C517.829 175.859 514.681 171.673 512.566 166.748C511.484 164.286 509.959 163.202 507.204 163.449C497.022 164.237 486.742 164.729 477.101 168.521C470.608 171.033 464.066 172.461 457.13 172.067C453.441 171.87 449.654 171.821 445.965 172.215C434.553 173.446 423.19 174.776 411.828 176.401C395.694 178.765 380.15 182.409 366.427 191.717C366.033 191.964 365.59 192.161 365.197 192.407C363.574 193.343 361.655 193.934 360.426 195.263C358.852 196.889 360.819 198.711 360.918 200.533C361.114 203.783 359.835 204.965 356.835 203.537C354.523 202.404 352.802 202.552 350.982 204.374C347.342 208.068 343.161 211.269 340.258 215.751C332.88 227.078 325.551 238.405 319.304 250.422C314.68 259.287 313.254 268.989 311.434 278.543C311.336 278.937 311.582 279.429 311.729 280.316C320.337 278.888 328.552 277.361 336.127 273.52C338.488 272.338 340.947 271.303 343.505 270.712C349.752 269.284 355.704 267.117 361.557 264.655C369.034 261.503 376.707 259.336 384.626 257.612C397.711 254.707 410.893 255.741 424.027 255.79C426.289 255.79 428.65 256.332 430.175 258.499C433.372 262.882 438.291 265.393 441.784 269.777C441.243 264.261 444.145 261.355 448.473 259.434C448.621 259.385 448.768 259.287 448.867 259.237C458.213 254.066 463.476 246.137 465.05 235.549C466.181 228.014 467.214 220.479 469.919 213.288C471.444 209.201 473.953 206.935 478.478 206.689C483.053 206.443 484.971 207.526 485.119 212.254C485.365 219.1 485.02 226.044 482.315 232.397C479.855 238.257 476.855 243.872 473.412 249.289C469.329 255.741 466.181 262.685 463.722 269.924C462.295 274.061 461.065 278.346 460.672 283.074C462.787 282.778 464.46 282.581 466.132 282.237C467.854 281.892 469.526 282.04 471.149 282.68C478.97 285.684 484.873 290.461 486.447 299.277C486.643 300.36 487.037 301.394 487.135 302.478C487.431 305.728 488.709 308.388 491.021 310.702C493.53 313.214 494.809 316.366 495.104 319.863C495.891 328.924 495.448 337.838 492.546 346.555C490.825 351.727 488.759 356.75 487.627 362.118C486.004 369.899 483.741 377.484 481.233 384.969C480.839 386.151 479.954 387.383 480.544 389.106C481.429 388.564 482.118 388.22 482.758 387.826C494.907 380.783 505.876 372.263 516.353 362.906C524.42 355.666 530.077 347.294 532.536 336.853C535.045 326.117 539.226 315.873 542.128 305.236C544.293 297.356 545.719 289.525 545.424 281.35C545.227 275.046 545.375 268.693 546.752 262.389ZM507.549 159.607C510.598 157.884 509.123 154.929 510.057 152.86C508.582 154.682 507.352 156.652 507.549 159.607ZM489.005 347.59C492.399 339.168 492.497 330.303 492.202 321.439C492.054 317.893 490.972 314.741 488.365 312.18C485.906 309.816 484.725 306.861 484.282 303.512C483.84 300.262 482.905 297.11 481.577 294.155C478.921 288.343 470.411 283.911 464.263 285.142C460.475 285.93 456.638 286.62 452.9 287.703C450.342 288.442 447.981 288.688 445.817 287.014C444.833 286.275 444.292 286.275 443.554 287.161C442.718 288.245 441.144 288.491 440.603 290.018C438.488 296.568 434.061 301.69 429.634 306.615C419.845 317.449 411.533 329.515 401.892 340.448C398.793 343.945 396.284 347.836 395.694 352.711C395.694 352.81 395.153 352.859 394.907 352.908C393.333 352.022 394.71 350.003 392.939 348.082C393.038 351.234 392.054 352.564 389.693 353.204C388.266 353.598 387.234 355.469 385.955 356.602C385.217 357.242 384.872 358.621 383.446 358.129C383.102 356.996 384.036 356.454 384.479 355.666C384.872 355.026 385.463 354.287 384.577 353.647C382.167 351.874 383.643 350.446 384.922 349.067C386.643 347.294 388.512 345.669 390.332 343.945C391.316 343.009 392.349 342.025 393.284 340.99C393.923 340.301 394.464 339.464 393.726 338.528C393.136 337.838 392.349 338.134 391.562 338.232C390.185 338.479 389.25 339.808 387.135 339.661C390.628 335.918 392.103 335.425 395.743 337.198C396.973 337.789 397.563 337.691 398.596 336.952C401.055 335.13 401.99 332.421 403.466 329.909C408.926 320.651 415.222 312.032 422.403 304.004C428.503 297.159 434.061 289.919 439.373 282.384C442.374 278.1 441.292 274.554 438.881 270.959C436.717 267.708 433.913 264.999 430.569 262.882C429.536 262.242 428.208 261.749 427.568 260.764C426.191 258.745 424.322 258.597 422.256 258.597C415.763 258.548 409.221 258.449 402.679 258.548C391.119 258.696 379.757 260.567 369.083 264.95C355.999 270.318 342.226 273.52 329.339 279.331C327.371 280.217 325.207 280.71 323.092 281.005C305.236 283.616 290.086 292.48 275.477 302.133C264.705 309.225 255.211 317.893 246.456 327.496C238.881 335.77 233.323 345.127 228.404 355.026C227.568 356.701 227.125 358.572 226.977 360.394C225.698 374.923 222.993 389.303 221.714 403.881C221.173 409.988 221.025 415.947 222.058 421.955C222.649 425.501 223.436 429.047 223.485 432.593C223.583 437.715 226.731 441.162 229.191 445.053C232.24 449.83 236.913 450.273 241.832 450.519C242.767 450.569 243.652 450.815 244.587 450.963C250.44 451.751 256.244 452.588 262.098 453.326C264.065 453.573 266.082 453.622 267.951 452.44C272.181 449.83 276.559 450.667 280.691 452.686C282.855 453.77 284.774 453.868 286.791 452.588C288.463 451.504 290.135 450.322 291.857 449.239C292.693 448.697 293.628 448.254 294.267 449.288C294.759 450.027 294.07 450.716 293.529 451.307C292.496 452.391 290.037 453.277 290.578 454.558C292.004 457.808 289.201 457.808 287.873 458.793C286.643 459.68 285.512 459.729 284.725 457.71C283.642 454.952 281.036 454.804 279.461 457.217C276.707 461.453 277.641 466.476 276.904 471.105C276.854 471.45 277.248 471.992 277.592 472.287C279.658 473.814 278.92 475.439 277.887 477.163C275.477 481.3 274.739 486.077 276.559 490.214C279.166 496.124 282.56 501.787 286.495 507.008C287.627 508.485 289.25 509.519 290.922 510.357C293.677 511.785 296.53 513.016 299.481 513.952C310.057 517.301 320.78 518.877 331.946 518.877C342.374 518.877 352.31 517.645 361.803 513.213C365.492 511.489 369.427 510.554 373.461 510.307C376.56 510.11 379.56 509.421 382.561 508.534C392.841 505.382 402.482 500.753 412.074 495.976C417.632 493.169 422.994 490.066 425.797 484.008C432.93 477.606 437.799 469.48 443.259 461.797C449.801 452.588 457.032 443.871 462.098 433.627C465.394 426.929 468.591 420.231 470.559 412.992C474.051 399.941 477.298 386.841 481.577 374.036C484.381 365.27 485.561 356.11 489.005 347.59ZM479.757 230.673C481.282 223.828 483.643 217.031 481.134 209.939C481.626 216.933 479.905 223.729 479.757 230.673ZM471.887 216.884C475.379 215.603 475.97 213.19 476.166 210.383C473.166 211.318 472.526 213.732 471.887 216.884ZM474.887 231.461C474.937 230.87 474.937 230.279 474.986 229.294C474.543 230.23 474.346 230.87 474.887 231.461ZM470.411 248.206C472.772 245.3 474.346 242.345 475.133 238.996C473.166 241.705 468.837 243.182 470.411 248.206ZM469.87 231.904C470.756 228.752 470.116 226.487 470.067 224.271C469.526 226.389 468.099 228.506 469.87 231.904ZM468.099 238.602C468.641 238.208 468.444 237.568 468.444 237.026C468.444 236.632 468.247 236.484 467.804 236.632C467.657 237.075 467.362 237.568 467.312 238.11C467.214 238.701 467.657 238.898 468.099 238.602ZM467.263 248.403C467.952 246.187 467.558 244.512 466.476 242.936C464.558 246.236 464.558 246.236 467.263 248.403ZM464.755 259.484C465.788 256.824 467.657 255.051 467.263 252.49C466.083 252.244 465.984 252.934 465.738 253.475C465.345 254.313 465.148 255.396 463.869 255.002C463.033 254.707 463.033 253.82 462.935 253.081C462.836 252.441 463.328 251.555 462.295 251.161C461.016 251.85 460.229 253.032 459.639 254.263C459.098 255.445 460.426 257.366 461.361 256.873C463.918 255.593 463.918 257.76 464.755 259.484ZM460.475 262.242C461.016 262.192 461.016 261.651 461.065 261.207C460.967 260.961 460.869 260.469 460.721 260.469C460.18 260.37 459.934 260.813 459.885 261.306C459.885 261.7 459.934 262.242 460.475 262.242ZM460.672 268.201C460.377 268.102 460.082 267.954 459.787 267.856C457.77 272.288 455.704 276.77 453.49 281.596C457.18 281.399 457.425 281.498 457.671 280.513C458.901 276.425 460.377 272.436 460.672 268.201ZM456.294 262.192C456.786 260.518 456.983 259.188 455.999 257.76C453.835 258.991 451.621 260.025 450.146 262.488C452.212 261.651 454.179 260.321 456.294 262.192ZM445.325 267.265C445.571 266.576 445.768 265.886 445.965 265.196C445.965 265.147 445.473 264.852 445.325 264.901C444.538 265.295 444.489 266.034 444.538 266.773C444.538 267.019 444.784 267.265 444.932 267.462C445.079 267.413 445.276 267.363 445.325 267.265ZM413.648 500.408C414.582 499.817 415.861 499.325 415.96 497.404C414.779 497.946 413.844 498.34 412.91 498.783C405.581 502.477 398.104 505.924 390.431 508.928C385.512 510.849 380.495 512.671 375.232 513.016C370.509 513.311 366.082 514.592 361.754 516.316C357.278 518.089 352.851 519.861 348.079 520.797C341.587 522.078 335.094 521.388 328.601 521.684C317.238 522.225 306.466 519.271 295.841 515.823C288.807 513.558 283.052 509.519 279.855 502.526C279.166 500.999 278.379 499.423 277.346 498.094C273.51 493.169 272.083 487.653 272.968 481.497C273.018 481.103 272.87 480.906 272.427 480.906C271.493 481.645 271.444 483.516 270.017 483.467C267.902 483.418 267.558 484.747 267.017 486.225C266.426 487.899 266.279 490.559 263.77 489.869C261.557 489.278 262.196 486.816 262.295 484.993C262.344 483.762 262.639 482.531 262.688 481.3C262.688 480.364 263.426 479.182 261.557 478.148C261.212 478.69 260.819 479.428 260.327 480.019C259.835 480.61 259.147 481.103 258.31 480.758C257.179 480.315 257.228 479.33 257.622 478.443C257.966 477.606 257.917 476.621 257.13 476.473C254.769 476.079 253.146 473.666 250.44 474.208C249.555 474.405 248.571 474.356 247.686 474.159C246.161 473.814 245.718 472.435 246.8 471.401C247.686 470.564 248.768 470.022 249.752 469.332C249.112 467.756 246.554 468.052 246.702 466.131C246.8 464.21 249.063 465.097 249.948 464.112C249.899 462.585 248.866 461.994 247.686 461.403C246.8 460.96 245.325 460.763 245.915 459.236C246.357 458.153 247.489 458.744 248.423 458.793C253.588 459.187 258.704 458.941 263.721 457.513C263.426 456.626 262.983 456.577 262.541 456.528C253.933 455.247 245.374 453.917 236.766 452.736C232.831 452.194 229.781 450.421 227.617 447.072C226.977 446.087 226.633 444.757 225.157 444.511C224.567 447.614 224.469 447.958 225.256 449.879C230.174 461.65 235.733 473.174 244.587 482.58C248.768 487.013 252.457 491.741 255.703 496.862C259.884 503.462 264.902 509.224 270.411 514.838C279.953 524.589 291.906 529.022 304.695 529.514C322.452 530.204 340.357 531.533 358.065 528.086C358.655 527.988 359.294 527.889 359.934 527.988C363.623 528.283 366.869 526.904 370.214 525.525C385.758 519.024 399.383 509.175 413.648 500.408ZM387.578 350.101C389.545 349.51 398.645 340.596 399.432 338.774C394.809 341.778 391.513 346.309 387.578 350.101ZM347.784 202.798C350.785 200.878 353.49 198.957 357.671 199.745C355.999 196.199 355.95 192.949 355.654 189.698C355.015 182.902 353.982 176.155 353.047 169.359C352.949 168.472 352.605 167.536 352.162 166.699C347.637 157.884 344.144 148.477 337.996 140.548C335.881 137.839 334.159 134.884 332.733 131.782C330.863 127.645 328.256 123.951 325.059 120.75C318.911 114.594 313.303 107.995 307.892 101.149C298.891 89.7234 287.036 82.0898 272.723 79.0364C265.738 77.5589 258.851 75.8353 252.26 72.9296C247.391 70.7626 242.422 70.6641 237.258 71.7968C230.175 73.3728 223.091 75.195 215.713 75.1458C212.467 75.1458 209.023 75.195 206.072 76.3277C198.989 79.0364 192.004 82.1391 185.413 85.882C183.003 87.2117 181.576 89.4279 180.445 91.8903C180.101 92.6783 180.002 93.5648 180.789 93.9588C183.15 95.0915 185.069 97.2092 188.413 95.7318C194.66 93.0723 201.252 91.0531 207.695 88.8369C209.122 88.3445 210.45 87.3595 212.811 88.4429C205.187 92.7768 196.923 94.1558 189.299 97.8002C190.529 99.5239 192.103 99.8687 193.48 100.41C196.234 101.494 199.038 102.38 201.744 103.513C203.711 104.35 205.433 104.35 207.548 103.71C219.353 100.164 231.552 98.8837 243.8 97.948C244.784 97.8987 245.816 97.751 246.653 98.6867C245.128 100.164 243.455 99.7702 241.98 99.9179C232.88 100.755 223.78 101.789 214.779 103.71C213.352 104.006 211.237 103.759 210.843 105.483C210.45 107.354 212.516 107.798 213.893 108.487C217.484 110.359 220.829 112.624 223.977 115.185C228.601 118.928 233.569 122.031 238.881 124.641C242.226 126.315 245.62 127.891 248.719 129.96C252.408 132.373 256.244 133.259 260.573 133.259C269.279 133.21 277.986 133.308 286.594 134.195C287.627 134.293 289.053 133.949 289.643 136.066C279.265 136.066 269.181 134.54 258.901 135.525C259.245 136.263 259.294 136.608 259.54 136.805C268.148 143.7 277.297 149.905 286.299 156.209C287.184 156.8 288.069 157.342 289.25 157.342C300.711 157.194 311.729 159.804 322.551 163.153C324.075 163.646 325.895 163.843 326.978 165.517C325.158 166.502 323.731 165.468 322.354 165.025C315.074 162.759 307.696 161.036 300.17 159.903C297.809 159.558 295.399 159.164 292.25 160.05C297.415 163.843 302.039 167.192 306.614 170.59C308.925 172.313 311.385 173.348 314.238 173.692C317.927 174.136 321.567 174.874 325.256 175.564C326.338 175.761 327.666 175.81 328.552 177.829C323.485 176.992 319.009 176.303 314.533 175.564C318.861 180.39 324.075 183.148 330.027 184.478C333.077 185.167 336.127 185.758 339.127 186.399C339.963 186.596 341.046 186.645 340.947 187.975C340.652 188.122 340.357 188.368 340.111 188.368C331.749 187.334 323.584 185.758 316.451 180.735C312.123 177.731 307.745 174.776 303.416 171.821H303.367C296.973 166.01 282.954 156.652 279.707 156.111C281.331 160.297 283.298 164.138 285.462 167.93C288.758 173.742 292.742 179.11 296.727 184.478C297.366 185.364 298.448 186.202 297.71 187.581C296.087 187.285 295.497 186.103 294.759 185.118C292.644 182.262 290.381 179.454 288.463 176.45C283.987 169.408 278.97 162.611 277.543 154.042C277.395 153.008 276.559 152.515 275.772 151.974C266.082 145.473 257.327 137.692 247.243 131.831C245.521 130.846 243.996 129.467 241.734 129.369C240.996 131.486 242.226 133.111 242.914 134.737C246.308 142.764 250.588 150.349 254.916 157.884C255.703 159.263 256.982 160.543 256.687 162.562C254.67 162.02 254.178 160.395 253.441 159.164C250.096 153.55 246.849 147.886 244.046 141.976C242.029 137.642 239.471 133.456 238.93 128.581C238.832 127.448 238.094 126.955 237.258 126.561C230.322 123.262 224.419 118.435 218.369 113.855C217.09 112.87 215.811 111.688 213.893 111.639C213.45 113.56 214.533 114.791 215.172 116.17C219.501 125.478 224.616 134.343 230.666 142.666C231.453 143.749 232.831 144.783 232.339 146.606C230.224 145.965 229.486 144.291 228.502 142.961C222.698 135.032 217.385 126.709 213.844 117.598C211.237 110.851 207.007 106.911 200.268 105.089C197.809 104.4 195.595 102.873 192.299 102.922C194.119 106.616 195.693 109.817 197.317 112.969C198.891 116.022 200.563 118.977 202.137 122.031C203.711 125.084 205.925 127.842 207.154 131.93C204.498 130.945 204.006 129.221 203.17 127.793C198.694 120.307 194.513 112.673 191.07 104.695C189.2 100.361 185.757 98.9822 182.068 97.5539C179.806 96.6675 178.969 97.4061 179.068 99.9671C179.117 100.903 179.264 101.839 179.461 102.725C180.789 108.487 182.413 114.151 185.02 119.519C189.889 129.418 194.07 139.563 199.727 149.068C204.941 157.785 210.401 166.157 217.927 173.052C224.567 179.159 231.601 184.773 238.487 190.585C240.996 192.702 243.849 194.328 246.948 195.411C250.932 196.741 254.769 198.366 258.458 200.385C263.721 203.291 269.378 203.931 275.133 203.045C282.167 201.961 288.906 203.389 295.103 206.049C301.301 208.708 307.794 209.989 314.189 211.762C317.386 212.648 320.288 212.303 323.092 210.678C321.567 207.428 321.665 207.28 324.813 207.231C327.617 207.182 330.421 207.182 333.175 207.132C338.537 207.132 343.456 205.507 347.784 202.798ZM329.339 228.014C333.421 221.907 337.012 215.406 341.291 209.152C337.947 210.087 334.749 210.333 331.503 210.235C330.273 210.186 329.585 211.121 328.65 211.663C325.158 213.83 321.223 215.702 317.287 215.16C309.811 214.126 302.383 212.599 295.349 209.398C289.102 206.591 282.511 205.015 275.526 206.049C269.427 206.935 263.475 206.394 257.868 203.439C256.294 202.601 254.769 201.567 252.162 201.222C254.572 204.965 257.277 207.625 260.278 209.989C264.262 213.141 267.312 216.982 269.476 221.513C272.526 227.866 276.362 233.677 280.839 239.045C283.642 242.394 285.856 246.137 287.774 250.028C292.792 260.37 297.907 270.614 302.924 280.956C303.761 282.63 304.744 282.729 306.269 282.286C308.532 281.646 308.729 279.774 309.073 277.952C310.795 268.989 311.877 259.779 316.058 251.505C320.19 243.527 324.321 235.499 329.339 228.014ZM295.054 287.26C301.596 283.763 301.695 283.615 298.104 276.918C293.775 268.841 289.939 260.518 286.003 252.244C283.839 247.713 281.38 243.478 278.183 239.587C275.133 235.844 272.132 232.003 270.116 227.669C266.672 220.38 262.344 213.978 255.851 209.004C252.654 206.541 251.03 202.454 248.325 199.696C245.571 196.839 240.799 196.298 237.504 193.589C222.895 181.523 207.745 169.999 198.546 152.762C198.399 152.466 198.202 152.22 198.054 151.974C197.464 150.94 196.579 150.447 195.398 150.496C191.857 150.644 188.266 150.152 184.774 151.235C181.724 152.171 179.51 153.599 179.117 157.046C178.822 159.41 177.198 160.395 174.985 160.789C171.935 161.331 168.836 161.626 165.738 161.577C163.868 161.577 161.95 161.233 160.228 162.119C152.998 165.665 145.374 168.374 137.897 171.329C136.766 171.772 135.782 172.609 134.749 173.298C123.583 181.277 112.712 189.551 105.973 201.961C105.334 203.192 104.399 204.276 103.563 205.409C101.497 208.167 99.9234 211.22 98.9396 214.47C94.2175 229.59 87.0359 243.429 77.8376 256.283C76.7555 257.809 75.8702 259.434 74.8372 261.01C69.6232 269.038 66.8194 278.1 63.4746 286.964C57.1785 303.611 53.9812 320.7 54.1288 338.479C54.178 345.767 54.3748 353.056 55.6537 360.296C57.2277 369.259 61.0644 377.385 64.9503 385.56C70.0167 396.247 76.8047 405.161 87.2327 411.071C89.397 412.302 92.1516 413.337 91.8072 416.833C91.7581 417.375 92.6926 418.015 93.2829 418.557C95.5456 420.675 97.9066 422.842 100.76 424.023C107.449 426.732 113.401 430.574 119.205 434.76C120.828 435.942 122.599 436.927 124.37 437.912C131.06 441.556 137.651 445.348 145.374 446.432C149.21 446.973 153.096 446.924 156.933 447.318C164.655 448.106 172.329 448.057 180.15 447.22C187.676 446.382 195.251 445.348 202.875 446.53C206.416 447.072 209.958 447.17 213.549 446.973C216.451 446.826 218.369 445.102 220.337 443.28C221.911 441.753 220.73 440.079 220.632 438.453C220.583 437.862 220.681 437.222 220.681 436.582C220.534 431.805 220.927 427.028 219.845 422.3C218.32 415.405 218.91 408.412 219.501 401.418C220.681 387.481 223.239 373.691 224.37 359.754C224.567 357.242 225.452 354.928 226.485 352.662C233.568 336.706 244.882 323.999 257.622 312.426C268.886 302.232 281.724 294.352 295.054 287.26ZM277.297 455.247C273.165 454.213 272.378 454.361 268.394 456.971C271.395 456.872 274.149 456.528 277.297 455.247ZM270.263 466.377C270.46 466.328 270.509 465.885 270.608 465.688C270.608 465.146 270.312 464.801 269.82 464.9C269.673 464.949 269.525 465.392 269.575 465.639C269.575 466.033 269.673 466.574 270.263 466.377ZM270.017 475.882C269.87 474.257 270.755 472.632 269.771 471.007C269.82 472.632 269.181 474.257 270.017 475.882ZM194.71 147.492C194.66 145.276 193.677 144.143 193.086 142.912C186.052 128.088 178.674 113.461 175.182 97.2584C174.936 96.1257 174.198 95.7317 173.214 95.6825C171.985 95.584 170.706 95.4855 169.476 95.584C161.999 96.2242 154.818 98.0957 147.636 100.016C145.915 100.46 144.98 101.592 145.718 103.021C147.587 106.616 147.292 110.851 149.259 114.446C152.309 119.864 154.424 125.724 155.998 131.732C156.589 133.998 157.376 136.214 158.408 138.283C160.819 143.355 164.262 147.394 170.214 148.526C171.394 148.773 172.624 149.167 173.706 149.758C175.329 150.595 176.903 150.743 178.625 150.152C183.741 148.379 189.004 147.197 194.71 147.492ZM173.952 157.884C175.034 157.588 176.166 157.342 175.92 155.864C175.624 154.19 174.493 154.732 173.411 155.027C172.673 155.273 171.64 155.076 171.197 155.52C169.181 157.391 167.016 157.785 164.508 157.785C164.114 157.785 163.721 157.785 163.278 157.736C161.065 157.637 159.737 157.391 158.999 155.372C158.359 153.648 157.031 153.205 155.064 153.156C155.949 158.721 155.949 158.672 161.065 158.524C162.245 158.475 163.377 158.475 164.557 158.475C166.033 158.475 167.508 158.475 168.984 158.475C170.656 158.475 172.329 158.376 173.952 157.884ZM166.721 154.781C168.049 154.288 169.033 153.353 170.312 152.22C169.23 151.235 167.803 150.398 166.771 150.989C165.442 151.728 165.885 153.303 166.721 154.781ZM161.802 154.141C163.131 150.053 163.131 150.053 161.606 148.526C161.015 150.201 161.163 151.826 161.802 154.141ZM157.572 148.28C158.31 145.965 159.097 144.636 157.031 142.715C156.638 144.685 156.539 146.064 157.572 148.28ZM152.85 140.942C154.67 136.756 153.736 132.865 151.67 129.073C151.375 133.062 151.424 137.101 152.85 140.942ZM148.522 122.671C149.358 120.011 148.374 118.485 146.554 116.416C144.882 121.637 144.931 126.364 146.062 131.142C146.406 131.191 146.751 131.191 147.046 131.24C147.538 128.384 147.636 125.429 148.522 122.671ZM142.029 119.42C142.275 115.086 144.045 110.851 143.012 106.419C141.488 110.654 141.438 115.037 142.029 119.42ZM141.537 95.2393C141.93 93.5648 141.488 91.8411 140.307 90.4622C139.422 89.428 138.29 89.8218 137.454 90.6098C136.569 91.4471 137.405 91.9395 137.995 92.3335C139.864 93.4662 139.52 95.0915 139.127 96.8152C138.192 100.657 137.11 104.498 136.716 109.62C139.914 104.597 140.455 99.8194 141.537 95.2393ZM138.29 117.5C138.782 116.17 139.323 115.136 138.044 114.249C136.962 115.234 136.766 116.17 138.29 117.5ZM134.208 96.5197C134.552 95.5347 135.241 94.5991 134.798 93.1709C133.421 93.4663 132.83 94.4512 132.142 95.19C131.552 95.781 131.207 96.5197 132.339 96.963C133.027 97.2585 133.814 97.5046 134.208 96.5197ZM128.354 101.937C128.6 101.543 128.6 101.1 128.01 100.558C127.764 100.903 127.469 101.198 127.272 101.592C127.075 101.986 126.977 102.528 127.469 102.725C127.666 102.774 128.157 102.282 128.354 101.937Z" fill="black"/>
<path d="M546.872 252.797C547.069 256.249 547.118 259.701 546.429 263.055C545.1 269.367 544.903 275.729 545.149 282.092C545.445 290.278 544.017 298.071 541.851 306.011C538.947 316.664 534.764 326.922 532.253 337.673C529.792 348.129 524.132 356.513 516.06 363.763C505.576 373.133 494.6 381.665 482.442 388.718C481.803 389.112 481.113 389.458 480.228 390C479.686 388.274 480.523 387.041 480.917 385.857C483.427 378.312 485.642 370.717 487.315 362.974C488.447 357.647 490.515 352.567 492.237 347.389C495.141 338.66 495.584 329.733 494.797 320.659C494.501 317.108 493.222 313.951 490.711 311.485C488.398 309.167 487.118 306.455 486.823 303.249C486.725 302.164 486.331 301.128 486.134 300.043C484.608 291.215 478.702 286.432 470.826 283.423C469.202 282.782 467.529 282.634 465.806 282.979C464.132 283.325 462.459 283.522 460.343 283.818C460.687 279.083 461.967 274.792 463.394 270.65C465.855 263.449 469.005 256.446 473.091 249.985C476.487 244.56 479.489 238.938 481.999 233.069C484.707 226.707 485.051 219.753 484.805 212.898C484.608 208.164 482.738 207.078 478.16 207.325C473.681 207.572 471.171 209.84 469.596 213.934C466.889 221.134 465.855 228.68 464.723 236.226C463.148 246.78 457.882 254.769 448.53 259.948C448.382 259.997 448.283 260.096 448.136 260.145C443.804 262.068 440.9 264.929 441.442 270.502C437.947 266.112 433.025 263.548 429.826 259.208C428.251 257.038 425.937 256.495 423.673 256.495C410.531 256.446 397.34 255.41 384.248 258.32C376.323 260.096 368.645 262.216 361.163 265.373C355.306 267.839 349.35 270.009 343.099 271.439C340.54 272.031 338.079 273.066 335.716 274.25C328.087 278.047 319.917 279.626 311.303 281.056C311.155 280.168 310.958 279.675 311.008 279.28C312.878 269.663 314.256 259.997 318.883 251.12C325.134 239.086 332.468 227.743 339.851 216.4C342.755 211.961 346.939 208.755 350.581 205.007C352.353 203.182 354.076 203.034 356.438 204.169C359.391 205.599 360.72 204.415 360.523 201.16C360.425 199.385 358.456 197.511 360.031 195.883C361.262 194.601 363.181 193.96 364.806 193.023C365.199 192.776 365.642 192.628 366.036 192.332C379.769 183.011 395.322 179.312 411.467 176.994C422.837 175.367 434.206 173.986 445.626 172.802C449.317 172.408 453.107 172.457 456.799 172.654C463.739 173.049 470.285 171.619 476.782 169.103C486.429 165.306 496.716 164.813 506.905 164.024C509.661 163.826 511.236 164.862 512.27 167.328C514.387 172.26 517.487 176.452 521.425 180.151C524.526 183.06 526.347 186.907 527.725 190.951C529.251 195.39 530.58 199.829 532.007 204.267C533.681 209.495 535.797 214.476 538.701 219.112C540.867 222.564 542.393 226.313 543.033 230.357C544.263 237.754 546.429 245.103 546.872 252.797ZM528.513 260.046C528.611 256.446 527.873 252.994 526.642 250.922C524.674 247.519 522.508 247.076 519.456 249.492C517.34 251.218 516.06 253.438 515.371 256.101C514.485 259.75 513.697 263.4 512.418 266.902C509.612 274.645 505.625 281.549 497.848 285.445C496.569 286.086 496.618 287.073 497.012 288.207C497.799 290.525 499.866 291.857 502.475 291.61C504.641 291.413 506.708 290.673 508.579 289.539C518.423 283.67 524.083 274.595 527.824 264.09C528.414 262.66 528.365 261.033 528.513 260.046Z" fill="#BDCB64"/>
<path d="M527.104 249.976C528.296 252.063 529.091 255.542 528.992 259.169C528.843 260.163 528.892 261.803 528.346 263.244C524.57 273.828 518.808 282.922 508.922 288.884C506.985 290.027 504.948 290.773 502.762 290.971C500.129 291.22 498.043 289.829 497.248 287.543C496.851 286.4 496.801 285.456 498.093 284.76C505.892 280.834 509.916 273.878 512.797 266.076C514.089 262.548 514.933 258.871 515.778 255.194C516.423 252.511 517.715 250.275 519.901 248.535C522.881 246.101 525.067 246.548 527.104 249.976ZM525.514 263.045C526.11 261.455 526.408 259.716 526.259 257.082C526.259 257.033 526.21 256.039 526.011 255.144C525.812 254.2 525.614 253.306 525.266 252.411C523.974 249.281 522.534 249.082 520.149 251.566C518.41 253.405 517.963 255.691 517.467 257.977C515.132 268.66 510.81 278.201 502.017 285.207C501.769 285.406 501.471 285.605 501.322 285.853C501.123 286.251 500.825 286.698 500.874 287.096C500.974 287.791 501.62 288.04 502.265 288.089C504.252 288.238 505.892 287.344 507.531 286.35C516.721 280.984 521.888 272.586 525.514 263.045Z" fill="black"/>
<path d="M525.979 257.124C526.077 259.742 525.832 261.421 525.244 263.051C521.67 272.534 516.528 280.93 507.567 286.264C505.951 287.202 504.335 288.091 502.377 287.992C501.74 287.943 501.103 287.696 501.005 287.005C500.956 286.61 501.25 286.165 501.446 285.77C501.593 285.523 501.887 285.325 502.132 285.128C510.75 278.164 515.059 268.681 517.361 258.062C517.85 255.79 518.291 253.469 520.005 251.691C522.355 249.222 523.824 249.419 525.049 252.531C525.391 253.42 525.636 254.309 525.783 255.247C525.881 256.087 525.93 257.075 525.979 257.124Z" fill="#DAE59A"/>
<path d="M511 153C509.891 155.146 511.642 158.212 508.025 160C507.791 156.934 509.25 154.891 511 153Z" fill="#BDCB64"/>
<path d="M491.893 320.886C492.188 329.788 492.09 338.591 488.697 347.001C485.255 355.558 484.075 364.705 481.174 373.361C476.897 386.197 473.701 399.279 470.161 412.263C468.194 419.492 464.998 426.181 461.704 432.869C456.64 443.148 449.412 451.803 442.873 461C437.415 468.672 432.547 476.836 425.418 483.18C422.615 489.23 417.305 492.328 411.7 495.131C402.112 499.951 392.475 504.525 382.199 507.672C379.249 508.557 376.25 509.246 373.103 509.443C369.072 509.688 365.089 510.623 361.451 512.344C351.961 516.77 342.029 518 331.606 518C320.445 518 309.726 516.426 299.155 513.082C296.205 512.148 293.353 510.918 290.6 509.492C288.928 508.607 287.305 507.623 286.174 506.148C282.241 500.934 278.848 495.279 276.243 489.377C274.423 485.246 275.161 480.476 277.57 476.344C278.603 474.623 279.34 473 277.275 471.476C276.931 471.23 276.537 470.689 276.587 470.295C277.324 465.672 276.39 460.656 279.143 456.426C280.717 454.017 283.323 454.164 284.404 456.918C285.191 458.935 286.322 458.885 287.551 458C288.879 457.017 291.681 457.017 290.255 453.771C289.715 452.492 292.173 451.656 293.205 450.525C293.746 449.935 294.435 449.295 293.943 448.508C293.304 447.476 292.32 447.967 291.534 448.459C289.862 449.541 288.19 450.672 286.469 451.803C284.454 453.131 282.536 452.984 280.373 451.902C276.242 449.885 271.916 449 267.638 451.656C265.77 452.836 263.754 452.787 261.787 452.541C255.936 451.853 250.134 450.967 244.283 450.181C243.349 450.033 242.464 449.787 241.53 449.738C236.662 449.443 231.942 449 228.894 444.279C226.386 440.394 223.24 436.951 223.19 431.836C223.141 428.295 222.404 424.754 221.764 421.213C220.732 415.214 220.879 409.214 221.42 403.164C222.699 388.607 225.403 374.296 226.681 359.738C226.829 357.869 227.271 356.05 228.107 354.378C233.024 344.493 238.58 335.148 246.152 326.886C254.904 317.296 264.393 308.64 275.161 301.558C289.813 291.919 304.957 283.067 322.755 280.46C324.87 280.165 327.082 279.673 329 278.788C341.882 272.985 355.698 269.788 368.727 264.427C379.397 260.05 390.755 258.181 402.309 258.034C408.799 257.935 415.339 258.083 421.878 258.083C423.943 258.083 425.811 258.231 427.188 260.247C427.827 261.181 429.155 261.673 430.187 262.362C433.531 264.476 436.333 267.181 438.497 270.427C440.906 274.017 441.988 277.608 438.988 281.837C433.678 289.312 428.122 296.591 422.025 303.427C414.847 311.443 408.553 320.05 403.096 329.296C401.621 331.804 400.736 334.509 398.228 336.329C397.245 337.066 396.606 337.165 395.376 336.574C391.738 334.804 390.263 335.296 386.772 339.033C388.837 339.181 389.82 337.853 391.197 337.607C391.984 337.46 392.77 337.165 393.36 337.902C394.147 338.837 393.557 339.673 392.918 340.361C391.984 341.394 390.951 342.378 389.968 343.312C388.149 345.034 386.28 346.656 384.559 348.427C383.232 349.755 381.757 351.23 384.215 353.001C385.1 353.64 384.51 354.328 384.117 355.017C383.674 355.755 382.74 356.296 383.084 357.476C384.51 357.968 384.854 356.591 385.592 355.951C386.87 354.82 387.854 352.951 389.329 352.558C391.738 351.869 392.672 350.542 392.574 347.443C394.344 349.361 393.016 351.378 394.541 352.263C394.786 352.214 395.327 352.165 395.327 352.066C395.917 347.247 398.376 343.361 401.522 339.82C411.159 328.902 419.469 316.853 429.253 306.034C433.727 301.116 438.103 296.001 440.218 289.46C440.709 287.935 442.283 287.64 443.168 286.608C443.905 285.722 444.446 285.722 445.429 286.46C447.593 288.132 449.953 287.886 452.51 287.148C456.246 286.116 460.032 285.378 463.867 284.591C470.062 283.312 478.519 287.788 481.174 293.591C482.551 296.591 483.436 299.689 483.879 302.935C484.321 306.28 485.501 309.181 487.96 311.591C490.664 314.198 491.795 317.345 491.893 320.886ZM394.147 383.05C396.212 381.525 396.655 379.361 396.507 376.853C396.212 372.869 394.442 370.017 390.607 368.443C392.279 366.673 393.705 365.197 395.032 363.722C395.671 362.984 396.163 362.099 395.475 361.214C394.59 360.083 393.508 360.624 392.623 361.263C390.902 362.542 389.181 363.919 387.51 365.296C386.329 366.279 384.953 367.214 385.494 369.132C386.034 370.853 387.362 371.591 388.985 371.689C391.541 371.837 392.82 373.214 393.36 375.673C393.901 378.181 393.705 380.197 391.443 381.82C389.673 383.099 388.296 384.771 387.264 386.738C382.298 396.574 374.382 403.902 365.925 410.394C359.041 415.705 351.961 420.722 345.422 426.427C342.963 428.591 340.308 429.771 336.965 429.279C334.506 428.935 331.999 429.181 329.59 429.82C326.935 430.509 324.23 431.197 321.723 431.836C319.953 427.066 321.428 423.968 326.05 422.295C327.82 421.656 329.196 420.279 330.18 418.656C332.54 414.722 335.834 411.722 339.374 408.869C342.816 406.115 345.717 402.869 347.388 398.787C349.896 392.591 354.272 387.869 360.172 385.214C372.661 379.607 370.547 379.115 376.938 367.804C377.332 367.115 377.725 366.476 378.069 365.788C378.561 364.706 379.495 363.574 378.61 362.345C377.725 361.115 376.398 361.46 375.168 361.706C367.351 363.378 359.976 365.935 353.731 371.197C346.356 377.394 339.767 384.378 332.982 391.214C326.689 397.558 323.1 405.427 320.051 413.591C319.609 414.771 319.264 415.951 319.609 417.23C319.854 418.066 320.494 418.607 321.329 418.509C322.559 418.41 322.264 417.525 321.919 416.787C321.379 415.656 321.87 414.623 322.264 413.64C324.525 407.837 326.738 401.935 330.77 397.164C339.177 387.378 348.224 378.23 358.697 370.607C363.417 367.214 368.875 365.591 375.365 364.41C373.497 368.05 371.923 371.001 370.448 374.001C369.17 376.656 367.351 378.574 364.597 379.706C362.876 380.394 361.205 381.279 359.582 382.165C353.043 385.755 347.634 390.476 344.733 397.607C343.111 401.591 340.21 404.591 336.867 407.246C333.818 409.656 330.868 412.164 328.803 415.558C327.377 417.918 325.509 419.591 323.05 420.771C319.363 422.492 316.904 424.951 318.429 429.525C318.527 429.82 318.134 430.361 317.986 430.705C317.74 430.754 317.593 430.853 317.445 430.804C317.15 430.754 316.855 430.656 316.56 430.558C313.856 429.574 312.43 430.705 312.922 433.361C313.315 435.525 314.888 436.115 316.757 435.771C319.166 435.279 321.575 434.492 323.935 433.853C327.967 432.722 332.048 431 336.227 431.689C341.292 432.476 344.881 430.459 348.372 427.361C352.797 423.476 357.124 419.394 362.188 416.345C370.842 411.132 377.479 403.755 384.215 396.476C385.789 394.804 387.165 392.837 388.247 390.82C389.82 387.82 391.492 385.115 394.147 383.05ZM380.429 350.64C382.199 349.46 384.019 348.181 383.084 345.427C381.413 348.181 378.807 349.558 376.299 351.083C371.235 354.083 365.876 356.591 360.369 358.755C355.698 360.574 351.42 363.083 347.88 366.673C345.471 369.083 343.16 371.591 340.898 374.148C334.605 381.476 327.623 388.066 319.805 393.771C315.921 396.673 312.578 400.115 309.431 403.755C304.858 409.115 302.252 415.263 301.564 422.295C301.269 425.394 301.072 428.492 300.384 431.492C299.794 434.345 300.089 437.049 300.433 439.804C300.581 440.836 300.728 442.263 302.105 442.213C303.875 442.115 303.629 440.541 303.629 439.361C303.629 435.476 303.482 431.591 303.432 427.754C303.285 417.23 307.12 408.377 314.741 401.148C316.659 399.328 318.527 397.459 320.641 395.886C329.147 389.541 336.817 382.361 343.553 374.148C349.208 367.312 355.895 362.05 364.401 359.099C370.104 357.083 375.365 354.033 380.429 350.64ZM371.235 349.804C371.727 349.755 371.973 349.263 371.923 348.771C371.874 348.525 371.628 348.181 371.382 348.083C370.842 347.837 370.202 347.591 369.612 347.591C359.975 347.443 351.912 351.329 346.258 358.804C343.75 362.099 341.095 364.804 337.752 367.066C334.556 369.23 331.311 371.394 328.213 373.705C324.575 376.361 321.231 379.361 318.576 383.05C317.642 384.328 316.364 385.607 316.855 387.476C317.839 387.525 318.232 387.033 318.527 386.541C321.575 381.328 326.099 377.542 330.868 374.099C334.507 371.492 338.292 369.083 342.029 366.525C343.848 365.296 345.52 363.968 346.7 362.099C351.519 354.476 358.648 350.738 367.547 350.148C368.777 350.001 370.055 349.952 371.235 349.804ZM351.224 431.591C351.42 431.295 351.371 430.656 351.224 430.361C350.978 429.918 350.437 429.869 349.994 430.164C349.601 430.41 349.257 430.705 348.913 431C338.981 439.558 327.279 444.082 314.446 445.902C313.413 446.049 312.233 445.754 311.299 447.427C313.512 448.459 315.478 448.017 317.396 447.722C327.328 446.049 336.473 442.41 344.979 437.049C346.651 435.967 348.175 434.64 349.749 433.361C350.339 432.869 350.879 432.279 351.224 431.591Z" fill="#EEE591"/>
<path d="M481.112 210C483.138 217.183 481.231 224.067 480 231C480.119 223.967 481.509 217.083 481.112 210Z" fill="#BDCB64"/>
<path d="M476 210C475.816 212.97 475.264 215.621 472 217C472.598 213.553 473.195 210.955 476 210Z" fill="#BDCB64"/>
<path d="M475 239C474.222 242.273 472.667 245.16 470.334 248C468.778 243.091 473.056 241.647 475 239Z" fill="#BDCB64"/>
<path d="M469.797 224C469.834 226.323 470.316 228.697 469.649 232C468.313 228.49 469.389 226.271 469.797 224Z" fill="#BDCB64"/>
<path d="M466.09 243C466.962 244.441 467.279 245.973 466.724 248C464.545 246.018 464.545 246.018 466.09 243Z" fill="#BDCB64"/>
<path d="M467.945 252.318C468.349 254.765 466.432 256.459 465.373 259C464.516 257.353 464.465 255.282 461.894 256.459C460.935 256.929 459.574 255.094 460.129 253.965C460.734 252.788 461.49 251.659 462.852 251C463.911 251.376 463.407 252.223 463.507 252.835C463.608 253.588 463.608 254.435 464.466 254.671C465.777 255.047 465.978 254.012 466.382 253.212C466.634 252.788 466.735 252.082 467.945 252.318Z" fill="#BDCB64"/>
<path d="M459.137 268C459.425 268.1 459.712 268.251 460 268.351C459.712 272.667 458.274 276.781 457.075 280.896C456.788 281.849 456.548 281.799 453 282C455.158 277.032 457.171 272.516 459.137 268Z" fill="#BDCB64"/>
<path d="M456.251 258C457.301 259.51 457.091 260.865 456.566 262.688C454.36 260.708 452.259 262.062 450 263C451.576 260.396 453.94 259.302 456.251 258Z" fill="#BDCB64"/>
<path d="M416 497.09C415.902 499.014 414.625 499.508 413.692 500.1C399.451 508.882 385.849 518.75 370.282 525.164C366.942 526.546 363.702 527.927 360.019 527.631C359.429 527.582 358.791 527.631 358.152 527.73C340.474 531.184 322.599 529.852 304.872 529.161C292.104 528.668 280.171 524.178 270.645 514.458C265.194 508.833 260.136 503.06 255.962 496.448C252.721 491.317 249.038 486.58 244.864 482.14C236.024 472.716 230.475 461.22 225.565 449.378C224.779 447.454 224.877 447.158 225.467 444C226.94 444.247 227.283 445.579 227.922 446.566C230.083 449.921 233.127 451.697 237.056 452.24C245.649 453.424 254.194 454.756 262.788 456.039C263.229 456.088 263.671 456.187 263.966 457.026C258.957 458.457 253.85 458.703 248.694 458.309C247.81 458.259 246.681 457.667 246.189 458.753C245.551 460.282 247.024 460.48 247.957 460.924C249.136 461.466 250.167 462.108 250.216 463.637C249.381 464.624 247.122 463.736 246.975 465.66C246.828 467.585 249.381 467.289 250.02 468.867C249.038 469.558 247.908 470.101 247.073 470.94C245.993 471.976 246.435 473.357 247.957 473.703C248.841 473.9 249.823 473.9 250.707 473.752C253.359 473.209 255.029 475.627 257.386 476.022C258.172 476.12 258.172 477.157 257.877 477.995C257.484 478.933 257.435 479.87 258.564 480.314C259.399 480.66 260.087 480.166 260.578 479.574C261.069 478.982 261.462 478.291 261.805 477.699C263.671 478.735 262.935 479.92 262.935 480.857C262.886 482.091 262.591 483.324 262.542 484.558C262.493 486.383 261.854 488.85 264.015 489.442C266.52 490.133 266.667 487.469 267.256 485.791C267.796 484.311 268.14 482.979 270.252 483.028C271.676 483.077 271.725 481.202 272.658 480.462C273.1 480.462 273.247 480.66 273.198 481.054C272.314 487.222 273.738 492.748 277.569 497.682C278.6 499.014 279.386 500.593 280.073 502.123C283.265 509.129 288.961 513.175 296.033 515.444C306.64 518.898 317.394 521.859 328.738 521.316C335.22 521.02 341.702 521.711 348.184 520.428C352.947 519.49 357.367 517.665 361.835 515.938C366.206 514.211 370.576 512.977 375.291 512.632C380.594 512.287 385.554 510.461 390.465 508.537C398.125 505.527 405.54 502.073 412.906 498.373C413.888 498.027 414.821 497.633 416 497.09Z" fill="#BDCB64"/>
<path d="M396.974 377.324C397.122 379.822 396.678 381.976 394.606 383.494C391.892 385.502 390.214 388.195 388.685 391.134C387.599 393.141 386.218 395.1 384.639 396.765C377.879 404.012 371.219 411.358 362.535 416.548C357.453 419.585 353.111 423.6 348.67 427.518C345.118 430.603 341.516 432.61 336.483 431.827C332.289 431.141 328.194 432.855 324.148 433.981C321.731 434.667 319.362 435.402 316.945 435.891C315.07 436.283 313.54 435.646 313.096 433.492C312.603 430.799 314.034 429.721 316.747 430.701C317.043 430.799 317.339 430.896 317.636 430.945C317.784 430.994 317.931 430.896 318.178 430.848C318.326 430.456 318.77 429.966 318.622 429.672C317.093 425.118 319.56 422.67 323.26 420.956C325.727 419.78 327.602 418.116 329.033 415.765C331.105 412.435 334.066 409.938 337.125 407.489C340.48 404.845 343.391 401.858 345.019 397.891C347.93 390.791 353.358 386.09 359.92 382.515C361.548 381.633 363.225 380.752 364.952 380.066C367.666 378.94 369.541 377.03 370.824 374.386C372.255 371.399 373.883 368.461 375.758 364.837C369.196 366.061 363.768 367.628 359.032 371.007C348.522 378.548 339.394 387.706 331.007 397.451C326.911 402.201 324.691 408.077 322.471 413.855C322.076 414.835 321.583 415.863 322.125 416.989C322.471 417.724 322.816 418.556 321.533 418.703C320.695 418.801 320.053 418.262 319.806 417.43C319.461 416.157 319.807 414.982 320.251 413.806C323.31 405.628 326.911 397.793 333.227 391.525C340.036 384.719 346.647 377.765 354.048 371.595C360.364 366.355 367.765 363.809 375.56 362.144C376.745 361.899 378.126 361.556 379.014 362.78C379.902 364.005 378.965 365.131 378.472 366.208C378.126 366.894 377.731 367.579 377.337 368.216C370.873 379.528 372.995 379.969 360.512 385.551C354.591 388.195 350.2 392.896 347.683 399.067C346.006 403.18 343.095 406.412 339.641 409.105C336.089 411.896 332.783 414.933 330.414 418.85C329.428 420.466 328.046 421.837 326.27 422.474C321.632 424.139 320.201 427.224 321.928 431.974C324.494 431.337 327.158 430.652 329.822 429.966C332.24 429.378 334.756 429.085 337.223 429.427C340.628 429.868 343.243 428.693 345.71 426.587C352.272 420.907 359.426 415.912 366.285 410.623C374.771 404.159 382.715 396.863 387.698 387.069C388.685 385.11 390.116 383.445 391.892 382.172C394.162 380.556 394.359 378.548 393.816 376.051C393.273 373.603 392.04 372.232 389.425 372.085C387.797 371.987 386.415 371.252 385.922 369.538C385.33 367.628 386.761 366.698 387.945 365.719C389.622 364.299 391.3 362.976 393.076 361.703C393.964 361.066 395.05 360.528 395.938 361.654C396.629 362.536 396.135 363.417 395.494 364.152C394.162 365.621 392.731 367.09 391.053 368.853C394.902 370.518 396.678 373.358 396.974 377.324Z" fill="black"/>
<path d="M400 339C399.203 340.817 389.992 349.474 388 350C391.934 346.317 395.27 341.917 400 339Z" fill="#BDCB64"/>
<path d="M382.747 346C383.678 348.76 381.866 350.042 380.102 351.225C375.106 354.625 369.816 357.681 364.134 359.702C355.659 362.659 348.998 367.884 343.364 374.784C336.654 383.015 328.963 390.211 320.538 396.569C318.432 398.147 316.57 400.02 314.66 401.843C307.067 409.089 303.296 417.96 303.394 428.508C303.443 432.402 303.59 436.296 303.59 440.14C303.59 441.323 303.835 442.949 302.071 442.999C300.7 443.048 300.553 441.668 300.406 440.584C300.063 437.824 299.72 435.113 300.357 432.254C300.993 429.247 301.189 426.093 301.532 423.037C302.218 415.989 304.814 409.828 309.37 404.456C312.505 400.808 315.836 397.358 319.705 394.45C327.445 388.683 334.4 382.128 340.719 374.784C342.924 372.221 345.275 369.708 347.675 367.292C351.202 363.694 355.463 361.181 360.117 359.357C365.603 357.238 370.893 354.724 375.988 351.668C378.486 350.14 381.131 348.76 382.747 346Z" fill="black"/>
<path d="M371.994 349.237C372.043 349.68 371.798 350.173 371.308 350.272C370.083 350.42 368.857 350.469 367.632 350.568C358.763 351.209 351.657 354.906 346.854 362.548C345.678 364.471 344.012 365.802 342.199 366.985C338.524 369.499 334.701 371.915 331.075 374.577C326.321 378.029 321.813 381.825 318.775 387.051C318.481 387.593 318.089 388.086 317.109 387.987C316.619 386.114 317.893 384.832 318.824 383.55C321.47 379.853 324.802 376.845 328.429 374.183C331.516 371.866 334.75 369.697 337.936 367.527C341.268 365.26 343.914 362.597 346.413 359.245C352.098 351.751 360.086 347.856 369.691 348.004C370.279 348.004 370.867 348.251 371.455 348.497C371.7 348.645 371.994 348.99 371.994 349.237Z" fill="black"/>
<path d="M358 199.467C353.808 198.68 351.095 200.648 348.086 202.518C343.746 205.225 338.813 206.849 333.536 206.898C330.725 206.947 327.962 206.996 325.151 206.996C321.994 207.046 321.896 207.193 323.425 210.441C320.613 212.065 317.703 212.41 314.497 211.524C308.085 209.802 301.575 208.522 295.36 205.815C289.146 203.158 282.388 201.731 275.335 202.814C269.564 203.699 263.892 203.06 258.615 200.156C254.916 198.138 251.068 196.514 247.073 195.186C243.966 194.152 241.105 192.479 238.59 190.363C231.685 184.605 224.632 178.946 217.973 172.844C210.427 165.905 204.952 157.588 199.724 148.878C194.052 139.38 189.81 129.242 184.976 119.351C182.362 114.036 180.734 108.328 179.403 102.57C179.205 101.684 179.008 100.749 179.008 99.8139C178.909 97.2549 179.699 96.5168 182.017 97.4026C185.716 98.8297 189.169 100.208 191.043 104.538C194.495 112.511 198.737 120.138 203.176 127.618C204.015 128.996 204.508 130.768 207.171 131.752C205.938 127.717 203.669 124.961 202.14 121.861C200.562 118.81 198.885 115.857 197.307 112.806C195.679 109.656 194.101 106.457 192.276 102.767C195.581 102.717 197.8 104.243 200.266 104.932C206.974 106.753 211.216 110.69 213.879 117.432C217.43 126.536 222.757 134.853 228.577 142.776C229.564 144.104 230.304 145.778 232.425 146.417C232.918 144.547 231.586 143.563 230.748 142.48C224.681 134.164 219.551 125.306 215.211 116.005C214.57 114.676 213.485 113.396 213.929 111.477C215.803 111.526 217.085 112.707 218.417 113.692C224.533 118.268 230.402 123.091 237.357 126.388C238.195 126.782 238.886 127.274 239.034 128.406C239.576 133.278 242.092 137.461 244.163 141.791C246.975 147.697 250.181 153.356 253.584 158.966C254.324 160.246 254.817 161.82 256.839 162.362C257.135 160.344 255.902 159.065 255.064 157.687C250.723 150.157 246.383 142.579 243.029 134.557C242.338 132.933 241.155 131.309 241.845 129.193C244.114 129.341 245.692 130.719 247.369 131.654C257.48 137.51 266.309 145.285 275.976 151.781C276.766 152.273 277.555 152.815 277.752 153.848C279.182 162.362 284.213 169.202 288.702 176.239C290.625 179.241 292.845 182.046 295.015 184.901C295.755 185.836 296.297 187.066 297.974 187.361C298.714 185.983 297.678 185.147 296.988 184.261C292.993 178.897 288.998 173.533 285.693 167.726C283.523 163.936 281.55 160.098 279.922 155.915C283.227 156.456 297.284 165.807 303.646 171.614C301.23 172.991 302.759 174.566 303.597 175.895C307.346 181.8 311.587 187.361 316.174 192.578C316.717 193.168 317.26 194.3 318.542 193.365C317.95 191.347 316.372 190.068 315.188 188.493C311.094 183.031 306.408 178.011 303.696 171.663C308.036 174.615 312.426 177.568 316.766 180.57C323.869 185.54 332.106 187.164 340.49 188.198C340.737 188.247 341.033 187.952 341.329 187.804C341.477 186.475 340.392 186.426 339.504 186.229C336.446 185.54 333.388 184.999 330.379 184.31C324.411 182.932 319.134 180.176 314.843 175.403C319.331 176.141 323.819 176.83 328.9 177.667C328.012 175.649 326.68 175.6 325.595 175.403C321.945 174.714 318.246 173.976 314.547 173.533C311.637 173.188 309.171 172.155 306.902 170.432C302.315 167.037 297.728 163.69 292.5 159.901C295.656 158.966 298.073 159.409 300.44 159.754C307.987 160.836 315.435 162.608 322.685 164.872C324.066 165.314 325.496 166.348 327.321 165.364C326.236 163.69 324.411 163.494 322.882 163.002C311.982 159.655 300.983 157.047 289.491 157.195C288.307 157.195 287.419 156.702 286.531 156.063C277.456 149.764 268.331 143.563 259.7 136.673C259.503 136.526 259.453 136.132 259.059 135.394C269.367 134.41 279.478 135.935 289.885 135.935C289.343 133.819 287.913 134.164 286.827 134.065C278.147 133.13 269.416 133.081 260.736 133.13C256.395 133.13 252.499 132.244 248.849 129.833C245.742 127.766 242.338 126.191 238.984 124.518C233.658 121.861 228.676 118.76 224.04 115.069C220.883 112.51 217.529 110.247 213.929 108.377C212.597 107.688 210.525 107.245 210.871 105.375C211.216 103.603 213.386 103.899 214.816 103.603C223.793 101.684 232.918 100.651 242.092 99.8139C243.572 99.6663 245.248 100.06 246.777 98.5836C245.939 97.6486 244.903 97.747 243.917 97.8455C231.635 98.7805 219.403 100.06 207.566 103.603C205.445 104.243 203.719 104.243 201.746 103.406C199.033 102.275 196.222 101.389 193.46 100.306C192.079 99.7647 190.5 99.4203 189.267 97.6979C196.912 94.0563 205.198 92.6783 212.843 88.3477C210.476 87.2651 209.095 88.2492 207.714 88.7413C201.253 90.9558 194.693 92.9735 188.379 95.6309C184.976 97.0581 183.102 94.9913 180.734 93.8594C179.945 93.4657 180.044 92.5799 180.389 91.7925C181.474 89.332 182.954 87.1174 185.371 85.7886C192.029 82.0486 198.984 78.9483 206.086 76.2417C209.046 75.1098 212.548 75.0606 215.753 75.0606C223.152 75.1099 230.254 73.289 237.357 71.7142C242.536 70.5824 247.517 70.6808 252.4 72.8461C258.96 75.7496 265.865 77.4227 272.918 78.9483C287.271 81.9994 299.158 89.6271 308.184 101.044C313.61 107.885 319.232 114.479 325.398 120.63C328.604 123.829 331.218 127.52 333.092 131.654C334.522 134.754 336.249 137.707 338.37 140.413C344.535 148.336 348.037 157.736 352.575 166.545C353.018 167.381 353.314 168.267 353.462 169.202C354.399 175.993 355.435 182.735 356.076 189.526C356.274 192.676 356.323 195.924 358 199.467ZM276.075 146.614C288.307 147.5 300.539 147.795 312.771 148.829C308.431 146.22 278.64 143.957 274.349 145.384C274.546 146.319 275.335 146.565 276.075 146.614ZM279.33 120.384C280.317 120.286 281.55 120.63 282.24 119.056C281.007 118.219 279.873 118.465 278.837 118.514C268.627 119.203 258.418 119.941 248.208 120.729C245.594 120.926 242.98 121.369 240.316 121.073C239.774 121.024 239.034 121.221 238.886 121.959C238.738 123.042 239.527 123.239 240.316 123.239C241.105 123.288 241.845 123.189 242.634 123.14C254.866 122.254 267.098 121.319 279.33 120.384ZM267.345 110.148C267.394 110.001 267.394 109.853 267.493 109.164C253.091 107.54 238.837 108.869 224.582 111.083C237.012 111.428 249.49 109.755 261.969 110.69C263.646 110.788 265.372 111.182 267 110.493C267.197 110.444 267.296 110.296 267.345 110.148ZM273.461 172.401C267.69 163.051 264.04 152.765 259.552 142.874C259.355 142.48 259.009 142.087 257.628 142.579C261.92 153.061 265.471 163.838 273.461 172.401Z" fill="#13751E"/>
<path d="M351.853 431.38C352.049 431.722 352.049 432.309 351.853 432.602C351.46 433.238 350.969 433.873 350.38 434.362C348.81 435.632 347.337 437.001 345.62 438.027C337.129 443.306 328 446.971 318.086 448.633C316.172 448.975 314.16 449.366 312 448.34C312.933 446.678 314.11 446.971 315.141 446.824C328 445.016 339.632 440.52 349.546 432.016C349.89 431.722 350.233 431.429 350.626 431.185C351.067 430.892 351.656 430.941 351.853 431.38Z" fill="black"/>
<path d="M318 193.645C316.733 194.575 316.197 193.449 315.662 192.861C311.131 187.622 306.941 182.088 303.238 176.26C302.41 174.938 300.9 173.371 303.287 172H303.336C306.015 178.317 310.644 183.361 314.687 188.748C315.856 190.315 317.415 191.637 318 193.645Z" fill="black"/>
<path d="M297.634 276.252C301.222 282.941 301.123 283.088 294.588 286.58C281.271 293.662 268.495 301.531 257.291 311.712C244.565 323.22 233.263 335.958 226.187 351.893C225.155 354.156 224.27 356.467 224.074 358.975C222.895 372.894 220.339 386.665 219.209 400.583C218.619 407.567 217.981 414.501 219.553 421.436C220.634 426.157 220.192 430.928 220.388 435.698C220.388 436.289 220.29 436.928 220.339 437.567C220.438 439.19 221.617 440.862 220.044 442.387C218.128 444.207 216.212 445.879 213.263 446.076C209.676 446.272 206.138 446.174 202.6 445.633C194.984 444.502 187.416 445.535 179.898 446.322C172.134 447.158 164.419 447.256 156.705 446.42C152.872 446.027 148.99 446.076 145.157 445.535C137.442 444.404 130.858 440.617 124.175 437.026C122.406 436.092 120.637 435.059 119.015 433.879C113.217 429.698 107.271 425.862 100.588 423.157C97.7383 421.977 95.3797 419.813 93.1193 417.698C92.5788 417.157 91.596 416.518 91.6451 415.977C91.9891 412.485 89.2373 411.452 87.0752 410.223C76.6087 404.321 69.8275 395.419 64.8154 384.746C60.9334 376.582 57.1498 368.517 55.5282 359.516C54.2506 352.287 54.0049 345.008 54.0049 337.729C53.8575 319.974 57.0515 302.909 63.3412 286.285C66.6827 277.433 69.5327 268.432 74.6923 260.366C75.6751 258.793 76.6086 257.17 77.6897 255.645C86.8786 242.809 94.0529 228.989 98.7703 213.89C99.8022 210.595 101.375 207.595 103.389 204.841C104.225 203.71 105.109 202.628 105.797 201.398C112.529 189.004 123.389 180.742 134.543 172.774C135.526 172.037 136.558 171.25 137.688 170.807C145.157 167.856 152.724 165.151 159.997 161.61C161.717 160.774 163.633 161.069 165.501 161.069C168.596 161.069 171.692 160.823 174.739 160.282C176.901 159.889 178.571 158.905 178.866 156.545C179.259 153.102 181.52 151.676 184.517 150.741C188.006 149.659 191.593 150.151 195.131 150.003C196.36 149.954 197.195 150.446 197.785 151.479C197.932 151.774 198.129 152.02 198.276 152.266C207.416 169.479 222.6 180.988 237.194 193.037C240.486 195.742 245.253 196.283 248.004 199.136C250.707 201.939 252.378 205.972 255.523 208.431C261.96 213.398 266.333 219.841 269.773 227.071C271.837 231.448 274.785 235.284 277.831 238.973C281.025 242.858 283.482 247.088 285.645 251.612C289.477 259.875 293.31 268.186 297.634 276.252ZM243.09 252.694C243.238 248.219 243.434 244.628 243.041 241.087C242.697 237.989 241.223 235.628 238.668 233.759C233.459 230.022 219.799 232.087 217.342 240.891C214.05 252.596 212.231 264.104 215.131 276.105C216.654 282.4 216.359 288.695 214.443 294.941C212.87 300.154 212.133 305.515 211.249 310.876C210.954 312.843 210.905 314.909 211.003 316.876C211.101 319.089 211.642 321.302 214.049 322.138C216.212 322.876 217.981 321.794 219.455 320.27C220.536 319.188 221.568 318.007 222.501 316.778C225.302 313.04 227.513 308.958 228.939 304.482C229.921 301.384 231.15 298.384 232.673 295.482C236.899 287.515 240.535 279.301 241.715 270.252C242.452 264.154 243.09 257.957 243.09 252.694Z" fill="#BDCB64"/>
<path d="M312 149C299.918 147.93 287.836 147.573 275.754 146.707C275.023 146.656 274.195 146.452 274 145.484C278.287 143.955 307.713 146.299 312 149Z" fill="black"/>
<path d="M282 119.624C281.315 121.252 280.093 120.896 279.115 120.998C266.988 121.964 254.861 122.931 242.734 123.898C241.952 123.949 241.218 124 240.436 124C239.653 123.949 238.871 123.746 239.018 122.677C239.116 121.914 239.849 121.659 240.436 121.761C243.076 122.066 245.668 121.659 248.26 121.405C258.382 120.591 268.504 119.878 278.626 119.115C279.702 119.013 280.778 118.759 282 119.624Z" fill="black"/>
<path d="M268 457C272.028 454.772 272.823 454.604 277 455.529C273.818 456.58 271.033 456.874 268 457Z" fill="#BDCB64"/>
<path d="M268 109.804C267.901 110.574 267.901 110.793 267.852 110.903C267.802 111.013 267.703 111.178 267.555 111.288C265.872 112.057 264.14 111.617 262.507 111.507C249.988 110.464 237.469 112.331 225 111.947C239.3 109.475 253.551 107.992 268 109.804Z" fill="black"/>
<path d="M259.944 143.539C264.43 153.457 268.168 163.72 274 173C265.975 164.456 262.336 153.703 258 143.195C259.396 142.753 259.794 143.146 259.944 143.539Z" fill="black"/>
<path d="M242.772 242.115C243.16 245.68 242.966 249.295 242.82 253.8C242.82 259.148 242.189 265.337 241.411 271.526C240.245 280.636 236.65 288.904 232.472 296.925C230.965 299.847 229.751 302.867 228.779 305.986C227.37 310.492 225.184 314.601 222.414 318.364C221.491 319.602 220.471 320.741 219.402 321.88C217.945 323.414 216.244 324.504 214.058 323.761C211.677 322.919 211.143 320.691 211.045 318.463C210.948 316.433 210.997 314.403 211.288 312.423C212.114 307.026 212.843 301.629 214.446 296.381C216.341 290.093 216.633 283.755 215.127 277.418C212.309 265.337 214.058 253.751 217.313 241.967C219.742 233.104 233.249 231.025 238.399 234.787C240.974 236.57 242.432 238.996 242.772 242.115ZM240.585 251.721C240.585 248.75 240.731 245.779 240.537 242.809C240.391 240.036 239.176 237.758 236.601 236.372C230.431 233.055 221.88 236.471 219.645 243.155C216.05 253.998 214.689 264.99 217.507 276.328C219.256 283.26 219.013 290.241 216.924 297.123C215.224 302.817 214.544 308.709 213.669 314.601C213.523 315.691 213.475 316.78 213.572 317.869C213.669 318.958 213.766 320.147 214.932 320.642C216.147 321.186 216.973 320.246 217.702 319.453C218.722 318.315 219.791 317.126 220.568 315.839C222.463 312.72 224.406 309.848 224.747 305.739C225.087 301.827 227.807 298.213 230.188 295.044C234.172 289.796 236.358 283.904 237.913 277.715C240.1 269.199 240.391 260.484 240.585 251.721Z" fill="black"/>
<path d="M240.899 242.587C241.093 245.534 240.948 248.481 240.948 251.427C240.754 260.12 240.416 268.764 238.287 277.26C236.739 283.399 234.514 289.243 230.595 294.449C228.225 297.592 225.516 301.177 225.177 305.057C224.838 309.133 222.903 311.982 221.017 315.076C220.243 316.402 219.178 317.531 218.162 318.661C217.437 319.447 216.663 320.38 215.405 319.84C214.292 319.348 214.147 318.121 214.05 317.089C213.954 316.009 214.002 314.928 214.147 313.848C215.018 308.004 215.695 302.159 217.388 296.512C219.469 289.636 219.71 282.76 217.969 275.885C215.163 264.638 216.518 253.735 220.097 242.98C222.323 236.35 230.837 233.01 236.981 236.252C239.497 237.578 240.706 239.837 240.899 242.587Z" fill="#DAE59A"/>
<path d="M174.967 156.246C175.203 157.805 174.12 158.065 173.085 158.377C171.484 158.896 169.884 159 168.236 159C166.824 159 165.412 159 164 159V158.273C166.448 158.273 168.519 157.857 170.402 155.883C170.872 155.415 171.814 155.623 172.52 155.363C173.649 155 174.685 154.48 174.967 156.246Z" fill="#BDCB64"/>
<path d="M170 152.415C168.838 153.559 167.944 154.503 166.737 155C165.932 153.509 165.574 151.918 166.781 151.173C167.765 150.626 169.061 151.471 170 152.415Z" fill="#BDCB64"/>
<path d="M164 157.279V157.916C162.881 157.916 161.808 157.962 160.689 157.962C155.839 158.098 155.839 158.144 155 153C156.865 153.091 158.124 153.501 158.731 155.048C159.477 156.915 160.689 157.142 162.788 157.233C163.254 157.279 163.627 157.279 164 157.279Z" fill="#BDCB64"/>
<path d="M161.517 149C163.451 150.632 163.45 150.632 161.767 155C160.894 152.526 160.707 150.789 161.517 149Z" fill="#BDCB64"/>
<path d="M157.392 143C159.912 145.071 158.928 146.504 158.068 149C156.716 146.558 156.839 145.071 157.392 143Z" fill="#BDCB64"/>
<path d="M152.153 129C153.912 132.834 154.727 136.768 153.183 141C151.896 137.166 151.853 133.083 152.153 129Z" fill="#BDCB64"/>
<path d="M146.463 116C148.48 118.05 149.624 119.65 148.643 122.35C147.662 125.1 147.499 128.1 147.008 131C146.627 130.95 146.245 130.95 145.918 130.9C144.665 126.15 144.556 121.3 146.463 116Z" fill="#BDCB64"/>
<path d="M143.618 106C144.87 110.432 142.663 114.667 142.425 119C141.709 114.617 141.769 110.235 143.618 106Z" fill="#BDCB64"/>
<path d="M140.619 90.631C141.809 91.9754 142.255 93.7679 141.859 95.4608C140.768 100.091 140.173 104.921 137 110C137.397 104.822 138.487 100.938 139.429 97.0542C139.876 95.3115 140.173 93.6683 138.289 92.5231C137.694 92.1248 136.851 91.6269 137.744 90.7804C138.636 89.9838 139.727 89.5854 140.619 90.631Z" fill="#BDCB64"/>
<path d="M138.062 114C139.59 114.773 138.918 115.727 138.368 117C136.473 115.773 136.717 114.909 138.062 114Z" fill="#BDCB64"/>
<path d="M134.87 93C135.271 94.4491 134.647 95.3186 134.335 96.2847C133.978 97.299 133.265 97.0092 132.642 96.7677C131.661 96.333 131.973 95.6084 132.463 95.0287C133.087 94.2559 133.622 93.3381 134.87 93Z" fill="#BDCB64"/>
</svg>
