<svg width="600" height="600" viewBox="0 0 600 600" fill="none" xmlns="http://www.w3.org/2000/svg">
<path d="M475.214 165.888C482.691 161.607 488.3 154.734 496.139 150.573C495.054 149.247 494.27 148.222 493.425 147.197C491.013 148.523 490.109 151.418 487.697 152.02C484.621 152.744 483.536 154.975 482.269 157.266C480.34 160.462 478.53 163.778 475.214 165.888ZM475.153 165.888C474.792 166.069 474.43 166.311 474.068 166.491C474.43 166.311 474.792 166.13 475.153 165.888ZM557.95 150.151C558.312 156.784 556.684 163.115 554.091 169.084C552.523 172.642 549.085 173.425 545.347 171.315C541.789 169.325 538.834 166.552 536.12 163.597C527.557 154.251 519.356 151.598 503.737 153.829C508.562 157.146 512.059 160.884 515.918 164.08C521.346 168.541 524.783 174.089 525.808 181.023C526.23 184.098 527.798 186.208 530.029 188.198C533.829 191.695 537.507 195.313 541.065 199.051C548.06 206.287 551.015 215.21 551.558 225.099C552.221 237.279 549.206 249.036 547.638 260.975C545.166 279.727 538.773 297.333 532.14 314.879C530.271 319.884 527.979 324.768 525.266 329.35C519.597 338.877 513.446 348.162 508.501 358.111C506.632 361.91 503.798 365.105 500.662 367.939C496.863 371.437 493.184 375.115 490.109 379.275C489.566 380.059 489.023 381.084 488.239 381.385C481.908 384.099 482.51 389.405 483.174 394.65C483.415 396.519 482.571 397.967 482.209 399.595C479.495 413.161 473.586 424.979 465.203 436.134C456.399 447.952 446.57 458.202 433.966 465.98C427.815 469.779 422.328 474.663 416.84 479.486C401.403 492.932 383.734 502.881 365.582 511.986C353.642 517.955 340.496 519.824 327.23 520.97C320.536 521.512 313.902 522.236 307.209 522.839C294.183 524.045 281.037 525.01 268.313 521.995C258.001 519.583 247.931 515.724 240.936 506.74C235.026 499.143 226.161 496.49 217.357 494.802C208.251 493.113 199.688 489.978 190.884 487.385C187.326 486.3 184.371 484.31 181.718 481.717C173.878 473.879 168.27 465.076 168.692 453.439C168.752 452.112 168.572 450.725 168.692 449.399C169.838 434.144 161.215 424.014 150.662 414.849C148.672 413.101 146.862 412.618 144.872 415.03C142.762 417.563 139.807 418.045 136.55 417.804C120.329 416.658 106.881 409.965 97.6549 396.64C84.2072 377.345 71.1215 357.749 60.4478 336.706C57.6135 331.038 54.9602 325.31 53.332 319.22C50.7992 309.814 48.3269 300.348 46.0354 290.881C44.8896 286.058 44.5278 281.114 44.4072 276.109C44.166 264.231 43.9247 252.413 41.6332 240.655C40.0653 232.455 41.8141 224.255 42.5377 216.054C43.2011 208.276 44.5881 200.498 45.6133 192.72C47.7239 177.103 56.3472 166.491 70.3978 159.979C71.6039 159.437 72.8703 158.954 74.0764 158.352C87.1019 151.176 101.213 150.935 115.444 152.503C118.821 152.865 121.294 152.382 123.827 150.272C132.209 143.278 141.797 138.635 152.591 136.766C153.134 136.645 153.677 136.464 154.28 136.344C156.029 136.102 160.189 135.318 160.973 137.188C160.913 137.73 160.913 138.273 160.853 138.876C159.828 140.202 156.39 139.479 155.124 139.72C146.199 141.408 137.696 144.001 130.219 149.428C127.987 150.995 125.998 152.623 125.515 155.879C128.048 156.784 130.701 156.301 133.294 156.482C138.239 156.844 143.244 157.085 148.008 158.653C148.913 158.954 149.938 159.497 149.576 160.643C149.275 161.849 148.069 161.728 147.224 161.547C141.013 160.402 134.681 159.919 128.41 159.377C119.846 158.593 111.645 160.1 103.625 162.994C99.1022 164.622 94.8207 166.793 90.4788 168.722C84.3279 171.436 79.1418 175.053 77.3327 182.108C75.2824 181.505 75.9458 180.179 76.187 179.274C77.8755 174.028 81.6745 170.652 86.3782 168.18C96.087 163.175 105.977 158.713 116.711 156.06C105.313 155.698 93.8559 153.106 82.8204 158.352C75.2221 161.969 67.1414 164.381 60.7493 170.29C54.5984 176.018 50.7389 182.832 49.4123 191.032C47.4222 203.694 45.7338 216.416 44.8895 229.199C44.5277 234.565 44.8293 239.871 45.9148 245.177C47.8445 254.764 47.6032 264.592 47.965 274.3C48.2062 281.053 48.8092 287.686 50.4977 294.198C52.5481 301.976 54.4175 309.754 56.5884 317.532C60.3272 330.737 67.5033 342.374 74.3175 354.132C82.3379 367.879 91.3231 380.963 100.308 394.047C108.63 406.107 120.51 412.257 134.922 414.005C138.963 414.488 142.098 413.644 144.269 410.086C145.053 408.82 145.958 407.674 147.646 408.217C147.707 408.277 147.827 408.337 147.888 408.398C147.948 408.398 148.008 408.458 148.068 408.458C148.792 409.302 149.335 410.267 150.239 410.87C158.561 416.538 164.29 424.195 169.054 432.938C170.923 436.435 172.25 439.812 172.25 443.731C172.25 448.133 172.25 452.534 172.371 456.936C172.672 466.04 177.919 472.613 183.828 478.703C186.602 481.476 187.808 481.295 190.763 478.703C193.658 476.23 196.311 473.457 198.964 470.683C204.995 464.232 210.844 457.659 216.875 451.268C218.081 449.942 219.106 448.133 221.819 448.253C220.674 452.595 216.875 454.524 214.402 457.478C211.869 460.553 209.035 463.448 206.322 466.402C203.608 469.357 200.834 472.311 198.301 475.386C195.829 478.341 192.03 480.15 190.1 483.526C191.004 484.672 191.909 484.913 192.874 485.154C200.954 487.506 208.915 490.038 217.297 491.485C228.573 493.475 239.187 497.274 246.363 507.162C246.845 507.825 247.509 508.73 248.775 508.006C248.353 506.016 247.87 503.967 247.569 501.916C245.82 489.134 247.147 476.713 252.454 464.895C254.323 460.795 256.916 457.298 260.775 454.886C261.439 454.464 262.283 454.162 262.886 454.765C263.911 455.79 263.007 456.514 262.223 457.056C256.554 460.795 254.142 466.583 252.333 472.733C249.679 482.019 248.715 491.485 250.283 501.133C250.584 503.002 251.127 504.871 251.609 506.68C252.755 510.659 255.288 513.252 259.328 514.458C261.861 515.242 264.574 515.905 266.866 517.171C271.751 519.884 276.997 520.246 282.424 520.367C293.942 520.608 305.339 519.342 316.797 518.015C324.576 517.111 332.476 517.111 340.195 515.724C351.954 513.553 362.929 509.695 373.482 503.786C389.101 495.103 404.177 485.757 417.685 474C422.026 470.261 426.308 466.282 431.253 463.387C444.58 455.489 454.59 444.575 463.636 432.215C470.209 423.23 474.973 413.644 477.867 403.031C478.289 401.404 479.194 399.595 478.47 397.967C477.204 395.193 478.229 392.721 478.953 390.188C482.39 378.732 481.968 367.156 479.917 355.518C478.953 350.152 476.239 345.931 471.234 343.339C467.133 341.228 463.394 338.575 459.656 335.922C456.037 333.33 452.057 331.4 447.776 330.315C443.796 329.29 439.816 327.782 435.474 329.832C433.605 330.737 432.338 329.109 432.76 326.938C433.062 325.431 434.027 324.707 435.233 323.984C439.876 321.09 442.59 316.869 443.916 311.623C445.002 307.463 446.932 303.785 449.585 300.468C451.816 297.635 452.781 294.439 452.781 290.881C452.66 275.506 449.042 261.638 435.715 252.111C428.238 246.805 421.725 240.112 412.74 237.158C398.629 232.455 384.578 227.149 369.201 228.777C367.15 229.018 364.979 228.536 362.929 228.475C355.632 228.234 348.215 228.475 341.401 231.249C332.838 234.686 324.094 234.324 315.41 233.42C308.053 232.696 300.937 233.118 293.761 234.384C290.384 234.987 287.007 235.711 283.57 236.133C265.961 238.304 249.016 242.765 233.398 251.388C231.408 252.473 229.176 253.257 227.126 254.161C212.05 260.613 198.482 269.597 186.12 280.269C174.662 290.158 169.898 302.699 173.939 317.894C175.145 322.356 176.893 326.576 178.944 330.677C180.331 333.45 182.321 335.561 185.396 336.766C193.778 340.022 202.04 343.58 210.362 347.017C211.869 347.62 213.799 347.861 214.04 350.152C211.99 351.539 210.301 350.152 208.673 349.489C202.281 346.896 196.01 344.123 189.617 341.409C185.758 339.781 181.718 338.455 177.497 337.912C175.929 337.731 174.542 337.792 173.094 338.636C166.34 342.736 159.948 347.198 155.848 354.252C151.144 362.452 148.068 364.563 161.034 369.266C172.371 373.366 184.311 375.356 196.492 375.718C201.859 375.898 207.166 375.717 212.533 374.753C214.704 374.331 215.91 373.607 216.211 371.256C216.935 366.432 219.166 362.211 221.397 357.991C225.86 349.549 231.769 342.374 239.368 336.646C240.875 335.5 242.805 334.536 241.961 332.063C238.885 323.2 239.428 313.914 238.342 304.87C237.016 293.112 240.815 283.465 248.775 275.084C256.795 266.763 266.263 260.251 275.972 254.101C277.057 253.438 278.263 252.533 279.65 253.86C279.409 256.392 277.178 257.056 275.489 258.201C269.278 262.362 263.127 266.522 257.398 271.406C253.418 274.783 249.8 278.4 246.785 282.681C244.071 286.48 241.84 290.58 241.599 295.283C241.056 306.197 241.9 317.05 243.89 327.843C244.192 329.471 244.493 331.4 246.483 332.003C248.775 332.666 248.835 334.113 248.293 336.043C247.207 339.48 248.353 342.434 250.463 345.148C254.745 350.574 259.026 355.941 264.393 360.342C273.017 367.457 282.786 371.014 294.123 370.17C298.344 369.869 302.445 369.326 306.606 368.603C315.47 367.095 324.335 365.226 333.26 364.382C348.999 362.935 364.256 359.92 379.151 354.554C385.482 352.262 391.995 350.695 398.689 350.092C400.197 349.971 401.764 349.549 403.212 350.152C403.694 350.393 404.297 350.815 404.357 351.237C404.538 352.082 403.875 352.624 403.091 352.805C402.367 352.986 401.583 353.107 400.86 353.167C391.995 353.951 383.613 356.423 375.231 359.317C365.04 362.814 354.668 365.648 343.934 366.372C331.873 367.216 320.114 369.989 308.113 371.376C304.917 371.738 301.721 372.582 298.525 373.245C287.912 375.537 282.304 383.013 279.53 392.661C277.178 400.861 277.117 409.363 279.469 417.623C281.218 423.894 283.449 429.984 285.56 436.134C285.922 437.159 286.284 438.124 287.309 438.968C290.083 441.199 289.962 442.043 286.947 443.309C282.243 445.238 277.298 445.48 272.293 445.661C260.715 446.022 248.896 444.274 237.619 448.675C235.81 449.399 234.483 448.494 234.724 446.444C235.569 440.053 232.252 435.109 229.357 429.923C225.739 423.411 220.432 420.577 212.955 420.698C202.583 420.879 192.271 419.914 182.441 416.236C171.346 412.016 159.466 411.051 148.068 408.157C148.008 408.096 148.008 408.036 147.948 408.036C147.827 407.976 147.707 407.976 147.586 407.915C146.802 407.252 146.018 406.468 145.114 406.046C131.968 399.836 122.56 389.163 112.128 379.576C111.585 379.034 111.103 378.431 110.56 377.888C98.3183 365.708 95.9664 350.574 97.7152 334.355C98.7404 324.888 104.952 319.823 114.48 319.703C119.545 319.643 124.309 320.788 129.073 322.476C132.993 323.863 135.405 326.396 136.55 330.435C138.36 336.706 139.928 342.977 141.315 349.368C142.279 353.89 143.908 358.111 148.189 361.307C149.335 359.136 150.42 357.146 151.385 355.217C156.029 346.173 163.627 340.203 172.009 335.018C176.29 332.365 176.23 332.244 174.119 327.541C171.949 322.597 170.26 317.592 169.537 312.166C167.607 297.936 173.155 286.54 183.527 277.496C196.371 266.221 210.663 256.935 226.463 250.122C230.141 248.554 233.94 247.046 237.438 245.177C249.619 238.665 262.645 235.168 276.213 233.359C287.188 231.852 297.922 228.656 309.139 228.777C311.913 228.837 311.973 226.968 312.033 224.918C312.395 214.125 311.189 203.513 309.199 192.961C307.812 185.665 306.003 178.37 303.952 171.194C300.756 160.1 292.133 153.648 282.846 148.041C280.675 146.714 278.022 146.775 275.55 146.956C267.409 147.498 259.087 146.111 251.006 148.342C249.679 148.704 248.835 147.981 248.473 146.714C248.172 145.629 248.051 144.423 247.629 143.398C245.82 138.755 242.745 135.921 237.498 135.379C224.232 133.932 210.965 138.997 200.713 147.559C200.291 147.92 199.869 148.342 199.447 148.704C199.266 148.825 199.025 148.945 198.844 148.945C198.361 148.523 197.939 148.161 197.517 147.679C197.517 147.438 197.517 147.257 197.578 147.016C198 145.629 200.593 143.036 201.678 142.192C212.955 133.268 225.86 130.314 239.971 132.123C245.217 132.786 248.654 136.223 250.584 140.805C251.79 143.639 253.358 144.303 256.253 144.122C263.127 143.76 270.062 143.82 276.937 143.639C279.891 143.579 282.726 143.941 285.258 145.448C296.535 152.322 305.641 160.763 308.837 174.39C312.757 191.032 316.315 207.613 315.832 224.858C315.832 225.822 315.832 226.787 315.953 227.752C316.134 229.139 317.038 229.681 318.365 229.681C319.511 229.681 320.053 228.897 320.234 227.872C320.355 227.149 320.536 226.365 320.656 225.641C323.129 208.879 330.848 194.047 338.265 179.154C339.049 177.646 340.014 176.199 340.918 174.752C351.532 157.568 367.03 150.815 386.869 153.528C387.834 153.648 388.799 153.769 389.704 154.01C395.191 155.337 399.413 154.251 403.272 149.488C408.458 143.097 416.177 140.022 423.835 137.429C429.805 135.379 436.017 134.173 442.469 134.535C443.434 134.595 444.399 134.535 445.364 134.595C455.072 135.56 464.118 134.233 472.862 129.289C480.701 124.827 489.506 122.536 498.792 123.079C501.687 123.259 504.521 123.38 507.295 124.164C512.481 125.671 517.788 126.214 523.155 126.455C535.095 126.998 544.623 132.666 553.307 140.323C556.201 143.036 557.709 146.413 557.95 150.151ZM551.075 166.552C552.704 161.969 554.151 157.326 554.03 151.297C550.834 154.734 549.387 157.929 548.301 161.366C547.879 162.753 548.904 165.044 547.276 165.466C546.553 165.647 546.07 165.527 545.769 165.286C544.985 164.622 545.045 162.934 544.442 162.09C544.261 161.788 543.959 161.427 543.598 161.366C539.557 160.16 539.738 157.266 540.522 154.07C540.763 153.045 541.366 151.84 539.979 150.995C537.567 151.478 534.673 154.251 532.683 151.478C530.21 147.981 528.884 150.151 526.23 151.9C532.683 154.372 536.663 159.075 541.065 163.235C542.211 164.321 543.357 165.286 544.623 166.25C545.347 166.793 546.13 167.336 546.914 167.818C548.482 168.843 550.291 168.722 551.075 166.552ZM551.196 148.342C553.126 146.473 552.583 145.147 551.075 143.579C546.673 138.936 541.065 136.102 535.396 133.329C534.251 132.786 533.045 132.605 532.381 133.871C530.331 137.61 527.256 140.986 527.256 146.051C529.849 145.328 530.753 143.338 532.261 141.951C533.889 140.444 534.311 136.163 537.326 137.851C539.678 139.117 536.844 141.83 536.422 143.941C536.12 145.388 534.914 146.714 536.06 148.403C538.532 147.86 540.221 145.991 542.15 144.484C543.356 143.579 544.563 142.132 546.13 143.398C547.397 144.423 546.673 145.81 546.251 147.076C545.286 149.91 543.899 152.623 543.839 156.603C547.578 154.131 548.784 150.634 551.196 148.342ZM547.276 238.304C549.628 221.843 546.372 207.07 532.743 195.916C530.572 194.167 528.462 192.961 525.688 192.479C516.22 190.791 506.692 190.791 497.164 191.454V191.394C497.164 191.333 497.104 191.333 497.104 191.273C497.285 188.741 499.275 188.801 501.144 188.62C507.054 188.077 512.964 188.56 518.873 188.861C520.501 188.921 522.19 189.826 524.059 188.379C522.431 185.364 522.311 181.867 521.406 178.551C520.683 175.717 519.657 173.003 517.667 170.893C513.386 166.311 508.923 161.788 503.737 158.171C498.732 154.673 495.536 154.794 490.772 158.653C486.31 162.271 482.028 166.009 477.686 169.808C475.576 171.617 475.817 172.642 478.41 173.908C479.254 174.33 480.159 174.752 481.124 174.872C488.903 175.837 493.305 180.54 495.536 187.715C495.898 188.921 496.561 190.067 497.044 191.273C497.044 191.333 497.044 191.394 497.044 191.454C497.104 191.454 497.104 191.454 497.104 191.454C497.405 193.383 497.526 195.072 495.234 196.217C491.254 198.147 491.194 198.328 492.4 202.367C498.792 223.893 499.335 245.599 494.993 267.607C491.496 285.515 486.129 302.82 478.772 319.522C477.927 321.451 477.385 323.863 474.49 324.587C473.947 321.632 475.334 319.462 476.239 317.231C480.46 307.161 484.32 296.971 487.274 286.48C495.114 258.382 498.129 230.164 489.023 201.704C488.541 200.257 488.601 198.448 487.395 197.483C483.656 194.529 481.666 190.368 479.194 186.51C475.817 181.324 471.234 177.887 465.626 175.475C453.505 170.23 441.022 169.144 427.996 171.074C418.89 172.4 411.292 175.958 405.141 182.892C401.463 187.052 397.483 190.911 394.046 195.313C388.075 202.97 383.794 211.412 381.503 220.878C381.141 222.265 380.236 223.712 381.623 225.702C388.679 224.677 394.95 228.717 401.764 230.224C414.247 232.937 425.041 238.786 434.69 246.926C440.117 251.448 446.208 255.307 449.525 261.879C454.59 271.828 456.942 282.319 456.158 293.474C455.977 296.007 455.615 298.599 453.987 300.468C447.474 307.704 447.354 318.195 440.358 325.491C445.906 326.878 450.791 327.843 455.314 329.953C459.836 332.063 463.696 335.319 467.917 337.852C469.364 338.756 470.872 339.661 472.38 340.384C478.772 343.52 482.028 348.826 483.415 355.579C484.681 361.608 484.862 367.698 484.802 373.848C484.802 375.295 484.44 376.803 485.526 378.853C489.204 373.969 492.822 369.869 496.983 366.191C501.205 362.452 504.461 357.991 506.873 352.926C509.707 347.077 512.964 341.409 516.582 335.983C528.281 318.376 534.733 298.479 540.04 278.34C543.658 265.316 545.346 251.75 547.276 238.304ZM528.823 131.761C525.808 130.073 524.12 130.254 523.034 133.268C522.492 134.836 521.285 136.223 520.441 137.73C519.295 139.841 517.547 141.83 518.451 145.207C523.275 141.589 526.23 137.067 528.823 131.761ZM523.577 149.91C523.818 149.669 523.517 148.222 523.095 147.92C521.527 146.775 520.803 148.162 520.14 149.307C521.225 149.85 522.311 150.995 523.577 149.91ZM519.537 131.038C515.255 129.771 515.255 129.771 513.567 133.088C512.361 135.439 511.034 137.73 509.828 140.082C509.225 141.167 508.381 142.373 509.647 143.579C514.29 140.685 516.099 138.394 519.537 131.038ZM513.084 149.006C513.627 148.945 514.109 148.463 513.928 147.8C513.748 147.197 513.386 146.594 512.783 146.895C510.25 147.981 507.838 148.162 505.184 146.956C504.159 146.473 502.772 147.679 502.411 149.789C506.029 149.488 509.587 149.307 513.084 149.006ZM508.32 133.389C510.25 129.048 510.25 128.867 505.486 127.842C503.918 127.54 502.35 127.299 500.843 127.118C492.038 126.274 483.596 128.445 475.455 132.364C473.766 133.208 473.525 134.414 473.465 136.042C473.224 144.122 471.113 151.9 468.58 159.497C468.158 160.763 466.952 162.09 468.219 163.657C471.173 160.402 471.173 160.402 471.837 156.241C472.741 149.97 474.49 143.941 476.782 138.032C477.324 136.585 477.747 135.077 479.013 134.052C480.34 132.967 481.546 133.268 482.088 134.957C482.571 136.283 482.088 137.61 481.847 138.936C480.943 143.639 479.495 148.222 477.988 152.744C477.626 153.829 476.54 155.216 478.892 156.301C481.003 153.106 482.51 149.729 483.536 145.991C484.501 142.494 485.646 139.057 486.852 135.62C487.335 134.293 487.938 132.364 489.928 133.148C491.496 133.811 490.953 135.439 490.591 136.705C489.566 140.142 488.42 143.519 486.913 148.222C491.254 144.182 493.425 140.263 495.476 136.223C496.501 134.173 497.466 132.063 498.551 130.073C499.034 129.229 499.757 128.445 500.722 128.565C500.903 128.565 501.144 128.686 501.385 128.807C502.531 129.47 502.29 130.796 501.868 131.942C501.446 133.027 500.843 133.992 500.421 135.077C499.516 137.188 498.431 139.238 497.828 141.408C497.345 142.916 496.561 145.086 498.37 146.051C499.938 146.956 501.084 145.147 502.169 144.182C505.365 141.288 506.632 137.188 508.32 133.389ZM489.506 191.936C491.857 192.72 493.003 191.816 492.4 189.464C491.074 184.279 489.083 179.636 482.993 178.37C480.943 177.948 479.013 177.224 477.023 176.681C476.782 176.983 476.48 177.224 476.239 177.465C479.797 180.781 482.45 184.701 484.923 188.74C486.008 190.549 487.697 191.333 489.506 191.936ZM470.45 168.24C469.003 167.215 467.857 167.999 466.711 167.697C465.625 167.456 464.54 167.155 463.394 167.155C462.249 167.094 460.982 167.396 460.801 168.783C460.62 169.868 461.646 170.35 462.55 170.652C463.455 170.953 464.299 171.315 465.203 171.677C469.183 173.124 469.244 173.124 470.45 168.24ZM468.399 137.429C468.399 137.127 468.219 136.645 467.977 136.524C467.435 136.283 466.892 136.464 466.711 137.067C466.53 137.67 466.832 138.092 467.435 138.333C468.158 138.514 468.339 137.972 468.399 137.429ZM461.706 148.162C461.947 145.448 463.997 142.675 461.947 139.479C457.967 142.253 454.771 145.207 451.997 148.644C450.188 150.935 449.042 153.528 449.163 156.543C449.223 157.568 449.344 158.472 450.55 158.713C451.635 158.894 452.419 158.291 452.841 157.387C453.384 156.181 453.746 154.854 454.108 153.588C454.59 151.779 455.012 149.91 455.555 148.101C455.796 147.438 456.339 146.835 457.243 146.956C458.269 147.076 458.45 147.981 458.389 148.644C457.967 151.478 457.364 154.251 456.882 157.085C456.279 160.221 455.615 163.356 457.485 167.275C460.319 163.959 460.198 160.884 460.5 157.869C460.801 154.613 461.404 151.417 461.706 148.162ZM452.6 142.313C453.505 141.469 454.892 140.866 454.711 138.755C450.851 138.575 446.871 138.333 442.952 138.152C430.589 137.489 419.614 141.408 409.483 148.101C407.493 149.428 405.383 150.814 404.538 153.769C407.192 154.372 409.604 154.854 411.956 155.457C415.333 156.241 418.529 157.507 421.303 159.678C421.906 160.16 422.509 160.884 422.147 161.668C421.664 162.753 420.639 162.632 419.735 162.21C418.529 161.668 417.383 160.944 416.177 160.402C411.775 158.412 406.89 156.663 402.307 157.688C396.82 158.894 391.694 158.291 386.447 157.507C368.899 154.915 354.848 160.522 344.838 175.536C343.994 176.802 343.089 178.068 342.366 179.395C336.154 190.007 331.391 201.222 327.049 212.738C325.36 217.2 324.456 221.963 323.913 226.727C323.672 228.596 324.094 230.465 326.566 229.983C331.089 229.139 335.732 229.922 340.195 228.475C347.19 226.184 354.366 225.34 361.663 225.581C364.919 225.702 368.175 225.702 371.432 225.702C377.221 225.702 377.281 225.702 378.668 220.275C381.201 210.085 385.905 200.981 392.478 192.841C397.423 186.69 402.91 181.143 408.76 175.898C410.026 174.752 411.714 173.908 412.257 172.22C412.921 170.169 414.549 169.386 416.298 168.481C424.378 164.08 432.459 159.738 441.866 158.894C443.977 158.713 445.303 157.568 445.545 155.216C446.027 149.85 449.042 145.931 452.6 142.313ZM451.454 167.577C452.962 167.818 453.565 166.913 453.505 165.527C453.444 164.26 453.806 162.632 452.238 162.03C450.791 161.487 448.922 161.005 447.896 162.271C444.941 165.888 440.178 163.477 436.921 165.828C436.559 166.069 435.655 165.949 435.293 165.647C431.132 162.15 428.599 166.25 425.222 167.275C425.584 167.758 425.705 167.999 425.765 167.999C434.328 167.034 442.891 166.13 451.454 167.577ZM284.354 377.104C285.078 376.381 286.284 375.778 285.741 374.27C264.755 370.411 252.152 356.363 242.443 338.394C231.166 345.931 224.111 356.664 219.468 369.085C218.925 370.592 218.081 372.462 219.528 373.969C221.156 375.657 222.724 374.15 224.232 373.547C226.523 372.642 228.754 371.497 231.046 370.532C234.302 369.206 237.679 368.723 241.177 369.085C245.519 369.567 248.715 371.798 250.705 375.597C251.79 377.768 251.609 379.637 249.197 380.722V380.662C249.137 380.662 249.137 380.662 249.076 380.662C246.966 372.823 242.564 370.11 234.785 372.16C231.83 372.944 229.056 374.27 226.282 375.476C222.242 377.285 218.141 378.31 213.618 378.672C207.527 379.154 201.437 379.697 195.346 379.637C193.778 379.576 192.09 379.757 192.03 381.868C191.728 389.465 191.004 397.062 193.658 404.479C196.01 399.595 196.311 394.289 197.216 389.163C197.457 387.837 197.457 386.51 197.638 385.184C197.819 384.038 198.181 382.772 199.507 382.652C201.316 382.531 201.618 384.099 201.799 385.425C201.859 385.727 201.859 386.088 201.919 386.39C202.04 387.958 201.98 389.525 202.221 391.093C202.884 396.52 203.125 402.067 205.839 407.252C209.397 402.067 209.518 401.464 207.528 396.58C206.261 393.565 204.814 390.671 203.608 387.656C203.427 387.234 203.186 386.752 203.186 386.209C203.186 385.666 203.487 385.063 204.633 384.641C206.563 388.44 208.492 392.239 210.482 396.218C211.749 394.771 211.266 393.324 211.628 392.118C212.171 390.188 211.869 387.475 214.282 386.812C217.055 386.088 217.176 389.284 218.623 390.611C220.131 390.008 219.95 387.958 221.458 387.234C223.448 386.39 224.171 388.862 226.041 388.802C226.041 386.752 225.98 384.882 226.041 382.953C226.101 381.928 226.463 381.024 227.608 380.903C228.694 380.782 229.357 381.566 229.719 382.531C230.202 383.797 230.503 385.063 230.925 386.39C231.89 389.344 231.89 392.6 233.82 395.253C234.182 391.153 234.121 387.174 234.182 383.134C234.242 381.626 234.483 380.119 234.845 378.612C235.026 377.707 235.568 376.803 236.654 376.622C238.041 376.441 238.825 377.285 239.187 378.431C239.91 380.601 240.513 382.772 241.056 385.003C241.659 387.294 242.081 389.646 242.564 391.937C243.287 389.163 243.589 386.51 243.89 383.857C244.312 380.722 246.182 379.757 249.076 380.481C249.076 380.541 249.077 380.541 249.137 380.601C249.197 380.601 249.197 380.541 249.257 380.541C249.74 383.074 249.257 386.51 253.901 385.063C254.926 384.762 255.529 386.51 255.83 387.596C256.675 390.912 257.459 394.289 258.122 397.665C258.423 399.112 258.966 400.62 257.82 401.705C256.675 402.248 256.072 401.283 255.469 401.343C251.609 402.006 250.644 399.775 249.981 396.64C249.378 393.806 249.077 390.852 247.147 387.535C245.941 394.59 246.363 400.921 246.182 407.192C246.122 408.94 246.122 410.629 245.941 412.377C245.88 413.161 245.519 413.885 244.614 414.005C243.468 414.186 242.805 413.463 242.564 412.498C242.262 411.413 242.202 410.207 241.961 409.121C240.875 402.73 239.91 396.278 238.765 389.887C238.584 388.983 239.126 387.475 237.016 387.415C237.016 391.877 237.016 396.278 237.016 400.68C237.016 404.298 237.076 407.976 237.016 411.593C237.016 412.739 236.956 414.066 235.508 414.307C234.061 414.488 233.578 413.282 233.337 412.136C232.734 409.604 232.192 407.011 231.528 403.936C230.624 406.348 231.468 408.217 231.347 410.086C231.287 411.111 230.986 412.016 229.779 412.076C228.875 412.136 228.392 411.352 228.211 410.629C227.066 406.167 226.101 401.705 224.955 397.243C224.533 395.736 224.413 393.987 222 392.54C221.88 397.122 221.819 400.861 221.578 404.659C221.458 406.348 222.422 409.182 219.648 409.121C217.478 409.061 218.201 406.408 217.96 404.84C217.357 400.559 217.417 396.158 215.307 391.997C213.618 393.625 214.04 395.434 213.98 397.062C213.859 401.102 214.04 405.082 214.643 409.061C214.764 409.785 214.583 410.629 213.739 410.991C212.533 411.473 212.05 410.568 211.568 409.785C211.206 409.242 211.447 408.157 210.301 408.337C205.96 412.98 204.03 412.498 201.678 406.529C200.894 404.478 201.196 402.006 199.206 400.077C198.482 402.428 198 404.418 197.276 406.408C196.673 408.036 195.889 409.724 193.839 409.845C192.09 409.905 191.185 408.579 190.522 407.071C190.16 406.227 189.979 405.202 188.773 404.72C188.23 405.926 187.748 407.192 187.145 408.337C186.361 409.905 185.396 411.473 183.346 411.413C181.054 411.352 180.27 409.423 179.487 407.674C178.763 406.107 179.064 403.996 177.436 402.428C176.893 403.393 176.532 404.117 176.11 404.72C173.456 408.699 173.034 408.82 169.356 405.624C168.451 404.84 168.089 404.901 167.004 405.262C163.265 406.468 162.541 405.986 161.094 402.428C160.612 401.223 160.853 399.715 159.828 398.69C154.34 400.439 153.435 399.896 152.229 394.108C151.807 392.178 151.506 390.249 151.023 387.415C150.119 390.128 149.576 391.937 148.852 393.686C148.129 395.434 147.405 397.545 144.993 397.183C143.003 396.881 142.46 395.012 142.159 393.264C141.737 390.852 141.375 388.38 141.194 385.907C141.013 383.797 141.134 381.687 141.134 379.516C139.505 381.687 138.782 383.857 137.938 385.968C137.334 387.415 136.49 388.862 134.621 388.621C132.812 388.38 132.209 386.812 131.968 385.304C131.485 382.35 131.123 379.335 130.701 376.32C129.013 376.501 129.073 378.009 128.289 378.793C126.239 380.782 124.55 380.541 123.585 377.828C123.043 376.441 122.862 374.873 122.801 373.366C122.681 370.532 122.741 367.698 122.741 364.804C117.676 365.226 117.495 365.045 116.892 360.764C116.711 359.558 117.374 358.111 116.168 357.146C114.841 357.568 114.721 358.895 113.937 359.739C111.344 362.452 108.932 362.151 108.148 358.594C106.52 351.298 105.193 343.942 107.243 336.465C107.786 334.596 108.208 332.727 109.836 331.46C110.861 330.677 111.766 329.29 113.274 329.832C114.781 330.375 114.902 331.943 114.721 333.269C114.178 337.972 114.299 342.796 112.067 347.258C110.5 350.454 109.354 353.83 110.922 357.448C112.912 357.086 113.093 355.579 113.575 354.433C115.022 350.876 116.168 347.198 116.892 343.459C117.374 341.048 117.676 338.575 118.279 336.103C118.58 334.716 118.52 332.546 120.691 332.968C122.379 333.269 121.776 335.138 121.656 336.405C121.535 337.731 121.113 338.997 120.932 340.324C120.208 346.414 118.882 352.504 120.088 359.799C123.043 353.107 123.585 347.017 124.852 341.048C125.334 338.937 125.033 335.018 127.324 335.38C130.641 335.922 128.591 339.54 128.229 341.65C126.48 351.117 125.696 360.583 125.575 370.17C125.575 371.557 125.033 373.245 126.781 374.21C127.927 373.245 128.108 371.859 128.47 370.592C130.158 364.503 131.184 358.292 131.968 352.021C132.148 350.514 132.39 349.007 132.691 347.499C132.872 346.776 133.415 346.112 134.319 346.173C135.103 346.233 135.525 346.776 135.646 347.439C135.646 347.559 135.646 347.62 135.646 347.74C135.646 349.429 135.706 351.177 135.465 352.865C134.259 361.066 134.319 369.266 134.38 377.526C134.38 379.335 134.621 381.144 134.802 383.134C135.525 382.651 136.008 382.531 136.068 382.29C138.299 375.115 139.264 367.698 140.712 360.402C140.832 359.679 140.892 358.774 140.591 358.171C138.902 354.614 137.817 350.876 136.912 347.137C136.008 343.278 135.344 339.359 134.5 335.5C132.932 328.084 128.53 325.371 122.017 324.285C120.148 323.984 118.218 323.622 116.349 323.501C107.183 322.959 101.816 327.722 101.394 336.887C101.213 340.686 101.695 344.545 101.635 348.343C101.454 359.016 106.58 367.336 113.213 375.054C114.48 376.501 115.746 377.948 117.193 379.215C122.801 384.4 128.289 389.766 134.199 394.65C142.279 401.283 151.445 405.986 161.878 407.734C168.089 408.759 174.3 410.086 180.21 412.377C191.427 416.779 203.246 417.864 215.126 418.226C216.995 418.286 218.985 418.708 220.372 416.839C221.035 415.935 222.242 415.995 222.845 416.9C225.679 421 230.202 420.758 234.242 421.12C239.428 421.542 244.915 423.231 249.619 419.13C250.041 418.769 250.765 418.708 251.067 419.251C251.308 419.673 251.489 420.397 251.308 420.819C250.283 423.532 247.991 424.195 245.338 424.316C240.091 424.497 234.845 424.014 228.815 423.653C232.855 430.104 236.714 435.772 238.101 442.646C238.403 444.153 239.669 444.093 240.875 443.731C250.283 441.199 259.871 442.224 269.459 441.982C272.535 441.922 275.61 441.862 278.625 441.5C282.665 441.078 283.027 440.535 281.881 436.857C280.917 433.541 279.65 430.345 278.505 427.089C275.369 418.347 273.74 409.423 274.524 400.077C275.188 391.455 277.962 383.556 284.354 377.104ZM188.05 381.868C188.05 379.938 186.964 379.154 185.276 378.853C179.245 377.707 173.275 376.562 167.245 375.416C165.436 375.054 164.411 375.416 164.109 377.526C163.205 384.159 162.602 390.852 163.265 397.545C163.385 398.931 163.325 400.559 165.134 401.705C166.943 398.509 167.245 395.193 167.426 391.756C167.667 388.319 168.089 384.943 168.572 381.506C168.692 380.541 169.416 379.757 170.562 379.999C171.346 380.179 171.888 380.843 171.949 381.626C171.949 383.315 172.009 385.063 171.768 386.752C171.165 391.153 170.923 395.495 171.225 399.896C171.285 401.102 170.984 402.67 172.913 403.273C174.481 401.042 174.903 398.389 175.446 395.796C176.29 391.515 176.893 387.113 177.617 382.832C177.858 381.506 177.979 379.818 179.788 380.119C181.416 380.36 181.356 382.049 181.296 383.375C181.175 385.063 180.994 386.812 180.934 388.5C180.873 394.771 180.632 401.042 183.406 407.011C187.024 398.931 187.989 390.49 188.05 381.868ZM161.275 374.994C161.576 374.029 160.792 373.607 160.129 373.366C158.742 372.884 157.416 371.919 155.365 372.281C154.039 382.953 154.461 391.033 156.451 394.711C156.752 394.469 157.114 394.228 157.235 393.927C160.069 387.958 159.225 381.144 161.275 374.994ZM150.239 374.331C151.385 368.482 151.265 368.482 144.571 365.105C143.666 374.512 143.305 383.254 145.536 391.937C148.37 386.329 149.033 380.24 150.239 374.331Z" fill="black"/>
<path d="M554.993 151C555.12 156.979 553.592 161.583 551.874 166.127C551.047 168.279 549.137 168.399 547.419 167.382C546.591 166.904 545.764 166.366 545 165.828L546.209 164.931C546.527 165.23 547.037 165.35 547.8 165.11C549.519 164.692 548.437 162.42 548.883 161.045C550.092 157.577 551.556 154.408 554.993 151Z" fill="#13751E"/>
<path d="M550.652 143.794C552.145 145.383 552.683 146.728 550.771 148.624C548.382 150.947 547.188 154.493 543.425 157C543.485 152.965 544.858 150.213 545.814 147.34C546.232 146.056 546.949 144.588 545.695 143.61C544.142 142.326 542.947 143.794 541.753 144.711C539.841 146.239 538.229 148.135 535.72 148.685C534.585 146.912 535.78 145.567 536.078 144.16C536.497 142.082 539.304 139.33 536.974 137.985C534.048 136.334 533.63 140.614 531.957 142.143C530.524 143.549 529.568 145.567 527 146.3C527.06 141.165 530.046 137.741 532.077 133.95C532.734 132.727 533.928 132.849 535.063 133.4C540.677 136.212 546.232 139.086 550.652 143.794Z" fill="#13751E"/>
<path d="M532.738 195.714C546.427 206.886 549.683 221.682 547.271 238.169C545.341 251.636 543.592 265.224 540.155 278.328C534.849 298.499 528.397 318.428 516.699 336.062C513.08 341.497 509.824 347.114 506.99 353.032C504.518 358.044 501.262 362.513 497.101 366.318C493 370.002 489.322 374.108 485.644 379C484.498 376.947 484.92 375.377 484.92 373.988C484.92 367.828 484.799 361.728 483.533 355.689C482.086 348.925 478.83 343.611 472.498 340.471C470.93 339.746 469.483 338.78 468.036 337.934C463.755 335.337 459.956 332.137 455.433 330.023C450.911 327.909 446.026 326.943 440.479 325.554C447.534 318.186 447.594 307.739 454.106 300.492C455.795 298.62 456.096 296.023 456.277 293.487C457.061 282.314 454.71 271.746 449.644 261.842C446.328 255.259 440.177 251.394 434.81 246.865C425.162 238.772 414.368 232.854 401.886 230.137C395.012 228.627 388.801 224.641 381.746 225.607C380.359 223.614 381.263 222.165 381.625 220.776C383.917 211.295 388.198 202.84 394.168 195.17C397.605 190.822 401.585 186.897 405.263 182.73C411.414 175.785 419.012 172.282 428.117 170.893C441.142 168.961 453.624 170.048 465.745 175.302C471.352 177.717 475.935 181.22 479.312 186.353C481.784 190.158 483.835 194.385 487.513 197.344C488.719 198.311 488.659 200.122 489.141 201.572C498.247 230.076 495.231 258.339 487.392 286.481C484.438 297.05 480.578 307.195 476.357 317.281C475.393 319.515 474.066 321.689 474.609 324.648C477.503 323.924 478.046 321.508 478.89 319.575C486.186 302.847 491.613 285.515 495.111 267.579C499.392 245.536 498.849 223.795 492.518 202.236C491.312 198.19 491.372 198.009 495.352 196.076C497.643 194.929 497.523 193.238 497.221 191.305C506.749 190.641 516.276 190.641 525.744 192.332C528.457 192.755 530.568 193.962 532.738 195.714ZM543.05 237.565C544.376 233.518 544.678 229.351 544.497 225.849C544.497 223.373 544.557 221.682 544.497 219.93C544.316 213.589 540.819 209.181 535.753 205.98C532.618 203.987 529.181 203.927 525.985 205.92C522.789 207.913 522.427 211.113 522.849 214.495C522.97 215.643 523.09 216.79 523.512 217.877C526.347 225.97 529.965 233.76 531.713 242.275C532.618 246.744 536.899 247.167 539.974 243.664C541.542 241.913 542.326 239.739 543.05 237.565ZM482.99 217.334C482.87 215.643 482.87 212.925 482.448 210.328C481.483 205.195 478.83 201.089 474.066 198.673C470.629 196.922 468.217 198.069 467.011 201.692C466.528 203.142 466.167 204.652 466.709 206.161C468.759 211.959 469.061 218.119 470.689 224.037C471.352 226.453 472.016 228.868 473.403 230.922C474.488 232.552 475.875 233.941 478.046 233.639C480.036 233.337 480.759 231.767 481.423 230.137C482.81 226.332 482.689 222.346 482.99 217.334ZM428.418 201.753C428.237 197.646 426.187 195.593 423.353 194.023C418.891 191.607 418.228 191.728 415.514 195.835C413.283 199.216 411.715 202.9 410.57 206.765C410.087 208.456 409.786 210.147 410.027 211.898C410.69 216.488 417.383 220.474 420.218 217.756C424.861 213.287 427.333 207.49 428.418 201.753Z" fill="#F7D006"/>
<path d="M545 164.13L543.886 165C542.654 164.13 541.54 163.145 540.426 162.101C536.145 158.1 532.275 153.578 526 151.201C528.58 149.519 529.87 147.432 532.275 150.795C534.21 153.462 537.025 150.795 539.37 150.331C540.719 151.143 540.133 152.302 539.898 153.288C539.136 156.419 538.96 159.202 542.889 160.304C543.182 160.42 543.475 160.767 543.71 160.999C544.355 161.869 544.296 163.493 545 164.13Z" fill="#13751E"/>
<path d="M543.952 226.092C544.134 229.545 543.83 233.653 542.494 237.642C541.765 239.785 540.975 241.929 539.396 243.655C536.359 247.168 532.046 246.751 531.074 242.286C529.312 233.891 525.667 226.211 522.812 218.233C522.448 217.161 522.327 216.03 522.144 214.899C521.719 211.564 522.084 208.409 525.303 206.444C528.523 204.479 531.985 204.539 535.144 206.504C540.246 209.659 543.709 214.005 543.952 220.257C543.952 221.984 543.952 223.651 543.952 226.092ZM537.695 240.143C540.125 235.677 540.489 230.855 540.246 225.913C540.246 224.425 540.186 222.877 540.246 221.388C540.489 216.804 538.12 213.529 534.84 210.731C532.41 208.707 529.251 208.29 527.429 209.659C525.182 211.326 525.607 213.589 526.214 215.851C526.336 216.387 526.396 216.982 526.639 217.518C529.555 224.663 531.074 232.165 533.139 239.547C533.504 240.738 533.564 242.405 535.326 242.346C536.662 242.286 537.148 241.095 537.695 240.143Z" fill="black"/>
<path d="M539.934 225.314C540.167 230.332 539.876 235.229 537.485 239.763C536.961 240.73 536.436 242 535.211 242C533.462 242 533.404 240.368 533.112 239.159C531.13 231.662 529.672 224.045 526.873 216.79C526.698 216.246 526.64 215.702 526.465 215.097C525.882 212.8 525.474 210.503 527.631 208.81C529.381 207.42 532.413 207.843 534.745 209.898C537.952 212.74 540.226 216.065 539.934 220.72C539.876 222.231 539.934 223.803 539.934 225.314Z" fill="#FFF0A3"/>
<path d="M523.971 133.484C525.039 130.576 526.86 130.401 530 132.03C527.3 137.09 524.222 141.452 519.261 145C518.319 141.743 520.14 139.823 521.334 137.788C522.15 136.276 523.406 134.996 523.971 133.484Z" fill="#13751E"/>
<path d="M523.333 147.426C523.867 147.745 524.2 149.335 523.867 149.526C522.467 150.671 521.267 149.462 520 148.826C520.8 147.681 521.533 146.281 523.333 147.426Z" fill="#13751E"/>
<path d="M521.33 178.152C522.18 181.501 522.362 184.972 524 188.077C522.119 189.539 520.42 188.625 518.782 188.564C512.836 188.26 506.891 187.773 500.945 188.321C499.064 188.503 497.062 188.443 496.88 191C496.334 189.843 495.727 188.686 495.363 187.407C493.058 180.161 488.689 175.412 480.863 174.438C479.953 174.316 478.982 173.89 478.133 173.463C475.524 172.185 475.342 171.21 477.405 169.323C481.712 165.547 486.08 161.711 490.57 158.058C495.424 154.161 498.579 153.978 503.614 157.571C508.832 161.224 513.322 165.791 517.63 170.419C519.571 172.55 520.602 175.29 521.33 178.152Z" fill="#F7D006"/>
<path d="M513.774 132.764C515.598 129.528 515.535 129.528 520 130.763C516.353 137.941 514.466 140.176 509.687 143C508.366 141.823 509.246 140.647 509.875 139.588C511.133 137.294 512.517 135.058 513.774 132.764Z" fill="#13751E"/>
<path d="M513.96 147.037C514.148 147.773 513.647 148.264 513.083 148.264C509.451 148.571 505.757 148.755 502 149C502.376 146.853 503.816 145.626 504.88 146.117C507.635 147.405 510.14 147.16 512.77 146.055C513.396 145.81 513.772 146.424 513.96 147.037Z" fill="#13751E"/>
<path d="M505.748 127.717C510.768 128.732 510.768 128.911 508.697 133.212C506.94 136.975 505.623 141.037 502.109 143.905C500.917 144.86 499.725 146.652 498.157 145.756C496.275 144.741 497.153 142.65 497.592 141.157C498.282 139.006 499.349 136.975 500.29 134.885C500.792 133.869 501.356 132.854 501.796 131.779C502.235 130.703 502.486 129.389 501.294 128.673C501.043 128.553 500.855 128.493 500.604 128.434L500.729 127C502.486 127.179 504.117 127.418 505.748 127.717Z" fill="#13751E"/>
<path d="M501 127.16L500.88 128.619C499.921 128.498 499.201 129.288 498.721 130.139C497.642 132.145 496.743 134.273 495.663 136.34C493.625 140.352 491.466 144.304 487.148 148.437C488.648 143.696 489.787 140.291 490.806 136.826C491.166 135.55 491.706 133.908 490.147 133.24C488.168 132.449 487.568 134.395 487.089 135.732C485.889 139.197 484.75 142.662 483.791 146.188C482.771 149.896 481.272 153.362 479.173 156.583C476.835 155.489 477.914 154.091 478.274 152.997C479.773 148.437 481.212 143.817 482.112 139.075C482.351 137.738 482.831 136.401 482.351 135.063C481.752 133.422 480.613 133.118 479.293 134.151C478.034 135.185 477.614 136.705 477.075 138.164C474.796 144.121 473.117 150.2 472.158 156.523C471.558 160.778 471.498 160.778 468.56 164C467.301 162.48 468.5 161.143 468.92 159.805C471.438 152.085 473.537 144.304 473.777 136.158C473.837 134.516 474.017 133.239 475.755 132.449C483.85 128.559 492.185 126.37 501 127.16Z" fill="#13751E"/>
<path d="M497.06 191.181C497 191.181 497 191.181 497 191.181C497 191.121 497 191.06 497 191C497 191.06 497.06 191.121 497.06 191.121V191.181Z" fill="#F7D006"/>
<path d="M493.365 146.981C494.21 148.006 494.993 149.031 496.079 150.359C488.3 154.521 482.691 161.397 475.154 165.68C478.47 163.629 480.279 160.251 482.149 157.054C483.475 154.762 484.501 152.47 487.576 151.806C490.049 151.263 490.953 148.308 493.365 146.981Z" fill="#13751E"/>
<path d="M492.4 189.326C493.003 191.678 491.857 192.583 489.505 191.799C487.696 191.196 486.008 190.412 484.923 188.662C482.39 184.621 479.736 180.7 476.239 177.382C476.54 177.141 476.782 176.84 477.023 176.598C479.013 177.201 481.003 177.865 482.993 178.287C489.083 179.494 491.073 184.199 492.4 189.326Z" fill="#13751E"/>
<path d="M482.45 210.378C482.932 212.971 482.872 215.686 482.993 217.375C482.691 222.321 482.872 226.363 481.364 230.163C480.701 231.791 479.978 233.36 477.987 233.661C475.756 233.963 474.429 232.576 473.344 230.947C471.957 228.836 471.294 226.483 470.63 224.07C469.002 218.159 468.701 212.006 466.65 206.216C466.108 204.707 466.53 203.199 466.952 201.752C468.158 198.133 470.57 196.986 474.007 198.736C478.832 201.149 481.485 205.25 482.45 210.378ZM478.53 229.137C479.797 225.699 479.977 222.08 480.038 218.4C479.797 215.927 479.796 213.454 479.374 211.041C478.771 207.784 477.204 204.949 474.49 202.898C471.837 200.907 470.329 201.51 469.967 204.768C469.847 205.914 469.726 207.06 469.967 208.206C471.113 213.997 472.319 219.788 473.646 225.518C474.007 226.966 474.731 228.413 475.575 229.62C476.661 231.128 477.927 230.826 478.53 229.137Z" fill="black"/>
<path d="M479.797 355.57C481.787 367.151 482.209 378.793 478.832 390.254C478.048 392.788 477.083 395.261 478.35 398.036C479.073 399.664 478.229 401.474 477.747 403.102C474.852 413.719 470.088 423.31 463.515 432.298C454.47 444.663 444.459 455.581 431.132 463.483C426.248 466.379 421.906 470.36 417.564 474.1C404.056 485.862 388.98 495.152 373.362 503.898C362.809 509.81 351.834 513.67 340.074 515.842C332.356 517.229 324.456 517.229 316.677 518.134C305.28 519.461 293.882 520.728 282.304 520.486C276.937 520.366 271.691 519.944 266.746 517.289C264.454 516.023 261.801 515.299 259.208 514.575C255.167 513.369 252.635 510.775 251.489 506.794C250.946 504.984 250.464 503.114 250.162 501.244C248.594 491.653 249.559 482.122 252.213 472.833C253.961 466.68 256.434 460.89 262.102 457.15C262.886 456.667 263.791 455.883 262.766 454.858C262.163 454.254 261.379 454.556 260.655 454.978C256.796 457.451 254.142 460.89 252.333 464.991C247.026 476.814 245.7 489.24 247.449 502.028C247.75 504.079 248.233 506.13 248.655 508.121C247.328 508.844 246.725 507.94 246.243 507.276C239.066 497.323 228.453 493.583 217.176 491.593C208.855 490.145 200.834 487.612 192.754 485.259C191.849 485.018 190.884 484.716 189.98 483.631C191.909 480.253 195.708 478.503 198.181 475.487C200.774 472.411 203.548 469.455 206.201 466.499C208.915 463.544 211.749 460.648 214.282 457.572C216.694 454.616 220.493 452.686 221.699 448.343C218.986 448.222 217.96 450.032 216.754 451.359C210.724 457.813 204.874 464.388 198.844 470.782C196.251 473.557 193.538 476.332 190.643 478.805C187.688 481.399 186.482 481.58 183.708 478.805C177.798 472.773 172.492 466.137 172.25 457.029C172.13 452.626 172.13 448.222 172.13 443.819C172.13 439.898 170.803 436.46 168.934 433.021C164.17 424.335 158.381 416.614 150.119 410.944C149.275 410.341 148.672 409.376 147.948 408.531C159.346 411.427 171.165 412.452 182.321 416.614C192.151 420.294 202.462 421.319 212.834 421.078C220.312 420.957 225.619 423.792 229.237 430.307C232.132 435.495 235.448 440.441 234.604 446.835C234.303 448.886 235.69 449.791 237.499 449.067C248.775 444.663 260.534 446.413 272.173 446.051C277.178 445.87 282.123 445.629 286.827 443.698C289.842 442.432 289.962 441.587 287.188 439.355C286.163 438.511 285.802 437.546 285.44 436.52C283.389 430.367 281.158 424.215 279.349 418.002C276.997 409.738 277.058 401.172 279.409 393.029C282.183 383.378 287.792 375.838 298.405 373.606C301.601 372.942 304.737 372.098 307.993 371.736C319.993 370.348 331.692 367.574 343.813 366.729C354.487 365.945 364.919 363.17 375.111 359.672C383.433 356.776 391.875 354.243 400.74 353.519C401.523 353.459 402.247 353.338 402.971 353.157C403.755 352.976 404.418 352.433 404.237 351.589C404.117 351.166 403.574 350.684 403.091 350.503C401.644 349.839 400.076 350.262 398.569 350.443C391.875 351.046 385.362 352.614 379.03 354.906C364.196 360.275 348.879 363.291 333.14 364.738C324.215 365.523 315.35 367.453 306.486 368.961C302.325 369.685 298.224 370.228 294.003 370.529C282.666 371.374 272.897 367.815 264.273 360.697C258.906 356.294 254.625 350.865 250.343 345.496C248.233 342.842 247.087 339.886 248.172 336.388C248.775 334.458 248.655 333.01 246.363 332.346C244.373 331.743 244.072 329.813 243.77 328.184C241.78 317.447 240.936 306.529 241.479 295.611C241.72 290.966 243.951 286.804 246.665 283.004C249.68 278.782 253.298 275.102 257.278 271.724C262.947 266.898 269.158 262.676 275.369 258.514C277.058 257.428 279.289 256.704 279.53 254.171C278.203 252.844 276.937 253.749 275.851 254.412C266.082 260.504 256.675 267.019 248.655 275.404C240.634 283.728 236.835 293.379 238.222 305.202C239.308 314.31 238.705 323.6 241.84 332.407C242.685 334.819 240.755 335.845 239.247 336.991C231.589 342.721 225.739 349.9 221.277 358.344C219.046 362.567 216.815 366.85 216.091 371.615C215.729 373.968 214.583 374.752 212.412 375.114C207.106 376.079 201.739 376.26 196.372 376.079C184.251 375.657 172.311 373.726 160.913 369.625C147.888 364.919 150.963 362.808 155.727 354.605C159.828 347.487 166.22 343.083 172.974 338.982C174.361 338.137 175.748 338.077 177.376 338.258C181.597 338.801 185.577 340.067 189.497 341.756C195.829 344.471 202.161 347.246 208.553 349.839C210.181 350.503 211.93 351.89 213.92 350.503C213.679 348.271 211.749 348.03 210.242 347.366C201.92 343.868 193.658 340.369 185.276 337.112C182.2 335.905 180.21 333.734 178.823 331.019C176.773 326.917 175.024 322.635 173.818 318.231C169.718 303.03 174.482 290.544 186 280.591C198.362 269.914 211.93 260.987 227.006 254.472C229.116 253.568 231.287 252.783 233.277 251.698C248.956 243.072 265.841 238.608 283.45 236.436C286.887 236.014 290.204 235.23 293.641 234.687C300.817 233.42 307.933 232.998 315.29 233.722C323.913 234.567 332.717 234.989 341.28 231.551C348.095 228.776 355.452 228.534 362.809 228.776C364.919 228.836 367.03 229.319 369.08 229.077C384.458 227.449 398.448 232.697 412.619 237.462C421.604 240.478 428.117 247.174 435.595 252.421C448.982 261.952 452.54 275.826 452.661 291.208C452.661 294.767 451.756 297.964 449.465 300.799C446.811 304.116 444.821 307.856 443.796 311.958C442.469 317.206 439.695 321.428 435.112 324.324C433.967 325.047 432.941 325.771 432.64 327.279C432.218 329.511 433.424 331.08 435.354 330.175C439.635 328.124 443.615 329.692 447.656 330.657C451.937 331.743 455.917 333.673 459.535 336.267C463.274 338.921 467.073 341.575 471.113 343.687C476.119 345.979 478.832 350.201 479.797 355.57ZM449.646 385.549C454.229 380.482 452.178 373.304 445.605 371.494C443.193 370.831 440.721 370.71 438.188 370.891C432.399 371.193 426.791 372.58 421.605 375.053C411.051 380.06 400.137 382.895 388.438 382.774C387.533 382.774 386.508 383.076 385.724 383.559C381.623 386.032 377.824 388.987 374.628 392.607C372.095 395.502 372.397 397.915 375.714 399.604C382.769 403.283 390.126 405.817 398.327 404.309C402.85 403.464 407.313 402.379 411.956 402.801C418.77 403.645 424.801 401.534 430.59 398.277C435.957 395.261 441.082 392.003 446.148 388.505C447.414 387.66 448.681 386.695 449.646 385.549ZM422.69 278.118C422.81 275.766 421.122 274.74 419.313 273.956C416.358 272.629 413.222 271.664 409.966 271.302C400.076 270.216 390.186 269.191 380.357 268.165C379.211 268.044 378.065 268.165 376.859 268.165C367.754 267.924 359.613 271.061 352.135 276.007C346.044 279.988 343.994 286.201 345.984 292.474C347.733 297.964 352.979 301.402 359.854 301.703C364.558 301.945 368.96 300.557 373.241 298.989C381.201 296.033 389.222 293.741 397.785 293.741C400.981 293.741 403.815 292.595 406.167 290.484C410.147 286.865 414.067 283.306 419.494 281.918C421.182 281.436 422.569 280.048 422.69 278.118ZM404.358 450.032C405.564 449.911 407.132 450.153 407.976 447.86C404.478 446.775 401.282 447.438 398.086 447.74C372.94 449.911 347.733 451.359 322.526 449.368C313.42 448.645 304.134 448.222 296.053 443.035C295.209 442.492 294.123 442.009 293.52 443.035C292.676 444.362 293.882 445.086 294.907 445.629C299.973 448.464 305.46 450.092 311.189 450.876C342.245 454.978 373.302 452.807 404.358 450.032ZM314.566 423.43C316.134 419.872 316.616 416.071 316.858 412.211C316.496 404.068 312.878 397.131 308.596 390.495C306.184 386.816 302.686 388.083 299.249 388.565C295.932 388.987 296.355 391.642 295.872 393.753C294.606 398.88 295.932 403.585 298.043 408.23C299.611 411.728 301.48 415.106 302.144 418.906C302.445 420.957 302.686 423.069 303.229 425.12C304.194 428.98 307.209 430.186 310.707 428.196C312.516 427.11 313.662 425.361 314.566 423.43ZM288.636 492.558C288.756 488.456 286.766 485.259 284.234 482.243C281.942 479.529 278.987 477.176 278.625 473.195C278.505 472.23 277.721 471.506 276.635 471.506C275.369 471.506 274.404 472.23 273.982 473.376C272.535 477.116 271.027 480.856 270.665 484.897C270.183 490.205 271.148 491.714 276.274 493.161C277.962 493.644 279.53 493.945 280.435 495.755C281.52 497.866 283.329 498.831 285.681 498.108C288.455 497.323 288.576 494.85 288.636 492.558ZM287.309 323.6C287.49 319.92 286.465 316.301 285.198 312.682C283.269 307.313 281.46 301.884 279.59 296.516C279.289 295.611 279.048 294.646 278.686 293.801C276.997 290.242 274.284 289.338 271.449 291.992C268.314 294.947 263.851 297.541 266.022 303.332C266.505 304.539 265.54 306.288 265.298 307.796C264.394 313.406 264.454 318.895 267.53 323.841C270.062 327.883 272.716 331.803 275.671 335.543C278.927 339.645 282.545 339.042 285.018 334.277C286.706 331.08 287.309 327.521 287.309 323.6Z" fill="#F7D006"/>
<path d="M480.038 218.4C479.917 222.019 479.736 225.699 478.53 229.137C477.927 230.826 476.661 231.128 475.576 229.56C474.731 228.353 473.947 226.905 473.646 225.458C472.319 219.727 471.113 213.936 469.967 208.146C469.726 207.06 469.847 205.854 469.967 204.707C470.329 201.45 471.837 200.787 474.49 202.838C477.204 204.888 478.772 207.724 479.375 210.981C479.797 213.454 479.857 215.987 480.038 218.4Z" fill="#FFF0A3"/>
<path d="M474.068 166.344C474.43 166.163 474.792 165.922 475.153 165.741C474.792 165.982 474.43 166.163 474.068 166.344Z" fill="#F7D006"/>
<path d="M466.711 167.55C467.797 167.851 468.942 167.067 470.45 168.093C469.184 172.918 469.184 172.918 465.203 171.531C464.299 171.229 463.455 170.867 462.55 170.505C461.646 170.143 460.621 169.721 460.801 168.635C460.982 167.248 462.249 167.007 463.394 167.007C464.54 167.067 465.686 167.308 466.711 167.55Z" fill="#13751E"/>
<path d="M467.917 136.365C468.158 136.485 468.339 136.968 468.339 137.27C468.339 137.813 468.158 138.356 467.374 138.235C466.832 137.994 466.53 137.571 466.651 136.968C466.892 136.365 467.435 136.123 467.917 136.365Z" fill="#13751E"/>
<path d="M461.887 139.32C463.937 142.517 461.887 145.292 461.646 148.006C461.344 151.203 460.741 154.46 460.379 157.657C460.017 160.613 460.198 163.75 457.364 167.067C455.555 163.147 456.218 160.01 456.761 156.873C457.304 154.038 457.847 151.263 458.269 148.428C458.389 147.765 458.148 146.86 457.123 146.739C456.218 146.619 455.615 147.222 455.434 147.885C454.892 149.695 454.47 151.565 453.987 153.375C453.625 154.641 453.264 155.968 452.721 157.175C452.299 158.08 451.515 158.683 450.429 158.502C449.283 158.321 449.103 157.356 449.042 156.33C448.922 153.314 450.067 150.721 451.877 148.428C454.711 145.05 457.907 142.095 461.887 139.32Z" fill="#13751E"/>
<path d="M454.711 138.596C454.892 140.707 453.505 141.31 452.6 142.155C448.982 145.774 446.027 149.635 445.484 154.943C445.243 157.296 443.917 158.442 441.806 158.623C432.399 159.467 424.318 163.81 416.237 168.214C414.488 169.118 412.921 169.902 412.197 171.953C411.654 173.642 409.966 174.547 408.699 175.633C402.85 180.881 397.362 186.43 392.417 192.583C385.844 200.787 381.141 209.835 378.608 220.029C377.281 225.458 377.161 225.458 371.372 225.458C368.115 225.458 364.859 225.458 361.603 225.337C354.246 225.096 347.069 225.94 340.135 228.233C335.672 229.68 331.029 228.896 326.506 229.741C324.034 230.223 323.611 228.353 323.853 226.483C324.395 221.718 325.3 217.013 326.988 212.489C331.27 201.028 336.094 189.748 342.306 179.132C343.089 177.805 343.934 176.538 344.778 175.271C354.728 160.251 368.779 154.641 386.387 157.235C391.694 158.019 396.759 158.623 402.247 157.416C406.83 156.391 411.654 158.14 416.117 160.131C417.323 160.673 418.468 161.397 419.675 161.94C420.579 162.362 421.604 162.543 422.087 161.397C422.448 160.613 421.845 159.889 421.242 159.407C418.468 157.235 415.272 155.968 411.895 155.184C409.544 154.641 407.131 154.098 404.478 153.495C405.322 150.54 407.433 149.152 409.423 147.825C419.554 141.13 430.589 137.209 442.891 137.872C446.932 138.234 450.851 138.415 454.711 138.596Z" fill="#F7D006"/>
<path d="M453.505 165.378C453.565 166.705 452.962 167.67 451.455 167.429C442.892 166.042 434.328 166.886 425.765 167.851C425.705 167.851 425.584 167.61 425.223 167.127C428.6 166.102 431.132 162 435.293 165.499C435.655 165.8 436.56 165.921 436.921 165.68C440.178 163.327 444.942 165.74 447.897 162.121C448.922 160.854 450.791 161.337 452.238 161.88C453.867 162.483 453.445 164.111 453.505 165.378Z" fill="#13751E"/>
<path d="M445.605 371.555C452.178 373.364 454.228 380.482 449.645 385.61C448.62 386.756 447.354 387.66 446.148 388.565C441.143 392.064 435.956 395.382 430.589 398.337C424.8 401.595 418.71 403.706 411.956 402.861C407.312 402.499 402.85 403.585 398.327 404.369C390.126 405.877 382.769 403.344 375.713 399.664C372.397 397.915 372.095 395.562 374.628 392.667C377.824 389.048 381.623 386.092 385.724 383.619C386.508 383.136 387.533 382.835 388.437 382.835C400.136 382.955 411.112 380.12 421.604 375.114C426.79 372.641 432.399 371.253 438.188 370.952C440.72 370.771 443.193 370.891 445.605 371.555ZM443.736 386.152C446.449 384.343 449.404 382.292 448.258 378.371C447.113 374.33 443.313 374.692 440.178 374.571C433.363 374.39 426.971 376.441 420.881 379.336C414.066 382.594 407.011 384.584 399.533 385.549C393.322 386.394 386.93 387.238 382.166 392.064C381.141 393.089 379.814 393.089 378.427 393.029C377.221 392.969 376.377 393.994 375.955 395.14C375.472 396.588 376.618 397.251 377.583 397.734C382.648 400.087 387.895 401.836 393.985 402.017C395.975 401.715 398.448 401.474 400.86 400.931C404.056 400.207 407.312 399.725 410.508 399.966C417.926 400.569 424.438 398.337 430.589 394.537C435.112 391.762 439.454 388.988 443.736 386.152Z" fill="black"/>
<path d="M448.319 378.371C449.464 382.291 446.51 384.282 443.796 386.152C439.514 388.987 435.173 391.762 430.77 394.536C424.62 398.337 418.046 400.569 410.689 399.965C407.433 399.724 404.237 400.207 401.041 400.93C398.629 401.473 396.156 401.715 394.166 402.016C388.015 401.835 382.769 400.146 377.764 397.734C376.739 397.251 375.593 396.648 376.136 395.14C376.558 393.994 377.402 393.028 378.608 393.028C379.995 393.089 381.322 393.149 382.347 392.063C387.111 387.177 393.503 386.393 399.714 385.549C407.192 384.523 414.247 382.533 421.062 379.336C427.152 376.44 433.544 374.389 440.359 374.57C443.374 374.691 447.113 374.329 448.319 378.371Z" fill="#FFF0A3"/>
<path d="M423.293 194.091C426.127 195.659 428.238 197.71 428.358 201.812C427.333 207.543 424.8 213.333 420.157 217.797C417.323 220.512 410.629 216.53 409.966 211.946C409.725 210.257 410.026 208.508 410.508 206.819C411.654 202.958 413.222 199.279 415.453 195.901C418.167 191.739 418.83 191.618 423.293 194.091ZM424.619 200.968C424.619 198.253 422.147 197.348 419.976 196.685C417.624 195.961 417.021 198.012 416.298 199.399C414.428 202.717 413.041 206.216 412.559 209.352C412.318 211.946 413.101 213.333 414.73 214.299C415.936 214.962 417.323 215.807 418.408 214.6C421.785 210.679 424.559 206.336 424.619 200.968Z" fill="black"/>
<path d="M419.976 196.624C422.207 197.288 424.68 198.253 424.619 200.907C424.559 206.276 421.785 210.619 418.348 214.54C417.323 215.746 415.875 214.902 414.669 214.238C413.041 213.273 412.257 211.886 412.498 209.292C412.981 206.155 414.368 202.656 416.237 199.339C417.021 197.951 417.624 195.901 419.976 196.624Z" fill="#FFF0A3"/>
<path d="M419.313 273.955C421.061 274.739 422.81 275.765 422.69 278.117C422.569 280.108 421.182 281.435 419.554 281.857C414.066 283.184 410.147 286.743 406.227 290.423C403.935 292.534 401.041 293.68 397.845 293.68C389.282 293.68 381.261 296.032 373.301 298.928C369.02 300.556 364.618 301.884 359.914 301.642C353.039 301.341 347.793 297.902 346.044 292.413C344.054 286.14 346.104 279.927 352.195 275.946C359.673 271.06 367.814 267.863 376.919 268.104C378.126 268.104 379.271 267.983 380.417 268.104C390.307 269.129 400.196 270.155 410.026 271.241C413.222 271.663 416.358 272.628 419.313 273.955ZM415.574 279.625C416.539 279.324 417.926 279.324 417.865 277.514C415.272 275.946 412.257 275.282 409.242 274.981C399.594 273.895 389.885 272.809 380.236 271.904C374.266 271.301 368.959 273.231 364.376 277.152C363.653 277.755 362.929 278.419 362.206 279.022C361.482 279.686 360.577 280.168 359.612 279.686C358.467 279.082 359.009 278.057 359.251 277.152C359.371 276.67 359.492 276.127 359.733 275.041C355.632 276.428 352.738 278.238 350.507 280.952C345.501 287.165 347.974 295.49 355.512 298.083C358.467 299.109 361.542 299.229 364.557 298.445C367.874 297.54 371.191 296.515 374.387 295.369C381.442 292.835 388.498 290.664 396.096 290.785C400.197 290.845 403.393 288.975 406.167 286.08C408.88 283.244 411.835 280.832 415.574 279.625Z" fill="black"/>
<path d="M417.866 277.515C417.926 279.325 416.539 279.325 415.574 279.626C411.835 280.833 408.88 283.245 406.227 286.02C403.453 288.916 400.197 290.786 396.156 290.725C388.558 290.605 381.442 292.836 374.447 295.31C371.191 296.456 367.935 297.481 364.618 298.386C361.603 299.17 358.587 299.049 355.572 298.024C348.034 295.491 345.562 287.106 350.567 280.893C352.798 278.179 355.693 276.369 359.794 274.982C359.552 276.067 359.492 276.61 359.311 277.093C359.07 277.998 358.527 279.023 359.673 279.626C360.638 280.169 361.482 279.626 362.266 278.963C362.99 278.359 363.713 277.696 364.437 277.093C369.02 273.112 374.266 271.242 380.297 271.845C390.006 272.81 399.654 273.896 409.302 274.921C412.318 275.283 415.272 276.007 417.866 277.515Z" fill="#FFF0A3"/>
<path d="M407.976 447.861C407.131 450.153 405.563 449.912 404.357 450.032C373.301 452.807 342.245 454.978 311.128 450.816C305.4 450.032 299.912 448.464 294.846 445.568C293.882 445.026 292.676 444.302 293.46 442.975C294.063 442.009 295.148 442.492 295.992 442.975C304.073 448.162 313.36 448.584 322.465 449.308C347.733 451.299 372.879 449.791 398.025 447.68C401.222 447.438 404.478 446.775 407.976 447.861Z" fill="black"/>
<path d="M316.797 412.21C316.556 416.07 316.134 419.871 314.506 423.43C313.662 425.36 312.455 427.109 310.526 428.195C307.028 430.185 304.013 428.979 303.048 425.119C302.505 423.068 302.325 420.956 301.963 418.906C301.36 415.045 299.49 411.667 297.862 408.229C295.751 403.644 294.365 398.879 295.691 393.752C296.234 391.641 295.751 389.047 299.068 388.564C302.505 388.082 306.003 386.815 308.415 390.495C312.878 397.13 316.436 404.067 316.797 412.21ZM313.481 412.874C313.843 405.394 310.224 399.241 306.485 393.209C304.797 390.495 302.988 390.676 301.119 393.269C298.043 397.552 297.621 402.016 300.154 406.721C302.807 411.667 304.857 416.734 305.46 422.344C305.581 423.792 305.521 425.662 307.571 425.842C309.32 426.023 310.345 424.696 311.129 423.309C312.938 420.112 313.541 416.553 313.481 412.874Z" fill="black"/>
<path d="M306.485 393.21C310.164 399.242 313.842 405.395 313.48 412.874C313.541 416.554 312.938 420.113 311.068 423.37C310.284 424.697 309.259 426.024 307.51 425.904C305.46 425.723 305.52 423.853 305.4 422.405C304.857 416.795 302.746 411.668 300.093 406.782C297.56 402.077 298.043 397.613 301.058 393.33C302.988 390.616 304.857 390.495 306.485 393.21Z" fill="#FFF0A3"/>
<path d="M309.38 193.186C311.37 203.742 312.576 214.358 312.214 225.156C312.154 227.207 312.094 229.077 309.32 229.016C298.103 228.896 287.369 232.093 276.394 233.601C262.826 235.471 249.801 238.909 237.619 245.424C234.061 247.293 230.323 248.801 226.644 250.37C210.845 257.126 196.613 266.475 183.708 277.755C173.336 286.804 167.788 298.204 169.718 312.44C170.441 317.808 172.07 322.875 174.301 327.822C176.351 332.527 176.411 332.647 172.19 335.301C163.808 340.489 156.15 346.461 151.567 355.509C150.541 357.499 149.516 359.43 148.37 361.601C144.089 358.404 142.461 354.121 141.496 349.658C140.109 343.324 138.541 336.99 136.732 330.717C135.586 326.675 133.174 324.142 129.254 322.755C124.49 321.066 119.726 319.92 114.661 319.98C105.133 320.101 98.9217 325.167 97.8966 334.638C96.1478 350.804 98.4997 366.005 110.741 378.189C111.284 378.732 111.766 379.335 112.309 379.878C122.741 389.409 132.149 400.146 145.295 406.359C146.199 406.781 146.923 407.565 147.767 408.229C146.079 407.746 145.174 408.832 144.39 410.099C142.219 413.718 139.084 414.502 135.043 414.02C120.631 412.331 108.751 406.178 100.429 394.054C91.4441 380.964 82.4589 367.874 74.4385 354.121C67.6243 342.419 60.4482 330.777 56.7094 317.507C54.5385 309.786 52.6691 301.944 50.6187 294.163C48.9302 287.648 48.3272 281.013 48.086 274.257C47.7845 264.545 48.0258 254.713 46.0358 245.122C44.9503 239.814 44.6488 234.506 45.0107 229.137C45.8549 216.349 47.5434 203.621 49.5334 190.954C50.8601 182.75 54.7194 175.934 60.8703 170.204C67.2624 164.232 75.3431 161.819 82.9414 158.26C94.0372 152.952 105.495 155.606 116.832 155.968C106.098 158.562 96.1477 163.025 86.4992 168.092C81.7352 170.566 77.9362 173.944 76.308 179.191C76.0065 180.096 75.3431 181.423 77.4537 182.027C79.2628 174.969 84.4489 171.35 90.5998 168.635C94.9417 166.705 99.2232 164.534 103.746 162.905C111.766 160.009 119.968 158.501 128.531 159.286C134.802 159.828 141.134 160.311 147.345 161.457C148.25 161.638 149.396 161.759 149.697 160.552C149.999 159.346 149.034 158.863 148.129 158.562C143.365 156.993 138.36 156.752 133.415 156.39C130.822 156.209 128.169 156.692 125.636 155.787C126.058 152.53 128.109 150.901 130.34 149.333C137.817 143.904 146.32 141.25 155.245 139.621C156.511 139.38 159.949 140.104 160.974 138.777C160.19 146.498 157.476 153.615 154.642 160.794C153.134 164.594 150.843 167.55 147.285 169.239C141.737 171.832 138.42 176.417 135.707 181.544C131.908 188.782 129.797 196.383 129.495 204.586C128.953 219.365 130.159 234.023 130.641 248.801C130.702 249.827 130.581 251.154 132.269 251.275C133.898 250.249 133.475 248.56 133.415 247.173C133.355 241.804 133.415 236.436 132.933 231.128C132.209 222.502 132.209 213.936 132.39 205.31C132.571 197.107 134.561 189.325 138.722 182.268C142.702 175.572 147.707 170.083 156.753 171.35C157.898 171.531 159.044 171.35 160.19 171.35C169.416 171.108 178.522 171.289 187.507 173.944C192.512 175.391 197.699 175.512 202.824 174.245C204.452 173.823 206.262 173.28 207.89 174.185C221.639 181.846 233.338 191.316 237.559 207.422C238.705 211.885 239.609 216.349 240.152 220.933C240.393 222.683 240.333 224.673 243.227 226.302C243.65 219.606 242.142 213.996 240.876 208.326C237.197 192.281 226.463 181.785 212.654 173.702C213.679 172.556 214.101 171.893 214.704 171.47C220.192 168.032 226.825 166.946 232.011 162.845C232.373 162.543 233.157 162.724 233.7 162.664C238.222 162 242.805 161.397 247.328 160.673C254.203 159.527 260.474 160.733 266.625 164.292C278.565 171.229 289.058 179.614 296.716 191.256C297.561 192.583 298.284 194.453 301.179 194.03C300.395 189.024 296.355 185.947 294.123 182.027C299.732 183.414 301.963 181.363 300.817 175.813C299.973 171.893 297.681 168.997 294.123 167.127C291.349 165.68 290.746 166.162 289.963 169.118C288.998 172.797 291.35 175.632 291.953 178.95C285.319 173.521 278.625 168.153 271.389 163.387C262.404 157.476 253.117 156.149 242.926 158.26C234.242 160.07 225.378 158.682 216.634 158.803C214.342 158.803 212.171 157.717 210.181 156.511C207.106 154.641 203.97 152.711 201.015 150.599C200.352 150.117 199.749 149.695 199.146 149.152C199.387 149.152 199.568 149.091 199.749 148.91C200.231 148.549 200.593 148.126 201.015 147.764C211.267 139.199 224.533 134.132 237.8 135.58C243.047 136.183 246.122 139.018 247.931 143.602C248.353 144.688 248.474 145.834 248.775 146.92C249.137 148.187 249.921 148.971 251.308 148.549C259.389 146.317 267.65 147.704 275.851 147.161C278.324 146.98 280.977 146.92 283.148 148.247C292.495 153.857 301.058 160.251 304.254 171.41C306.124 178.588 307.993 185.887 309.38 193.186ZM279.108 195.599C279.229 187.817 275.912 183.354 269.701 181.785C267.65 181.242 265.479 180.941 263.851 182.811C262.344 184.56 262.163 186.973 263.248 188.722C265.359 192.1 265.6 195.9 266.625 199.52C267.228 201.691 267.952 203.923 268.856 205.974C269.64 207.723 270.786 209.472 273.017 209.291C275.007 209.171 275.852 207.482 276.575 205.914C278.264 202.174 278.987 198.253 279.108 195.599ZM179.608 216.952C180.995 212.669 180.391 208.688 177.919 204.948C176.351 202.596 174.783 200.183 173.276 197.71C171.708 195.176 172.793 192.1 171.768 188.722C170.2 189.446 169.235 190.109 168.21 190.351C164.17 191.195 162.542 194.091 161.999 197.65C161.034 204.405 161.456 211.101 165.014 217.073C167.125 220.632 168.753 224.07 168.21 228.353C168.029 229.619 168.15 231.188 169.899 231.55C171.225 231.851 172.07 230.947 172.793 230.042C175.808 226.121 178.1 221.778 179.608 216.952ZM116.349 194.754C116.53 189.748 116.53 185.525 113.636 182.027C111.043 178.89 107.907 177.985 104.53 179.855C100.429 182.087 97.0523 184.862 95.605 189.687C92.7708 198.856 93.9769 207.904 96.8111 216.711C98.5599 222.079 104.952 223.045 108.811 218.822C110.379 217.133 111.405 215.022 112.249 212.911C114.661 206.818 116.168 200.545 116.349 194.754Z" fill="#F7D006"/>
<path d="M300.636 175.694C301.842 181.243 299.55 183.294 293.942 181.907C292.796 181.183 292.012 180.157 291.771 178.83C291.168 175.573 288.816 172.678 289.781 168.998C290.565 166.042 291.168 165.56 293.942 167.007C297.5 168.877 299.792 171.773 300.636 175.694ZM297.922 178.046C298.405 174.849 296.053 171.652 292.254 170.446C292.857 174.487 293.882 177.322 295.45 178.71C295.812 179.072 296.415 179.313 296.957 179.313C297.56 179.253 297.862 178.589 297.922 178.046Z" fill="#F7D006"/>
<path d="M300.998 193.91C298.103 194.332 297.38 192.523 296.535 191.135C288.877 179.493 278.384 171.109 266.444 164.172C260.293 160.613 254.022 159.406 247.147 160.553C242.624 161.276 238.041 161.88 233.518 162.543C232.976 162.603 232.192 162.423 231.83 162.724C226.644 166.826 220.01 167.912 214.523 171.35C213.92 171.712 213.498 172.436 212.473 173.582C226.282 181.665 237.016 192.221 240.695 208.206C241.961 213.816 243.529 219.486 243.046 226.181C240.152 224.553 240.212 222.562 239.971 220.813C239.428 216.229 238.524 211.765 237.378 207.301C233.157 191.135 221.397 181.725 207.709 174.064C206.08 173.16 204.271 173.702 202.643 174.125C197.517 175.391 192.331 175.331 187.326 173.823C178.341 171.229 169.235 170.988 160.009 171.229C158.863 171.29 157.657 171.41 156.571 171.229C147.586 169.902 142.521 175.452 138.541 182.147C134.38 189.205 132.39 196.986 132.209 205.19C132.028 213.816 132.028 222.442 132.752 231.007C133.234 236.315 133.174 241.744 133.234 247.052C133.234 248.5 133.716 250.129 132.088 251.154C130.46 251.034 130.52 249.707 130.46 248.681C129.978 233.963 128.772 219.245 129.314 204.466C129.616 196.262 131.726 188.602 135.526 181.424C138.239 176.296 141.616 171.772 147.104 169.118C150.662 167.429 152.953 164.473 154.461 160.673C157.295 153.495 160.009 146.377 160.793 138.656C161.034 138.355 161.154 137.932 161.034 137.329C161.034 137.208 160.974 137.088 160.913 137.028C160.974 136.243 160.974 135.52 160.974 134.735C161.034 128.583 159.828 122.973 156.27 117.906C153.195 113.442 149.395 112.356 144.33 114.287C138.36 116.579 136.852 115.976 134.561 109.883C133.355 106.686 132.33 103.369 131.365 100.051C127.927 87.9265 137.817 75.983 150.36 77.0688C151.506 77.1895 152.652 77.3101 153.737 77.7926C163.446 81.8944 171.888 87.3836 176.833 97.3365C180.632 105.118 183.225 113.322 185.698 121.525C187.447 127.437 189.618 133.107 191.849 138.837C193.236 142.275 195.105 145.291 197.638 147.765C197.638 148.066 197.759 148.428 198.06 148.669C198.362 148.911 198.663 149.031 198.965 149.031C199.568 149.514 200.171 149.996 200.834 150.479C203.789 152.59 206.925 154.521 210 156.39C211.99 157.597 214.101 158.683 216.453 158.683C225.197 158.562 234.061 159.949 242.745 158.14C252.996 156.029 262.283 157.356 271.208 163.267C278.444 168.032 285.078 173.341 291.771 178.83C292.013 180.157 292.796 181.182 293.942 181.906C296.234 185.887 300.214 188.903 300.998 193.91ZM215.608 164.594C218.744 166.524 220.855 164.292 223.086 162.724C218.081 162.543 213.498 160.734 208.734 159.708C209.156 165.559 209.156 165.559 213.98 164.594C214.463 164.534 215.186 164.353 215.608 164.594ZM203.548 158.441C203.849 158.502 204.693 157.718 204.633 157.476C204.211 155.667 202.583 155.184 200.352 154.098C201.196 156.39 201.678 158.019 203.548 158.441ZM205.899 169.782C202.824 165.559 202.703 165.62 200.05 170.988C201.98 171.048 203.729 170.385 205.899 169.782ZM197.759 165.861C201.316 162.784 201.316 162.784 197.759 160.251C197.759 162.181 196.794 163.991 197.759 165.861ZM194.864 155.546C195.769 153.616 194.623 152.228 192.874 150.539C191.065 155.908 188.532 160.311 188.472 166.766C191.668 162.724 193.236 159.105 194.864 155.546ZM192.874 171.531C195.588 170.566 193.176 168.877 193.477 167.309C191.728 168.153 190.643 169.239 190.944 171.109C190.944 171.35 192.331 171.772 192.874 171.531ZM190.703 147.282C191.487 146.317 190.703 145.472 190.341 144.688C185.517 134.916 182.683 124.481 179.426 114.106C179.125 113.141 178.823 112.115 178.461 111.15C177.617 108.496 177.075 105.6 174.602 103.067C170.682 111.753 167.969 120.319 167.607 129.608C170.381 125.929 171.225 121.404 173.095 117.303C173.878 115.553 174.24 112.356 176.954 113.563C177.497 113.804 177.798 114.166 177.919 114.588C178.22 115.734 177.135 117.423 176.773 118.69C175.567 122.852 173.095 126.592 172.25 131.056C173.999 130.875 175.024 128.522 176.652 130.091C177.798 131.176 177.135 132.624 176.894 133.891C176.773 134.434 176.592 134.977 176.351 135.519C174.059 141.612 171.768 147.704 168.089 153.133C166.521 155.425 165.979 157.898 165.979 160.673C168.813 157.778 170.502 154.279 171.949 150.6C173.456 146.679 175.024 142.758 176.652 138.897C177.195 137.691 177.979 136.545 178.703 135.459C179.185 134.796 179.909 134.554 180.693 134.796C181.537 135.097 181.899 135.881 181.718 136.605C181.416 138.113 180.994 139.561 180.391 140.948C178.703 144.809 176.833 148.609 175.205 152.47C174.059 155.184 172.733 157.959 173.637 161.759C176.411 159.226 177.436 156.39 178.522 153.616C179.668 150.6 180.572 147.463 181.839 144.447C182.502 142.818 182.924 139.983 185.396 141.069C187.628 142.094 186.06 144.447 185.577 146.196C185.155 147.644 184.432 149.031 183.949 150.479C182.864 153.374 181.658 156.149 180.813 159.105C180.15 161.518 179.728 164.111 180.632 167.128C183.165 164.956 184.009 162.664 185.155 160.432C187.326 156.21 187.567 151.143 190.703 147.282ZM175.989 168.093C176.291 167.67 176.532 167.067 176.472 166.585C176.472 165.981 175.929 165.439 175.326 165.861C172.371 167.851 170.381 166.947 169.295 163.689C168.632 163.991 168.21 164.112 167.969 164.353C166.702 165.499 165.557 167.248 163.627 166.283C161.577 165.258 161.818 163.086 162.18 161.156C162.541 159.286 162.964 157.416 163.325 155.546C164.471 149.755 165.617 143.904 166.763 138.113C167.004 136.967 167.366 135.7 165.798 135.339C163.989 134.977 164.109 136.485 164.049 137.57C163.325 145.653 160.672 153.254 157.476 160.613C156.511 162.845 155.727 165.197 155.968 168.334C162.3 168.334 168.572 168.334 174.843 168.334C175.265 168.394 175.808 168.334 175.989 168.093ZM171.406 101.378C173.155 98.6033 172.431 96.7936 170.924 94.7427C170.622 94.3205 170.321 93.8982 170.019 93.5363C165.376 87.5646 159.044 83.8247 152.109 81.2913C147.043 79.4213 142.28 81.2912 139.144 85.393C143.486 87.3233 143.486 87.3233 142.521 91.968C142.219 93.476 141.677 94.9237 141.435 96.4317C141.134 98.4826 139.747 100.533 140.953 103.55C143.908 99.8097 145.234 96.0698 146.682 92.3902C147.526 90.279 148.25 88.0472 148.973 85.9359C149.275 85.1518 149.878 84.5486 150.662 84.6692C151.807 84.8502 152.049 85.8756 151.868 86.8407C151.627 88.1678 151.325 89.4345 150.963 90.7616C149.697 95.4063 148.672 100.051 148.25 104.816C148.129 106.023 147.526 107.591 149.395 108.134C151.144 107.651 151.627 106.083 152.35 104.756C154.34 101.016 155.968 97.1556 157.175 93.1141C157.657 91.6061 157.717 88.9519 159.948 89.6155C162.059 90.2187 160.913 92.5712 160.551 94.1395C159.526 99.2065 158.381 104.213 159.285 109.642C162.059 107.289 162.783 103.911 163.868 100.775C164.531 98.7842 165.135 96.7936 165.918 94.803C166.16 94.1395 166.823 93.5967 167.728 93.7776C167.909 93.8379 168.089 93.8983 168.27 93.9586C168.813 94.3205 168.934 94.9237 168.873 95.4666C168.572 97.3366 168.089 99.2065 167.547 101.016C166.22 105.54 164.531 110.004 164.351 114.89C165.798 114.769 166.099 113.804 166.461 112.96C168.089 109.039 169.235 104.877 171.406 101.378ZM163.868 125.748C164.411 124.3 165.436 123.335 164.411 121.947C164.29 121.766 163.567 121.827 163.325 122.008C161.818 123.274 162.903 124.3 163.868 125.748ZM159.948 117.182C160.612 117.303 160.612 116.579 160.672 116.096C160.551 115.493 160.371 114.95 159.647 115.191C159.345 115.312 158.984 115.795 159.044 115.976C159.225 116.398 159.587 117.122 159.948 117.182ZM155.727 108.013C155.787 107.651 155.607 107.289 155.486 106.988C155.124 107.108 154.642 107.048 154.461 107.289C153.737 108.436 152.23 109.521 153.617 111.09C153.918 111.452 154.762 111.693 155.064 111.512C156.391 110.607 155.546 109.159 155.727 108.013ZM141.013 111.934C143.606 111.633 144.933 109.099 144.993 103.912C142.822 106.023 141.254 108.496 138.179 108.074C138.058 109.763 138.722 110.728 139.445 111.512C139.747 111.874 140.47 111.994 141.013 111.934ZM134.802 96.9143C135.465 94.4411 135.948 92.6919 136.37 91.0029C134.38 92.0887 133.777 93.8982 134.802 96.9143Z" fill="black"/>
<path d="M292.254 170.385C296.053 171.652 298.405 174.788 297.922 177.985C297.862 178.588 297.56 179.192 296.897 179.192C296.415 179.192 295.812 178.95 295.389 178.588C293.942 177.322 292.857 174.426 292.254 170.385Z" fill="#F7D006"/>
<path d="M284.294 482.243C286.826 485.259 288.816 488.456 288.696 492.557C288.575 494.91 288.515 497.323 285.681 498.107C283.329 498.77 281.52 497.866 280.434 495.754C279.53 493.945 277.962 493.643 276.273 493.161C271.148 491.713 270.183 490.205 270.665 484.897C271.027 480.855 272.535 477.115 273.982 473.375C274.404 472.29 275.309 471.505 276.635 471.505C277.721 471.505 278.565 472.229 278.625 473.195C279.047 477.176 281.942 479.528 284.294 482.243ZM284.294 494.91C285.862 488.938 282.063 482.544 275.188 478.985C274.163 481.217 273.499 483.509 273.379 486.043C273.258 488.275 274.102 489.843 276.454 490.024C279.771 490.326 282.304 491.834 284.294 494.91Z" fill="black"/>
<path d="M285.198 312.682C286.464 316.301 287.49 319.92 287.309 323.6C287.309 327.521 286.766 331.079 285.017 334.337C282.545 339.102 278.927 339.645 275.67 335.603C272.715 331.864 270.062 327.882 267.529 323.901C264.394 318.955 264.393 313.405 265.298 307.856C265.539 306.348 266.444 304.659 266.022 303.392C263.911 297.601 268.313 295.008 271.449 292.052C274.283 289.337 276.997 290.242 278.685 293.862C279.108 294.706 279.289 295.671 279.59 296.576C281.399 301.884 283.208 307.313 285.198 312.682ZM282.364 332.467C283.871 329.33 284.535 325.832 284.113 322.393C282.907 312.44 277.721 303.814 275.127 293.741C272.534 295.671 273.68 297.662 272.293 299.109C266.806 304.78 265.72 314.732 269.399 321.911C271.509 326.012 274.404 329.632 277.238 333.191C279.349 335.845 280.917 335.543 282.364 332.467Z" fill="black"/>
<path d="M285.741 374.208C286.344 375.716 285.078 376.32 284.354 377.043C277.962 383.498 275.128 391.4 274.344 400.267C273.5 409.617 275.188 418.544 278.324 427.29C279.47 430.548 280.736 433.745 281.701 437.063C282.847 440.802 282.485 441.285 278.444 441.707C275.429 442.009 272.354 442.069 269.278 442.19C259.751 442.431 250.102 441.466 240.695 443.939C239.489 444.241 238.222 444.301 237.921 442.853C236.534 435.977 232.674 430.307 228.634 423.852C234.604 424.214 239.85 424.757 245.157 424.516C247.81 424.395 250.102 423.732 251.127 421.017C251.308 420.595 251.127 419.871 250.886 419.449C250.584 418.906 249.861 418.906 249.439 419.328C244.795 423.43 239.247 421.741 234.061 421.319C230.021 420.957 225.498 421.258 222.664 417.096C222.061 416.192 220.915 416.131 220.192 417.036C218.744 418.906 216.754 418.484 214.945 418.423C203.005 418.122 191.246 417.036 180.03 412.572C174.12 410.22 167.909 408.953 161.697 407.928C151.205 406.178 142.099 401.473 134.018 394.838C128.108 389.952 122.621 384.583 117.013 379.396C115.626 378.069 114.299 376.681 113.033 375.234C106.339 367.573 101.213 359.249 101.454 348.512C101.515 344.712 101.032 340.851 101.213 337.051C101.635 327.882 107.002 323.177 116.168 323.66C118.098 323.78 119.967 324.142 121.837 324.444C128.35 325.53 132.752 328.304 134.32 335.663C135.104 339.524 135.827 343.445 136.732 347.305L135.405 347.607C135.285 346.943 134.862 346.4 134.078 346.34C133.174 346.28 132.631 346.883 132.45 347.667C132.089 349.175 131.907 350.683 131.727 352.191C131.003 358.465 129.978 364.678 128.229 370.77C127.867 372.037 127.686 373.424 126.541 374.389C124.792 373.424 125.335 371.735 125.335 370.348C125.455 360.757 126.239 351.226 127.988 341.816C128.41 339.705 130.4 336.146 127.083 335.543C124.792 335.181 125.093 339.041 124.611 341.213C123.345 347.124 122.802 353.277 119.847 359.973C118.701 352.674 119.968 346.581 120.691 340.489C120.872 339.162 121.294 337.895 121.415 336.568C121.535 335.301 122.138 333.492 120.45 333.13C118.279 332.708 118.339 334.879 118.038 336.267C117.495 338.679 117.133 341.153 116.651 343.626C115.927 347.366 114.781 351.045 113.334 354.604C112.852 355.75 112.671 357.258 110.681 357.62C109.053 354.001 110.198 350.563 111.826 347.426C114.058 342.962 113.937 338.197 114.48 333.432C114.601 332.105 114.54 330.536 113.033 329.993C111.525 329.45 110.62 330.777 109.595 331.622C107.967 332.889 107.545 334.759 107.002 336.629C104.952 344.108 106.279 351.467 107.907 358.766C108.691 362.325 111.163 362.627 113.696 359.912C114.48 359.128 114.6 357.741 115.927 357.319C117.133 358.344 116.47 359.731 116.651 360.938C117.254 365.221 117.495 365.401 122.5 364.979C122.5 367.875 122.44 370.71 122.561 373.545C122.621 375.053 122.802 376.621 123.344 378.008C124.309 380.723 125.998 380.964 128.048 378.974C128.832 378.25 128.832 376.742 130.46 376.5C130.882 379.517 131.244 382.533 131.727 385.488C131.968 387.057 132.571 388.625 134.38 388.806C136.249 389.047 137.094 387.599 137.697 386.152C138.541 384.041 139.265 381.869 140.893 379.698C140.893 381.809 140.772 383.98 140.953 386.091C141.134 388.565 141.496 391.038 141.918 393.451C142.219 395.2 142.762 397.07 144.752 397.371C147.225 397.794 147.888 395.622 148.611 393.873C149.335 392.124 149.878 390.314 150.782 387.599C151.265 390.435 151.566 392.365 151.989 394.295C153.195 400.086 154.099 400.629 159.587 398.88C160.612 399.905 160.371 401.413 160.853 402.619C162.3 406.178 163.024 406.661 166.763 405.454C167.788 405.092 168.21 405.093 169.115 405.816C172.853 409.013 173.276 408.893 175.869 404.912C176.291 404.308 176.592 403.584 177.195 402.619C178.824 404.188 178.522 406.239 179.246 407.867C180.09 409.617 180.814 411.547 183.105 411.607C185.095 411.667 186.06 410.099 186.904 408.531C187.507 407.385 187.99 406.118 188.532 404.912C189.738 405.394 189.919 406.42 190.281 407.264C190.944 408.712 191.789 410.099 193.598 410.039C195.648 409.979 196.432 408.229 197.035 406.601C197.759 404.61 198.301 402.619 198.965 400.267C200.955 402.197 200.653 404.67 201.437 406.721C203.789 412.693 205.719 413.176 210.061 408.531C211.206 408.41 210.965 409.436 211.327 409.978C211.87 410.823 212.292 411.667 213.498 411.185C214.342 410.823 214.523 409.978 214.402 409.255C213.799 405.273 213.618 401.232 213.739 397.251C213.799 395.562 213.377 393.813 215.066 392.184C217.116 396.346 217.116 400.749 217.719 405.032C217.96 406.601 217.176 409.255 219.408 409.315C222.182 409.375 221.217 406.54 221.337 404.851C221.579 401.111 221.578 397.311 221.759 392.727C224.172 394.114 224.353 395.924 224.714 397.432C225.86 401.896 226.885 406.359 227.971 410.823C228.152 411.547 228.634 412.331 229.539 412.271C230.745 412.21 231.046 411.306 231.106 410.28C231.227 408.41 230.383 406.54 231.287 404.127C231.951 407.204 232.493 409.798 233.096 412.331C233.338 413.417 233.82 414.683 235.267 414.503C236.715 414.322 236.775 412.934 236.775 411.788C236.835 408.169 236.775 404.489 236.775 400.87C236.775 396.467 236.775 392.063 236.775 387.599C238.825 387.66 238.343 389.168 238.524 390.073C239.67 396.467 240.695 402.921 241.72 409.315C241.901 410.461 242.021 411.607 242.323 412.693C242.564 413.658 243.227 414.382 244.373 414.201C245.278 414.08 245.639 413.356 245.7 412.572C245.82 410.883 245.881 409.134 245.941 407.385C246.122 401.111 245.7 394.778 246.906 387.72C248.836 390.978 249.137 393.994 249.74 396.829C250.464 399.965 251.429 402.197 255.228 401.534C255.831 401.413 256.494 402.378 257.58 401.896C258.725 400.81 258.183 399.241 257.881 397.854C257.158 394.476 256.434 391.098 255.59 387.78C255.288 386.695 254.685 384.945 253.66 385.247C249.017 386.695 249.499 383.256 249.016 380.723C251.489 379.637 251.609 377.767 250.524 375.596C248.534 371.735 245.338 369.564 240.996 369.081C237.499 368.719 234.122 369.202 230.865 370.529C228.574 371.494 226.342 372.64 224.051 373.545C222.543 374.148 220.975 375.656 219.347 373.967C217.9 372.459 218.684 370.589 219.287 369.081C223.93 356.655 230.986 345.918 242.263 338.378C252.152 356.293 264.816 370.287 285.741 374.208Z" fill="#13751E"/>
<path d="M275.188 478.985C282.063 482.544 285.922 488.938 284.294 494.91C282.304 491.834 279.711 490.265 276.394 490.024C274.103 489.843 273.258 488.275 273.319 486.043C273.439 483.57 274.163 481.277 275.188 478.985Z" fill="#FFF0A3"/>
<path d="M284.113 322.454C284.535 325.892 283.872 329.33 282.364 332.527C280.917 335.603 279.349 335.845 277.299 333.311C274.464 329.692 271.57 326.133 269.459 322.031C265.72 314.853 266.866 304.9 272.354 299.23C273.801 297.782 272.595 295.792 275.188 293.862C277.781 303.875 282.907 312.501 284.113 322.454Z" fill="#FFF0A3"/>
<path d="M269.64 181.725C275.851 183.294 279.228 187.757 279.047 195.539C278.927 198.193 278.203 202.114 276.514 205.793C275.791 207.361 274.947 209.05 272.957 209.171C270.725 209.292 269.58 207.542 268.796 205.854C267.831 203.803 267.167 201.571 266.564 199.399C265.539 195.78 265.298 191.98 263.187 188.602C262.102 186.852 262.223 184.44 263.79 182.69C265.419 180.881 267.59 181.243 269.64 181.725ZM275.67 193.729C275.791 188.119 272.836 185.525 266.384 185.525C267.951 192.281 268.193 199.279 272.052 206.155C275.429 201.993 275.61 197.891 275.67 193.729Z" fill="black"/>
<path d="M266.383 185.586C272.836 185.526 275.791 188.18 275.67 193.79C275.61 197.891 275.429 202.053 272.052 206.276C268.253 199.339 267.951 192.342 266.383 185.586Z" fill="#FFF0A3"/>
<path d="M249.197 380.663C249.197 380.663 249.197 380.723 249.197 380.663C249.197 380.723 249.137 380.723 249.076 380.783C249.076 380.723 249.076 380.723 249.016 380.663C249.137 380.663 249.137 380.663 249.197 380.663Z" fill="#F7D006"/>
<path d="M249.076 380.662C246.182 379.939 244.312 380.904 243.89 384.04C243.528 386.694 243.287 389.349 242.564 392.123C242.081 389.831 241.659 387.479 241.056 385.186C240.513 382.955 239.91 380.783 239.187 378.612C238.825 377.465 238.041 376.621 236.654 376.802C235.568 376.983 235.026 377.827 234.845 378.793C234.483 380.301 234.242 381.809 234.182 383.317C234.121 387.358 234.121 391.339 233.82 395.441C231.95 392.727 231.89 389.53 230.925 386.574C230.503 385.307 230.201 383.98 229.719 382.713C229.357 381.748 228.694 381.024 227.608 381.085C226.463 381.205 226.041 382.17 226.041 383.136C225.98 385.066 226.041 386.936 226.041 388.987C224.171 389.107 223.447 386.574 221.457 387.418C219.95 388.082 220.131 390.133 218.623 390.796C217.176 389.469 217.055 386.272 214.281 386.996C211.869 387.66 212.171 390.314 211.628 392.304C211.266 393.571 211.749 394.958 210.482 396.406C208.492 392.425 206.563 388.625 204.633 384.825C203.487 385.247 203.186 385.85 203.186 386.393L201.979 386.514C201.979 386.212 201.919 385.85 201.859 385.548C201.678 384.282 201.376 382.653 199.567 382.774C198.241 382.894 197.879 384.161 197.698 385.307C197.457 386.634 197.457 387.961 197.276 389.288C196.371 394.476 196.13 399.724 193.718 404.61C191.065 397.13 191.788 389.53 192.09 381.99C192.15 379.878 193.778 379.697 195.406 379.758C201.497 379.878 207.588 379.335 213.678 378.793C218.201 378.431 222.302 377.405 226.342 375.595C229.116 374.329 231.95 373.002 234.845 372.278C242.564 370.106 246.966 372.821 249.076 380.662Z" fill="#13751E"/>
<path d="M223.086 162.785C220.794 164.354 218.684 166.585 215.608 164.655C215.247 164.414 214.523 164.595 213.98 164.715C209.156 165.681 209.156 165.681 208.734 159.829C213.498 160.795 218.081 162.604 223.086 162.785Z" fill="#13751E"/>
<path d="M207.467 396.648C209.457 401.534 209.337 402.137 205.779 407.325C203.065 402.137 202.824 396.588 202.161 391.159C201.98 389.59 202.04 388.022 201.859 386.454L203.065 386.333C203.065 386.816 203.306 387.358 203.487 387.781C204.814 390.736 206.261 393.632 207.467 396.648Z" fill="#13751E"/>
<path d="M204.633 157.416C204.693 157.657 203.849 158.442 203.548 158.381C201.678 157.959 201.196 156.33 200.352 154.038C202.583 155.124 204.211 155.607 204.633 157.416Z" fill="#13751E"/>
<path d="M200.05 170.929C202.703 165.559 202.823 165.559 205.899 169.722C203.728 170.386 201.979 171.049 200.05 170.929Z" fill="#13751E"/>
<path d="M198.964 149.091C198.663 149.091 198.301 148.97 198.06 148.729C197.758 148.488 197.638 148.187 197.638 147.825C198.06 148.307 198.542 148.729 198.964 149.091Z" fill="#F7D006"/>
<path d="M197.758 160.251C201.316 162.784 201.316 162.784 197.758 165.86C196.793 163.991 197.758 162.181 197.758 160.251Z" fill="#13751E"/>
<path d="M192.874 150.6C194.623 152.229 195.768 153.676 194.864 155.607C193.236 159.166 191.668 162.785 188.472 166.826C188.532 160.372 191.065 155.969 192.874 150.6Z" fill="#13751E"/>
<path d="M193.416 167.309C193.175 168.877 195.527 170.567 192.813 171.532C192.271 171.713 190.884 171.351 190.884 171.049C190.643 169.3 191.668 168.153 193.416 167.309Z" fill="#13751E"/>
<path d="M190.341 144.688C190.703 145.473 191.487 146.377 190.703 147.282C187.567 151.082 187.326 156.149 185.155 160.432C184.07 162.604 183.165 164.956 180.632 167.128C179.728 164.112 180.15 161.518 180.813 159.105C181.658 156.149 182.864 153.375 183.949 150.479C184.492 149.032 185.216 147.644 185.577 146.196C186.06 144.447 187.688 142.095 185.396 141.069C182.924 139.983 182.502 142.879 181.839 144.447C180.572 147.463 179.668 150.6 178.522 153.616C177.436 156.391 176.472 159.286 173.637 161.759C172.733 157.959 174.059 155.184 175.205 152.47C176.833 148.609 178.703 144.809 180.391 140.949C180.994 139.561 181.416 138.053 181.718 136.605C181.839 135.882 181.537 135.097 180.693 134.796C179.909 134.494 179.125 134.796 178.703 135.459C177.919 136.545 177.135 137.691 176.652 138.898C175.024 142.758 173.456 146.679 171.949 150.6C170.502 154.279 168.813 157.838 165.979 160.673C165.979 157.899 166.521 155.426 168.089 153.133C171.828 147.704 174.059 141.612 176.351 135.52C176.532 134.977 176.713 134.434 176.894 133.891C177.195 132.624 177.798 131.177 176.652 130.091C175.024 128.583 173.999 130.875 172.25 131.056C173.034 126.592 175.507 122.852 176.773 118.69C177.135 117.424 178.22 115.735 177.919 114.588L179.366 114.106C182.683 124.481 185.517 134.917 190.341 144.688Z" fill="#13751E"/>
<path d="M185.336 378.793C187.024 379.095 188.11 379.879 188.11 381.809C187.989 390.435 187.085 398.82 183.467 406.963C180.753 400.991 180.934 394.718 180.994 388.444C180.994 386.756 181.235 385.006 181.356 383.317C181.416 381.99 181.476 380.301 179.848 380.06C178.1 379.758 177.919 381.447 177.677 382.774C176.954 387.117 176.351 391.461 175.507 395.743C175.024 398.337 174.542 400.991 172.974 403.223C171.044 402.62 171.346 401.052 171.285 399.845C170.984 395.442 171.285 391.099 171.828 386.695C172.069 385.006 172.009 383.257 172.009 381.568C172.009 380.784 171.466 380.06 170.622 379.939C169.476 379.698 168.753 380.482 168.632 381.447C168.15 384.886 167.727 388.264 167.486 391.702C167.245 395.08 167.004 398.458 165.195 401.655C163.446 400.448 163.506 398.88 163.325 397.493C162.722 390.797 163.265 384.162 164.169 377.466C164.471 375.355 165.496 374.993 167.305 375.355C173.336 376.501 179.306 377.647 185.336 378.793Z" fill="#13751E"/>
<path d="M177.918 204.949C180.391 208.689 180.994 212.67 179.607 216.952C178.099 221.718 175.748 226.121 172.732 230.102C172.069 231.007 171.165 231.912 169.838 231.61C168.089 231.248 167.968 229.68 168.149 228.413C168.752 224.131 167.064 220.692 164.953 217.133C161.395 211.162 160.973 204.466 161.938 197.71C162.481 194.151 164.109 191.196 168.149 190.411C169.175 190.17 170.139 189.507 171.707 188.783C172.732 192.161 171.647 195.237 173.215 197.771C174.783 200.183 176.351 202.596 177.918 204.949ZM176.954 214.66C177.436 212.549 177.376 210.438 176.29 208.568C174.903 206.095 173.335 203.682 171.647 201.39C169.838 199.037 170.079 195.72 168.27 193.367C166.702 194.272 166.039 195.418 165.496 196.624C162.42 203.923 163.928 210.8 167.908 217.254C169.416 219.727 170.803 222.14 171.647 225.156C174.361 222.08 176.049 218.581 176.954 214.66Z" fill="black"/>
<path d="M179.426 114.106L177.979 114.589C177.859 114.167 177.557 113.805 177.014 113.563C174.301 112.357 173.999 115.614 173.155 117.303C171.285 121.405 170.381 125.869 167.667 129.609C168.029 120.319 170.743 111.754 174.662 103.068C177.135 105.661 177.678 108.497 178.522 111.151C178.823 112.176 179.125 113.141 179.426 114.106Z" fill="#13751E"/>
<path d="M176.29 208.568C177.316 210.438 177.436 212.549 176.954 214.661C176.049 218.581 174.361 222.08 171.647 225.217C170.803 222.14 169.416 219.728 167.908 217.315C163.988 210.86 162.421 203.984 165.496 196.685C166.039 195.479 166.642 194.333 168.27 193.428C170.139 195.78 169.838 199.098 171.647 201.45C173.336 203.682 174.903 206.095 176.29 208.568Z" fill="#FFF0A3"/>
<path d="M176.471 166.585C176.471 167.128 176.23 167.671 175.989 168.093C175.808 168.334 175.265 168.334 174.903 168.334C168.632 168.334 162.36 168.334 156.028 168.334C155.787 165.198 156.571 162.905 157.536 160.613C160.732 153.194 163.386 145.654 164.109 137.571C164.169 136.545 164.109 134.977 165.858 135.339C167.426 135.701 167.064 136.967 166.823 138.114C165.677 143.904 164.531 149.755 163.385 155.546C163.024 157.416 162.541 159.286 162.24 161.156C161.878 163.086 161.637 165.198 163.687 166.283C165.617 167.248 166.762 165.499 168.029 164.353C168.27 164.112 168.692 163.991 169.356 163.69C170.381 166.947 172.371 167.791 175.386 165.861C175.929 165.439 176.471 165.982 176.471 166.585Z" fill="#13751E"/>
<path d="M170.984 94.7427C172.431 96.8539 173.215 98.6032 171.466 101.378C169.235 104.877 168.149 109.099 166.521 112.96C166.159 113.804 165.858 114.769 164.411 114.89C164.592 110.004 166.28 105.54 167.607 101.016C168.149 99.2064 168.632 97.3365 168.933 95.4666C168.994 94.9237 168.873 94.3205 168.33 93.9585L170.079 93.5363C170.381 93.8982 170.682 94.2601 170.984 94.7427Z" fill="#13751E"/>
<path d="M170.079 93.476L168.33 93.8983C168.21 93.8379 168.029 93.7173 167.788 93.7173C166.883 93.5364 166.22 94.0792 165.978 94.7428C165.195 96.673 164.592 98.7239 163.928 100.715C162.843 103.851 162.119 107.169 159.345 109.582C158.441 104.153 159.586 99.1462 160.612 94.0793C160.913 92.5109 162.119 90.1584 160.008 89.5552C157.777 88.952 157.717 91.6061 157.234 93.0538C156.028 97.0953 154.34 100.956 152.41 104.696C151.687 106.023 151.204 107.591 149.455 108.074C147.586 107.47 148.189 105.902 148.31 104.756C148.792 99.9906 149.817 95.2857 151.023 90.7013C151.385 89.4346 151.687 88.1075 151.928 86.7805C152.109 85.755 151.867 84.7899 150.722 84.6089C149.938 84.4883 149.335 85.0915 149.033 85.8757C148.249 88.0472 147.586 90.2187 146.742 92.3299C145.294 96.0095 143.968 99.7494 141.013 103.489C139.807 100.473 141.194 98.4224 141.495 96.3715C141.676 94.8635 142.279 93.4157 142.581 91.9077C143.546 87.3234 143.546 87.3233 139.204 85.3328C142.34 81.231 147.104 79.361 152.169 81.2309C159.104 83.7644 165.436 87.5043 170.079 93.476Z" fill="#13751E"/>
<path d="M164.411 121.948C165.496 123.336 164.41 124.301 163.868 125.749C162.903 124.301 161.818 123.215 163.325 122.008C163.566 121.827 164.29 121.767 164.411 121.948Z" fill="#13751E"/>
<path d="M160.129 373.304C160.793 373.545 161.577 373.967 161.275 374.932C159.225 381.085 160.069 387.901 157.235 393.933C157.114 394.235 156.692 394.476 156.451 394.718C154.461 391.038 154.039 382.955 155.365 372.278C157.416 371.856 158.682 372.821 160.129 373.304Z" fill="#13751E"/>
<path d="M161.034 137.45C161.154 138.053 161.034 138.475 160.793 138.777C160.853 138.234 160.913 137.691 160.913 137.088C160.974 137.208 160.974 137.329 161.034 137.45Z" fill="#F7D006"/>
<path d="M160.672 116.037C160.612 116.519 160.612 117.303 159.948 117.122C159.587 117.062 159.225 116.338 159.044 115.855C158.984 115.674 159.406 115.192 159.647 115.071C160.431 114.951 160.612 115.494 160.672 116.037Z" fill="#13751E"/>
<path d="M155.486 106.927C155.546 107.289 155.787 107.651 155.727 107.953C155.546 109.159 156.39 110.547 155.064 111.452C154.762 111.633 153.918 111.331 153.616 111.029C152.29 109.461 153.737 108.375 154.461 107.229C154.642 107.048 155.124 107.048 155.486 106.927Z" fill="#13751E"/>
<path d="M144.571 364.979C151.265 368.357 151.385 368.418 150.24 374.209C149.094 380.12 148.43 386.212 145.536 391.762C143.305 383.136 143.666 374.39 144.571 364.979Z" fill="#13751E"/>
<path d="M147.948 408.29C148.008 408.35 148.008 408.411 148.068 408.411C148.008 408.411 147.948 408.41 147.887 408.35C147.827 408.29 147.707 408.23 147.646 408.169C147.707 408.23 147.827 408.23 147.948 408.29Z" fill="#F7D006"/>
<path d="M144.933 103.911C144.873 109.099 143.606 111.632 140.953 111.934C140.47 111.994 139.687 111.874 139.385 111.572C138.601 110.788 137.998 109.823 138.119 108.134C141.194 108.496 142.822 106.023 144.933 103.911Z" fill="#13751E"/>
<path d="M140.41 358.465C140.712 359.068 140.651 359.973 140.531 360.697C139.083 367.996 138.119 375.415 135.887 382.593C135.827 382.835 135.345 382.955 134.621 383.438C134.44 381.447 134.199 379.638 134.199 377.828C134.139 369.624 134.078 361.361 135.284 353.157C135.526 351.468 135.465 349.719 135.465 348.03C135.465 347.909 135.465 347.849 135.465 347.728L136.792 347.426C137.636 351.166 138.782 354.906 140.41 358.465Z" fill="#13751E"/>
<path d="M136.37 91.0029C135.887 92.6919 135.465 94.4412 134.802 96.9143C133.777 93.8983 134.38 92.0887 136.37 91.0029Z" fill="#13751E"/>
<path d="M113.636 181.967C116.53 185.526 116.53 189.688 116.349 194.694C116.229 200.485 114.661 206.759 112.249 212.851C111.404 214.962 110.379 217.073 108.811 218.762C104.952 222.985 98.5598 222.02 96.811 216.651C93.9767 207.844 92.7707 198.857 95.6049 189.627C97.1125 184.802 100.49 181.967 104.53 179.795C107.907 177.925 111.043 178.89 113.636 181.967ZM113.334 193.729C113.455 189.145 112.852 186.551 111.525 184.621C109.535 181.786 107.424 181.303 104.771 183.535C101.394 186.431 98.5598 189.989 97.2935 194.152C95.1225 201.39 97.0523 208.628 99.2835 215.565C100.309 218.762 103.927 219.245 106.218 216.711C107.364 215.445 108.148 213.876 108.872 212.308C111.706 206.216 112.852 199.641 113.334 193.729Z" fill="black"/>
<path d="M111.525 184.621C112.852 186.551 113.455 189.084 113.334 193.729C112.912 199.64 111.706 206.215 108.872 212.368C108.148 213.936 107.364 215.505 106.218 216.772C103.927 219.305 100.309 218.883 99.2835 215.625C97.0522 208.689 95.1225 201.51 97.2934 194.212C98.5598 189.989 101.394 186.43 104.771 183.595C107.424 181.303 109.535 181.786 111.525 184.621Z" fill="#FFF0A3"/>
</svg>
