<svg width="100" height="100" viewBox="0 0 600 600" fill="none" xmlns="http://www.w3.org/2000/svg">
<path d="M515.449 302.268C518.014 310.749 517.124 319.02 514.769 327.292C513.303 332.527 511.681 337.762 509.954 342.944C507.703 349.75 503.934 355.456 497.811 359.487C493.1 362.576 488.494 365.822 483.784 368.963C476.666 373.727 468.762 375.925 460.283 376.187C458.975 376.24 457.352 376.606 456.358 376.03C452.223 373.674 450.287 376.554 448.455 379.171C445.419 383.464 441.755 386.71 436.626 388.49C432.701 389.851 429.351 392.364 426.001 394.876C416.214 402.258 405.118 407.022 393.341 410.32C390.41 411.105 387.427 411.158 384.444 411.105C379.471 411.105 374.447 411.158 369.474 410.791C357.96 409.954 347.492 406.027 338.071 399.379C329.121 393.044 320.799 385.924 314.675 376.606C311.744 372.104 309.336 367.497 308.08 362.21C306.719 356.399 304.992 350.692 303.37 344.567C300.491 345.562 299.078 347.865 297.194 349.541C287.93 357.864 279.346 366.921 269.349 374.303C265.947 376.815 262.074 378.229 257.991 379.119C248.78 381.161 239.83 384.302 230.356 385.453C216.381 387.129 202.878 385.453 189.741 380.637C186.077 379.276 183.303 376.554 180.32 374.198C170.899 366.712 163.257 358.022 160.692 345.719C160.274 343.625 159.541 341.531 158.703 339.542C155.354 331.741 154.255 323.627 154.202 315.251C154.15 311.272 154.045 311.063 149.91 311.168C140.594 311.482 131.33 311.01 122.223 308.969C114.006 307.084 106.469 303.838 100.397 297.713C92.9128 290.175 87.7312 281.17 83.6487 271.433C81.9215 267.35 81.6075 263.057 82.4449 258.712C83.6487 252.482 85.4806 246.462 88.3593 240.808C89.0397 239.395 89.4584 238.086 89.3537 236.515C89.249 234.212 89.249 231.856 89.092 229.553C88.2022 215.889 93.6456 205.157 103.904 196.362C111.703 189.714 120.548 184.793 129.655 180.447C137.925 176.469 146.927 176.05 155.982 177.725C156.924 177.882 157.866 178.353 158.913 177.935C159.698 177.411 159.332 176.731 159.07 176.207C155.144 167.569 155.301 158.512 157.971 149.875C161.216 139.404 162.838 128.987 162.42 118.045C162.158 111.554 163.623 105.167 165.874 99.042C166.293 97.9426 166.921 96.8433 166.921 95.7439C166.868 86.9489 173.149 82.9179 179.587 79.4104C187.228 75.2747 195.707 73.1807 204.134 71.5054C208.688 70.6155 213.346 70.1967 217.952 69.6208C228.734 68.312 238.155 72.6572 247.419 77.1593C254.014 80.3527 259.509 85.2737 265.528 89.4094C273.536 94.8539 279.817 101.712 284.266 110.35C285.993 113.7 288.924 116.422 290.39 119.982C290.704 120.768 291.489 121.291 292.431 121.134C293.478 120.977 293.425 119.982 293.582 119.197C295.571 106.842 302.532 97.5761 311.901 89.9329C326.661 77.8922 344.037 71.5055 362.461 67.7362C366.648 66.8986 371.045 67.108 375.389 67.0033C377.901 66.9509 380.361 67.5268 382.612 68.6785C387.165 71.0343 391.771 73.3377 396.325 75.7458C398.994 77.1593 401.506 78.7822 403.547 80.9809C407.682 85.3784 412.55 88.8336 417.679 91.9223C423.855 95.6915 427.414 101.188 429.403 107.994C431.915 116.789 434.114 125.636 434.009 134.902C433.957 137.049 434.846 137.834 436.992 138.514C453.793 144.011 465.936 154.167 470.28 172.124C471.484 177.097 472.845 182.018 473.264 187.201C473.996 195.786 471.275 203.639 468.762 211.492C465.57 221.595 461.697 231.542 458.242 241.593C456.829 246.252 453.95 249.551 449.868 252.639C459.812 253.477 468.187 257.351 477.084 258.974C480.853 259.654 484.36 261.382 487.552 263.476C493.153 267.088 498.648 270.805 503.987 274.731C509.378 278.762 512.728 284.05 513.356 291.012C513.722 294.782 514.35 298.603 515.449 302.268ZM510.896 328.234C513.251 321.428 514.821 314.518 513.199 307.241C511.838 301.064 510.372 294.939 509.273 288.761C508.436 284.102 506.185 280.438 502.521 277.506C498.386 274.155 493.781 271.486 489.436 268.397C484.045 264.575 478.131 262.167 471.746 260.806C467.873 259.968 463.895 259.183 460.231 257.717C454.788 255.571 449.449 255.728 444.163 257.456C439.034 259.078 433.957 260.283 428.566 260.283C424.902 260.387 421.604 261.487 418.255 264.261C426.158 267.873 431.758 273.266 437.202 278.867C442.331 284.155 446.413 290.175 450.444 296.248C453.636 301.011 456.044 306.037 457.3 311.586C458.713 317.764 459.603 323.993 460.179 330.276C460.859 337.709 461.958 345.143 460.336 352.629C459.08 358.336 457.248 363.832 455.363 369.329C454.16 372.889 454.369 373.57 458.033 373.517C465.099 373.465 471.955 372.313 478.131 368.701C485.302 364.513 492.21 359.854 498.648 354.619C502.417 351.582 506.028 347.918 505.4 342.107C505.295 341.06 505.976 339.908 506.447 338.809C507.912 335.301 509.639 331.846 510.896 328.234ZM465.622 211.439C470.699 197.147 470.333 182.751 466.198 168.354C465.674 166.575 464.994 164.899 464.104 163.329C458.713 154.167 450.915 147.623 441.598 142.807C440.447 142.231 439.138 141.813 437.83 141.603C434.428 141.027 433.852 141.446 432.91 144.744C432.386 146.524 432.072 148.304 431.549 150.032C429.665 155.843 428.932 162.177 424.693 166.993C418.673 173.799 413.806 181.756 405.484 186.258C405.17 186.415 404.961 186.625 404.699 186.834C402.867 188.3 402.291 189.766 404.071 191.808C406.06 194.059 407.525 196.676 408.467 199.556C412.236 210.602 414.853 221.909 415.324 233.584C415.481 237.458 415.114 241.227 413.858 244.891C412.811 247.771 412.34 251.226 408.363 251.802C407.892 251.854 407.473 252.692 407.159 253.267C405.641 255.833 404.228 258.45 402.501 261.487C405.746 262.848 408.729 263.109 411.66 263.371C413.283 263.528 414.539 262.952 415.795 262.01C420.505 258.45 425.844 257.037 431.654 257.141C435.422 257.194 438.877 256.147 441.965 254C444.424 252.273 446.675 250.283 449.187 248.713C452.485 246.619 454.317 243.635 455.521 240.075C458.87 230.495 462.272 220.967 465.622 211.439ZM457.405 350.326C458.556 343.992 457.457 337.709 456.986 331.48C455.991 317.397 452.904 304.048 444.268 292.321C438.301 284.207 431.549 277.035 423.855 270.648C421.919 269.025 419.668 267.873 417.208 267.402C412.183 266.408 407.107 265.518 402.082 264.523C400.564 264.209 399.151 264.156 397.842 265.256C394.388 268.083 390.358 270.281 387.322 273.58C384.287 276.825 380.623 278.972 376.54 280.49C362.042 285.934 347.283 289.232 331.685 285.83C329.382 285.306 327.446 285.882 325.771 287.557C318.757 294.52 312.791 302.32 308.447 311.115C303.108 321.899 303.841 333.364 306.615 344.672C308.185 350.954 310.488 357.027 312.006 363.309C313.681 370.01 317.344 375.402 321.688 380.48C322.421 381.37 323.311 382.155 324.044 383.045C331.319 392.207 340.635 398.646 351.26 403.305C359.844 407.022 368.846 408.278 378.11 407.859C383.083 407.912 388.107 408.435 392.975 407.127C404.123 404.038 414.591 399.483 423.855 392.521C427.624 389.694 431.497 387.39 435.684 385.296C443.273 381.527 448.559 375.297 452.171 367.916C454.84 362.471 456.306 356.399 457.405 350.326ZM429.769 141.446C430.816 137.153 430.921 132.808 430.188 128.568C429.089 121.867 427.676 115.218 426.053 108.57C424.64 102.707 421.29 98.0997 415.952 94.9586C410.666 91.8176 405.746 88.153 401.454 83.7032C398.785 80.8763 395.435 78.9916 391.928 77.4734C389.154 76.3217 386.485 75.0129 383.972 73.39C380.623 71.1913 377.064 70.406 373.086 70.5631C350.423 71.5054 330.482 79.5151 312.686 93.3357C306.667 97.9949 302.271 104.015 298.973 110.821C296.461 116.004 295.1 121.396 297.455 127.154C297.822 127.992 297.717 129.091 297.665 130.086C297.194 139.509 297.979 148.828 300.386 158.094C301.014 157.989 301.538 158.041 301.957 157.884C312.267 153.644 323.259 153.068 334.145 152.492C339.955 152.178 345.66 153.749 351.417 154.377C355.5 154.796 359.059 156.314 362.147 159.141C365.34 162.072 369.003 164.271 372.824 166.365C378.634 169.506 384.915 171.862 390.044 176.207C393.027 178.72 395.225 181.756 397.685 184.688C398.994 186.258 399.884 186.311 401.768 185.159C409.252 180.5 414.643 173.747 420.296 167.255C423.436 163.643 425.582 159.664 426.629 155.005C427.624 150.45 428.67 145.948 429.769 141.446ZM409.619 241.646C412.131 240.18 412.183 237.981 412.131 235.625C411.922 228.82 410.561 222.171 409.305 215.523C407.107 204.11 403.076 194.111 394.65 185.735C389.52 180.657 384.653 175.684 378.006 172.595C371.725 169.663 365.34 166.732 360.263 161.706C357.698 159.141 354.505 158.041 350.999 157.308C337.286 154.272 323.625 155.371 309.964 157.675C307.819 158.041 305.777 158.722 303.841 159.769C298.869 162.386 293.896 165.161 289.395 168.564C282.853 173.485 276.991 179.034 273.85 186.991C270.029 196.572 267.936 206.571 267.831 217.407C267.36 226.569 270.762 235.259 274.374 243.844C276.206 248.189 277.776 252.953 281.806 255.99C290.704 262.691 299.654 269.182 308.656 275.778C309.336 276.249 310.122 276.511 310.907 276.878C321.217 281.537 332.209 283.16 343.305 283.945C354.296 284.678 364.607 281.275 374.865 277.715C379 276.302 382.664 274.103 385.595 270.753C387.217 268.868 389.416 267.612 391.3 265.989C396.01 262.01 401.297 258.555 403.861 252.535C404.699 250.545 405.536 248.556 406.426 246.567C407.264 244.734 407.892 242.64 409.619 241.646ZM307.243 306.09C312.948 298.603 317.972 291.431 324.881 284.573C313.785 282.322 304.574 278.082 296.67 270.857C297.979 277.087 301.59 282.218 303.422 288.028C305.202 293.787 305.516 299.86 307.243 306.09ZM304.102 313.89C304.521 312.633 304.783 311.325 304.573 309.963C302.585 298.551 300.962 287.139 295.466 276.511C292.326 270.439 288.558 265.36 283.585 260.963C278.98 256.88 274.269 252.953 271.966 246.933C271.129 244.787 269.297 243.111 266.889 242.536C265.842 242.274 265.057 241.907 264.429 241.07C262.65 238.557 259.98 237.772 257.206 237.091C251.135 235.521 245.064 235.049 239.882 235.311C235.433 235.311 231.926 235.049 228.472 235.363C212.142 236.934 197.644 243.373 184.873 253.32C173.673 262.01 165.403 273.213 160.431 286.667C157.866 293.525 155.929 300.436 156.348 308.026C156.61 312.633 157.29 317.293 157.133 321.899C156.976 326.873 158.075 331.427 159.855 335.929C161.006 338.861 162.42 341.74 163.1 344.829C165.508 355.666 172.207 363.466 180.424 370.219C184.245 373.36 187.961 376.815 192.829 378.438C205.129 382.469 217.638 383.987 230.618 382.312C240.562 381.056 249.931 377.548 259.666 375.559C262.911 374.878 265.895 373.256 268.512 371.109C279.765 362.053 290.232 352.158 300.491 342.002C301.904 340.589 302.271 339.018 302.061 337.029C301.171 329.176 301.747 321.428 304.102 313.89ZM297.926 159.298C295.048 155.738 293.53 152.178 293.216 148.042C293.007 145.268 292.326 142.441 291.332 139.823C289.552 135.112 288.61 130.295 288.034 125.322C287.72 122.495 286.935 119.773 285.156 117.469C282.591 114.171 280.497 110.612 278.404 107.052C276.729 104.172 274.897 101.345 272.332 99.199C263.853 92.2364 255.479 85.1166 245.796 79.9339C238.94 76.2693 231.717 72.8142 223.761 72.7619C209.159 72.6572 195.079 75.3794 181.628 81.295C178.226 82.7608 175.243 84.8549 172.835 87.6818C172.207 88.4148 171.108 89.2524 171.684 90.2471C172.887 92.184 171.631 93.3881 170.689 94.6969C169.485 96.3197 168.805 98.2044 168.072 100.037C165.298 107.313 164.408 114.904 164.88 122.547C165.351 130.819 164.461 138.724 161.477 146.524C158.965 153.173 158.546 160.188 159.332 167.15C160.117 174.375 163.048 180.552 170.532 183.432C173.045 184.426 175.033 186.206 177.127 187.829C185.397 194.216 193.614 200.655 203.715 204.162C206.96 205.262 210.31 206.937 212.77 209.24C216.643 212.905 220.935 213.795 225.96 213.376C229.1 213.114 232.24 213.219 235.433 213.062C239.934 212.905 244.226 211.963 248.413 210.026C252.286 208.246 256.316 206.571 260.713 206.256C265.947 205.942 265.895 205.838 266.941 200.603C269.035 189.609 273.17 179.61 281.754 171.967C282.643 171.181 283.481 170.396 283.795 169.192C284.58 166.313 286.883 165.004 289.343 163.905C292.169 162.544 294.995 161.235 297.926 159.298ZM268.564 238.766C268.041 236.568 267.517 234.317 266.941 232.118C265.424 226.15 264.586 220.129 265.11 213.9C265.528 209.345 264.9 208.822 260.294 209.188C259.143 209.293 257.939 209.24 256.997 210.078C254.903 211.91 252.234 212.434 249.722 213.114C241.243 215.418 235.799 221.019 232.345 228.872C231.351 231.175 231.56 231.856 234.177 231.961C238.155 232.17 242.133 231.908 246.11 232.17C253.857 232.798 261.707 233.322 268.564 238.766ZM237.788 216.098C231.141 215.47 224.442 215.994 221.72 217.25C224.075 220.601 226.64 223.794 228.367 227.877C231.612 223.794 234.648 220.025 237.788 216.098ZM220.098 233.427C226.274 232.065 226.64 231.542 223.657 225.783C223.343 225.207 223.029 224.632 222.61 224.056C217.271 216.674 210.886 210.235 202.302 207.042C192.41 203.377 184.14 197.462 176.08 191.022C170.794 186.782 164.618 184.164 158.494 182.018C148.445 178.458 138.186 179.715 128.556 184.688C126.358 185.84 124.212 187.096 122.013 188.3C112.174 193.692 103.014 199.765 96.5766 209.345C94.0643 213.062 92.6511 216.936 92.0231 221.281C91.866 222.433 91.6567 223.585 93.1745 224.16C96.4719 225.417 97.3093 228.191 97.3093 231.385C97.3093 232.746 97.2046 233.845 99.2982 233.95C101.235 234.107 100.764 235.73 99.5075 236.201C97.1522 237.091 95.8438 238.871 94.5876 240.808C93.0698 243.164 92.7034 246.567 88.9873 246.985C88.6733 247.038 88.4115 247.771 88.2545 248.189C85.2712 256.304 83.073 264.471 87.4172 272.742C90.0865 277.872 92.6511 283.16 96.0008 287.819C100.24 293.787 105.317 298.97 112.226 302.163C121.909 306.613 132.01 307.712 142.374 308.026C144.362 308.026 146.351 308.026 148.34 308.026C148.654 308.026 149.021 308.026 149.335 308.026C153.47 307.817 153.941 307.451 154.045 303.42C154.098 300.907 154.255 298.446 154.883 296.038C158.128 283.16 163.466 271.381 172.364 261.225C185.187 246.514 201.255 237.615 220.098 233.427Z" fill="black"/>
<path d="M513.269 307.035C514.898 314.314 513.321 321.227 510.957 328.035C509.696 331.649 507.962 335.105 506.49 338.614C506.018 339.714 505.334 340.866 505.44 341.913C506.07 347.726 502.445 351.392 498.661 354.43C492.198 359.667 485.262 364.328 478.063 368.517C471.863 372.131 464.979 373.283 457.886 373.335C454.207 373.388 453.997 372.707 455.206 369.146C457.097 363.647 458.937 358.148 460.198 352.44C461.827 344.951 460.723 337.514 460.04 330.078C459.462 323.793 458.569 317.561 457.15 311.382C455.889 305.83 453.472 300.803 450.266 296.037C446.22 289.962 442.122 283.94 436.972 278.65C431.508 273.047 425.885 267.653 417.951 264.039C421.314 261.264 424.624 260.164 428.302 260.059C433.715 260.059 438.811 258.855 443.961 257.231C449.268 255.503 454.628 255.346 460.093 257.493C463.771 258.959 467.764 259.745 471.653 260.583C478.063 261.944 484.001 264.353 489.413 268.176C493.774 271.266 498.398 273.937 502.55 277.289C506.228 280.222 508.487 283.887 509.328 288.548C510.432 294.728 511.903 300.855 513.269 307.035Z" fill="#54466F"/>
<path d="M465.863 168.401C469.968 182.738 470.331 197.076 465.292 211.31C461.967 220.799 458.59 230.288 455.264 239.829C454.07 243.375 452.251 246.347 448.978 248.432C446.484 249.996 444.25 251.977 441.808 253.698C438.743 255.836 435.314 256.878 431.573 256.826C425.806 256.722 420.506 258.13 415.83 261.675C414.583 262.614 413.337 263.187 411.726 263.031C408.816 262.77 405.855 262.509 402.634 261.154C404.348 258.13 405.751 255.523 407.258 252.968C407.569 252.395 407.985 251.56 408.453 251.508C412.401 250.935 412.869 247.494 413.908 244.626C415.155 240.976 415.519 237.222 415.363 233.364C414.895 221.738 412.297 210.476 408.557 199.475C407.621 196.607 406.167 194 404.192 191.758C402.426 189.725 402.997 188.265 404.816 186.805C405.076 186.597 405.283 186.388 405.595 186.232C413.856 181.748 418.688 173.823 424.663 167.045C428.871 162.248 429.599 155.94 431.469 150.152C431.989 148.432 432.3 146.659 432.82 144.886C433.755 141.602 434.326 141.185 437.704 141.758C439.002 141.967 440.301 142.384 441.444 142.957C450.692 147.754 458.434 154.271 463.785 163.395C464.668 164.959 465.344 166.628 465.863 168.401Z" fill="#54466F"/>
<path d="M456.849 331.37C457.319 337.613 458.417 343.908 457.267 350.256C456.17 356.341 454.707 362.426 452.043 367.882C448.437 375.279 443.16 381.522 435.585 385.299C431.405 387.397 427.539 389.705 423.777 392.538C414.529 399.515 404.079 404.079 392.951 407.174C388.092 408.486 383.076 407.961 378.112 407.909C368.865 408.329 359.878 407.07 351.309 403.345C340.703 398.676 331.403 392.223 324.141 383.043C323.409 382.151 322.521 381.364 321.79 380.472C317.453 375.384 313.796 369.98 312.124 363.266C310.609 356.97 308.31 350.885 306.742 344.59C303.973 333.259 303.242 321.77 308.571 310.963C312.908 302.15 318.864 294.333 325.865 287.356C327.537 285.678 329.47 285.1 331.769 285.625C347.339 289.035 362.072 285.73 376.545 280.274C380.62 278.753 384.278 276.602 387.308 273.349C390.338 270.045 394.361 267.841 397.81 265.008C399.116 263.907 400.527 263.959 402.042 264.274C407.057 265.271 412.125 266.162 417.141 267.159C419.597 267.631 421.844 268.785 423.777 270.412C431.457 276.812 438.197 283.999 444.153 292.13C452.774 303.881 455.857 317.258 456.849 331.37ZM326.858 371.502C328.007 370.925 327.641 369.875 327.223 368.931C327.014 368.459 326.753 368.039 326.544 367.567C324.245 362.584 321.476 357.757 323.2 351.777C322.991 351.095 322.887 350.256 322.573 349.521C321.006 345.744 319.491 341.862 317.767 338.137C317.035 336.511 316.669 333.468 314.214 334.413C312.228 335.2 313.639 337.718 314.266 339.291C315.677 342.701 316.513 346.636 316.147 349.888C315.833 352.931 316.147 354.662 318.185 356.498C318.446 356.761 318.498 357.443 318.55 357.915C319.177 362.846 323.043 366.203 324.82 370.558C325.133 371.292 325.969 371.974 326.858 371.502Z" fill="#54466F"/>
<path d="M430.752 128.076C431.486 132.316 431.381 136.66 430.332 140.952C429.23 145.453 428.18 149.954 427.183 154.508C426.133 159.166 423.981 163.144 420.833 166.756C415.165 173.246 409.759 179.998 402.254 184.656C400.365 185.808 399.473 185.755 398.161 184.185C395.694 181.254 393.49 178.218 390.498 175.706C385.355 171.362 379.057 169.006 373.232 165.866C369.401 163.772 365.727 161.574 362.526 158.643C359.429 155.817 355.86 154.299 351.767 153.88C345.994 153.252 340.273 151.682 334.448 151.996C323.532 152.571 312.511 153.147 302.172 157.387C301.752 157.544 301.227 157.491 300.597 157.596C298.183 148.332 297.396 139.015 297.868 129.594C297.921 128.599 298.026 127.5 297.658 126.663C295.297 120.905 296.661 115.514 299.18 110.333C302.487 103.528 306.895 97.5091 312.93 92.8508C330.774 79.0329 350.77 71.0248 373.494 70.0827C377.483 69.9257 381.051 70.7108 384.41 72.9091C386.929 74.5317 389.606 75.8402 392.388 76.9917C395.904 78.5096 399.263 80.3938 401.939 83.2202C406.243 87.6692 411.176 91.333 416.477 94.4734C421.83 97.6139 425.189 102.22 426.606 108.082C428.232 114.729 429.649 121.376 430.752 128.076Z" fill="#54466F"/>
<path d="M411.814 236.054C411.866 238.411 411.814 240.611 409.308 242.077C407.585 243.073 406.959 245.168 406.123 247.001C405.236 248.991 404.401 250.982 403.565 252.972C401.007 258.996 395.735 262.453 391.037 266.434C389.157 268.057 386.965 269.314 385.346 271.2C382.423 274.552 378.769 276.752 374.645 278.166C364.413 281.728 354.129 285.133 343.166 284.4C332.099 283.614 321.136 281.99 310.852 277.328C310.069 276.962 309.286 276.7 308.607 276.228C299.628 269.629 290.702 263.134 281.827 256.429C277.807 253.391 276.241 248.625 274.414 244.277C270.812 235.687 267.419 226.992 267.889 217.826C267.993 206.984 270.081 196.979 273.892 187.394C277.024 179.432 282.871 173.88 289.396 168.956C293.886 165.552 298.845 162.776 303.805 160.157C305.736 159.109 307.772 158.428 309.912 158.062C323.538 155.757 337.163 154.657 350.84 157.695C354.338 158.428 357.522 159.528 360.08 162.095C365.144 167.123 371.513 170.056 377.777 172.99C384.407 176.08 389.262 181.056 394.378 186.137C402.782 194.517 406.802 204.522 408.995 215.94C410.247 222.592 411.605 229.245 411.814 236.054ZM380.805 255.644C381.483 255.12 382.632 254.544 381.901 253.286C381.17 252.92 380.596 253.286 380.074 253.653C369.477 261.667 357.783 267.167 344.68 269.576C341.965 270.1 339.303 271.252 336.693 272.3C331.734 274.29 326.722 275.862 321.293 275.757C320.353 275.757 319.257 275.547 318.317 277.276C324.164 278.114 329.489 277.276 334.605 275.181C339.825 273.033 345.15 271.2 350.736 270.257C362.22 268.372 371.774 262.505 380.805 255.644Z" fill="#82769B"/>
<path d="M382.996 252.997C383.733 254.257 382.575 254.834 381.891 255.359C372.787 262.233 363.157 268.11 351.58 269.999C345.949 270.943 340.582 272.78 335.32 274.931C330.163 277.03 324.795 277.87 318.901 277.03C319.849 275.299 320.954 275.509 321.901 275.509C327.374 275.614 332.425 274.039 337.425 272.045C340.056 270.996 342.739 269.841 345.476 269.317C358.684 266.903 370.472 261.393 381.154 253.365C381.68 252.997 382.259 252.63 382.996 252.997Z" fill="black"/>
<path d="M348.206 472.875C349.984 489.511 344.024 503.261 331.372 514.019C329.594 515.541 327.973 517.168 326.352 518.848C320.654 524.83 314.275 529.449 305.544 530.446C299.532 531.128 293.572 532.807 287.455 532.125C274.07 534.382 262.307 528.609 250.125 525.04C246.152 523.886 243.172 520.527 239.669 518.375C226.598 510.398 216.456 499.535 209.554 485.838C204.954 476.706 202.705 466.788 201.503 456.607C201.346 455.242 201.817 453.982 202.235 452.723C206.208 441.387 210.652 430.314 217.031 420.081C221.266 413.363 226.075 407.328 233.5 403.969C234.231 403.654 234.963 403.182 235.643 402.657C240.453 399.141 245.786 397.304 251.85 397.147C259.797 396.937 267.535 394.68 275.587 394.785C281.181 394.838 286.723 395.415 291.585 397.777C300.63 402.185 310.302 405.491 318.406 411.736C320.497 413.363 322.536 415.095 324.313 417.037C327.346 420.343 330.221 423.807 333.097 427.218C334.299 428.635 335.24 430.209 335.92 431.888C341.41 445.113 346.69 458.496 348.206 472.875ZM330.535 510.293C341.828 500.532 346.533 487.99 345.017 473.295C343.553 459.231 338.43 446.215 333.045 433.305C332.626 432.256 332.103 431.049 331.319 430.314C328.025 427.218 325.725 423.282 322.693 419.976C320.34 417.404 317.883 414.833 314.746 413.258C312.655 412.209 310.877 409.112 307.845 411.684C307.374 412.104 306.538 411.421 306.172 410.897C303.244 406.226 298.12 404.599 293.624 402.237C288.605 399.613 283.167 398.196 277.416 398.091C270.568 397.987 263.875 399.456 257.131 399.876C248.609 400.401 241.028 402.552 233.813 407.171C228.69 410.477 224.193 414.255 220.847 419.293C214.416 428.845 209.659 439.288 205.476 450.047C204.692 452.093 204.117 454.14 204.326 456.397C204.797 461.54 205.267 466.683 206.888 471.616C213.057 490.561 224.298 505.465 241.394 515.751C244.531 517.641 247.302 520.422 250.648 521.524C262.202 525.46 273.6 530.603 286.827 528.976C292.683 529.501 298.852 528.032 305.074 527.244C313.073 526.195 318.928 522.101 324.104 516.539C326.143 514.334 328.287 512.288 330.535 510.293Z" fill="black"/>
<path d="M345.174 473.792C346.69 488.431 341.987 500.926 330.702 510.651C328.455 512.637 326.313 514.676 324.276 516.872C319.103 522.414 313.252 526.492 305.258 527.537C299.041 528.322 292.875 529.786 287.024 529.263C273.805 530.884 262.416 525.76 250.869 521.839C247.525 520.741 244.756 517.97 241.621 516.088C224.537 505.841 213.304 490.992 207.138 472.119C205.519 467.204 205.049 462.08 204.578 456.957C204.369 454.709 204.944 452.67 205.728 450.631C209.908 439.913 214.662 429.509 221.088 419.993C224.432 414.974 228.925 411.21 234.046 407.916C241.256 403.316 248.831 401.172 257.348 400.649C264.087 400.231 270.775 398.767 277.619 398.872C283.367 398.976 288.8 400.388 293.816 403.002C298.309 405.354 303.429 406.975 306.355 411.628C306.721 412.151 307.557 412.831 308.027 412.413C311.057 409.851 312.834 412.935 314.924 413.981C318.058 415.549 320.514 418.111 322.865 420.673C325.895 423.967 328.194 427.888 331.486 430.973C332.269 431.705 332.792 432.907 333.21 433.953C338.591 446.814 343.711 459.78 345.174 473.792ZM235.195 442.161C241.569 438.606 244.704 433.169 244.495 425.797C244.443 424.281 244.443 422.817 244.338 421.3C244.234 420.046 243.711 419 242.248 419C240.89 419.052 240.106 419.837 239.793 421.091C239.636 421.719 239.531 422.398 239.427 423.026C238.33 429.3 235.247 432.593 229.03 434.11C228.142 434.371 227.097 434.842 227.463 435.678C228.978 439.181 226 439.913 224.171 441.22C221.611 443.102 218.476 443.834 215.446 444.671C214.349 444.984 213.042 445.612 213.931 447.128C215.341 449.585 219.051 450.735 221.663 449.428C226.209 447.128 230.702 444.671 235.195 442.161Z" fill="#82769B"/>
<path d="M326.669 369.564C327.083 370.517 327.446 371.577 326.307 372.159C325.428 372.636 324.6 371.948 324.289 371.206C322.53 366.81 318.702 363.421 318.081 358.442C318.029 357.965 317.977 357.277 317.719 357.012C315.701 355.158 315.39 353.411 315.701 350.339C316.063 347.055 315.235 343.083 313.838 339.64C313.217 338.052 311.82 335.509 313.786 334.715C316.218 333.762 316.58 336.833 317.305 338.475C319.012 342.236 320.512 346.155 322.065 349.968C322.375 350.71 322.479 351.557 322.686 352.246C320.978 358.283 323.72 363.156 325.997 368.187C326.204 368.664 326.462 369.087 326.669 369.564Z" fill="black"/>
<path d="M325.028 283.72C318.026 290.478 312.934 297.546 307.152 304.923C305.401 298.784 305.083 292.8 303.279 287.125C301.423 281.399 297.763 276.343 296.437 270.204C304.446 277.323 313.782 281.502 325.028 283.72Z" fill="#2C1F46"/>
<path d="M304.532 310.386C304.741 311.75 304.48 313.061 304.062 314.32C301.711 321.873 301.137 329.636 302.025 337.504C302.234 339.497 301.868 341.071 300.458 342.487C290.219 352.663 279.772 362.577 268.541 371.651C265.93 373.802 262.952 375.428 259.713 376.11C249.997 378.103 240.647 381.617 230.722 382.876C217.768 384.555 205.283 383.033 193.008 378.995C188.15 377.369 184.441 373.907 180.628 370.76C172.427 363.993 165.741 356.178 163.338 345.32C162.659 342.225 161.248 339.34 160.099 336.403C158.323 331.892 157.226 327.328 157.383 322.345C157.539 317.73 156.86 313.061 156.599 308.445C156.181 300.84 158.114 293.916 160.674 287.045C165.636 273.564 173.889 262.339 185.068 253.632C197.814 243.666 212.283 237.214 228.581 235.641C232.028 235.326 235.528 235.588 239.968 235.588C245.14 235.326 251.199 235.798 257.258 237.372C260.027 238.054 262.691 238.84 264.467 241.358C265.094 242.197 265.877 242.565 266.922 242.827C269.325 243.404 271.153 245.082 271.989 247.233C274.287 253.265 278.989 257.199 283.585 261.29C288.548 265.696 292.309 270.784 295.443 276.869C300.928 287.517 302.547 298.951 304.532 310.386ZM264.728 345.792C265.512 344.585 264.519 343.904 263.631 343.484C258.251 341.019 253.602 336.822 247.281 336.613C246.498 336.613 245.557 336.35 244.983 335.878C243.155 334.357 241.117 333.99 238.662 334.672C235.946 334.095 233.752 335.983 231.193 336.927C221.477 340.599 215.313 347.995 209.828 356.23C209.149 357.279 208.731 358.485 210.194 359.167C211.395 359.744 211.97 358.695 212.44 357.804C214.425 354.132 216.984 350.88 219.857 347.837C223.671 343.851 228.163 342.12 233.7 342.854C238.924 343.536 244.304 344.166 249.057 340.809C250.729 339.655 252.191 340.547 253.654 341.333C256.579 342.855 259.504 344.428 262.482 345.897C263.213 346.264 264.154 346.684 264.728 345.792Z" fill="#54466F"/>
<path d="M292.75 148.519C293.064 152.66 294.581 156.225 297.458 159.79C294.528 161.73 291.704 163.041 288.879 164.404C286.42 165.505 284.119 166.816 283.334 169.699C283.02 170.905 282.183 171.691 281.294 172.478C272.715 180.132 268.583 190.145 266.49 201.155C265.444 206.398 265.497 206.502 260.266 206.817C255.872 207.132 251.844 208.809 247.973 210.592C243.788 212.531 239.499 213.475 235 213.632C231.809 213.79 228.671 213.685 225.532 213.947C220.51 214.366 216.221 213.475 212.35 209.805C209.892 207.498 206.544 205.821 203.3 204.72C193.205 201.207 184.992 194.759 176.727 188.363C174.635 186.738 172.647 184.955 170.136 183.959C162.656 181.076 159.727 174.889 158.942 167.654C158.157 160.682 158.576 153.657 161.087 146.998C164.068 139.187 164.958 131.271 164.487 122.987C164.016 115.333 164.905 107.731 167.678 100.444C168.41 98.6089 169.09 96.7216 170.293 95.0963C171.235 93.7857 172.49 92.5799 171.287 90.6401C170.712 89.644 171.81 88.8052 172.438 88.0712C174.844 85.2402 177.826 83.1431 181.226 81.6751C194.669 75.751 208.741 73.0248 223.335 73.1297C231.286 73.1821 238.505 76.6422 245.357 80.3121C255.035 85.5023 263.404 92.6323 271.878 99.605C274.442 101.754 276.272 104.586 277.946 107.469C280.039 111.034 282.131 114.599 284.694 117.902C286.473 120.209 287.257 122.935 287.571 125.766C288.147 130.746 289.088 135.569 290.867 140.288C291.861 142.909 292.541 145.74 292.75 148.519ZM192.734 142.752C192.42 139.397 192.106 135.622 191.478 131.847C191.06 129.173 189.909 126.867 186.98 125.871C184.155 124.927 183.214 125.504 183.58 128.44C183.894 130.904 184.783 133.263 185.097 135.727C185.777 140.969 185.62 145.95 180.023 148.886C178.715 149.567 177.407 150.668 177.669 152.346C177.93 154.024 177.564 155.229 176.518 156.435C175.995 157.064 175.786 157.956 176.623 158.637C177.407 159.214 178.192 158.899 178.924 158.48C180.18 157.746 181.383 156.75 182.743 156.278C191.374 153.132 192.106 151.455 192.734 142.752Z" fill="#54466F"/>
<path d="M267.244 231.914C267.82 234.109 268.343 236.355 268.866 238.549C262.011 233.116 254.162 232.593 246.418 231.967C242.441 231.705 238.464 231.967 234.487 231.758C231.871 231.653 231.662 230.974 232.656 228.675C236.109 220.838 241.551 215.248 250.028 212.949C252.54 212.27 255.209 211.748 257.302 209.919C258.244 209.083 259.447 209.136 260.599 209.031C265.203 208.665 265.831 209.188 265.413 213.733C264.889 219.95 265.727 225.958 267.244 231.914Z" fill="#2C1F46"/>
<path d="M263.392 342.479C264.285 342.89 265.284 343.559 264.496 344.742C263.917 345.616 262.971 345.205 262.235 344.845C259.239 343.404 256.295 341.861 253.351 340.369C251.879 339.598 250.407 338.723 248.724 339.855C243.941 343.147 238.526 342.53 233.269 341.861C227.696 341.141 223.175 342.839 219.338 346.748C216.446 349.731 213.87 352.921 211.872 356.522C211.399 357.396 210.821 358.425 209.612 357.859C208.14 357.19 208.561 356.007 209.244 354.978C214.764 346.902 220.967 339.649 230.745 336.049C233.321 335.123 235.529 333.271 238.263 333.837C240.734 333.168 242.784 333.528 244.624 335.02C245.202 335.483 246.149 335.74 246.937 335.74C253.298 335.946 257.977 340.061 263.392 342.479Z" fill="black"/>
<path d="M243.328 424.99C243.536 432.281 240.425 437.658 234.099 441.175C229.64 443.657 225.181 446.087 220.67 448.362C218.077 449.655 214.396 448.517 212.996 446.087C212.114 444.587 213.411 443.967 214.499 443.656C217.507 442.829 220.618 442.105 223.158 440.244C224.973 438.951 227.929 438.227 226.425 434.763C226.062 433.935 227.099 433.47 227.981 433.211C234.151 431.712 237.21 428.454 238.299 422.249C238.402 421.629 238.506 420.956 238.662 420.336C238.973 419.095 239.75 418.319 241.099 418.268C242.55 418.268 243.069 419.302 243.173 420.543C243.276 422.042 243.276 423.49 243.328 424.99Z" fill="black"/>
<path d="M224.157 226C227.15 231.74 226.782 232.262 220.588 233.619C201.689 237.794 185.573 246.666 172.712 261.331C163.788 271.455 158.433 283.197 155.179 296.035C154.549 298.436 154.391 300.888 154.339 303.393C154.234 307.412 153.761 307.777 149.614 307.986C149.299 307.986 148.932 307.986 148.617 307.986C146.622 307.986 144.627 307.986 142.632 307.986C132.238 307.673 122.106 306.577 112.395 302.141C105.465 298.958 100.373 293.791 96.1212 287.842C92.7615 283.197 90.1893 277.926 87.5121 272.812C83.1549 264.566 85.3597 256.425 88.3519 248.336C88.5094 247.919 88.772 247.188 89.0869 247.136C92.8141 246.718 93.1815 243.326 94.7039 240.978C95.9638 239.047 97.2761 237.272 99.6384 236.385C100.898 235.915 101.371 234.298 99.4285 234.141C97.3287 234.037 97.4336 232.941 97.4336 231.584C97.4336 228.401 96.5938 225.635 93.2865 224.382C91.7642 223.808 91.9742 222.66 92.1317 221.512C92.7616 217.18 94.179 213.318 96.6987 209.613C103.156 200.063 112.342 194.009 122.211 188.634C124.416 187.434 126.569 186.181 128.773 185.033C138.432 180.075 148.722 178.823 158.801 182.371C164.943 184.511 171.137 187.121 176.439 191.348C184.523 197.767 192.818 203.664 202.739 207.317C211.349 210.5 217.753 216.919 223.108 224.278C223.528 224.852 223.842 225.426 224.157 226Z" fill="#54466F"/>
<path d="M192.073 131.636C192.688 135.433 192.995 139.23 193.303 142.605C192.688 151.36 191.97 153.047 183.513 156.212C182.181 156.686 181.002 157.688 179.772 158.427C179.054 158.849 178.285 159.165 177.517 158.585C176.696 157.899 176.902 157.003 177.414 156.37C178.439 155.157 178.798 153.944 178.542 152.256C178.285 150.569 179.567 149.461 180.848 148.776C186.332 145.822 186.486 140.812 185.82 135.538C185.512 133.06 184.641 130.687 184.333 128.208C183.975 125.255 184.897 124.674 187.665 125.624C190.535 126.626 191.663 128.946 192.073 131.636Z" fill="black"/>
</svg>
